<svg width="24" height="24" viewBox="0 0 24 24" fill="none" xmlns="http://www.w3.org/2000/svg">
<path d="M12 21V13M19 8L13.1625 3.83034C12.6011 3.42938 12.3205 3.2289 12 3.2289C11.6795 3.2289 11.3989 3.42938 10.8375 3.83034L5 8V14.9708C5 15.4753 5 15.7276 5.11083 15.943C5.22166 16.1583 5.42695 16.305 5.83752 16.5982L12 21L18.1625 16.5982C18.573 16.305 18.7783 16.1583 18.8892 15.943C19 15.7276 19 15.4753 19 14.9708V8ZM12 13L5 8M12 13L19 8" stroke="#33363F" stroke-width="2" stroke-linejoin="round"/>
</svg>
