<svg width="24" height="24" viewBox="0 0 24 24" fill="none" xmlns="http://www.w3.org/2000/svg">
<path d="M11 13.5135V20.2293C10.6434 20.0289 10.2263 19.7336 9.6748 19.3397L6.6748 17.1961C5.85388 16.6097 5.44331 16.3162 5.22168 15.8856C5.00017 15.4549 5 14.9501 5 13.9412V10.0584C5 9.73716 5.00066 9.46707 5.00781 9.23419L11 13.5135ZM18.9912 9.23419C18.9984 9.46707 19 9.73715 19 10.0584V13.9412C19 14.9501 18.9998 15.4549 18.7783 15.8856C18.5567 16.3162 18.1461 16.6097 17.3252 17.1961L14.3252 19.3397C13.7737 19.7336 13.3566 20.0289 13 20.2293V13.5135L18.9912 9.23419ZM12 3.45782C12.6409 3.45782 13.2025 3.85903 14.3252 4.66095L17.3252 6.80353C17.6532 7.03779 17.9149 7.22621 18.126 7.39435L12 11.7713L5.87305 7.39435C6.08424 7.22608 6.34653 7.03801 6.6748 6.80353L9.6748 4.66095C10.7975 3.85903 11.3591 3.45782 12 3.45782Z" fill="#222222"/>
</svg>
