<svg width="24" height="24" viewBox="0 0 24 24" fill="none" xmlns="http://www.w3.org/2000/svg">
<path d="M5 4L3 6" stroke="#222222" stroke-width="2" stroke-linecap="round"/>
<path d="M19 4L21 6" stroke="#222222" stroke-width="2" stroke-linecap="round"/>
<path d="M12 4C16.4183 4 20 7.58172 20 12C20 16.4183 16.4183 20 12 20C7.58172 20 4 16.4183 4 12C4 7.58172 7.58172 4 12 4ZM14.625 8.71875C14.1937 8.37374 13.5638 8.44374 13.2188 8.875L11.791 10.6592L9.55469 9.16797C9.09516 8.86162 8.47432 8.98578 8.16797 9.44531C7.86162 9.90484 7.98578 10.5257 8.44531 10.832L11.2549 12.7051C11.7943 13.0645 12.5189 12.9515 12.9238 12.4453L14.7812 10.125C15.1263 9.69374 15.0563 9.06376 14.625 8.71875Z" fill="#222222"/>
</svg>
