<svg width="24" height="24" viewBox="0 0 24 24" fill="none" xmlns="http://www.w3.org/2000/svg">
<path d="M3 10C3 7.17157 3 5.75736 3.87868 4.87868C4.75736 4 6.17157 4 9 4H15C17.8284 4 19.2426 4 20.1213 4.87868C21 5.75736 21 7.17157 21 10C21 12.8284 21 14.2426 20.1213 15.1213C19.2426 16 17.8284 16 15 16H9C6.17157 16 4.75736 16 3.87868 15.1213C3 14.2426 3 12.8284 3 10Z" fill="#7E869E" fill-opacity="0.25"/>
<path d="M5.56738 12C6.26547 12 6.61475 11.9996 6.90918 12.0928C7.41949 12.2543 7.84358 12.6141 8.08691 13.0908C8.22727 13.366 8.28556 13.7114 8.40039 14.4004C8.42905 14.5723 8.44346 14.6588 8.47852 14.7275C8.53933 14.8465 8.6451 14.9362 8.77246 14.9766C8.84609 14.9999 8.93377 15 9.1084 15H14.8916C15.0662 15 15.1539 14.9999 15.2275 14.9766C15.3549 14.9362 15.4607 14.8465 15.5215 14.7275C15.5565 14.6588 15.5709 14.5723 15.5996 14.4004C15.7144 13.7114 15.7727 13.366 15.9131 13.0908C16.1564 12.6141 16.5805 12.2543 17.0908 12.0928C17.3853 11.9996 17.7352 12 18.4336 12H19.1445C19.9477 12 20.3497 12.0003 20.623 12.2178C20.6819 12.2647 20.7353 12.3181 20.7822 12.377C20.9997 12.6503 21 13.0523 21 13.8555V15C21 17.8284 20.9998 19.2424 20.1211 20.1211C19.2424 20.9998 17.8284 21 15 21H9C6.17157 21 4.75759 20.9998 3.87891 20.1211C3.00023 19.2424 3 17.8284 3 15V13.8555C3 13.0523 3.00029 12.6503 3.21777 12.377C3.26467 12.3181 3.31807 12.2647 3.37695 12.2178C3.65026 12.0003 4.05227 12 4.85547 12H5.56738ZM9.5 17C9.22386 17 9 17.2239 9 17.5C9 17.7761 9.22386 18 9.5 18H14.5C14.7761 18 15 17.7761 15 17.5C15 17.2239 14.7761 17 14.5 17H9.5Z" fill="#222222"/>
</svg>
