<svg width="24" height="24" viewBox="0 0 24 24" fill="none" xmlns="http://www.w3.org/2000/svg">
<path d="M3 11C3 11.9319 3.0001 12.3981 3.15234 12.7656C3.35533 13.2555 3.74453 13.6447 4.23438 13.8477C4.60192 13.9999 5.06812 14 6 14H6.67578C7.25657 14 7.54743 14.0001 7.7793 14.1338C7.83775 14.1675 7.89288 14.2072 7.94336 14.252C8.14351 14.4297 8.23525 14.7058 8.41895 15.2568L8.54395 15.6328C8.76388 16.2926 8.87394 16.6228 9.13574 16.8115C9.39762 17.0003 9.74576 17 10.4414 17H13.5586C14.2542 17 14.6024 17.0003 14.8643 16.8115C15.1261 16.6228 15.2361 16.2926 15.4561 15.6328L15.5811 15.2568C15.7647 14.7058 15.8565 14.4297 16.0566 14.252C16.1071 14.2072 16.1622 14.1675 16.2207 14.1338C16.4526 14.0001 16.7434 14 17.3242 14H18C18.9319 14 19.3981 13.9999 19.7656 13.8477C20.2555 13.6447 20.6447 13.2555 20.8477 12.7656C20.9999 12.3981 21 11.9319 21 11V16C21 18.8284 20.9998 20.2424 20.1211 21.1211C19.2424 21.9998 17.8284 22 15 22H9C6.17157 22 4.75759 21.9998 3.87891 21.1211C3.00023 20.2424 3 18.8284 3 16V11Z" fill="#222222"/>
<path d="M16 6H17C18.8856 6 19.8284 6 20.4142 6.58579C21 7.17157 21 8.11438 21 10V18C21 19.8856 21 20.8284 20.4142 21.4142C19.8284 22 18.8856 22 17 22H7C5.11438 22 4.17157 22 3.58579 21.4142C3 20.8284 3 19.8856 3 18V10C3 8.11438 3 7.17157 3.58579 6.58579C4.17157 6 5.11438 6 7 6H8" stroke="#222222" stroke-width="2"/>
<path d="M16 10L12 13L8 10M12 13L12 3" stroke="#222222" stroke-width="2"/>
</svg>
