<svg width="24" height="24" viewBox="0 0 24 24" fill="none" xmlns="http://www.w3.org/2000/svg">
<path d="M10 12L9.29289 11.2929L8.58579 12L9.29289 12.7071L10 12ZM20 13C20.5523 13 21 12.5523 21 12C21 11.4477 20.5523 11 20 11V12V13ZM16 6L15.2929 5.29289L9.29289 11.2929L10 12L10.7071 12.7071L16.7071 6.70711L16 6ZM10 12L9.29289 12.7071L15.2929 18.7071L16 18L16.7071 17.2929L10.7071 11.2929L10 12ZM10 12V13H20V12V11H10V12Z" fill="#33363F"/>
<path d="M4 5L4 19" stroke="#33363F" stroke-width="2"/>
</svg>
