<svg width="24" height="24" viewBox="0 0 24 24" fill="none" xmlns="http://www.w3.org/2000/svg">
<path d="M12 2C17.5228 2 22 6.47715 22 12C22 17.5228 17.5228 22 12 22C6.47715 22 2 17.5228 2 12C2 6.47715 6.47715 2 12 2ZM12 4C10.7923 4.00017 9.70993 5.07117 8.97656 6.76367C7.144 6.55253 5.67519 6.95401 5.07129 8C4.46753 9.04596 4.85409 10.5186 5.95312 12C4.85411 13.4814 4.46753 14.9541 5.07129 16C5.6752 17.046 7.14396 17.4465 8.97656 17.2354C9.70994 18.9283 10.7921 19.9998 12 20C13.2078 19.9998 14.2891 18.9282 15.0225 17.2354C16.8552 17.4466 18.3237 17.046 18.9277 16C19.5317 14.9539 19.1444 13.4817 18.0449 12C19.1444 10.5183 19.5317 9.04612 18.9277 8C18.3237 6.95404 16.8551 6.55244 15.0225 6.76367C14.2891 5.07131 13.2076 4.00019 12 4ZM11.999 16.4375C12.6848 16.7119 13.359 16.9201 14.0029 17.0625C13.9795 17.1121 13.9576 17.1619 13.9336 17.21C13.2631 18.5507 12.5217 18.9998 12 19C11.4783 18.9998 10.7369 18.5507 10.0664 17.21C10.0423 17.1618 10.0195 17.1122 9.99609 17.0625C10.6398 16.9201 11.3135 16.7117 11.999 16.4375ZM6.6123 12.7959C7.05765 13.2825 7.57565 13.7619 8.15625 14.2188C8.2615 14.9494 8.41772 15.637 8.61621 16.2656C8.5618 16.2701 8.50748 16.2761 8.4541 16.2793C6.95781 16.3689 6.19834 15.9517 5.9375 15.5C5.67676 15.0482 5.69478 14.1817 6.52051 12.9307C6.55005 12.8859 6.58112 12.8409 6.6123 12.7959ZM17.4785 12.9307C18.3044 14.1819 18.3223 15.0482 18.0615 15.5C17.8006 15.9517 17.0413 16.369 15.5449 16.2793C15.4915 16.2761 15.4373 16.2701 15.3828 16.2656C15.5814 15.6367 15.7375 14.9488 15.8428 14.2178C16.423 13.7612 16.9406 13.2822 17.3857 12.7959C17.4171 12.8411 17.4489 12.8858 17.4785 12.9307ZM9.3252 15.0518C9.54388 15.1927 9.76915 15.3306 10 15.4639C10.2304 15.5969 10.4614 15.7231 10.6924 15.8418C10.3241 15.9568 9.965 16.0496 9.61914 16.1201C9.50742 15.7855 9.40963 15.428 9.3252 15.0518ZM14.6738 15.0508C14.5893 15.4275 14.4908 15.7851 14.3789 16.1201C14.0331 16.0496 13.674 15.9569 13.3057 15.8418C13.537 15.7229 13.7693 15.5971 14 15.4639C14.2308 15.3306 14.4552 15.1917 14.6738 15.0508ZM11.999 8.64551C12.4935 8.86022 12.9973 9.1121 13.5 9.40234C14.0024 9.69243 14.4713 10.0025 14.9043 10.3232C14.9655 10.8587 15 11.4197 15 12C15 12.5799 14.9655 13.1406 14.9043 13.6758C14.4712 13.9966 14.0026 14.3075 13.5 14.5977C12.9974 14.8878 12.4934 15.1388 11.999 15.3535C11.505 15.1389 11.0023 14.8876 10.5 14.5977C9.9974 14.3075 9.52785 13.9976 9.09473 13.6768C9.03348 13.1414 9 12.5802 9 12C9 11.4194 9.03341 10.858 9.09473 10.3223C9.52773 10.0016 9.99756 9.69244 10.5 9.40234C11.0024 9.1123 11.5048 8.86013 11.999 8.64551ZM12 11C11.4478 11.0002 11 11.4478 11 12C11 12.5522 11.4478 12.9998 12 13C12.5521 12.9998 13 12.5522 13 12C13 11.4478 12.5521 11.0002 12 11ZM8.01855 11.209C8.00579 11.4692 8 11.7331 8 12C8 12.2666 8.00582 12.5302 8.01855 12.79C7.7347 12.5285 7.47429 12.2643 7.24023 12C7.47442 11.7355 7.73451 11.4706 8.01855 11.209ZM15.9805 11.21C16.2642 11.4713 16.5239 11.7359 16.7578 12C16.524 12.264 16.264 12.5279 15.9805 12.7891C15.9932 12.5295 16 12.2663 16 12C16 11.7334 15.9932 11.4699 15.9805 11.21ZM5.9375 8.5C6.19834 8.04828 6.95779 7.6311 8.4541 7.7207C8.50747 7.72391 8.56181 7.72889 8.61621 7.7334C8.41768 8.36196 8.26155 9.04961 8.15625 9.78027C7.57567 10.2371 7.05766 10.7166 6.6123 11.2031C6.58127 11.1584 6.54991 11.1139 6.52051 11.0693C5.69476 9.81833 5.67676 8.95178 5.9375 8.5ZM15.5449 7.7207C17.0413 7.63102 17.8006 8.04831 18.0615 8.5C18.3224 8.95177 18.3045 9.81812 17.4785 11.0693C17.449 11.114 17.4169 11.1582 17.3857 11.2031C16.9406 10.7169 16.423 10.2378 15.8428 9.78125C15.7375 9.0502 15.5815 8.36226 15.3828 7.7334C15.4372 7.72889 15.4915 7.72391 15.5449 7.7207ZM14.3789 7.87891C14.4908 8.21389 14.5893 8.57151 14.6738 8.94824C14.4553 8.80738 14.2307 8.66933 14 8.53613C13.7691 8.40285 13.5371 8.27613 13.3057 8.15723C13.6739 8.04217 14.0331 7.94946 14.3789 7.87891ZM9.61914 7.87891C9.96525 7.94947 10.3248 8.04208 10.6934 8.15723C10.462 8.27609 10.2308 8.40291 10 8.53613C9.7693 8.66933 9.54375 8.80639 9.3252 8.94727C9.40966 8.57101 9.50739 8.21351 9.61914 7.87891ZM12 5C12.5217 5.00018 13.2631 5.44932 13.9336 6.79004C13.9575 6.83782 13.9797 6.8872 14.0029 6.93652C13.359 7.07894 12.6847 7.2872 11.999 7.56152C11.3136 7.28738 10.6397 7.07886 9.99609 6.93652C10.0194 6.88711 10.0425 6.83791 10.0664 6.79004C10.7369 5.4493 11.4783 5.00017 12 5Z" fill="#222222"/>
</svg>
