<svg width="24" height="24" viewBox="0 0 24 24" fill="none" xmlns="http://www.w3.org/2000/svg">
<circle cx="12" cy="12" r="1" fill="#222222"/>
<path d="M12.0002 2C13.51 2 14.8618 3.33916 15.7786 5.45508C18.0697 5.19093 19.9054 5.69235 20.6604 7C21.4153 8.30753 20.9309 10.1471 19.5569 11.999C20.9316 13.8513 21.4154 15.6922 20.6604 17C19.9054 18.3076 18.0696 18.8081 15.7786 18.5439C14.8618 20.6603 13.5102 22 12.0002 22C10.4901 22 9.13773 20.6605 8.22094 18.5439C5.93035 18.8078 4.09499 18.3074 3.34008 17C2.58518 15.6925 3.06861 13.8519 4.44262 12C3.06855 10.1481 2.58517 8.30755 3.34008 7C4.09493 5.69255 5.93031 5.1912 8.22094 5.45508C9.13773 3.33896 10.4903 2.00001 12.0002 2ZM12.0002 17.5459C11.0531 17.9248 10.1248 18.2054 9.24437 18.3828C9.28239 18.4647 9.32026 18.5453 9.35961 18.624C10.2112 20.3271 11.2024 21 12.0002 21C12.7981 21 13.7892 20.3271 14.6409 18.624C14.6801 18.5455 14.7172 18.4645 14.7551 18.3828C13.875 18.2054 12.947 17.9247 12.0002 17.5459ZM18.9055 12.8047C18.3119 13.4782 17.6053 14.1419 16.8039 14.7725C16.6586 15.782 16.4371 16.7261 16.1506 17.5771C16.2402 17.5851 16.3287 17.5934 16.4162 17.5986C18.3168 17.7126 19.3952 17.1909 19.7942 16.5C20.1931 15.8091 20.1059 14.6144 19.0569 13.0254C19.0084 12.9519 18.9574 12.8786 18.9055 12.8047ZM4.94359 13.0254C3.89458 14.6144 3.80738 15.8091 4.20629 16.5C4.6053 17.1908 5.68367 17.7126 7.58422 17.5986C7.67146 17.5934 7.75959 17.5851 7.84887 17.5771C7.56245 16.7261 7.34089 15.7819 7.19555 14.7725C6.39424 14.1419 5.68756 13.4782 5.09398 12.8047C5.0422 12.8784 4.99199 12.9521 4.94359 13.0254ZM15.6418 15.6162C15.2755 15.8619 14.8954 16.1019 14.5002 16.3301C14.1051 16.5582 13.7076 16.7675 13.3118 16.9619C13.9431 17.1708 14.556 17.3284 15.1389 17.4365C15.3368 16.8774 15.507 16.2677 15.6418 15.6162ZM8.35765 15.6162C8.49243 16.2677 8.6627 16.8774 8.86058 17.4365C9.44355 17.3284 10.0563 17.1708 10.6877 16.9619C10.2921 16.7676 9.89506 16.558 9.50023 16.3301C9.10476 16.1018 8.72424 15.8621 8.35765 15.6162ZM12.0002 7.53418C11.3407 7.81577 10.6699 8.14948 10.0002 8.53613C9.33072 8.92269 8.70653 9.33636 8.13305 9.7666C8.0471 10.4787 8.00023 11.2265 8.00023 12C8.00023 12.7728 8.04725 13.5199 8.13305 14.2314C8.70679 14.6619 9.33036 15.0771 10.0002 15.4639C10.6697 15.8504 11.3409 16.1823 12.0002 16.4639C12.6596 16.1823 13.3307 15.8504 14.0002 15.4639C14.6699 15.0773 15.2929 14.6618 15.8664 14.2314C15.9522 13.5199 16.0002 12.7729 16.0002 12C16.0002 11.2268 15.9523 10.4795 15.8664 9.76758C15.293 9.33738 14.6697 8.92265 14.0002 8.53613C13.3305 8.14947 12.6598 7.81578 12.0002 7.53418ZM16.9534 10.6543C16.983 11.0945 17.0002 11.5436 17.0002 12C17.0002 12.4561 16.9829 12.9049 16.9534 13.3447C17.45 12.9023 17.8934 12.4508 18.2786 12C17.8933 11.549 17.4502 11.0968 16.9534 10.6543ZM7.04613 10.6543C6.54932 11.0968 6.10614 11.549 5.72094 12C6.10602 12.4508 6.54952 12.9023 7.04613 13.3447C7.01657 12.9049 7.00023 12.456 7.00023 12C7.00023 11.5436 7.01653 11.0945 7.04613 10.6543ZM7.58422 6.40137C5.68354 6.28736 4.60524 6.80909 4.20629 7.5C3.80737 8.19094 3.8945 9.38554 4.94359 10.9746C4.99187 11.0477 5.04233 11.1208 5.09398 11.1943C5.68758 10.5209 6.39426 9.8571 7.19555 9.22656C7.34095 8.21711 7.56239 7.27287 7.84887 6.42188C7.75961 6.41395 7.67143 6.4066 7.58422 6.40137ZM16.4162 6.40137C16.3287 6.40662 16.2402 6.41391 16.1506 6.42188C16.4371 7.27291 16.6585 8.21704 16.8039 9.22656C17.6053 9.85709 18.3118 10.5209 18.9055 11.1943C18.9573 11.1206 19.0085 11.0479 19.0569 10.9746C20.106 9.38552 20.1931 8.19094 19.7942 7.5C19.3952 6.80908 18.317 6.28736 16.4162 6.40137ZM8.86058 6.5625C8.66267 7.12156 8.49247 7.73135 8.35765 8.38281C8.72411 8.13704 9.10492 7.89816 9.50023 7.66992C9.89516 7.44191 10.292 7.23143 10.6877 7.03711C10.0564 6.82825 9.44352 6.67057 8.86058 6.5625ZM15.1389 6.5625C14.556 6.67062 13.9431 6.82821 13.3118 7.03711C13.7077 7.23155 14.105 7.44174 14.5002 7.66992C14.8953 7.89802 15.2756 8.1372 15.6418 8.38281C15.507 7.7313 15.3369 7.12159 15.1389 6.5625ZM12.0002 3C11.2024 3.00001 10.2112 3.67289 9.35961 5.37598C9.32039 5.45441 9.28227 5.53464 9.24437 5.61621C10.1247 5.7936 11.0531 6.07425 12.0002 6.45312C12.9467 6.07452 13.8743 5.79362 14.7541 5.61621C14.7164 5.5349 14.68 5.45417 14.6409 5.37598C13.7892 3.67288 12.7981 3 12.0002 3Z" fill="#2A4157" fill-opacity="0.24"/>
</svg>
