<svg width="24" height="24" viewBox="0 0 24 24" fill="none" xmlns="http://www.w3.org/2000/svg">
<circle cx="12" cy="12" r="10" fill="#2A4157" fill-opacity="0.24"/>
<circle cx="12" cy="12" r="1" fill="#222222"/>
<path d="M12.0003 4C13.2079 4.00019 14.2894 5.07125 15.0227 6.76367C16.8555 6.55243 18.3241 6.95395 18.928 8C19.532 9.04612 19.1446 10.5183 18.0452 12C19.1446 13.4817 19.532 14.9539 18.928 16C18.324 17.0461 16.8555 17.4466 15.0227 17.2354C14.2894 18.9282 13.2081 19.9998 12.0003 20C10.7923 20 9.71027 18.9285 8.97683 17.2354C7.1441 17.4466 5.6755 17.0461 5.07156 16C4.46768 14.954 4.85426 13.4815 5.95339 12C4.85424 10.5185 4.46767 9.046 5.07156 8C5.67549 6.95396 7.14413 6.55246 8.97683 6.76367C9.71026 5.07103 10.7925 4 12.0003 4ZM11.9993 16.4375C11.3137 16.7117 10.6401 16.9201 9.99636 17.0625C10.0198 17.1122 10.0426 17.1618 10.0667 17.21C10.7373 18.5509 11.4786 19 12.0003 19C12.5219 18.9998 13.2633 18.5508 13.9339 17.21C13.9579 17.1619 13.9798 17.1121 14.0032 17.0625C13.3592 16.9201 12.6852 16.7119 11.9993 16.4375ZM6.52078 12.9307C5.69489 14.1818 5.67695 15.0482 5.93777 15.5C6.19862 15.9517 6.95789 16.369 8.45437 16.2793C8.50784 16.2761 8.56197 16.2701 8.61648 16.2656C8.41798 15.637 8.26177 14.9495 8.15652 14.2188C7.57585 13.7618 7.05796 13.2826 6.61257 12.7959C6.58135 12.8409 6.55035 12.8859 6.52078 12.9307ZM17.386 12.7959C16.9408 13.2823 16.4233 13.7611 15.843 14.2178C15.7378 14.9489 15.5817 15.6367 15.3831 16.2656C15.4376 16.2701 15.4917 16.2761 15.5452 16.2793C17.0417 16.369 17.8009 15.9517 18.0618 15.5C18.3226 15.0482 18.3047 14.1819 17.4788 12.9307C17.4491 12.8857 17.4174 12.8411 17.386 12.7959ZM14.6741 15.0508C14.4554 15.1918 14.2312 15.3305 14.0003 15.4639C13.7695 15.5971 13.5373 15.7229 13.3059 15.8418C13.6743 15.9569 14.0332 16.0495 14.3792 16.1201C14.491 15.7851 14.5896 15.4275 14.6741 15.0508ZM9.32546 15.0518C9.4099 15.4281 9.50768 15.7855 9.61941 16.1201C9.96535 16.0496 10.3242 15.9569 10.6927 15.8418C10.4616 15.7231 10.2307 15.5969 10.0003 15.4639C9.76934 15.3305 9.54422 15.1928 9.32546 15.0518ZM11.9993 8.64551C11.505 8.86015 11.0027 9.11226 10.5003 9.40234C9.99775 9.69247 9.52806 10.0015 9.09499 10.3223C9.03368 10.858 9.00027 11.4194 9.00027 12C9.00027 12.5803 9.03375 13.1413 9.09499 13.6768C9.52818 13.9976 9.99758 14.3074 10.5003 14.5977C11.0026 14.8877 11.5052 15.1389 11.9993 15.3535C12.4938 15.1388 12.9976 14.8879 13.5003 14.5977C14.0029 14.3074 14.4714 13.9966 14.9046 13.6758C14.9657 13.1406 15.0003 12.5799 15.0003 12C15.0003 11.4197 14.9658 10.8587 14.9046 10.3232C14.4715 10.0025 14.0027 9.69247 13.5003 9.40234C12.9975 9.11205 12.4939 8.86026 11.9993 8.64551ZM8.01882 11.209C7.73472 11.4707 7.47473 11.7355 7.2405 12C7.4746 12.2643 7.73491 12.5285 8.01882 12.79C8.00608 12.5301 8.00027 12.2666 8.00027 12C8.00027 11.7331 8.00605 11.4692 8.01882 11.209ZM15.9807 11.21C15.9935 11.4699 16.0003 11.7334 16.0003 12C16.0003 12.2663 15.9934 12.5295 15.9807 12.7891C16.2643 12.5278 16.5242 12.264 16.7581 12C16.5241 11.7358 16.2645 11.4713 15.9807 11.21ZM8.45437 7.7207C6.95786 7.63103 6.19862 8.04825 5.93777 8.5C5.67694 8.95176 5.69487 9.81814 6.52078 11.0693C6.55021 11.1139 6.5815 11.1583 6.61257 11.2031C7.05797 10.7165 7.57587 10.2371 8.15652 9.78027C8.26182 9.04958 8.41793 8.36198 8.61648 7.7334C8.56198 7.72889 8.50783 7.72391 8.45437 7.7207ZM15.5452 7.7207C15.4917 7.72391 15.4376 7.72888 15.3831 7.7334C15.5817 8.36227 15.7377 9.05018 15.843 9.78125C16.4233 10.2378 16.9408 10.7168 17.386 11.2031C17.4172 11.1581 17.4492 11.1141 17.4788 11.0693C18.3047 9.81812 18.3226 8.95177 18.0618 8.5C17.8009 8.04826 17.0417 7.63101 15.5452 7.7207ZM14.3792 7.87891C14.0333 7.94947 13.6743 8.04214 13.3059 8.15723C13.5374 8.27617 13.7693 8.4028 14.0003 8.53613C14.231 8.66937 14.4555 8.80733 14.6741 8.94824C14.5896 8.57149 14.4911 8.21391 14.3792 7.87891ZM9.61941 7.87891C9.50765 8.21354 9.40993 8.57097 9.32546 8.94727C9.54409 8.80635 9.76949 8.66937 10.0003 8.53613C10.2311 8.40286 10.4622 8.27612 10.6936 8.15723C10.3249 8.04204 9.9656 7.94949 9.61941 7.87891ZM12.0003 5C11.4786 5 10.7373 5.44905 10.0667 6.79004C10.0427 6.83794 10.0197 6.88707 9.99636 6.93652C10.6401 7.07887 11.3138 7.28733 11.9993 7.56152C12.6851 7.28716 13.3592 7.07894 14.0032 6.93652C13.9799 6.88716 13.9578 6.83786 13.9339 6.79004C13.2633 5.44923 12.5219 5.00018 12.0003 5Z" fill="#222222"/>
</svg>
