<svg width="24" height="24" viewBox="0 0 24 24" fill="none" xmlns="http://www.w3.org/2000/svg">
<path d="M20 10H4C3.44772 10 3 9.55228 3 9C3 8.44772 3.44772 8 4 8H20C20.5523 8 21 8.44772 21 9C21 9.55228 20.5523 10 20 10Z" fill="#222222"/>
<path d="M19.79 11C18.7709 11 17.9152 11.7665 17.8027 12.7793L17.1972 18.2207C17.0847 19.2336 16.229 20 15.2099 20H8.78998C7.77092 20 6.91521 19.2335 6.80267 18.2207L6.1972 12.7793C6.08466 11.7664 5.229 11 4.2099 11H19.79ZM9.99994 13C9.44768 13 8.99994 13.4477 8.99994 14V17C8.99994 17.5523 9.44768 18 9.99994 18C10.5522 18 10.9999 17.5523 10.9999 17V14C10.9999 13.4477 10.5522 13 9.99994 13ZM13.9999 13C13.4477 13 12.9999 13.4477 12.9999 14V17C12.9999 17.5523 13.4477 18 13.9999 18C14.5522 18 14.9999 17.5523 14.9999 17V14C14.9999 13.4477 14.5522 13 13.9999 13Z" fill="#222222"/>
<path d="M8 5L6 9M16 5L18 9" stroke="#222222" stroke-width="2" stroke-linecap="round"/>
</svg>
