<svg width="24" height="24" viewBox="0 0 24 24" fill="none" xmlns="http://www.w3.org/2000/svg">
<path d="M8 5L6 9M16 5L18 9" stroke="#222222" stroke-width="2" stroke-linecap="round"/>
<path d="M21 8C21.5523 8 22 8.44772 22 9C22 9.55228 21.5523 10 21 10H19.8018C19.3332 10.0002 18.9278 10.3258 18.8262 10.7832L17.3477 17.4336C17.1443 18.3487 16.3329 19 15.3955 19H8.60449C7.6671 19 6.85569 18.3487 6.65234 17.4336L5.17383 10.7832C5.07218 10.3258 4.66677 10.0002 4.19824 10H3C2.44772 10 2 9.55228 2 9C2 8.44772 2.44772 8 3 8H21ZM10 11C9.44772 11 9 11.4477 9 12V15C9 15.5523 9.44772 16 10 16C10.5523 16 11 15.5523 11 15V12C11 11.4477 10.5523 11 10 11ZM14 11C13.4477 11 13 11.4477 13 12V15C13 15.5523 13.4477 16 14 16C14.5523 16 15 15.5523 15 15V12C15 11.4477 14.5523 11 14 11Z" fill="#222222"/>
</svg>
