<svg width="24" height="24" viewBox="0 0 24 24" fill="none" xmlns="http://www.w3.org/2000/svg">
<path d="M8.5 9.5C8.5 8.55719 8.5 8.08579 8.79289 7.79289C9.08579 7.5 9.55719 7.5 10.5 7.5H13.5C14.4428 7.5 14.9142 7.5 15.2071 7.79289C15.5 8.08579 15.5 8.55719 15.5 9.5V17.5C15.5 18.4428 15.5 18.9142 15.2071 19.2071C14.9142 19.5 14.4428 19.5 13.5 19.5H10.5C9.55719 19.5 9.08579 19.5 8.79289 19.2071C8.5 18.9142 8.5 18.4428 8.5 17.5V9.5Z" stroke="#222222"/>
<path d="M13.5 3C13.966 3 14.1991 3.00005 14.3828 3.07617C14.6278 3.17766 14.8223 3.37226 14.9238 3.61719C15 3.80096 15 4.03406 15 4.5C15 4.57203 14.9998 4.63848 14.9993 4.70004C14.998 4.84698 14.9974 4.92045 15.0385 4.96428C15.0796 5.00812 15.1527 5.01215 15.2989 5.02022C15.4692 5.02962 15.6298 5.04337 15.7793 5.06348C16.2986 5.13331 16.8312 5.29601 17.2676 5.73242C17.704 6.16883 17.8667 6.70137 17.9365 7.2207C18.0025 7.7113 18 8.32116 18 9V18C18 18.6788 18.0025 19.2887 17.9365 19.7793C17.8667 20.2986 17.704 20.8312 17.2676 21.2676C16.8312 21.704 16.2986 21.8667 15.7793 21.9365C15.2887 22.0025 14.6788 22 14 22H10C9.32118 22 8.71131 22.0025 8.22072 21.9365C7.70139 21.8667 7.16885 21.704 6.73243 21.2676C6.29602 20.8312 6.13332 20.2986 6.06349 19.7793C5.99753 19.2887 6.00001 18.6788 6.00001 18V9C6.00001 8.32116 5.99753 7.7113 6.06349 7.2207C6.13332 6.70137 6.29602 6.16883 6.73243 5.73242C7.16885 5.29601 7.70139 5.13331 8.22072 5.06348C8.36997 5.04341 8.53026 5.02966 8.70018 5.02025C8.84651 5.01215 8.91967 5.0081 8.96077 4.9644C9.00186 4.9207 9.0014 4.84715 9.00048 4.70005C9.00009 4.63848 9.00001 4.57203 9.00001 4.5C9.00001 4.03406 9.00006 3.80096 9.07618 3.61719C9.17767 3.37226 9.37228 3.17766 9.6172 3.07617C9.80097 3.00005 10.0341 3 10.5 3H13.5ZM10 6C8.5858 6 7.8788 6.00011 7.43947 6.43945L7.36232 6.52539C7.00041 6.97027 7.00001 7.67429 7.00001 9V18L7.00685 18.9346C7.02743 19.7509 7.10991 20.231 7.43947 20.5605C7.8788 20.9999 8.5858 21 10 21H14L14.9346 20.9932C15.7509 20.9726 16.231 20.8901 16.5606 20.5605C16.9999 20.1212 17 19.4142 17 18V9C17 7.67429 16.9996 6.97027 16.6377 6.52539L16.5606 6.43945C16.231 6.1099 15.7509 6.02741 14.9346 6.00684L14 6H10Z" fill="#7E869E" fill-opacity="0.25"/>
</svg>
