<svg width="24" height="24" viewBox="0 0 24 24" fill="none" xmlns="http://www.w3.org/2000/svg">
<path d="M14 5C15.8856 5 16.8283 5.00015 17.4141 5.58594C17.9998 6.17172 18 7.11438 18 9V19C18 20.8856 17.9998 21.8283 17.4141 22.4141C16.8283 22.9998 15.8856 23 14 23H10C8.11438 23 7.17172 22.9998 6.58594 22.4141C6.00015 21.8283 6 20.8856 6 19V9C6 7.11438 6.00015 6.17172 6.58594 5.58594C7.17172 5.00015 8.11438 5 10 5H14Z" fill="#222222"/>
<path d="M9 3C9 2.05719 9 1.58579 9.29289 1.29289C9.58579 1 10.0572 1 11 1H13C13.9428 1 14.4142 1 14.7071 1.29289C15 1.58579 15 2.05719 15 3V4H9V3Z" fill="#222222"/>
</svg>
