<svg width="24" height="24" viewBox="0 0 24 24" fill="none" xmlns="http://www.w3.org/2000/svg">
<path d="M12.0002 2C13.7038 2.00003 15.2413 2.71025 16.3334 3.85055C16.458 3.98065 16.5203 4.0457 16.5103 4.11764C16.5003 4.18958 16.4118 4.24156 16.2347 4.34552C16.1537 4.39312 16.0755 4.44515 16.0006 4.50132C15.8764 4.59456 15.8142 4.64117 15.7582 4.63711C15.7023 4.63305 15.6501 4.58053 15.5457 4.47548C14.6401 3.56441 13.3862 3.00003 12.0002 3C9.23873 3 7.00016 5.23858 7.00016 8V10C7.00016 11.7308 6.43895 13.4151 5.40055 14.7998L5.1857 15.0859C5.14863 15.1354 5.12348 15.1696 5.10465 15.1953C5.09566 15.2076 5.08874 15.2161 5.08414 15.2227C5.08191 15.2259 5.08035 15.2288 5.07926 15.2305C5.07824 15.232 5.07678 15.2333 5.07581 15.2348C4.87728 15.5522 5.08641 15.9676 5.46004 15.998C5.46073 15.998 5.46141 15.9982 5.46203 15.9985C5.4627 15.9988 5.46344 15.999 5.46419 15.999C5.4661 15.999 5.46875 15.9989 5.47184 15.999C5.47992 15.9993 5.49148 15.9998 5.50699 16H18.4933C18.5088 15.9998 18.5204 15.9993 18.5285 15.999C18.5316 15.9989 18.5342 15.9991 18.5361 15.9991C18.5369 15.999 18.5376 15.9989 18.5383 15.9985C18.5389 15.9982 18.5396 15.998 18.5403 15.998C18.9138 15.9675 19.123 15.5522 18.9245 15.2348C18.9241 15.2341 18.9215 15.2311 18.9211 15.2305C18.92 15.2289 18.9184 15.2259 18.9162 15.2227C18.9116 15.2161 18.9047 15.2076 18.8957 15.1953C18.8768 15.1696 18.8517 15.1354 18.8146 15.0859L18.5998 14.7998C17.5613 13.4151 17.0002 11.7308 17.0002 10V9.31624C17.0002 9.15208 17.0002 9.07 17.0471 9.02561C17.094 8.98123 17.1839 8.98622 17.3638 8.99621C17.409 8.99872 17.4544 9 17.5002 9C17.5459 9 17.5913 8.99872 17.6365 8.99621C17.8164 8.98623 17.9063 8.98124 17.9532 9.02563C18.0002 9.07001 18.0002 9.1521 18.0002 9.31627V10C18.0002 11.5146 18.4918 12.9885 19.4005 14.2002L19.6144 14.4854C19.6797 14.5724 19.733 14.6425 19.7677 14.6973C20.3718 15.6514 19.7441 16.9058 18.6183 16.9951C18.5537 17.0002 18.4662 17 18.3576 17H5.64274C5.53414 17 5.4466 17.0002 5.38199 16.9951C4.25619 16.9059 3.62847 15.6514 4.23258 14.6973C4.2673 14.6425 4.3206 14.5724 4.3859 14.4854L4.59977 14.2002C5.5085 12.9885 6.00016 11.5146 6.00016 10V8C6.00016 4.68629 8.68645 2 12.0002 2Z" fill="#7E869E" fill-opacity="0.25"/>
<circle cx="17.5" cy="6.5" r="1.5" fill="#222222"/>
<path d="M9.58519 18.647C9.72762 19.1786 10.0415 19.6484 10.4781 19.9834C10.9147 20.3184 11.4497 20.5 12 20.5C12.5503 20.5 13.0853 20.3184 13.5219 19.9834C13.9585 19.6484 14.2724 19.1786 14.4148 18.647" stroke="#222222" stroke-linecap="round"/>
</svg>
