<svg width="24" height="24" viewBox="0 0 24 24" fill="none" xmlns="http://www.w3.org/2000/svg">
<path d="M12.0003 2C13.7038 2.00009 15.2414 2.71024 16.3335 3.85053C16.4582 3.98065 16.5205 4.04571 16.5105 4.11763C16.5005 4.18955 16.412 4.24159 16.2349 4.34567C15.4963 4.77972 15.0003 5.58122 15.0003 6.5C15.0003 7.88071 16.1196 9 17.5003 9C17.546 8.99999 17.5914 8.99871 17.6365 8.99621C17.8165 8.98624 17.9064 8.98125 17.9534 9.02563C18.0003 9.07001 18.0003 9.15211 18.0003 9.3163V9.83105C18.0003 11.2503 18.3853 12.6433 19.1155 13.8604L19.6692 14.7822C20.0363 15.394 20.2201 15.7004 20.2327 15.9502C20.252 16.3369 20.0459 16.6995 19.7044 16.8818C19.4837 16.9996 19.1268 17 18.4134 17H5.58621C4.87279 17 4.51584 16.9996 4.2952 16.8818C3.95378 16.6995 3.74856 16.3368 3.76785 15.9502C3.78042 15.7004 3.96331 15.394 4.33035 14.7822L4.88406 13.8604C5.61426 12.6433 6.00026 11.2503 6.00027 9.83105V8C6.00027 4.68629 8.68656 2 12.0003 2Z" fill="#7E869E" fill-opacity="0.25"/>
<circle cx="17.5" cy="6.5" r="1.5" fill="#222222"/>
<path d="M14.35 18C14.4328 18 14.5007 18.0673 14.493 18.1498C14.4484 18.6254 14.1923 19.0746 13.7678 19.4142C13.2989 19.7893 12.663 20 12 20C11.337 20 10.7011 19.7893 10.2322 19.4142C9.80772 19.0746 9.55165 18.6254 9.50702 18.1498C9.49928 18.0673 9.56716 18 9.65 18L12 18L14.35 18Z" fill="#222222"/>
</svg>
