<svg width="24" height="24" viewBox="0 0 24 24" fill="none" xmlns="http://www.w3.org/2000/svg">
<path d="M12.0003 3.5C12.8398 3.50004 13.6425 3.67198 14.3743 3.98242C14.1061 4.21596 13.8693 4.48458 13.6712 4.78125C13.1464 4.59871 12.5838 4.50004 12.0003 4.5C9.40859 4.5 7.23089 6.44863 6.94459 9.02441L6.69361 11.291C6.69045 11.3195 6.68854 11.3352 6.68678 11.3506C6.54975 12.5443 6.16064 13.6959 5.54615 14.7285C5.53834 14.7416 5.53039 14.7551 5.51588 14.7793L4.93775 15.7432C4.66996 16.1895 4.48897 16.4923 4.37818 16.7275C4.26634 16.9651 4.26837 17.0506 4.27272 17.0781C4.2916 17.1974 4.35296 17.3063 4.44557 17.3838C4.46747 17.4019 4.54106 17.4475 4.80104 17.4736C5.0597 17.4996 5.41263 17.5 5.93287 17.5H18.0676C18.5879 17.5 18.9408 17.4996 19.1995 17.4736C19.46 17.4474 19.5333 17.4018 19.5549 17.3838C19.6475 17.3063 19.7089 17.1973 19.7278 17.0781C19.7321 17.0505 19.734 16.9649 19.6223 16.7275C19.5116 16.4923 19.3305 16.1895 19.0628 15.7432L18.4846 14.7793C18.4701 14.7551 18.4622 14.7416 18.4544 14.7285C17.8398 13.6959 17.4508 12.5444 17.3137 11.3506C17.312 11.3352 17.3101 11.3195 17.3069 11.291L17.2727 10.9893C17.6149 10.9662 17.9448 10.8997 18.2581 10.7959L18.301 11.1807C18.3043 11.2097 18.3064 11.2232 18.3079 11.2363C18.4288 12.2897 18.7715 13.3056 19.3137 14.2168C19.3204 14.2281 19.3272 14.2399 19.3421 14.2646L19.9202 15.2285C20.1767 15.6561 20.3893 16.0093 20.5266 16.3008C20.6626 16.5896 20.7682 16.9023 20.7161 17.2334C20.6596 17.5915 20.4745 17.9177 20.1965 18.1504C19.9395 18.3654 19.6176 18.4368 19.3001 18.4688C18.9794 18.501 18.5664 18.5 18.0676 18.5H5.93287C5.43418 18.5 5.0211 18.501 4.70045 18.4688C4.38288 18.4368 4.06104 18.3653 3.80397 18.1504C3.52593 17.9177 3.34096 17.5915 3.28443 17.2334C3.23232 16.9023 3.33786 16.5896 3.47389 16.3008C3.61122 16.0093 3.8238 15.6561 4.08033 15.2285L4.65846 14.2646C4.67332 14.2399 4.68006 14.2281 4.68678 14.2168C5.22899 13.3056 5.57174 12.2897 5.69264 11.2363C5.69415 11.2232 5.69625 11.2097 5.69947 11.1807L5.95143 8.91406C6.294 5.83185 8.89904 3.5 12.0003 3.5ZM16.1878 5.17188C17.1532 6.0876 17.8206 7.31947 18.0217 8.7168C17.7364 8.88701 17.4062 8.988 17.052 8.99707C16.9036 7.72399 16.2934 6.60566 15.3997 5.80273C15.6035 5.5308 15.8737 5.31162 16.1878 5.17188Z" fill="#222222"/>
<path d="M9.10222 18.4059C9.27315 19.1501 9.64978 19.8077 10.1737 20.2767C10.6976 20.7458 11.3396 21 12 21C12.6604 21 13.3024 20.7458 13.8263 20.2767C14.3502 19.8077 14.7269 19.1501 14.8978 18.4059" stroke="#222222" stroke-linecap="round"/>
<circle cx="17" cy="7" r="2" fill="#222222"/>
</svg>
