<svg width="24" height="24" viewBox="0 0 24 24" fill="none" xmlns="http://www.w3.org/2000/svg">
<path d="M17 2C18.6569 2 20 3.34315 20 5V13H15C14.3212 13 13.7113 12.9975 13.2207 13.0635C12.7014 13.1333 12.1688 13.296 11.7324 13.7324C11.296 14.1688 11.1333 14.7014 11.0635 15.2207C10.9975 15.7113 11 16.3212 11 17V22H7C5.34315 22 4 20.6569 4 19V5C4 3.34315 5.34315 2 7 2H17ZM19.7266 15C19.5792 15.3234 19.3772 15.6228 19.1211 15.8789L13.8789 21.1211C13.6228 21.3772 13.3234 21.5792 13 21.7266V17C13 16.2646 13.002 15.8137 13.0459 15.4873C13.0859 15.1898 13.1436 15.1494 13.1465 15.1465C13.1494 15.1436 13.1897 15.0859 13.4873 15.0459C13.8137 15.002 14.2646 15 15 15H19.7266Z" fill="#222222"/>
</svg>
