<svg width="24" height="24" viewBox="0 0 24 24" fill="none" xmlns="http://www.w3.org/2000/svg">
<path d="M11.3027 3.79232C11.6732 3.35349 12.3268 3.35349 12.6973 3.79232C14.2418 5.62375 17.825 10.3271 17.9912 14.6888C17.9965 14.7919 18 14.8959 18 15.0003C17.9998 18.3139 15.3136 21.0003 12 21.0003C8.6864 21.0003 6.00017 18.3139 6 15.0003C6 14.896 6.00255 14.7919 6.00781 14.6888C6.17397 10.3271 9.75824 5.62376 11.3027 3.79232ZM10 16.0003C9.44772 16.0003 9 16.448 9 17.0003C9.00017 17.5525 9.44782 18.0003 10 18.0003C10.5522 18.0003 10.9998 17.5525 11 17.0003C11 16.448 10.5523 16.0003 10 16.0003Z" fill="#33363F"/>
</svg>
