<svg width="24" height="24" viewBox="0 0 24 24" fill="none" xmlns="http://www.w3.org/2000/svg">
<path d="M12 5.5L12.3537 5.14656C12.2599 5.05273 12.1327 5.00001 12 5C11.8674 4.99999 11.7402 5.0527 11.6464 5.14652L12 5.5ZM16.4902 13.7227L15.9908 13.7478L15.9912 13.753L16.4902 13.7227ZM7.50879 13.7227L8.00789 13.753L8.00815 13.7478L7.50879 13.7227ZM12 5.5C11.6463 5.85344 11.6463 5.85338 11.6462 5.85334C11.6462 5.85334 11.6462 5.85332 11.6462 5.85333C11.6463 5.85336 11.6464 5.85346 11.6465 5.85362C11.6468 5.85394 11.6474 5.85451 11.6482 5.85535C11.6499 5.85702 11.6526 5.85971 11.6562 5.86341C11.6635 5.87081 11.6747 5.88224 11.6896 5.89756C11.7193 5.92819 11.7637 5.97435 11.8207 6.0349C11.9347 6.15603 12.099 6.33458 12.2972 6.56146C12.6942 7.01573 13.2252 7.66123 13.7615 8.42562C14.8478 9.97387 15.8993 11.9317 15.9909 13.7478L16.4902 13.7227L16.9896 13.6975C16.8831 11.586 15.6895 9.43243 14.5801 7.85128C14.0186 7.05096 13.4643 6.37723 13.0502 5.90345C12.843 5.66632 12.6704 5.47863 12.5489 5.34954C12.4882 5.28498 12.4401 5.23503 12.4069 5.20083C12.3903 5.18373 12.3774 5.17056 12.3684 5.16147C12.364 5.15692 12.3605 5.1534 12.358 5.15091C12.3568 5.14966 12.3558 5.14868 12.3551 5.14795C12.3547 5.14759 12.3544 5.14729 12.3542 5.14706C12.3541 5.14694 12.3539 5.14682 12.3539 5.14676C12.3538 5.14665 12.3537 5.14656 12 5.5ZM16.4902 13.7227L15.9912 13.753C15.9965 13.8401 16 13.9213 16 14H16.5H17C17 13.8924 16.9952 13.7887 16.9893 13.6923L16.4902 13.7227ZM16.5 14H16C16 16.2091 14.2091 18 12 18V18.5V19C14.7614 19 17 16.7614 17 14H16.5ZM12 18.5V18C9.79086 18 8 16.2091 8 14H7.5H7C7 16.7614 9.23858 19 12 19V18.5ZM7.5 14H8C8 13.9183 8.00282 13.8361 8.00787 13.753L7.50879 13.7227L7.00971 13.6923C7.0036 13.7927 7 13.8954 7 14H7.5ZM7.50879 13.7227L8.00815 13.7478C8.09974 11.9317 9.15144 9.97392 10.2379 8.42566C10.7744 7.66127 11.3055 7.01578 11.7026 6.56151C11.9009 6.33462 12.0652 6.15607 12.1792 6.03494C12.2362 5.97439 12.2806 5.92823 12.3104 5.8976C12.3252 5.88228 12.3365 5.87086 12.3438 5.86345C12.3474 5.85975 12.3501 5.85706 12.3517 5.85539C12.3526 5.85456 12.3531 5.85398 12.3534 5.85366C12.3536 5.8535 12.3537 5.8534 12.3537 5.85337C12.3537 5.85336 12.3537 5.85339 12.3537 5.85338C12.3537 5.85342 12.3536 5.85348 12 5.5C11.6464 5.14652 11.6463 5.14661 11.6462 5.14672C11.6461 5.14678 11.646 5.1469 11.6459 5.14702C11.6456 5.14725 11.6453 5.14755 11.645 5.14791C11.6443 5.14863 11.6433 5.14962 11.642 5.15087C11.6396 5.15336 11.6361 5.15688 11.6316 5.16143C11.6226 5.17052 11.6097 5.18369 11.5931 5.20079C11.5599 5.23499 11.5119 5.28494 11.4511 5.3495C11.3296 5.47859 11.1569 5.66627 10.9496 5.90341C10.5355 6.37719 9.98102 7.05091 9.41939 7.85123C8.30981 9.43237 7.1159 11.5859 7.00942 13.6975L7.50879 13.7227Z" fill="#222222"/>
</svg>
