<svg width="24" height="24" viewBox="0 0 24 24" fill="none" xmlns="http://www.w3.org/2000/svg">
<path d="M14 7H20M17 4V10" stroke="#33363F" stroke-width="2" stroke-linecap="round" stroke-linejoin="round"/>
<path d="M8 5L8.75899 4.3489C8.56903 4.12745 8.29182 4.00002 8.00005 4C7.70829 3.99998 7.43106 4.12739 7.24107 4.34882L8 5ZM12.9912 15.7217L11.9918 15.7555C11.992 15.7625 11.9923 15.7695 11.9927 15.7765L12.9912 15.7217ZM3.00781 15.7217L4.00631 15.7765C4.00669 15.7695 4.007 15.7625 4.00724 15.7555L3.00781 15.7217ZM8 5C7.24101 5.6511 7.24089 5.65096 7.24079 5.65084C7.24078 5.65083 7.2407 5.65074 7.24068 5.65071C7.24064 5.65067 7.24067 5.65071 7.24078 5.65084C7.241 5.65109 7.2415 5.65168 7.24228 5.6526C7.24386 5.65444 7.24656 5.65762 7.25036 5.66212C7.25797 5.67111 7.26996 5.68534 7.28604 5.70464C7.31823 5.74325 7.36678 5.80207 7.42942 5.87963C7.55474 6.03481 7.73615 6.26461 7.9554 6.55716C8.39457 7.14315 8.98198 7.9761 9.57354 8.96138C10.776 10.9641 11.9143 13.4642 11.9918 15.7555L12.9912 15.7217L13.9906 15.6879C13.8955 12.8746 12.5383 10.0139 11.2882 7.93188C10.6536 6.87482 10.0255 5.98445 9.55582 5.35771C9.32062 5.04389 9.12423 4.79498 8.98536 4.62303C8.9159 4.53702 8.86076 4.47019 8.82227 4.42402C8.80303 4.40093 8.78794 4.383 8.77729 4.37042C8.77197 4.36413 8.76776 4.35918 8.7647 4.35558C8.76317 4.35379 8.76193 4.35233 8.76097 4.35121C8.7605 4.35066 8.76009 4.35019 8.75976 4.3498C8.7596 4.34961 8.75941 4.34938 8.75932 4.34929C8.75915 4.34908 8.75899 4.3489 8 5ZM12.9912 15.7217L11.9927 15.7765C11.9973 15.8598 12 15.9323 12 16H13H14C14 15.8809 13.9953 15.7679 13.9897 15.6669L12.9912 15.7217ZM13 16H12C12 18.2091 10.2091 20 8 20V21V22C11.3137 22 14 19.3137 14 16H13ZM8 21V20C5.79086 20 4 18.2091 4 16H3H2C2 19.3137 4.68629 22 8 22V21ZM3 16H4C4 15.9263 4.00218 15.8518 4.00631 15.7765L3.00781 15.7217L2.00931 15.6669C2.00334 15.7758 2 15.8869 2 16H3ZM3.00781 15.7217L4.00724 15.7555C4.0847 13.4642 5.22324 10.9642 6.42591 8.96145C7.0176 7.97617 7.60512 7.14322 8.04439 6.55723C8.26368 6.26469 8.44513 6.03489 8.57048 5.87971C8.63313 5.80215 8.68169 5.74333 8.71388 5.70472C8.72997 5.68542 8.74196 5.67118 8.74957 5.6622C8.75337 5.6577 8.75608 5.65452 8.75765 5.65268C8.75843 5.65175 8.75894 5.65117 8.75915 5.65092C8.75926 5.65079 8.75929 5.65075 8.75926 5.65079C8.75924 5.65081 8.75915 5.65091 8.75915 5.65092C8.75905 5.65104 8.75893 5.65118 8 5C7.24107 4.34882 7.24092 4.349 7.24074 4.34921C7.24066 4.3493 7.24047 4.34953 7.2403 4.34972C7.23997 4.35011 7.23957 4.35058 7.23909 4.35114C7.23814 4.35225 7.2369 4.35371 7.23536 4.35551C7.2323 4.3591 7.22809 4.36405 7.22277 4.37034C7.21213 4.38292 7.19703 4.40085 7.17778 4.42394C7.13929 4.47011 7.08414 4.53695 7.01466 4.62295C6.87576 4.7949 6.67933 5.04381 6.44409 5.35763C5.97428 5.98437 5.34612 6.87473 4.71132 7.9318C3.46105 10.0138 2.10349 12.8746 2.00838 15.6879L3.00781 15.7217Z" fill="#33363F"/>
</svg>
