<svg width="24" height="24" viewBox="0 0 24 24" fill="none" xmlns="http://www.w3.org/2000/svg">
<path d="M9 7.5L9.35367 7.14656C9.2599 7.05273 9.13268 7.00001 9.00003 7C8.86737 6.99999 8.74015 7.0527 8.64637 7.14652L9 7.5ZM13.4902 15.7227L12.9908 15.7478L12.9912 15.753L13.4902 15.7227ZM4.50879 15.7227L5.00789 15.753L5.00815 15.7478L4.50879 15.7227ZM9 7.5C8.64633 7.85344 8.64627 7.85338 8.64623 7.85334C8.64624 7.85334 8.64621 7.85332 8.64623 7.85333C8.64626 7.85336 8.64635 7.85346 8.64651 7.85362C8.64683 7.85394 8.6474 7.85451 8.64823 7.85535C8.64989 7.85702 8.65255 7.85971 8.6562 7.86341C8.6635 7.87081 8.67471 7.88224 8.68958 7.89756C8.71934 7.92819 8.76372 7.97435 8.82071 8.0349C8.93472 8.15603 9.09897 8.33458 9.29724 8.56146C9.6942 9.01573 10.2252 9.66123 10.7615 10.4256C11.8478 11.9739 12.8993 13.9317 12.9909 15.7478L13.4902 15.7227L13.9896 15.6975C13.8831 13.586 12.6895 11.4324 11.5801 9.85128C11.0186 9.05096 10.4643 8.37723 10.0502 7.90345C9.84303 7.66632 9.67041 7.47863 9.54892 7.34954C9.48816 7.28498 9.44014 7.23503 9.40692 7.20083C9.39031 7.18373 9.3774 7.17056 9.36844 7.16147C9.36396 7.15692 9.36046 7.1534 9.35799 7.15091C9.35676 7.14966 9.35578 7.14868 9.35505 7.14795C9.35469 7.14759 9.3544 7.14729 9.35417 7.14706C9.35405 7.14694 9.35393 7.14682 9.35387 7.14676C9.35376 7.14665 9.35367 7.14656 9 7.5ZM13.4902 15.7227L12.9912 15.753C12.9965 15.8401 13 15.9213 13 16H13.5H14C14 15.8924 13.9952 15.7887 13.9893 15.6923L13.4902 15.7227ZM13.5 16H13C13 18.2091 11.2091 20 9 20V20.5V21C11.7614 21 14 18.7614 14 16H13.5ZM9 20.5V20C6.79086 20 5 18.2091 5 16H4.5H4C4 18.7614 6.23858 21 9 21V20.5ZM4.5 16H5C5 15.9183 5.00282 15.8361 5.00787 15.753L4.50879 15.7227L4.00971 15.6923C4.0036 15.7927 4 15.8954 4 16H4.5ZM4.50879 15.7227L5.00815 15.7478C5.09974 13.9317 6.15144 11.9739 7.23794 10.4257C7.77436 9.66127 8.30551 9.01578 8.70257 8.56151C8.90088 8.33462 9.06517 8.15607 9.1792 8.03494C9.23621 7.97439 9.2806 7.92823 9.31036 7.8976C9.32524 7.88228 9.33646 7.87086 9.34375 7.86345C9.3474 7.85975 9.35007 7.85706 9.35173 7.85539C9.35255 7.85456 9.35313 7.85398 9.35345 7.85366C9.35361 7.8535 9.3537 7.8534 9.35373 7.85337C9.35375 7.85336 9.35372 7.85339 9.35373 7.85338C9.35369 7.85342 9.35363 7.85348 9 7.5C8.64637 7.14652 8.64628 7.14661 8.64617 7.14672C8.64612 7.14678 8.64599 7.1469 8.64588 7.14702C8.64564 7.14725 8.64535 7.14755 8.64499 7.14791C8.64427 7.14863 8.64328 7.14962 8.64205 7.15087C8.63958 7.15336 8.63608 7.15688 8.6316 7.16143C8.62264 7.17052 8.60972 7.18369 8.59311 7.20079C8.55989 7.23499 8.51186 7.28494 8.45108 7.3495C8.32956 7.47859 8.1569 7.66627 7.94963 7.90341C7.53553 8.37719 6.98102 9.05091 6.41939 9.85123C5.30981 11.4324 4.1159 13.5859 4.00942 15.6975L4.50879 15.7227Z" fill="#222222"/>
<path d="M13.5 7.5H19.5M16.5 4.5V10.5" stroke="#222222" stroke-linecap="round" stroke-linejoin="round"/>
</svg>
