<svg width="24" height="24" viewBox="0 0 24 24" fill="none" xmlns="http://www.w3.org/2000/svg">
<path d="M5 12H19V16C19 17.8856 19 18.8284 18.4142 19.4142C17.8284 20 16.8856 20 15 20H9C7.11438 20 6.17157 20 5.58579 19.4142C5 18.8284 5 17.8856 5 16V12Z" fill="#222222"/>
<path d="M17.4109 4.39236C17.7637 4.15717 18.227 4.17019 18.5662 4.42458L21.0779 6.30837C21.5643 6.6736 21.6145 7.38503 21.1843 7.81521L18.9997 9.99978V10.9998H4.99975V9.99978L2.81518 7.81521C2.38487 7.3849 2.43576 6.6735 2.9226 6.30837L5.43334 4.42458C5.77253 4.17019 6.23584 4.15717 6.58862 4.39236L8.99975 5.99978H14.9997L17.4109 4.39236ZM6.64916 9.79958H17.3503L15.4001 7.19997H8.59936L6.64916 9.79958Z" fill="#7E869E" fill-opacity="0.25"/>
</svg>
