<svg width="24" height="24" viewBox="0 0 24 24" fill="none" xmlns="http://www.w3.org/2000/svg">
<path d="M20 16C20 17.8856 19.9998 18.8283 19.4141 19.4141C18.8283 19.9998 17.8856 20 16 20H8C6.11438 20 5.17172 19.9998 4.58594 19.4141C4.00015 18.8283 4 17.8856 4 16V12H8.66699V15.667C8.66699 16.4316 8.66673 16.814 8.76562 17.0195C8.98647 17.4782 9.51658 17.6976 9.99707 17.5293C10.2123 17.4538 10.4827 17.1833 11.0234 16.6426C11.2736 16.3924 11.3992 16.2677 11.5322 16.1973C11.8246 16.0427 12.1744 16.0427 12.4668 16.1973C12.6 16.2677 12.7261 16.3921 12.9766 16.6426C13.5174 17.1834 13.7877 17.4539 14.0029 17.5293C14.4834 17.6975 15.0136 17.4783 15.2344 17.0195C15.3333 16.814 15.333 16.4316 15.333 15.667V12H20V16ZM15.3428 5C16.16 5 16.5691 5.00023 16.9365 5.15234C17.3041 5.30458 17.5938 5.59381 18.1719 6.17188L18.8281 6.82812C19.4062 7.40619 19.6954 7.69593 19.8477 8.06348C19.9998 8.43094 20 8.83996 20 9.65723V10H4V9.65723C4 8.83996 4.00023 8.43094 4.15234 8.06348C4.30458 7.69593 4.59381 7.40619 5.17188 6.82812L5.82812 6.17188C6.40619 5.59381 6.69593 5.30458 7.06348 5.15234C7.43094 5.00023 7.83996 5 8.65723 5H15.3428Z" fill="#222222"/>
</svg>
