<svg width="24" height="24" viewBox="0 0 24 24" fill="none" xmlns="http://www.w3.org/2000/svg">
<path d="M20.2002 12C21.1942 12.0001 21.9999 12.8058 22 13.7998V19.2002C21.9999 20.1942 21.1942 20.9999 20.2002 21H13V13.7998C13.0001 12.8058 13.8058 12.0001 14.7998 12H17V14.5C17 14.7761 17.2239 15 17.5 15C17.7761 15 18 14.7761 18 14.5V12H20.2002Z" fill="#33363F"/>
<path d="M10.2002 12C11.1942 12.0001 11.9999 12.8058 12 13.7998V21H4.7998C3.80585 20.9999 3.00011 20.1942 3 19.2002V13.7998C3.00011 12.8058 3.80585 12.0001 4.7998 12H7V14.5C7 14.7761 7.22386 15 7.5 15C7.77614 15 8 14.7761 8 14.5V12H10.2002Z" fill="#33363F"/>
<path d="M10.2002 2C11.1942 2.00011 11.9999 2.80585 12 3.7998V9.2002C11.9999 10.1942 11.1942 10.9999 10.2002 11H4.7998C3.80585 10.9999 3.00011 10.1942 3 9.2002V3.7998C3.00011 2.80585 3.80585 2.00011 4.7998 2H7V5C7 5.27614 7.22386 5.5 7.5 5.5C7.77614 5.5 8 5.27614 8 5V2H10.2002Z" fill="#33363F"/>
</svg>
