<svg width="24" height="24" viewBox="0 0 24 24" fill="none" xmlns="http://www.w3.org/2000/svg">
<path d="M12.5248 6.08327C13.8645 2.89341 18.1312 2.30258 20.2875 5.00807L20.6762 5.49538C22.532 7.82425 22.2149 11.2036 19.9584 13.1467L12.5678 19.511C12.3386 19.7084 12.2238 19.8067 12.0912 19.8313C12.0308 19.8425 11.969 19.8425 11.9086 19.8313C11.776 19.8066 11.6613 19.7084 11.432 19.511L4.0414 13.1467C1.78501 11.2036 1.46785 7.82422 3.32363 5.49538L3.7123 5.00807C5.34565 2.95865 8.1893 2.80139 10.0551 4.2317L8.00038 8.00026L12.5004 12.5003L11.5004 15.0003L15.0004 12.0003L11.0004 8.00026L12.3539 6.30885C12.4246 6.25264 12.4849 6.17832 12.5248 6.08327Z" fill="#222222"/>
</svg>
