<svg width="24" height="24" viewBox="0 0 24 24" fill="none" xmlns="http://www.w3.org/2000/svg">
<path d="M13.0877 4.99266C15.2841 3.26313 18.6775 3.46325 20.5789 5.91356L20.8885 6.31298C22.8495 8.84088 22.5658 12.4455 20.2342 14.6362L13.282 21.1675C13.177 21.2661 13.0459 21.3913 12.9207 21.4878C12.782 21.5946 12.5731 21.7298 12.2898 21.7856C12.0992 21.823 11.9023 21.823 11.7117 21.7856C11.4281 21.73 11.2197 21.5947 11.0808 21.4878C10.9555 21.3912 10.8247 21.2663 10.7195 21.1675L3.7664 14.6362C1.43452 12.4454 1.15172 8.84094 3.11308 6.31298L3.42167 5.91356C5.37696 3.39395 8.90978 3.25275 11.0984 5.14598L11.8211 5.77098L11.2293 6.52196L10.1932 7.83446C9.84685 8.27341 9.65389 8.52189 9.54374 8.71044C9.54262 8.71236 9.54096 8.71446 9.53983 8.7163C9.5421 8.7182 9.54428 8.7212 9.54667 8.72313C9.71648 8.86034 9.98452 9.02353 10.4637 9.31102L11.7166 10.063C12.1138 10.3013 12.5013 10.5306 12.7898 10.7622C13.1009 11.012 13.421 11.3591 13.5379 11.8784C13.6546 12.3977 13.5138 12.8486 13.3396 13.2075C13.178 13.5403 12.9257 13.9139 12.6687 14.2993L11.8328 15.5542L10.1687 14.4448L11.0047 13.1899C11.2934 12.7568 11.4519 12.5155 11.5398 12.3345C11.5409 12.3321 11.5417 12.3288 11.5428 12.3266C11.5412 12.3254 11.5395 12.324 11.5379 12.3227C11.3809 12.1967 11.1342 12.0459 10.6873 11.7778L9.43534 11.0268C9.00714 10.7699 8.59343 10.5241 8.28886 10.2778C7.96223 10.0137 7.62416 9.64313 7.52226 9.08739C7.42047 8.53153 7.60537 8.06445 7.81718 7.70165C8.01459 7.36368 8.31382 6.98786 8.62284 6.59618L8.97831 6.14501C7.65659 5.55789 5.99604 5.85896 5.00175 7.14012L4.69315 7.53856C3.36411 9.25155 3.55534 11.6947 5.13554 13.1792L11.9998 19.6274L18.865 13.1792C20.4449 11.6947 20.6373 9.25143 19.3084 7.53856L18.9988 7.14012C17.8201 5.6209 15.705 5.47855 14.326 6.56395L13.7068 5.7788L13.0877 4.99266Z" fill="#33363F"/>
</svg>
