<svg width="24" height="24" viewBox="0 0 24 24" fill="none" xmlns="http://www.w3.org/2000/svg">
<path d="M13.4298 5.28717C15.248 4.0039 17.7988 4.0743 19.5528 5.65631C21.9489 7.81749 21.9924 11.5628 19.6466 13.7784L12.5538 20.4766C12.3559 20.6635 12.257 20.757 12.1436 20.7911C12.05 20.8192 11.9502 20.8191 11.8565 20.7911C11.7431 20.757 11.6434 20.6637 11.4454 20.4766L4.08016 13.5206C1.88152 11.4441 1.92141 7.93283 4.16708 5.90729L4.47567 5.62995C6.25672 4.02373 8.93262 4.22847 10.4747 5.89557L8.50008 9.00006L12.5001 12.5001L11.5001 15.0001L15.0001 12.0001L12.0001 8.50006L14.0001 6.00006L13.4298 5.28717Z" fill="#7E869E" fill-opacity="0.25"/>
<path d="M13.3971 5.38676C15.3892 3.81783 18.4634 4.00283 20.1842 6.22075L20.4928 6.62016C22.2957 8.94434 22.036 12.2584 19.8922 14.2725L12.9391 20.8038C12.8266 20.9094 12.7163 21.0137 12.6148 21.0918C12.5068 21.1751 12.3699 21.2601 12.193 21.295C12.066 21.3199 11.9351 21.3198 11.8082 21.295C11.6312 21.2602 11.4935 21.1751 11.3854 21.0918C11.2841 21.0138 11.1734 20.9092 11.0611 20.8038L4.10898 14.2725C1.96494 12.2584 1.70438 8.94444 3.50742 6.62016L3.81699 6.22075C5.58658 3.94021 8.78664 3.80789 10.7711 5.52446L11.1324 5.83696L10.8365 6.21294L9.80039 7.52544C9.46321 7.95282 9.24385 8.23304 9.11191 8.45903C8.9874 8.67243 8.98749 8.76193 8.99766 8.81743C9.00792 8.87297 9.04009 8.95715 9.23203 9.11235C9.43553 9.27678 9.74019 9.46041 10.2066 9.74028L11.4586 10.4922C11.8682 10.738 12.2205 10.9481 12.4762 11.1534C12.7431 11.3677 12.9685 11.6252 13.0504 11.9893C13.1319 12.3531 13.0386 12.6816 12.8893 12.9893C12.746 13.2843 12.5176 13.625 12.2525 14.0225L11.4166 15.2774L10.5846 14.7227L11.4205 13.4678C11.7016 13.0462 11.8835 12.7719 11.9898 12.5528C12.0896 12.3473 12.0868 12.2616 12.0748 12.2081C12.0627 12.1545 12.0284 12.0758 11.8502 11.9327C11.6604 11.7803 11.3789 11.6101 10.9449 11.3497L9.69199 10.5977C9.25113 10.3332 8.87394 10.1086 8.60313 9.88969C8.32125 9.66178 8.08563 9.38608 8.01426 8.99711C7.94311 8.60816 8.0659 8.26716 8.24863 7.95415C8.42422 7.65346 8.69681 7.3099 9.01523 6.90629L9.73496 5.99321C8.15545 4.94664 5.8974 5.17091 4.60703 6.83403L4.29746 7.23247C2.81034 9.14923 3.02536 11.883 4.79355 13.544L11.7457 20.0752C11.8724 20.1943 11.9422 20.2586 11.9957 20.2998C11.9969 20.3008 11.9985 20.3019 11.9996 20.3028C12.001 20.3017 12.003 20.301 12.0045 20.2998C12.058 20.2586 12.1276 20.1944 12.2545 20.0752L19.2076 13.544C20.9756 11.883 21.1896 9.14917 19.7027 7.23247L19.3941 6.83403C18.0346 5.08178 15.5996 4.92505 14.0162 6.17192L13.3971 5.38676Z" fill="#222222"/>
</svg>
