<svg width="24" height="24" viewBox="0 0 24 24" fill="none" xmlns="http://www.w3.org/2000/svg">
<path d="M12 13.5C12.6543 13.5 13.2964 13.6778 13.8575 14.0145L14.3691 14.3215C16.5296 15.6178 19.2816 15.3608 21.1647 13.6869L22.5 12.5" stroke="#33363F" stroke-linecap="round"/>
<path d="M12 13.5C11.3457 13.5 10.7036 13.6778 10.1425 14.0145L9.63085 14.3215C7.47039 15.6178 4.71838 15.3608 2.83527 13.6869L1.5 12.5" stroke="#33363F" stroke-linecap="round"/>
<path d="M19.9932 17C19.8729 19.2292 18.0278 20.9999 15.7686 21H8.23145C5.97221 20.9999 4.12715 19.2292 4.00684 17H5.00879C5.12759 18.6766 6.52467 19.9999 8.23145 20H15.7686C17.4753 19.9999 18.8724 18.6766 18.9912 17H19.9932ZM12 3C16.4183 3 20 6.58172 20 11V13H19V11C19 7.13401 15.866 4 12 4C8.13401 4 5 7.13401 5 11V13H4V11C4 6.58172 7.58172 3 12 3Z" fill="#33363F"/>
<rect x="14" y="7" width="1" height="1" rx="0.5" fill="#33363F"/>
<rect x="11" y="6" width="1" height="1" rx="0.5" fill="#33363F"/>
<rect x="16" y="9" width="1" height="1" rx="0.5" fill="#33363F"/>
</svg>
