<svg width="24" height="24" viewBox="0 0 24 24" fill="none" xmlns="http://www.w3.org/2000/svg">
<path d="M12 12.5C12.6543 12.5 13.2964 12.6778 13.8575 13.0145L14.3691 13.3215C16.5296 14.6178 19.2816 14.3608 21.1647 12.6869L22.5 11.5" stroke="#33363F" stroke-width="2" stroke-linecap="round"/>
<path d="M12 12.5C11.3457 12.5 10.7036 12.6778 10.1425 13.0145L9.63085 13.3215C7.47039 14.6178 4.71838 14.3608 2.83527 12.6869L1.5 11.5" stroke="#33363F" stroke-width="2" stroke-linecap="round"/>
<path d="M21 16.4883C20.9997 18.9799 18.9799 20.9997 16.4883 21H7.51172C5.02008 20.9997 3.00026 18.9799 3 16.4883V16H5V16.4883C5.00026 17.8753 6.12465 18.9997 7.51172 19H16.4883C17.8753 18.9997 18.9997 17.8754 19 16.4883V16H21V16.4883ZM12 3C16.283 3 19.8648 5.9923 20.7744 10H18.709C17.8483 7.10867 15.1709 5 12 5C8.82909 5 6.15166 7.10867 5.29102 10H3.22559C4.13525 5.9923 7.71702 3 12 3Z" fill="#33363F"/>
</svg>
