<svg width="24" height="24" viewBox="0 0 24 24" fill="none" xmlns="http://www.w3.org/2000/svg">
<path d="M7 16L7.27627 17.6576C7.54232 19.2539 7.67535 20.0521 8.23484 20.526C8.79433 21 9.6035 21 11.2218 21H12.7782C14.3965 21 15.2057 21 15.7652 20.526C16.3247 20.0521 16.4577 19.2539 16.7237 17.6576L17 16" stroke="#33363F" stroke-width="2" stroke-linecap="round" stroke-linejoin="round"/>
<path d="M13.5 4.5C14 3.5 15 3 16 3" stroke="#33363F" stroke-width="2" stroke-linecap="round"/>
<circle cx="12" cy="6" r="2" stroke="#33363F" stroke-width="2" stroke-linecap="round" stroke-linejoin="round"/>
<path d="M14 5.34143C15.3777 5.82869 16.5237 6.80504 17.2305 8.06018C19.3681 8.40915 20.9998 10.263 21 12.4996C21 14.9849 18.9853 16.9996 16.5 16.9996C15.7484 16.9996 15.0398 16.8132 14.417 16.4869C13.6774 16.8137 12.8605 16.9996 12 16.9996C11.1387 16.9996 10.3207 16.8135 9.58008 16.486C8.9581 16.8116 8.2512 16.9996 7.5 16.9996C5.01472 16.9996 3 14.9849 3 12.4996C3.00018 10.2636 4.63086 8.40995 6.76758 8.06018C7.47453 6.80453 8.62156 5.82851 10 5.34143V7.53577C9.26385 7.96176 8.67535 8.61543 8.33203 9.40198C8.1764 9.7584 7.8273 9.99232 7.43848 10.0016C6.08623 10.034 5.00019 11.14 5 12.4996C5 13.8803 6.11929 14.9996 7.5 14.9996C8.04107 14.9996 8.53977 14.8271 8.9502 14.5338L9.07422 14.4586C9.37155 14.3054 9.72999 14.3097 10.0264 14.4781C10.6091 14.8096 11.2814 14.9996 12 14.9996C12.718 14.9996 13.3897 14.8096 13.9727 14.4781L14.1035 14.4156C14.4151 14.2941 14.7715 14.3356 15.0488 14.5338C15.4589 14.8271 15.9581 14.9996 16.5 14.9996C17.8807 14.9996 19 13.8803 19 12.4996C18.9998 11.1397 17.9133 10.0335 16.5605 10.0016C16.1718 9.99243 15.8237 9.75829 15.668 9.40198C15.3246 8.61558 14.7359 7.96272 14 7.53674V5.34143Z" fill="#33363F"/>
</svg>
