<svg width="24" height="24" viewBox="0 0 24 24" fill="none" xmlns="http://www.w3.org/2000/svg">
<path d="M7 16L7.16929 17.8621C7.32635 19.5898 7.40488 20.4537 7.97775 20.9768C8.55062 21.5 9.41804 21.5 11.1529 21.5H12.8471C14.582 21.5 15.4494 21.5 16.0222 20.9768C16.5951 20.4537 16.6737 19.5898 16.8307 17.8621L17 16" stroke="#33363F" stroke-linecap="round" stroke-linejoin="round"/>
<path d="M14 3.5C14.5 2.5 15.5 2 16.5 2" stroke="#33363F" stroke-linecap="round"/>
<circle cx="12" cy="5" r="2.5" stroke="#33363F" stroke-linecap="round" stroke-linejoin="round"/>
<path d="M14 4.34241C15.723 4.9519 17.0844 6.32589 17.6768 8.05725C19.5634 8.3788 20.9998 10.0214 21 11.9996C21 14.2088 19.2091 15.9996 17 15.9996C16.1743 15.9996 15.4077 15.7486 14.7705 15.3199C13.9414 15.7526 12.9999 15.9996 12 15.9996C10.9998 15.9996 10.0578 15.7528 9.22852 15.3199C8.5915 15.7483 7.82538 15.9996 7 15.9996C4.79086 15.9996 3 14.2088 3 11.9996C3.00019 10.0217 4.43606 8.37919 6.32227 8.05725C6.91461 6.3257 8.27664 4.95183 10 4.34241V5.4176C8.72333 5.97575 7.72359 7.05072 7.26855 8.38049C7.15005 8.72698 6.8512 8.98097 6.49023 9.0426C5.07629 9.28404 4.00019 10.5175 4 11.9996C4 13.6565 5.34315 14.9996 7 14.9996C7.61913 14.9996 8.19255 14.8116 8.6709 14.4899L8.78809 14.4225C9.07126 14.2835 9.40704 14.2849 9.69141 14.4332C10.3827 14.7941 11.1663 14.9996 12 14.9996C12.8331 14.9996 13.6162 14.794 14.3076 14.4332C14.6325 14.2638 15.025 14.2854 15.3291 14.4899C15.8071 14.8115 16.3802 14.9996 17 14.9996C18.6569 14.9996 20 13.6565 20 11.9996C19.9998 10.5172 18.9232 9.28367 17.5088 9.0426C17.1478 8.98104 16.849 8.72703 16.7305 8.38049C16.2754 7.05092 15.276 5.9768 14 5.41858V4.34241Z" fill="#33363F"/>
</svg>
