<svg width="24" height="24" viewBox="0 0 24 24" fill="none" xmlns="http://www.w3.org/2000/svg">
<path d="M12 3C16.9706 3 21 7.02944 21 12C21 16.9706 16.9706 21 12 21C7.02944 21 3 16.9706 3 12C3 7.02944 7.02944 3 12 3ZM12 5C8.13401 5 5 8.13401 5 12C5 15.866 8.13401 19 12 19C15.866 19 19 15.866 19 12C19 8.13401 15.866 5 12 5ZM14.7568 16.1709C13.9664 16.6944 13.0191 17 12 17C9.23858 17 7 14.7614 7 12C7 10.9808 7.30454 10.0327 7.82812 9.24219L14.7568 16.1709ZM12 7C14.7614 7 17 9.23858 17 12C17 13.0191 16.6944 13.9664 16.1709 14.7568L9.24219 7.82812C10.0327 7.30454 10.9808 7 12 7Z" fill="#222222"/>
</svg>
