<svg width="24" height="24" viewBox="0 0 24 24" fill="none" xmlns="http://www.w3.org/2000/svg">
<path d="M13.7617 3.00586C13.289 3.53609 13 4.23374 13 5C13 6.65685 14.3431 8 16 8C16 9.65685 17.3431 11 19 11C19.7662 11 20.4629 10.71 20.9932 10.2373C20.9992 10.7565 21 11.3392 21 12C21 14.7956 20.9997 16.1933 20.543 17.2959C19.934 18.7661 18.7661 19.934 17.2959 20.543C16.1933 20.9997 14.7956 21 12 21H9C6.17157 21 4.75759 20.9998 3.87891 20.1211C3.00023 19.2424 3 17.8284 3 15V12C3 9.2044 3.00033 7.80672 3.45703 6.7041C4.06599 5.23393 5.23393 4.06599 6.7041 3.45703C7.80672 3.00033 9.2044 3 12 3C12.6604 3 13.2428 2.99981 13.7617 3.00586ZM9 13C8.44772 13 8 13.4477 8 14C8.00018 14.5521 8.44783 15 9 15H12C12.5522 15 12.9998 14.5521 13 14C13 13.4477 12.5523 13 12 13H9ZM9 9C8.44772 9 8 9.44772 8 10C8.00018 10.5521 8.44783 11 9 11H15C15.5522 11 15.9998 10.5521 16 10C16 9.44772 15.5523 9 15 9H9Z" fill="#222222"/>
<path d="M19 8L19 2M16 5H22" stroke="#222222" stroke-width="2" stroke-linecap="round" stroke-linejoin="round"/>
</svg>
