<svg width="24" height="24" viewBox="0 0 24 24" fill="none" xmlns="http://www.w3.org/2000/svg">
<path d="M12 3C16.9706 3 21 7.02944 21 12V16.5C21 17.8978 20.9998 18.5971 20.7715 19.1484C20.467 19.8832 19.8832 20.467 19.1484 20.7715C18.5971 20.9998 17.8978 21 16.5 21H12C7.02944 21 3 16.9706 3 12C3 7.02944 7.02944 3 12 3ZM12 8C11.4478 8 11.0001 8.44782 11 9V11H9C8.44779 11 8.00013 11.4478 8 12C8.00013 12.5522 8.44779 13 9 13H11V15C11 15.5523 11.4477 16 12 16C12.5523 16 13 15.5523 13 15V13H15C15.5522 13 15.9999 12.5522 16 12C15.9999 11.4478 15.5522 11 15 11H13V9C12.9999 8.44782 12.5522 8 12 8Z" fill="#222222"/>
</svg>
