<svg width="24" height="24" viewBox="0 0 24 24" fill="none" xmlns="http://www.w3.org/2000/svg">
<path d="M5 8L5 2" stroke="#222222" stroke-width="2" stroke-linecap="round" stroke-linejoin="round"/>
<path d="M12 3C16.9706 3 21 7.02944 21 12V16.5C21 17.8978 20.9998 18.5971 20.7715 19.1484C20.467 19.8832 19.8832 20.467 19.1484 20.7715C18.5971 20.9998 17.8978 21 16.5 21H12C7.02944 21 3 16.9706 3 12C3 11.242 3.09405 10.506 3.27051 9.80273C3.7197 10.2338 4.32829 10.5 5 10.5C6.38071 10.5 7.5 9.38071 7.5 8V7.5H8C9.38071 7.5 10.5 6.38071 10.5 5C10.5 4.32829 10.2338 3.7197 9.80273 3.27051C10.506 3.09405 11.242 3 12 3ZM12 14C11.4477 14 11 14.4477 11 15C11 15.5523 11.4477 16 12 16H15C15.5523 16 16 15.5523 16 15C16 14.4477 15.5523 14 15 14H12ZM9 10C8.44772 10 8 10.4477 8 11C8 11.5523 8.44772 12 9 12H15C15.5523 12 16 11.5523 16 11C16 10.4477 15.5523 10 15 10H9Z" fill="#222222"/>
<path d="M2 5L8 5" stroke="#222222" stroke-width="2" stroke-linecap="round" stroke-linejoin="round"/>
</svg>
