<svg width="24" height="24" viewBox="0 0 24 24" fill="none" xmlns="http://www.w3.org/2000/svg">
<path d="M13 4C15.8089 4 17.2138 3.99971 18.2227 4.67383C18.6593 4.96562 19.0344 5.34068 19.3262 5.77734C20.0003 6.78624 20 8.19108 20 11C20 13.8089 20.0003 15.2138 19.3262 16.2227C19.0344 16.6593 18.6593 17.0344 18.2227 17.3262C17.3413 17.9151 16.1577 17.9896 14 17.999V18L12.8945 20.2109C12.526 20.948 11.474 20.948 11.1055 20.2109L10 18V17.999C7.8423 17.9896 6.6587 17.9151 5.77734 17.3262C5.34068 17.0344 4.96562 16.6593 4.67383 16.2227C3.99971 15.2138 4 13.8089 4 11C4 8.19108 3.99971 6.78624 4.67383 5.77734C4.96562 5.34068 5.34068 4.96562 5.77734 4.67383C6.78624 3.99971 8.19108 4 11 4H13ZM9 12C8.44772 12 8 12.4477 8 13C8 13.5523 8.44772 14 9 14H12C12.5523 14 13 13.5523 13 13C13 12.4477 12.5523 12 12 12H9ZM9 8C8.44772 8 8 8.44772 8 9C8 9.55228 8.44772 10 9 10H15C15.5523 10 16 9.55228 16 9C16 8.44772 15.5523 8 15 8H9Z" fill="#222222"/>
</svg>
