<svg width="24" height="24" viewBox="0 0 24 24" fill="none" xmlns="http://www.w3.org/2000/svg">
<path d="M13 4C15.8089 4 17.2138 3.99971 18.2227 4.67383C18.6593 4.96562 19.0344 5.34068 19.3262 5.77734C20.0003 6.78624 20 8.19108 20 11C20 13.8089 20.0003 15.2138 19.3262 16.2227C19.0344 16.6593 18.6593 17.0344 18.2227 17.3262C17.3413 17.9151 16.1577 17.9886 14 17.998V18L12.8945 20.2109C12.526 20.948 11.474 20.948 11.1055 20.2109L10 18V17.998C7.8423 17.9886 6.65869 17.9151 5.77734 17.3262C5.34068 17.0344 4.96562 16.6593 4.67383 16.2227C3.99971 15.2138 4 13.8089 4 11C4 8.19108 3.99971 6.78624 4.67383 5.77734C4.96562 5.34068 5.34068 4.96562 5.77734 4.67383C6.78624 3.99971 8.19108 4 11 4H13Z" fill="#7E869E" fill-opacity="0.25"/>
<path d="M8.5 9.5L15.5 9.5" stroke="#222222" stroke-linecap="round" stroke-linejoin="round"/>
<path d="M8.5 12.5L13.5 12.5" stroke="#222222" stroke-linecap="round" stroke-linejoin="round"/>
</svg>
