<svg width="24" height="24" viewBox="0 0 24 24" fill="none" xmlns="http://www.w3.org/2000/svg">
<path d="M13 4C15.8089 4 17.2138 3.99971 18.2227 4.67383C18.6593 4.96562 19.0344 5.34068 19.3262 5.77734C20.0003 6.78624 20 8.19108 20 11C20 13.8089 20.0003 15.2138 19.3262 16.2227C19.0344 16.6593 18.6593 17.0344 18.2227 17.3262C17.3413 17.9151 16.1577 17.9886 14 17.998V18L12.8945 20.2109C12.526 20.948 11.474 20.948 11.1055 20.2109L10 18V17.998C7.8423 17.9886 6.65869 17.9151 5.77734 17.3262C5.34068 17.0344 4.96562 16.6593 4.67383 16.2227C3.99971 15.2138 4 13.8089 4 11C4 8.19108 3.99971 6.78624 4.67383 5.77734C4.96562 5.34068 5.34068 4.96562 5.77734 4.67383C6.78624 3.99971 8.19108 4 11 4H13Z" fill="#7E869E" fill-opacity="0.25"/>
<path d="M18.2227 4.67383L18.556 4.17496L18.556 4.17495L18.2227 4.67383ZM19.3262 5.77734L19.8251 5.444L19.825 5.44398L19.3262 5.77734ZM19.3262 16.2227L19.825 16.556L19.8251 16.556L19.3262 16.2227ZM18.2227 17.3262L18.556 17.8251L18.556 17.825L18.2227 17.3262ZM14 17.998L13.9974 17.3981C13.667 17.3995 13.4 17.6677 13.4 17.998H14ZM14 18L14.5367 18.2683C14.5783 18.185 14.6 18.0931 14.6 18H14ZM10 18H9.4C9.4 18.0931 9.42169 18.185 9.46334 18.2683L10 18ZM10 17.998H10.6C10.6 17.6677 10.333 17.3995 10.0026 17.3981L10 17.998ZM5.77734 17.3262L5.44398 17.825L5.444 17.8251L5.77734 17.3262ZM4.67383 16.2227L4.17495 16.556L4.17496 16.556L4.67383 16.2227ZM4.67383 5.77734L4.17496 5.44398L4.17495 5.444L4.67383 5.77734ZM5.77734 4.67383L5.444 4.17495L5.44398 4.17496L5.77734 4.67383ZM13 4V4.6C14.417 4.6 15.4346 4.60065 16.2257 4.68104C17.0067 4.76042 17.4999 4.91254 17.8893 5.17271L18.2227 4.67383L18.556 4.17495C17.9365 3.761 17.2228 3.5762 16.347 3.48719C15.4812 3.3992 14.3919 3.4 13 3.4V4ZM18.2227 4.67383L17.8893 5.1727C18.2605 5.42072 18.5793 5.73954 18.8273 6.1107L19.3262 5.77734L19.825 5.44398C19.4895 4.94182 19.0582 4.51052 18.556 4.17496L18.2227 4.67383ZM19.3262 5.77734L18.8273 6.11069C19.0875 6.50006 19.2396 6.99329 19.319 7.77432C19.3993 8.56537 19.4 9.58302 19.4 11H20H20.6C20.6 9.60806 20.6008 8.51882 20.5128 7.653C20.4238 6.77716 20.239 6.06352 19.8251 5.444L19.3262 5.77734ZM20 11H19.4C19.4 12.417 19.3993 13.4346 19.319 14.2257C19.2396 15.0067 19.0875 15.4999 18.8273 15.8893L19.3262 16.2227L19.8251 16.556C20.239 15.9365 20.4238 15.2228 20.5128 14.347C20.6008 13.4812 20.6 12.3919 20.6 11H20ZM19.3262 16.2227L18.8273 15.8893C18.5793 16.2605 18.2605 16.5793 17.8893 16.8273L18.2227 17.3262L18.556 17.825C19.0582 17.4895 19.4895 17.0582 19.825 16.556L19.3262 16.2227ZM18.2227 17.3262L17.8893 16.8273C17.5492 17.0546 17.1294 17.1994 16.508 17.285C15.877 17.3721 15.0792 17.3933 13.9974 17.3981L14 17.998L14.0026 18.598C15.0785 18.5933 15.9514 18.5731 16.6719 18.4738C17.4021 18.3731 18.0148 18.1867 18.556 17.8251L18.2227 17.3262ZM14 17.998H13.4V18H14H14.6V17.998H14ZM14 18L13.4633 17.7317L12.3579 19.9426L12.8945 20.2109L13.4312 20.4793L14.5367 18.2683L14 18ZM12.8945 20.2109L12.3579 19.9426C12.2105 20.2374 11.7895 20.2374 11.6421 19.9426L11.1055 20.2109L10.5688 20.4793C11.1585 21.6585 12.8415 21.6585 13.4312 20.4793L12.8945 20.2109ZM11.1055 20.2109L11.6421 19.9426L10.5367 17.7317L10 18L9.46334 18.2683L10.5688 20.4793L11.1055 20.2109ZM10 18H10.6V17.998H10H9.4V18H10ZM10 17.998L10.0026 17.3981C8.9208 17.3933 8.12303 17.3721 7.492 17.285C6.8706 17.1994 6.45083 17.0546 6.11069 16.8273L5.77734 17.3262L5.444 17.8251C5.98521 18.1867 6.59792 18.3731 7.32809 18.4738C8.04861 18.5731 8.9215 18.5933 9.99738 18.598L10 17.998ZM5.77734 17.3262L6.1107 16.8273C5.73954 16.5793 5.42072 16.2605 5.1727 15.8893L4.67383 16.2227L4.17496 16.556C4.51052 17.0582 4.94182 17.4895 5.44398 17.825L5.77734 17.3262ZM4.67383 16.2227L5.17271 15.8893C4.91254 15.4999 4.76042 15.0067 4.68104 14.2257C4.60065 13.4346 4.6 12.417 4.6 11H4H3.4C3.4 12.3919 3.3992 13.4812 3.48719 14.347C3.5762 15.2228 3.761 15.9365 4.17495 16.556L4.67383 16.2227ZM4 11H4.6C4.6 9.58302 4.60065 8.56537 4.68104 7.77432C4.76042 6.99329 4.91254 6.50006 5.17271 6.11069L4.67383 5.77734L4.17495 5.444C3.761 6.06352 3.5762 6.77716 3.48719 7.653C3.3992 8.51882 3.4 9.60806 3.4 11H4ZM4.67383 5.77734L5.1727 6.1107C5.42072 5.73954 5.73954 5.42072 6.1107 5.1727L5.77734 4.67383L5.44398 4.17496C4.94182 4.51052 4.51052 4.94182 4.17496 5.44398L4.67383 5.77734ZM5.77734 4.67383L6.11069 5.17271C6.50006 4.91254 6.99329 4.76042 7.77432 4.68104C8.56537 4.60065 9.58302 4.6 11 4.6V4V3.4C9.60806 3.4 8.51882 3.3992 7.653 3.48719C6.77716 3.5762 6.06352 3.761 5.444 4.17495L5.77734 4.67383ZM11 4V4.6H13V4V3.4H11V4Z" fill="#222222"/>
<circle cx="16" cy="11" r="1" fill="#222222" stroke="#222222" stroke-width="0.2" stroke-linecap="round"/>
<circle cx="12" cy="11" r="1" fill="#222222" stroke="#222222" stroke-width="0.2" stroke-linecap="round"/>
<circle cx="8" cy="11" r="1" fill="#222222" stroke="#222222" stroke-width="0.2" stroke-linecap="round"/>
</svg>
