<svg width="24" height="24" viewBox="0 0 24 24" fill="none" xmlns="http://www.w3.org/2000/svg">
<path d="M12 3C14.7956 3 16.1933 3.00033 17.2959 3.45703C18.7661 4.06599 19.934 5.23393 20.543 6.7041C20.9997 7.80672 21 9.2044 21 12C21 14.7956 20.9997 16.1933 20.543 17.2959C19.934 18.7661 18.7661 19.934 17.2959 20.543C16.1933 20.9997 14.7956 21 12 21H9C6.17157 21 4.75759 20.9998 3.87891 20.1211C3.00023 19.2424 3 17.8284 3 15V12C3 9.2044 3.00033 7.80672 3.45703 6.7041C4.06599 5.23393 5.23393 4.06599 6.7041 3.45703C7.80672 3.00033 9.2044 3 12 3ZM12 8C11.4478 8 11.0001 8.44778 11 9V11H9C8.44776 11 8.00008 11.4478 8 12C8.00026 12.5521 8.44788 13 9 13H11V15C11 15.5523 11.4477 16 12 16C12.5523 16 13 15.5523 13 15V13H15C15.5521 13 15.9997 12.5521 16 12C15.9999 11.4478 15.5522 11 15 11H13V9C12.9999 8.44778 12.5522 8 12 8Z" fill="#222222"/>
</svg>
