<svg width="24" height="24" viewBox="0 0 24 24" fill="none" xmlns="http://www.w3.org/2000/svg">
<circle cx="17" cy="16" r="2.5" stroke="#222222" stroke-width="2"/>
<path d="M19 18L21 20" stroke="#222222" stroke-width="2" stroke-linecap="round"/>
<path d="M14.7998 3C17.32 3 18.5804 2.99981 19.543 3.49023C20.3897 3.92166 21.0783 4.6103 21.5098 5.45703C22.0002 6.41962 22 7.68003 22 10.2002V13.708C21.1308 11.815 19.2194 10.5 17 10.5C13.9624 10.5 11.5 12.9624 11.5 16C11.5 18.2197 12.8156 20.131 14.709 21H5.2002C4.08009 21 3.51962 21.0002 3.0918 20.7822C2.71554 20.5905 2.40951 20.2845 2.21777 19.9082C1.99979 19.4804 2 18.9199 2 17.7998V10.2002C2 7.68003 1.99981 6.41962 2.49023 5.45703C2.92166 4.6103 3.6103 3.92166 4.45703 3.49023C5.41962 2.99981 6.68003 3 9.2002 3H14.7998ZM7 13C6.44772 13 6 13.4477 6 14C6 14.5523 6.44772 15 7 15H10C10.5523 15 11 14.5523 11 14C11 13.4477 10.5523 13 10 13H7ZM7 9C6.44772 9 6 9.44772 6 10C6 10.5523 6.44772 11 7 11H13C13.5523 11 14 10.5523 14 10C14 9.44772 13.5523 9 13 9H7Z" fill="#222222"/>
</svg>
