<svg width="24" height="24" viewBox="0 0 24 24" fill="none" xmlns="http://www.w3.org/2000/svg">
<path d="M10.8184 3.5066C11.573 3.18318 12.427 3.18318 13.1816 3.5066L18.3936 5.74C18.7612 5.89755 18.9999 6.25902 19 6.65895V11.9119C19 13.8496 18.0641 15.6684 16.4873 16.7947L13.1621 19.1697C12.4669 19.6661 11.5331 19.6661 10.8379 19.1697L7.5127 16.7947C5.93592 15.6684 5 13.8496 5 11.9119V6.65895C5.0001 6.25902 5.23884 5.89755 5.60645 5.74L10.8184 3.5066ZM15.625 8.21852C15.1938 7.87368 14.5638 7.9437 14.2188 8.37477L10.918 12.5017L9.70703 11.2927C9.31654 10.9024 8.68346 10.9024 8.29297 11.2927C7.90249 11.6832 7.90258 12.3163 8.29297 12.7068L9.89746 14.3123C10.5296 14.9444 11.5714 14.8864 12.1299 14.1882L15.7812 9.62477C16.1261 9.19351 16.0562 8.56348 15.625 8.21852Z" fill="#222222"/>
</svg>
