<svg width="24" height="24" viewBox="0 0 24 24" fill="none" xmlns="http://www.w3.org/2000/svg">
<path d="M18 4C19.1046 4 20 4.89543 20 6V10C20 12.5181 18.8143 14.8896 16.7998 16.4004L15 17.75C13.2222 19.0833 10.7778 19.0833 9 17.75L7.2002 16.4004C5.18575 14.8896 4 12.5181 4 10V6C4 4.89543 4.89543 4 6 4H18ZM9 9C8.44772 9 8 9.44772 8 10C8 10.5523 8.44772 11 9 11C9.55228 11 10 10.5523 10 10C10 9.44772 9.55228 9 9 9ZM12 9C11.4477 9 11 9.44772 11 10C11 10.5523 11.4477 11 12 11C12.5523 11 13 10.5523 13 10C13 9.44772 12.5523 9 12 9ZM15 9C14.4477 9 14 9.44772 14 10C14 10.5523 14.4477 11 15 11C15.5523 11 16 10.5523 16 10C16 9.44772 15.5523 9 15 9Z" fill="#222222"/>
</svg>
