<svg width="24" height="24" viewBox="0 0 24 24" fill="none" xmlns="http://www.w3.org/2000/svg">
<path d="M11.3701 3.61719C11.7724 3.44491 12.2276 3.44491 12.6299 3.61719L18.5449 6.15234C19.2001 6.43331 19.5904 7.11387 19.502 7.82129L18.8887 12.7246C18.6811 14.3851 17.8509 15.9052 16.5654 16.9766L13.0244 19.9277C12.4311 20.4221 11.5689 20.4221 10.9756 19.9277L7.43457 16.9766C6.14906 15.9052 5.31889 14.3851 5.11133 12.7246L4.49805 7.82129C4.40962 7.11387 4.79989 6.43331 5.45508 6.15234L11.3701 3.61719Z" fill="#7E869E" fill-opacity="0.25" stroke="#222222" stroke-width="1.2" stroke-linecap="round"/>
<path d="M9 12L11.5687 14.5687C11.7918 14.7918 12.1633 14.7551 12.3383 14.4925L16 9" stroke="#222222" stroke-width="1.2" stroke-linecap="round"/>
</svg>
