<svg width="24" height="24" viewBox="0 0 24 24" fill="none" xmlns="http://www.w3.org/2000/svg">
<path d="M16 12V11.5V11.5V12ZM16 20V20.5V20.5V20ZM8.98888 19.9794L9.02631 20.478L8.98888 19.9794ZM8.5 7V7.5C10.9545 7.5 13.0646 8.97421 13.9936 11.0876L14.4514 10.8864L14.9091 10.6852C13.8264 8.22205 11.3655 6.5 8.5 6.5V7ZM16 12V12.5C17.933 12.5 19.5 14.067 19.5 16H20H20.5C20.5 13.5147 18.4853 11.5 16 11.5V12ZM20 16H19.5C19.5 17.933 17.933 19.5 16 19.5V20V20.5C18.4853 20.5 20.5 18.4853 20.5 16H20ZM16 20V19.5H9.01033V20V20.5H16V20ZM8.98888 19.9794L8.95146 19.4808C8.79717 19.4923 8.64766 19.5 8.5 19.5V20V20.5C8.68139 20.5 8.85771 20.4906 9.02631 20.478L8.98888 19.9794ZM8.5 20V19.5C5.18629 19.5 2.5 16.8137 2.5 13.5H2H1.5C1.5 17.366 4.63401 20.5 8.5 20.5V20ZM2 13.5H2.5C2.5 10.1863 5.18629 7.5 8.5 7.5V7V6.5C4.63401 6.5 1.5 9.63401 1.5 13.5H2ZM9.01033 20V19.5C9.28077 19.5 9.5 19.7192 9.5 19.9897H9H8.5C8.5 20.2715 8.72848 20.5 9.01033 20.5V20ZM9 19.9897H9.5C9.5 19.6925 9.24723 19.4586 8.95146 19.4808L8.98888 19.9794L9.02631 20.478C8.74254 20.4993 8.5 20.2748 8.5 19.9897H9ZM14.4514 10.8864L13.9936 11.0876C14.329 11.8506 15.0638 12.5 16 12.5V12V11.5C15.5581 11.5 15.1283 11.1838 14.9091 10.6852L14.4514 10.8864Z" fill="#222222"/>
<path d="M19.5355 13.5355C20.0388 13.0323 20.4288 12.4274 20.6795 11.7613C20.9302 11.0951 21.0358 10.3832 20.9893 9.67298C20.9427 8.96278 20.7451 8.2707 20.4096 7.64302C20.0741 7.01533 19.6085 6.4665 19.0438 6.03323C18.4792 5.59996 17.8285 5.29223 17.1354 5.13062C16.4422 4.969 15.7226 4.95722 15.0245 5.09607C14.3265 5.23492 13.6661 5.5212 13.0876 5.93577C12.5091 6.35033 12.0257 6.88363 11.6699 7.5" stroke="#222222"/>
</svg>
