<svg width="24" height="24" viewBox="0 0 24 24" fill="none" xmlns="http://www.w3.org/2000/svg">
<path d="M15 6C13.2234 6 11.6279 6.77294 10.5293 8H8C5.23858 8 3 10.2386 3 13C3 15.7614 5.23858 18 8 18H15C18.3137 18 21 15.3137 21 12C21 8.68629 18.3137 6 15 6Z" fill="#7E869E" fill-opacity="0.25"/>
<path d="M10.5293 8L10.9763 8.40022L10.7974 8.6H10.5293V8ZM8 8V7.4V8ZM15 6V6.6C13.4013 6.6 11.9661 7.2947 10.9763 8.40022L10.5293 8L10.0823 7.59978C11.2897 6.25117 13.0454 5.4 15 5.4V6ZM10.5293 8V8.6H8V8V7.4H10.5293V8ZM8 8V8.6C5.56995 8.6 3.6 10.5699 3.6 13H3H2.4C2.4 9.90721 4.90721 7.4 8 7.4V8ZM3 13H3.6C3.6 15.4301 5.56995 17.4 8 17.4V18V18.6C4.90721 18.6 2.4 16.0928 2.4 13H3ZM8 18V17.4H15V18V18.6H8V18ZM15 18V17.4C17.9823 17.4 20.4 14.9823 20.4 12H21H21.6C21.6 15.6451 18.6451 18.6 15 18.6V18ZM21 12H20.4C20.4 9.01766 17.9823 6.6 15 6.6V6V5.4C18.6451 5.4 21.6 8.35492 21.6 12H21Z" fill="#222222"/>
<path d="M16.3177 17.8535C17.4213 17.6051 18.4321 17.0498 19.2337 16.2516C20.0352 15.4534 20.5948 14.4449 20.8479 13.3424C21.101 12.2399 21.0373 11.0884 20.6641 10.0205C20.2909 8.95268 19.6234 8.01208 18.7387 7.30723C17.854 6.60238 16.788 6.16198 15.6638 6.03683C14.5396 5.91169 13.4029 6.10689 12.3848 6.59993C11.3667 7.09297 10.5088 7.86375 9.9099 8.82338C9.31102 9.78301 8.99561 10.8924 9.00005 12.0236" stroke="#222222" stroke-width="1.2"/>
</svg>
