<svg width="24" height="24" viewBox="0 0 24 24" fill="none" xmlns="http://www.w3.org/2000/svg">
<path d="M8.5 7C11.16 7 13.4455 8.59813 14.4514 10.8864C14.7286 11.5172 15.311 12 16 12C18.2091 12 20 13.7909 20 16C20 18.2091 18.2091 20 16 20H9.01033C9.00463 20 9 19.9954 9 19.9897C9 19.9836 8.99488 19.9789 8.98888 19.9794C8.82744 19.9915 8.66452 20 8.5 20C4.91015 20 2 17.0899 2 13.5C2 9.91015 4.91015 7 8.5 7Z" fill="#7E869E" fill-opacity="0.25"/>
<path d="M16 12V11.4V11.4V12ZM16 20V20.6V20.6V20ZM8.98888 19.9794L9.03379 20.5777L8.98888 19.9794ZM8.5 7V7.6C10.9134 7.6 12.9885 9.04943 13.9021 11.1279L14.4514 10.8864L15.0006 10.645C13.9025 8.14683 11.4067 6.4 8.5 6.4V7ZM16 12V12.6C17.8778 12.6 19.4 14.1222 19.4 16H20H20.6C20.6 13.4595 18.5405 11.4 16 11.4V12ZM20 16H19.4C19.4 17.8778 17.8778 19.4 16 19.4V20V20.6C18.5405 20.6 20.6 18.5405 20.6 16H20ZM16 20V19.4H9.01033V20V20.6H16V20ZM8.98888 19.9794L8.94397 19.381C8.79111 19.3925 8.64429 19.4 8.5 19.4V20V20.6C8.68476 20.6 8.86376 20.5904 9.03379 20.5777L8.98888 19.9794ZM8.5 20V19.4C5.24152 19.4 2.6 16.7585 2.6 13.5H2H1.4C1.4 17.4212 4.57878 20.6 8.5 20.6V20ZM2 13.5H2.6C2.6 10.2415 5.24152 7.6 8.5 7.6V7V6.4C4.57878 6.4 1.4 9.57878 1.4 13.5H2ZM9.01033 20V19.4C9.336 19.4 9.6 19.664 9.6 19.9897H9H8.4C8.4 20.3267 8.67325 20.6 9.01033 20.6V20ZM9 19.9897H9.6C9.6 19.6342 9.2977 19.3545 8.94397 19.381L8.98888 19.9794L9.03379 20.5777C8.69207 20.6033 8.4 20.3331 8.4 19.9897H9ZM14.4514 10.8864L13.9021 11.1279C14.2491 11.9173 15.0143 12.6 16 12.6V12V11.4C15.6076 11.4 15.2082 11.1172 15.0006 10.645L14.4514 10.8864Z" fill="#222222"/>
<path d="M18.312 12.7787C18.9921 12.5426 19.5958 12.1273 20.0595 11.5768C20.5232 11.0262 20.8297 10.3606 20.9468 9.65037C21.0638 8.9401 20.987 8.21141 20.7245 7.54115C20.4619 6.87088 20.0234 6.28389 19.4551 5.84207C18.8868 5.40024 18.2098 5.11997 17.4955 5.0308C16.7812 4.94164 16.056 5.04689 15.3966 5.33544C14.7371 5.624 14.1677 6.08518 13.7484 6.67034C13.3292 7.25549 13.0756 7.94294 13.0145 8.66019" stroke="#222222" stroke-width="1.2"/>
</svg>
