<svg width="24" height="24" viewBox="0 0 24 24" fill="none" xmlns="http://www.w3.org/2000/svg">
<path d="M16 12V11V11V12ZM16 20V21V21V20ZM8.98888 19.9794L9.06374 20.9766L8.98888 19.9794ZM8.5 7V8C10.7489 8 12.6838 9.35029 13.5359 11.2888L14.4514 10.8864L15.3668 10.484C14.2072 7.84597 11.5711 6 8.5 6V7ZM16 12V13C17.6569 13 19 14.3431 19 16H20H21C21 13.2386 18.7614 11 16 11V12ZM20 16H19C19 17.6569 17.6569 19 16 19V20V21C18.7614 21 21 18.7614 21 16H20ZM16 20V19H9.01033V20V21H16V20ZM8.98888 19.9794L8.91403 18.9822C8.76689 18.9932 8.6308 19 8.5 19V20V21C8.69825 21 8.88798 20.9897 9.06374 20.9766L8.98888 19.9794ZM8.5 20V19C5.46243 19 3 16.5376 3 13.5H2H1C1 17.6421 4.35786 21 8.5 21V20ZM2 13.5H3C3 10.4624 5.46243 8 8.5 8V7V6C4.35786 6 1 9.35786 1 13.5H2ZM9.01033 20V19C9.55691 19 10 19.4431 10 19.9897H9H8C8 20.5477 8.45234 21 9.01033 21V20ZM9 19.9897H10C10 19.4013 9.49957 18.9382 8.91403 18.9822L8.98888 19.9794L9.06374 20.9766C8.49019 21.0196 8 20.566 8 19.9897H9ZM14.4514 10.8864L13.5359 11.2888C13.9294 12.184 14.8166 13 16 13V12V11C15.8053 11 15.5279 10.8505 15.3668 10.484L14.4514 10.8864Z" fill="#33363F"/>
<path d="M17.8785 12.9023C18.6142 12.7367 19.2881 12.3665 19.8224 11.8344C20.3568 11.3023 20.7299 10.6299 20.8986 9.89495C21.0673 9.15996 21.0248 8.39223 20.776 7.68034C20.5273 6.96845 20.0823 6.34139 19.4925 5.87149C18.9027 5.40159 18.192 5.10799 17.4425 5.02456C16.6931 4.94112 15.9352 5.07126 15.2565 5.39995C14.5778 5.72865 14.0059 6.2425 13.6066 6.88226C13.2073 7.52201 12.9971 8.26159 13 9.0157" stroke="#33363F" stroke-width="2"/>
</svg>
