<svg width="24" height="24" viewBox="0 0 24 24" fill="none" xmlns="http://www.w3.org/2000/svg">
<path d="M11.9996 21L11.9996 22H11.9996V21ZM6.00745 15.3086L5.00777 15.3339C5.00798 15.3423 5.0083 15.3508 5.00873 15.3592L6.00745 15.3086ZM17.9174 15.9958L16.931 15.8311L17.9174 15.9958ZM17.9174 15.9958L16.931 15.8311C16.5359 18.1968 14.4774 20 11.9996 20V21V22C15.4708 22 18.3502 19.4744 18.9037 16.1606L17.9174 15.9958ZM11.9996 21L11.9997 20C9.32489 19.9998 7.13995 17.8989 7.00617 15.258L6.00745 15.3086L5.00873 15.3592C5.19614 19.0586 8.25432 21.9997 11.9996 22L11.9996 21ZM6.30833 15V16H16.9996V15V14H6.30833V15ZM6.00745 15.3086L7.00713 15.2833C7.01707 15.6761 6.70131 16 6.30833 16V15V14C5.57692 14 4.98926 14.6027 5.00777 15.3339L6.00745 15.3086ZM17.9174 15.9958L18.9037 16.1606C19.1154 14.8931 18.0496 14 16.9996 14V15V16C17.0048 16 16.9939 16.0025 16.9746 15.9823C16.9638 15.9708 16.949 15.9503 16.939 15.9194C16.9283 15.8865 16.9271 15.8544 16.931 15.8311L17.9174 15.9958Z" fill="#222222"/>
<path d="M16.7562 11.3437L15.964 11.9538L16.7562 11.3437ZM16.7562 11.3437L15.964 11.9538C16.6138 12.7977 17 13.8523 17 15H18H19C19 13.3948 18.4578 11.9142 17.5485 10.7335L16.7562 11.3437ZM18 15H17C17 17.7614 14.7614 20 12 20V21V22C15.866 22 19 18.866 19 15H18ZM12 21V20C9.23858 20 7 17.7614 7 15H6H5C5 18.866 8.13401 22 12 22V21ZM6 15H7C7 13.8523 7.38616 12.7977 8.03604 11.9538L7.24376 11.3437L6.45149 10.7335C5.54219 11.9142 5 13.3948 5 15H6ZM7.97621 11V12H16.0238V11V10H7.97621V11ZM7.24376 11.3437L8.03604 11.9538C8.01755 11.9778 7.99742 11.9907 7.98544 11.9962C7.97474 12.0011 7.97151 12 7.97621 12V11V10C7.42292 10 6.83821 10.2314 6.45149 10.7335L7.24376 11.3437ZM16.7562 11.3437L17.5485 10.7335C17.1618 10.2314 16.5771 10 16.0238 10V11V12C16.0285 12 16.0253 12.0011 16.0146 11.9962C16.0026 11.9907 15.9825 11.9778 15.964 11.9538L16.7562 11.3437Z" fill="#222222"/>
<path d="M14 11L15.7486 6.62861C15.9004 6.24895 16.2681 6 16.677 6H19" stroke="#222222" stroke-width="2" stroke-linecap="round" stroke-linejoin="round"/>
<path d="M9 11L7.5 3.5" stroke="#222222" stroke-width="2" stroke-linecap="round" stroke-linejoin="round"/>
</svg>
