<svg width="24" height="24" viewBox="0 0 24 24" fill="none" xmlns="http://www.w3.org/2000/svg">
<path d="M16.9997 15C17.552 15 18.0085 15.4511 17.9175 15.9958C17.4431 18.8356 14.9742 21 11.9997 21C8.78966 20.9998 6.16815 18.4788 6.00754 15.3086C6.00326 15.1394 6.13922 15 6.30842 15H16.9997Z" fill="#222222"/>
<path d="M16.7562 11.3437L15.964 11.9538L16.7562 11.3437ZM16.7562 11.3437L15.964 11.9538C16.6138 12.7977 17 13.8523 17 15H18H19C19 13.3948 18.4578 11.9142 17.5485 10.7335L16.7562 11.3437ZM18 15H17C17 17.7614 14.7614 20 12 20V21V22C15.866 22 19 18.866 19 15H18ZM12 21V20C9.23858 20 7 17.7614 7 15H6H5C5 18.866 8.13401 22 12 22V21ZM6 15H7C7 13.8523 7.38616 12.7977 8.03604 11.9538L7.24376 11.3437L6.45149 10.7335C5.54219 11.9142 5 13.3948 5 15H6ZM7.97621 11V12H16.0238V11V10H7.97621V11ZM7.24376 11.3437L8.03604 11.9538C8.01755 11.9778 7.99742 11.9907 7.98544 11.9962C7.97474 12.0011 7.97151 12 7.97621 12V11V10C7.42292 10 6.83821 10.2314 6.45149 10.7335L7.24376 11.3437ZM16.7562 11.3437L17.5485 10.7335C17.1618 10.2314 16.5771 10 16.0238 10V11V12C16.0285 12 16.0253 12.0011 16.0146 11.9962C16.0026 11.9907 15.9825 11.9778 15.964 11.9538L16.7562 11.3437Z" fill="#222222"/>
<path d="M14 11L15.7486 6.62861C15.9004 6.24895 16.2681 6 16.677 6H19" stroke="#222222" stroke-width="2" stroke-linecap="round" stroke-linejoin="round"/>
<path d="M9 11L7.5 3.5" stroke="#222222" stroke-width="2" stroke-linecap="round" stroke-linejoin="round"/>
</svg>
