<svg width="24" height="24" viewBox="0 0 24 24" fill="none" xmlns="http://www.w3.org/2000/svg">
<path d="M18.0581 3.58829C19.4575 3.3084 20.6915 4.54236 20.4116 5.9418L18.7846 14.0775C18.3096 16.4527 16.4528 18.3095 14.0776 18.7846L5.94186 20.4115C4.54242 20.6914 3.30846 19.4575 3.58835 18.058L5.2153 9.92227C5.69034 7.5471 7.54716 5.69027 9.92233 5.21524L18.0581 3.58829ZM12.0005 7.99942C9.79132 7.99942 8.00046 9.79028 8.00046 11.9994C8.00046 14.2086 9.79132 15.9994 12.0005 15.9994C14.2094 15.9992 16.0005 14.2084 16.0005 11.9994C16.0005 9.79044 14.2094 7.99968 12.0005 7.99942ZM12.0005 9.99942C13.1048 9.99968 14.0005 10.895 14.0005 11.9994C14.0005 13.1038 13.1048 13.9992 12.0005 13.9994C10.8959 13.9994 10.0005 13.104 10.0005 11.9994C10.0005 10.8949 10.8959 9.99942 12.0005 9.99942Z" fill="#222222"/>
</svg>
