<svg width="24" height="24" viewBox="0 0 24 24" fill="none" xmlns="http://www.w3.org/2000/svg">
<path d="M12 3C16.9706 3 21 7.02944 21 12C21 16.9706 16.9706 21 12 21C7.02944 21 3 16.9706 3 12C3 7.02944 7.02944 3 12 3ZM10.2871 8.17969C9.9535 7.95847 9.52308 8.20692 9.54785 8.60645C9.62948 9.92261 9.83097 12.2435 10.2676 13C10.7042 13.7563 12.6138 15.0915 13.7129 15.8203C14.0465 16.0415 14.4769 15.7931 14.4521 15.3936C14.3705 14.0774 14.169 11.7565 13.7324 11C13.2958 10.2437 11.3862 8.90852 10.2871 8.17969Z" fill="#7E869E" fill-opacity="0.25"/>
<path d="M10.2871 8.17969L10.6187 7.67964L10.6187 7.67964L10.2871 8.17969ZM9.54785 8.60645L8.949 8.64358L8.949 8.64359L9.54785 8.60645ZM10.2676 13L9.74791 13.2999L9.74796 13.3L10.2676 13ZM13.7129 15.8203L13.3813 16.3204L13.3813 16.3204L13.7129 15.8203ZM14.4521 15.3936L15.051 15.3564V15.3564L14.4521 15.3936ZM13.7324 11L14.2521 10.7001L14.252 10.7L13.7324 11ZM12 3V3.6C16.6392 3.6 20.4 7.36081 20.4 12H21H21.6C21.6 6.69807 17.3019 2.4 12 2.4V3ZM21 12H20.4C20.4 16.6392 16.6392 20.4 12 20.4V21V21.6C17.3019 21.6 21.6 17.3019 21.6 12H21ZM12 21V20.4C7.36081 20.4 3.6 16.6392 3.6 12H3H2.4C2.4 17.3019 6.69807 21.6 12 21.6V21ZM3 12H3.6C3.6 7.36081 7.36081 3.6 12 3.6V3V2.4C6.69807 2.4 2.4 6.69807 2.4 12H3ZM10.2871 8.17969L10.6187 7.67964C9.87221 7.18464 8.89355 7.74936 8.949 8.64358L9.54785 8.60645L10.1467 8.56931C10.1476 8.58333 10.1443 8.60661 10.1309 8.63069C10.1186 8.65288 10.1015 8.66927 10.083 8.67992C10.0646 8.69057 10.0418 8.69722 10.0165 8.69676C9.98901 8.69626 9.96722 8.6875 9.95552 8.67974L10.2871 8.17969ZM9.54785 8.60645L8.949 8.64359C8.9902 9.30781 9.06208 10.2339 9.18017 11.0947C9.23917 11.5247 9.31091 11.9475 9.39855 12.3177C9.48321 12.6753 9.59349 13.0323 9.74791 13.2999L10.2676 13L10.7872 12.7001C10.7234 12.5894 10.6447 12.3727 10.5663 12.0412C10.4908 11.7223 10.4252 11.3408 10.369 10.9315C10.2568 10.1136 10.1871 9.22125 10.1467 8.5693L9.54785 8.60645ZM10.2676 13L9.74796 13.3C9.90245 13.5676 10.1565 13.8416 10.4239 14.0938C10.7007 14.3548 11.031 14.6284 11.374 14.8945C12.0604 15.4272 12.8266 15.9525 13.3813 16.3204L13.7129 15.8203L14.0445 15.3203C13.5001 14.9592 12.762 14.4526 12.1097 13.9465C11.7832 13.6931 11.4856 13.4456 11.2472 13.2207C10.9994 12.9871 10.851 12.8106 10.7872 12.7L10.2676 13ZM13.7129 15.8203L13.3813 16.3204C14.1278 16.8154 15.1065 16.2506 15.051 15.3564L14.4521 15.3936L13.8533 15.4307C13.8524 15.4167 13.8557 15.3934 13.8691 15.3693C13.8814 15.3471 13.8985 15.3307 13.917 15.3201C13.9354 15.3094 13.9582 15.3028 13.9835 15.3032C14.011 15.3037 14.0328 15.3125 14.0445 15.3203L13.7129 15.8203ZM14.4521 15.3936L15.051 15.3564C15.0098 14.6922 14.9379 13.7661 14.8198 12.9053C14.7608 12.4753 14.6891 12.0525 14.6015 11.6823C14.5168 11.3247 14.4065 10.9677 14.2521 10.7001L13.7324 11L13.2128 11.2999C13.2766 11.4106 13.3553 11.6273 13.4337 11.9588C13.5092 12.2777 13.5748 12.6592 13.631 13.0685C13.7432 13.8864 13.8129 14.7787 13.8533 15.4307L14.4521 15.3936ZM13.7324 11L14.252 10.7C14.0976 10.4324 13.8435 10.1584 13.5761 9.90622C13.2993 9.64521 12.969 9.37164 12.626 9.10551C11.9396 8.57283 11.1734 8.04745 10.6187 7.67964L10.2871 8.17969L9.95552 8.67974C10.4999 9.04075 11.238 9.54736 11.8903 10.0535C12.2168 10.3069 12.5144 10.5544 12.7528 10.7793C13.0006 11.0129 13.149 11.1894 13.2128 11.3L13.7324 11Z" fill="#222222"/>
</svg>
