<svg width="24" height="24" viewBox="0 0 24 24" fill="none" xmlns="http://www.w3.org/2000/svg">
<path d="M18.0581 3.58829C19.4575 3.3084 20.6915 4.54236 20.4116 5.9418L18.7846 14.0775C18.3096 16.4527 16.4528 18.3095 14.0776 18.7846L5.94186 20.4115C4.54242 20.6914 3.30846 19.4575 3.58835 18.058L5.2153 9.92227C5.69034 7.5471 7.54716 5.69027 9.92233 5.21524L18.0581 3.58829ZM11.9995 6.99942C9.23825 6.99965 6.99948 9.23814 6.99948 11.9994C6.99948 14.7607 9.23825 16.9992 11.9995 16.9994C14.7609 16.9994 16.9995 14.7608 16.9995 11.9994C16.9995 9.238 14.7609 6.99942 11.9995 6.99942Z" fill="#7E869E" fill-opacity="0.25"/>
<circle cx="12" cy="12" r="2" stroke="#222222" stroke-width="2" stroke-linecap="round"/>
</svg>
