<svg width="24" height="24" viewBox="0 0 24 24" fill="none" xmlns="http://www.w3.org/2000/svg">
<path d="M12 2C17.5228 2 22 6.47715 22 12C22 17.5228 17.5228 22 12 22C6.47715 22 2 17.5228 2 12C2 6.47715 6.47715 2 12 2ZM8.30273 7.04395C7.54684 6.8696 6.8698 7.54686 7.04395 8.30273L8.51855 14.6943C8.60883 15.0855 8.91449 15.3911 9.30566 15.4814L15.6973 16.9561C16.4533 17.1305 17.1305 16.4533 16.9561 15.6973L15.4814 9.30566L15.4375 9.16309C15.3131 8.84153 15.0365 8.59751 14.6943 8.51855L8.30273 7.04395ZM14.666 14.666L11.4824 13.9297L13.9297 11.4824L14.666 14.666ZM12.5156 10.0684L10.0684 12.5156L9.33301 9.33301L12.5156 10.0684Z" fill="#222222"/>
</svg>
