<svg width="24" height="24" viewBox="0 0 24 24" fill="none" xmlns="http://www.w3.org/2000/svg">
<path d="M14.0361 16C14.183 16.0001 14.323 16.0647 14.418 16.1768L17.9141 20.3096C17.3946 20.7406 16.7277 21 16 21H8C7.27202 21 6.6045 20.7408 6.08496 20.3096L9.58203 16.1768C9.67698 16.0647 9.817 16.0001 9.96387 16H14.0361ZM18.4434 4.2627C18.7927 4.75316 19 5.35195 19 6V18C19 18.5628 18.8409 19.087 18.5713 19.5371L15.1816 15.5312C14.8967 15.1946 14.4772 15.0001 14.0361 15H12.5V13.5C12.5 13.224 12.2759 13.0002 12 13C11.7241 13.0002 11.5 13.224 11.5 13.5V15H9.96387C9.52279 15.0001 9.10331 15.1946 8.81836 15.5312L5.42773 19.5371C5.15826 19.0871 5 18.5627 5 18V6C5 5.35215 5.2065 4.75308 5.55566 4.2627L8.85352 7.56055C9.13469 7.84169 9.51645 7.99986 9.91406 8H14.0859C14.4836 7.99992 14.8653 7.8417 15.1465 7.56055L18.4434 4.2627ZM16 3C16.6476 3 17.2461 3.20678 17.7363 3.55566L14.4395 6.85352C14.3458 6.94713 14.2184 6.99992 14.0859 7H9.91406C9.78166 6.99986 9.65419 6.94713 9.56055 6.85352L6.2627 3.55566C6.75308 3.2065 7.35215 3 8 3H16Z" fill="#33363F"/>
</svg>
