<svg width="24" height="24" viewBox="0 0 24 24" fill="none" xmlns="http://www.w3.org/2000/svg">
<path d="M8.6878 13.3951C8.77688 13.4842 8.78502 13.6251 8.71341 13.7288C8.30218 14.3239 8.05824 15.0226 8.01263 15.7503C8.00399 15.8881 7.89288 16.0002 7.75481 16.0002H3.24992C3.11185 16.0002 2.99956 15.8882 3.00339 15.7502C3.06004 13.709 3.80892 11.7523 5.11859 10.1988C5.2111 10.089 5.37731 10.0846 5.4788 10.1861L8.6878 13.3951ZM18.5191 10.186C18.6206 10.0846 18.7868 10.089 18.8793 10.1987C20.1896 11.7523 20.9397 13.7086 20.9964 15.7502C21.0003 15.8882 20.888 16.0002 20.7499 16.0002H16.245C16.107 16.0002 15.9959 15.8881 15.9872 15.7503C15.9414 15.0223 15.6964 14.324 15.2846 13.7288C15.2129 13.6251 15.221 13.4841 15.3101 13.395L18.5191 10.186ZM11.4999 11.8168C11.4999 11.9428 11.406 12.0483 11.2821 12.0709C10.7245 12.1726 10.1948 12.3915 9.72853 12.7136C9.62488 12.7852 9.48389 12.7771 9.39481 12.688L6.1868 9.48001C6.08531 9.37852 6.08974 9.21233 6.19947 9.11981C7.6221 7.92035 9.38211 7.19212 11.2362 7.03434C11.3793 7.02217 11.4999 7.13656 11.4999 7.28009V11.8168ZM12.4999 7.28008C12.4999 7.13655 12.6206 7.02217 12.7636 7.03434C14.6173 7.19204 16.3769 7.91993 17.7993 9.11884C17.9091 9.21135 17.9135 9.37757 17.812 9.47906L14.603 12.6881C14.514 12.7771 14.373 12.7853 14.2694 12.7137C13.8036 12.3919 13.2747 12.1727 12.7178 12.0709C12.5938 12.0482 12.4999 11.9428 12.4999 11.8168V7.28008ZM18.3642 9.63591C18.3705 9.64226 18.3764 9.64908 18.3827 9.65544L18.3437 9.61638C18.3503 9.62299 18.3576 9.62928 18.3642 9.63591Z" fill="#7E869E" fill-opacity="0.25"/>
<path d="M12.5 6.2754C12.5 6.13243 12.6198 6.01827 12.7623 6.02916C14.8825 6.19113 16.8969 7.02477 18.5107 8.40913C18.6193 8.50223 18.6233 8.66765 18.5221 8.76876L14.61 12.6809C14.5209 12.77 14.3799 12.7782 14.2763 12.7065C13.8085 12.3831 13.2774 12.1628 12.7179 12.0608C12.594 12.0382 12.5 11.9327 12.5 11.8067V6.2754Z" fill="#222222"/>
</svg>
