<svg width="24" height="24" viewBox="0 0 24 24" fill="none" xmlns="http://www.w3.org/2000/svg">
<path d="M8.84414 13.551C8.5076 13.9847 8.26449 14.4815 8.1293 15.01C7.9925 15.545 7.55744 16.0001 7.00528 16.0002H4.00039C3.44818 16.0002 2.994 15.551 3.05508 15.0022C3.26203 13.147 4.04326 11.3975 5.29336 10.0002L8.84414 13.551ZM18.7055 10.0002C19.9559 11.3976 20.7378 13.1467 20.9447 15.0022C21.0058 15.5508 20.5524 16 20.0004 16.0002H16.9945C16.4424 16 16.0073 15.545 15.8705 15.01C15.7353 14.4813 15.4914 13.9848 15.1547 13.551L18.7055 10.0002ZM11.5004 12.0374C10.7901 12.1269 10.1167 12.4051 9.55117 12.844L5.99942 9.29224C7.52119 7.93081 9.46165 7.12816 11.5004 7.01489V12.0374ZM12.5004 7.01489C14.5386 7.12833 16.478 7.93133 17.9994 9.29224L14.4467 12.844C13.8816 12.4059 13.2098 12.1269 12.5004 12.0374V7.01489Z" fill="#222222"/>
</svg>
