<svg width="24" height="24" viewBox="0 0 24 24" fill="none" xmlns="http://www.w3.org/2000/svg">
<path d="M14.2579 10L12.0001 20.3213L9.74231 10H14.2579ZM3.11829 9.9248C3.23587 9.97338 3.36499 10 3.50012 10H7.69543L9.40833 17.833L3.66223 10.8096C3.33777 10.413 3.17581 10.2143 3.1261 9.97363C3.12276 9.95743 3.12055 9.94113 3.11829 9.9248ZM20.8741 9.97363C20.8244 10.2143 20.6617 10.4128 20.337 10.8096L14.5909 17.833L16.3048 10H20.5001C20.6351 9.99998 20.7635 9.97234 20.881 9.92383C20.8787 9.94043 20.8775 9.95716 20.8741 9.97363ZM15.9825 3C17.4346 3 18.1608 3.00016 18.6954 3.40332C19.2301 3.80662 19.4303 4.50503 19.8292 5.90137L20.4279 8H16.3292L15.3917 3H15.9825ZM8.60852 3L7.67102 8H3.57141L4.17102 5.90137C4.56992 4.50522 4.76933 3.80665 5.30383 3.40332C5.83845 3.00006 6.5648 3 8.01672 3H8.60852ZM13.3585 3L14.296 8H9.70422L10.6417 3H13.3585Z" fill="#222222"/>
</svg>
