<svg width="24" height="24" viewBox="0 0 24 24" fill="none" xmlns="http://www.w3.org/2000/svg">
<path d="M17.2002 4C18.8802 4 19.7206 4.00018 20.3623 4.32715C20.9265 4.61472 21.3853 5.07347 21.6729 5.6377C21.9998 6.27941 22 7.11978 22 8.7998V15.2002C22 16.8802 21.9998 17.7206 21.6729 18.3623C21.3853 18.9265 20.9265 19.3853 20.3623 19.6729C19.7206 19.9998 18.8802 20 17.2002 20H13V19.2422C13.0001 18.7119 13.211 18.2031 13.5859 17.8281L16 15.4141L16.293 15.707C16.579 15.993 17.0091 16.0786 17.3828 15.9238C17.7564 15.769 18 15.4044 18 15V13C18 12.4477 17.5523 12 17 12H15C14.5956 12 14.231 12.2436 14.0762 12.6172C13.9214 12.9909 14.007 13.421 14.293 13.707L14.5859 14L13 15.5859V11H13.5C13.9044 11 14.269 10.7564 14.4238 10.3828C14.5786 10.0091 14.493 9.57897 14.207 9.29297L12.707 7.79297C12.5195 7.60544 12.2652 7.5 12 7.5C11.7679 7.5 11.5442 7.58073 11.3662 7.72656L11.293 7.79297L9.79297 9.29297C9.50697 9.57897 9.42139 10.0091 9.57617 10.3828C9.73098 10.7564 10.0956 11 10.5 11H11V15.5859L9.41406 14L9.70703 13.707C9.99303 13.421 10.0786 12.9909 9.92383 12.6172C9.76902 12.2436 9.40442 12 9 12H7C6.44772 12 6 12.4477 6 13V15C6 15.4044 6.24359 15.769 6.61719 15.9238C6.99086 16.0786 7.42103 15.993 7.70703 15.707L8 15.4141L10.4141 17.8281C10.7422 18.1563 10.9448 18.5871 10.9902 19.0449L11 19.2422V20H6.7998C5.11978 20 4.27941 19.9998 3.6377 19.6729C3.07347 19.3853 2.61472 18.9265 2.32715 18.3623C2.00018 17.7206 2 16.8802 2 15.2002V8.7998C2 7.11978 2.00018 6.27941 2.32715 5.6377C2.61472 5.07347 3.07347 4.61472 3.6377 4.32715C4.27941 4.00018 5.11978 4 6.7998 4H17.2002Z" fill="#222222"/>
</svg>
