<svg width="24" height="24" viewBox="0 0 24 24" fill="none" xmlns="http://www.w3.org/2000/svg">
<path d="M17.2002 4C18.8802 4 19.7206 4.00018 20.3623 4.32715C20.9265 4.61472 21.3853 5.07347 21.6729 5.6377C21.9998 6.27941 22 7.11978 22 8.7998V15.2002C22 16.8802 21.9998 17.7206 21.6729 18.3623C21.3853 18.9265 20.9265 19.3853 20.3623 19.6729C19.7206 19.9998 18.8802 20 17.2002 20H13V15.2422C13.0001 14.7119 13.211 14.2031 13.5859 13.8281L16 11.4141V12C16 12.5523 16.4477 13 17 13C17.5523 13 18 12.5523 18 12V8H14C13.4477 8 13 8.44772 13 9C13 9.55228 13.4477 10 14 10H14.5859L12.1719 12.4141C12.1123 12.4736 12.0554 12.5358 12 12.5986C11.9446 12.5358 11.8877 12.4736 11.8281 12.4141L9.41406 10H10C10.5523 10 11 9.55228 11 9C11 8.44772 10.5523 8 10 8H6V12C6 12.5523 6.44772 13 7 13C7.55228 13 8 12.5523 8 12V11.4141L10.4141 13.8281C10.789 14.2031 10.9999 14.7119 11 15.2422V20H6.7998C5.11978 20 4.27941 19.9998 3.6377 19.6729C3.07347 19.3853 2.61472 18.9265 2.32715 18.3623C2.00018 17.7206 2 16.8802 2 15.2002V8.7998C2 7.11978 2.00018 6.27941 2.32715 5.6377C2.61472 5.07347 3.07347 4.61472 3.6377 4.32715C4.27941 4.00018 5.11978 4 6.7998 4H17.2002Z" fill="#222222"/>
</svg>
