<svg width="24" height="24" viewBox="0 0 24 24" fill="none" xmlns="http://www.w3.org/2000/svg">
<path d="M16.2002 3C17.8802 3 18.7206 3.00018 19.3623 3.32715C19.9265 3.61472 20.3853 4.07347 20.6729 4.6377C20.9998 5.27941 21 6.11978 21 7.7998V16.2002C21 17.8802 20.9998 18.7206 20.6729 19.3623C20.3853 19.9265 19.9265 20.3853 19.3623 20.6729C18.7206 20.9998 17.8802 21 16.2002 21H7.7998C6.11978 21 5.27941 20.9998 4.6377 20.6729C4.07347 20.3853 3.61472 19.9265 3.32715 19.3623C3.00018 18.7206 3 17.8802 3 16.2002V7.7998C3 6.11978 3.00018 5.27941 3.32715 4.6377C3.61472 4.07347 4.07347 3.61472 4.6377 3.32715C5.27941 3.00018 6.11978 3 7.7998 3H16.2002ZM16.7998 6.40039C16.4685 5.95862 15.8422 5.86896 15.4004 6.2002C14.9586 6.53153 14.869 7.15779 15.2002 7.59961L15.501 8H15C13.805 8 12.733 8.52463 12 9.35547C11.2671 8.52463 10.195 8 9 8H8.49902L8.7998 7.59961C9.13104 7.15779 9.04139 6.53153 8.59961 6.2002C8.15779 5.86896 7.53153 5.95861 7.2002 6.40039L5.7002 8.40039L5.25 9L5.7002 9.59961L7.2002 11.5996C7.53153 12.0414 8.15779 12.131 8.59961 11.7998C9.04139 11.4685 9.13104 10.8422 8.7998 10.4004L8.49902 10H9C10.1046 10 11 10.8954 11 12V17C11 17.5523 11.4477 18 12 18C12.5523 18 13 17.5523 13 17V12L13.0107 11.7959C13.113 10.7872 13.9643 10 15 10H15.501L15.2002 10.4004C14.869 10.8422 14.9586 11.4685 15.4004 11.7998C15.8422 12.131 16.4685 12.0414 16.7998 11.5996L18.2998 9.59961L18.75 9L18.2998 8.40039L16.7998 6.40039Z" fill="#222222"/>
</svg>
