<svg width="24" height="24" viewBox="0 0 24 24" fill="none" xmlns="http://www.w3.org/2000/svg">
<path d="M16.2002 3C17.8802 3 18.7206 3.00018 19.3623 3.32715C19.9265 3.61472 20.3853 4.07347 20.6729 4.6377C20.9998 5.27941 21 6.11978 21 7.7998V16.2002C21 17.8802 20.9998 18.7206 20.6729 19.3623C20.3853 19.9265 19.9265 20.3853 19.3623 20.6729C18.7206 20.9998 17.8802 21 16.2002 21H7.7998C6.11978 21 5.27941 20.9998 4.6377 20.6729C4.07347 20.3853 3.61472 19.9265 3.32715 19.3623C3.00018 18.7206 3 17.8802 3 16.2002V7.7998C3 6.11978 3.00018 5.27941 3.32715 4.6377C3.61472 4.07347 4.07347 3.61472 4.6377 3.32715C5.27941 3.00018 6.11978 3 7.7998 3H16.2002ZM6 7V11C6 11.5523 6.44772 12 7 12C7.55228 12 8 11.5523 8 11V10.4141L10.4141 12.8281C10.789 13.2031 10.9999 13.7119 11 14.2422V18C11 18.5523 11.4477 19 12 19C12.5523 19 13 18.5523 13 18V14.2422C13.0001 13.7119 13.211 13.2031 13.5859 12.8281L16 10.4141V11C16 11.5523 16.4477 12 17 12C17.5523 12 18 11.5523 18 11V7H14C13.4477 7.00001 13 7.44772 13 8C13 8.55228 13.4477 8.99999 14 9H14.5859L12.1719 11.4141C12.1123 11.4736 12.0554 11.5358 12 11.5986C11.9446 11.5358 11.8877 11.4736 11.8281 11.4141L9.41406 9H10C10.5523 9 11 8.55228 11 8C11 7.44772 10.5523 7 10 7H6Z" fill="#222222"/>
</svg>
