<svg width="26" height="24" viewBox="0 0 26 24" fill="none" xmlns="http://www.w3.org/2000/svg">
<path d="M17.2668 4.45215C18.1216 5.15162 18.2475 6.41175 17.5481 7.2666L9.15548 17.5244C8.13749 18.7686 6.31949 18.989 5.03341 18.0244L1.80002 15.5996C0.916629 14.9368 0.73794 13.6834 1.4006 12.7998C2.06341 11.9164 3.31687 11.7377 4.20041 12.4004L6.66623 14.25L14.4524 4.7334C15.1518 3.87863 16.412 3.75273 17.2668 4.45215Z" stroke="#222222" stroke-width="2" stroke-linecap="round"/>
<mask id="path-2-outside-1_9_55548" maskUnits="userSpaceOnUse" x="8.86951" y="3" width="18" height="17" fill="black">
<rect fill="white" x="8.86951" y="3" width="18" height="17"/>
<path d="M22.226 5.36704C22.5756 4.93986 23.2058 4.87618 23.6332 5.22544C24.0603 5.57502 24.1239 6.20526 23.7748 6.63267L15.4008 16.868C14.7067 17.7161 13.4587 17.8475 12.6029 17.1629L11.8695 16.575L13.1351 15.0272L13.8529 15.6014L22.226 5.36704Z"/>
</mask>
<path d="M22.226 5.36704L20.6782 4.10035L20.678 4.10061L22.226 5.36704ZM23.6332 5.22544L24.8998 3.67768L24.8987 3.67676L23.6332 5.22544ZM23.7748 6.63267L25.3227 7.89911L25.3236 7.89799L23.7748 6.63267ZM15.4008 16.868L16.9485 18.1347L16.9487 18.1345L15.4008 16.868ZM12.6029 17.1629L11.352 18.7235L11.3536 18.7248L12.6029 17.1629ZM11.8695 16.575L10.3212 15.3091L9.04286 16.8725L10.6186 18.1356L11.8695 16.575ZM13.1351 15.0272L14.3845 13.4655L12.8394 12.2293L11.5868 13.7612L13.1351 15.0272ZM13.8529 15.6014L12.6035 17.1632L14.1482 18.3989L15.4009 16.8678L13.8529 15.6014ZM22.226 5.36704L23.7737 6.63373C23.4253 7.0594 22.7966 7.12465 22.3676 6.77412L23.6332 5.22544L24.8987 3.67676C23.615 2.62771 21.7258 2.82031 20.6782 4.10035L22.226 5.36704ZM23.6332 5.22544L22.3665 6.7732C21.9406 6.4246 21.8757 5.79599 22.2259 5.36734L23.7748 6.63267L25.3236 7.89799C26.3721 6.61454 26.1801 4.72545 24.8998 3.67768L23.6332 5.22544ZM23.7748 6.63267L22.2268 5.36622L13.8528 15.6016L15.4008 16.868L16.9487 18.1345L25.3227 7.89911L23.7748 6.63267ZM15.4008 16.868L13.853 15.6013L13.8522 15.6011L12.6029 17.1629L11.3536 18.7248C13.0647 20.0934 15.5601 19.8312 16.9485 18.1347L15.4008 16.868ZM12.6029 17.1629L13.8538 15.6024L13.1204 15.0145L11.8695 16.575L10.6186 18.1356L11.352 18.7235L12.6029 17.1629ZM11.8695 16.575L13.4178 17.841L14.6834 16.2932L13.1351 15.0272L11.5868 13.7612L10.3212 15.3091L11.8695 16.575ZM13.1351 15.0272L11.8857 16.5889L12.6035 17.1632L13.8529 15.6014L15.1023 14.0397L14.3845 13.4655L13.1351 15.0272ZM13.8529 15.6014L15.4009 16.8678L23.7739 6.63347L22.226 5.36704L20.678 4.10061L12.305 14.335L13.8529 15.6014Z" fill="#222222" mask="url(#path-2-outside-1_9_55548)"/>
</svg>
