<svg width="24" height="24" viewBox="0 0 24 24" fill="none" xmlns="http://www.w3.org/2000/svg">
<path d="M8.00009 13L12.2278 16.3821C12.6557 16.7245 13.2794 16.6586 13.6264 16.2345L22.0001 6" stroke="#222222" stroke-width="1.2" stroke-linecap="round"/>
<path d="M1.51941 13.6399C1.71824 13.3748 2.09514 13.321 2.36023 13.5198L5.59266 15.9446C5.76405 16.0731 6.00671 16.0439 6.14246 15.8782L7.10926 14.6946L8.03113 15.4632L7.07117 16.638C6.52827 17.3013 5.55875 17.4197 4.87293 16.9056L1.63953 14.4808C1.37452 14.282 1.3208 13.905 1.51941 13.6399ZM14.535 5.62041C14.7448 5.36403 15.1233 5.32585 15.3798 5.53545C15.6361 5.74522 15.6743 6.12373 15.4647 6.38017L10.5653 12.3675L9.64246 11.5989L14.535 5.62041Z" fill="#7E869E" fill-opacity="0.25"/>
</svg>
