<svg width="24" height="24" viewBox="0 0 24 24" fill="none" xmlns="http://www.w3.org/2000/svg">
<path d="M8.00009 13L12.2278 16.3821C12.6557 16.7245 13.2794 16.6586 13.6264 16.2345L22.0001 6" stroke="#33363F" stroke-width="2" stroke-linecap="round"/>
<path d="M1.20043 13.4005C1.53177 12.9588 2.15805 12.8691 2.59985 13.2003L5.83324 15.6251L6.48559 14.8263L8.0227 16.1066L7.3811 16.8917C6.70245 17.7209 5.49033 17.8675 4.63305 17.2247L1.40063 14.7999C0.958852 14.4686 0.869199 13.8423 1.20043 13.4005ZM14.2258 5.3673C14.5754 4.94008 15.2056 4.87643 15.633 5.2257C16.0601 5.57531 16.1238 6.20556 15.7747 6.63293L11.1897 12.2355L9.65258 10.9552L14.2258 5.3673Z" fill="#33363F"/>
</svg>
