<svg width="26" height="24" viewBox="0 0 26 24" fill="none" xmlns="http://www.w3.org/2000/svg">
<path d="M24.2663 4.45215C25.1211 5.15162 25.247 6.41175 24.5476 7.2666L16.1736 17.501C15.1326 18.7731 13.2619 18.9709 11.9782 17.9443L7.7507 14.5615C6.88821 13.8715 6.74825 12.6135 7.4382 11.751C8.12819 10.8885 9.38623 10.7486 10.2487 11.4385L13.7048 14.2021L21.4519 4.7334C22.1514 3.87863 23.4115 3.75273 24.2663 4.45215Z" stroke="#222222" stroke-width="2" stroke-linecap="round"/>
<mask id="path-2-outside-1_9_55523" maskUnits="userSpaceOnUse" x="-0.999878" y="3.00024" width="20" height="17" fill="black">
<rect fill="white" x="-0.999878" y="3.00024" width="20" height="17"/>
<path d="M2.20004 13.4005C2.53138 12.9588 3.15765 12.8691 3.59945 13.2003L6.83285 15.6251L6.85238 15.5997L8.38949 16.88L8.3807 16.8917C7.70205 17.7209 6.48994 17.8675 5.63265 17.2247L2.40023 14.7999C1.95846 14.4686 1.8688 13.8423 2.20004 13.4005ZM15.2254 5.3673C15.575 4.94008 16.2052 4.87643 16.6327 5.2257C17.0597 5.57531 17.1234 6.20556 16.7743 6.63293L12.8221 11.462L11.285 10.1818L15.2254 5.3673Z"/>
</mask>
<path d="M2.20004 13.4005L0.600117 12.2004L0.599807 12.2008L2.20004 13.4005ZM3.59945 13.2003L4.79937 11.6003L4.79914 11.6001L3.59945 13.2003ZM6.83285 15.6251L5.63293 17.2252L7.21351 18.4105L8.4181 16.8445L6.83285 15.6251ZM6.85238 15.5997L8.13236 14.063L6.5348 12.7323L5.26713 14.3803L6.85238 15.5997ZM8.38949 16.88L9.98949 18.08L11.1298 16.5596L9.66947 15.3432L8.38949 16.88ZM8.3807 16.8917L9.92841 18.1584L9.95526 18.1256L9.9807 18.0917L8.3807 16.8917ZM5.63265 17.2247L4.4325 18.8246L4.43286 18.8249L5.63265 17.2247ZM2.40023 14.7999L3.60039 13.2L3.60023 13.1999L2.40023 14.7999ZM15.2254 5.3673L16.7731 6.63404L16.7732 6.6339L15.2254 5.3673ZM16.6327 5.2257L17.8995 3.6781L17.8982 3.67702L16.6327 5.2257ZM16.7743 6.63293L18.322 7.89961L18.323 7.89834L16.7743 6.63293ZM12.8221 11.462L11.5421 12.9988L13.0922 14.2899L14.3699 12.7287L12.8221 11.462ZM11.285 10.1818L9.73729 8.91503L8.4814 10.4495L10.005 11.7185L11.285 10.1818ZM2.20004 13.4005L3.79995 14.6006C3.46902 15.0418 2.84211 15.1322 2.39976 14.8005L3.59945 13.2003L4.79914 11.6001C3.47318 10.606 1.59374 10.8758 0.600117 12.2004L2.20004 13.4005ZM3.59945 13.2003L2.39953 14.8004L5.63293 17.2252L6.83285 15.6251L8.03277 14.0251L4.79937 11.6003L3.59945 13.2003ZM6.83285 15.6251L8.4181 16.8445L8.43763 16.8191L6.85238 15.5997L5.26713 14.3803L5.2476 14.4057L6.83285 15.6251ZM6.85238 15.5997L5.57239 17.1365L7.1095 18.4168L8.38949 16.88L9.66947 15.3432L8.13236 14.063L6.85238 15.5997ZM8.38949 16.88L6.78949 15.68L6.7807 15.6917L8.3807 16.8917L9.9807 18.0917L9.98949 18.08L8.38949 16.88ZM8.3807 16.8917L6.83299 15.625L6.83245 15.6246L5.63265 17.2247L4.43286 18.8249C6.14672 20.1099 8.57055 19.8175 9.92841 18.1584L8.3807 16.8917ZM5.63265 17.2247L6.83281 15.6248L3.60039 13.2L2.40023 14.7999L1.20008 16.3998L4.4325 18.8246L5.63265 17.2247ZM2.40023 14.7999L3.60023 13.1999C4.0416 13.5309 4.13181 14.158 3.80026 14.6002L2.20004 13.4005L0.599807 12.2008C-0.394203 13.5267 -0.12469 15.4062 1.20023 16.3999L2.40023 14.7999ZM15.2254 5.3673L16.7732 6.6339C16.4248 7.05973 15.796 7.12483 15.3671 6.77438L16.6327 5.2257L17.8982 3.67702C16.6145 2.62804 14.7253 2.82042 13.6776 4.10071L15.2254 5.3673ZM16.6327 5.2257L15.3658 6.77331C14.9403 6.42498 14.875 5.7965 15.2255 5.36751L16.7743 6.63293L18.323 7.89834C19.3719 6.61462 19.1792 4.72565 17.8995 3.6781L16.6327 5.2257ZM16.7743 6.63293L15.2265 5.36625L11.2744 10.1954L12.8221 11.462L14.3699 12.7287L18.322 7.89961L16.7743 6.63293ZM12.8221 11.462L14.1021 9.92527L12.565 8.645L11.285 10.1818L10.005 11.7185L11.5421 12.9988L12.8221 11.462ZM11.285 10.1818L12.8327 11.4485L16.7731 6.63404L15.2254 5.3673L13.6777 4.10057L9.73729 8.91503L11.285 10.1818Z" fill="#222222" mask="url(#path-2-outside-1_9_55523)"/>
</svg>
