<svg width="24" height="24" viewBox="0 0 24 24" fill="none" xmlns="http://www.w3.org/2000/svg">
<path d="M8.00012 13L12.2278 16.3821C12.6557 16.7245 13.2794 16.6586 13.6264 16.2345L22.0001 6" stroke="#222222" stroke-linecap="round"/>
<path d="M1.59963 13.7C1.76523 13.4792 2.07893 13.434 2.29982 13.5994L5.53322 16.0242C5.74751 16.1849 6.05006 16.1484 6.21974 15.9412L6.87013 15.1453L7.63771 15.7859L6.99416 16.574C6.48516 17.1961 5.57567 17.3072 4.93263 16.825L1.70021 14.4002C1.47942 14.2345 1.43423 13.9208 1.59963 13.7ZM14.6133 5.68336C14.7882 5.46964 15.1027 5.4382 15.3164 5.61304C15.5301 5.78791 15.5616 6.10245 15.3867 6.31617L10.8047 11.9158L10.0371 11.2752L14.6133 5.68336Z" fill="#222222"/>
</svg>
