<svg width="24" height="24" viewBox="0 0 24 24" fill="none" xmlns="http://www.w3.org/2000/svg">
<path d="M14.5 10.103C15.6124 10.6722 16.5063 11.6071 17.0195 12.7505C17.1021 12.9344 17.1609 13.0648 17.2061 13.1597C17.2283 13.2065 17.245 13.2403 17.2578 13.2642C17.2665 13.2803 17.2718 13.2888 17.2734 13.2915C17.3428 13.3884 17.3791 13.4183 17.4004 13.4321C17.4217 13.4459 17.464 13.4671 17.5811 13.4907C17.6167 13.4979 17.6908 13.5005 18 13.5005C19.933 13.5005 21.5 15.0675 21.5 17.0005C21.4999 18.9334 19.933 20.5005 18 20.5005H6C4.06705 20.5005 2.50008 18.9334 2.5 17.0005C2.5 15.0675 4.067 13.5005 6 13.5005C6.30915 13.5005 6.38329 13.4979 6.41895 13.4907C6.53595 13.4671 6.57827 13.4459 6.59961 13.4321C6.62091 13.4183 6.65722 13.3884 6.72656 13.2915C6.72824 13.2888 6.73348 13.2803 6.74219 13.2642C6.75502 13.2403 6.77166 13.2065 6.79395 13.1597C6.83908 13.0648 6.8979 12.9344 6.98047 12.7505C7.49372 11.6071 8.38762 10.6722 9.5 10.103V11.2583C8.8012 11.7261 8.24051 12.3846 7.89258 13.1597C7.81194 13.3393 7.7483 13.4821 7.69727 13.5894C7.65011 13.6885 7.59807 13.7924 7.54004 13.8735C7.43296 14.0232 7.31032 14.1624 7.14258 14.271C6.9748 14.3796 6.79757 14.4348 6.61719 14.4712C6.45705 14.5035 6.25046 14.5005 6 14.5005C4.61929 14.5005 3.5 15.6198 3.5 17.0005C3.50008 18.3811 4.61933 19.5005 6 19.5005H18C19.3807 19.5005 20.4999 18.3811 20.5 17.0005C20.5 15.6198 19.3807 14.5005 18 14.5005C17.7495 14.5005 17.543 14.5035 17.3828 14.4712C17.2024 14.4348 17.0252 14.3796 16.8574 14.271C16.6897 14.1624 16.567 14.0232 16.46 13.8735C16.4019 13.7924 16.3499 13.6885 16.3027 13.5894C16.2517 13.4821 16.1881 13.3393 16.1074 13.1597C15.7595 12.3846 15.1988 11.7261 14.5 11.2583V10.103Z" fill="#222222"/>
<path d="M12 3L11.6464 2.64645L12 2.29289L12.3536 2.64645L12 3ZM12.5 13C12.5 13.2761 12.2761 13.5 12 13.5C11.7239 13.5 11.5 13.2761 11.5 13L12 13L12.5 13ZM8 7L7.64645 6.64645L11.6464 2.64645L12 3L12.3536 3.35355L8.35355 7.35355L8 7ZM12 3L12.3536 2.64645L16.3536 6.64645L16 7L15.6464 7.35355L11.6464 3.35355L12 3ZM12 3L12.5 3L12.5 13L12 13L11.5 13L11.5 3L12 3Z" fill="#222222"/>
</svg>
