<svg width="24" height="24" viewBox="0 0 24 24" fill="none" xmlns="http://www.w3.org/2000/svg">
<path d="M14.5 9.54541C15.8196 10.1514 16.8812 11.2214 17.4756 12.5454C17.5592 12.7316 17.615 12.8561 17.6572 12.9448C17.6673 12.9661 17.676 12.9833 17.6826 12.9966C17.6884 12.9968 17.6954 12.9983 17.7031 12.9985C17.7668 13.0004 17.8541 13.0005 18 13.0005C20.2091 13.0005 22 14.7913 22 17.0005C21.9999 19.2096 20.2091 21.0005 18 21.0005H6C3.79091 21.0005 2.00009 19.2096 2 17.0005C2 14.7913 3.79086 13.0005 6 13.0005C6.14593 13.0005 6.23321 13.0004 6.29688 12.9985C6.30415 12.9983 6.31087 12.9968 6.31641 12.9966C6.32306 12.9832 6.33257 12.9663 6.34277 12.9448C6.38498 12.8561 6.44085 12.7316 6.52441 12.5454C7.11876 11.2214 8.18041 10.1514 9.5 9.54541V11.8804C9.00866 12.2748 8.61119 12.782 8.34961 13.3647C8.26993 13.5422 8.20242 13.6907 8.14844 13.8042C8.10224 13.9013 8.03425 14.043 7.94727 14.1646C7.82132 14.3406 7.65517 14.5349 7.41406 14.6909C7.17299 14.8469 6.92796 14.9186 6.71582 14.9614C6.49341 15.0063 6.22092 15.0005 6 15.0005C4.89543 15.0005 4 15.8959 4 17.0005C4.00009 18.105 4.89548 19.0005 6 19.0005H18C19.1045 19.0005 19.9999 18.105 20 17.0005C20 15.8959 19.1046 15.0005 18 15.0005C17.7791 15.0005 17.5066 15.0063 17.2842 14.9614C17.072 14.9186 16.827 14.8469 16.5859 14.6909C16.3448 14.5349 16.1787 14.3406 16.0527 14.1646C15.9657 14.043 15.8978 13.9013 15.8516 13.8042C15.7976 13.6907 15.7301 13.5422 15.6504 13.3647C15.3888 12.782 14.9913 12.2748 14.5 11.8804V9.54541Z" fill="#33363F"/>
<path d="M12 3L11.2929 2.29289L12 1.58579L12.7071 2.29289L12 3ZM13 13C13 13.5523 12.5523 14 12 14C11.4477 14 11 13.5523 11 13L12 13L13 13ZM8 7L7.29289 6.29289L11.2929 2.29289L12 3L12.7071 3.70711L8.70711 7.70711L8 7ZM12 3L12.7071 2.29289L16.7071 6.29289L16 7L15.2929 7.70711L11.2929 3.70711L12 3ZM12 3L13 3L13 13L12 13L11 13L11 3L12 3Z" fill="#33363F"/>
</svg>
