<svg width="24" height="24" viewBox="0 0 24 24" fill="none" xmlns="http://www.w3.org/2000/svg">
<path d="M14.5 10.6713C15.4053 11.1953 16.1322 11.9937 16.5635 12.9545C16.727 13.3187 16.8081 13.5012 16.8662 13.5824C17.0429 13.8294 17.1848 13.9208 17.4824 13.9808C17.5803 14.0005 17.7203 14.0004 18 14.0004C19.6568 14.0004 21 15.3435 21 17.0004C21 18.6572 19.6569 20.0004 18 20.0004H6C4.34315 20.0004 3 18.6572 3 17.0004C3.00002 15.3435 4.34316 14.0004 6 14.0004C6.27969 14.0004 6.41972 14.0005 6.51758 13.9808C6.81523 13.9208 6.95712 13.8294 7.13379 13.5824C7.19188 13.5012 7.27303 13.3187 7.43652 12.9545C7.86783 11.9937 8.59468 11.1953 9.5 10.6713V13.0004C9.5 14.3811 10.6193 15.5004 12 15.5004C13.3807 15.5004 14.5 14.3811 14.5 13.0004V10.6713Z" fill="#222222"/>
<path d="M12 3L11.2929 2.29289L12 1.58579L12.7071 2.29289L12 3ZM13 13C13 13.5523 12.5523 14 12 14C11.4477 14 11 13.5523 11 13L12 13L13 13ZM8 7L7.29289 6.29289L11.2929 2.29289L12 3L12.7071 3.70711L8.70711 7.70711L8 7ZM12 3L12.7071 2.29289L16.7071 6.29289L16 7L15.2929 7.70711L11.2929 3.70711L12 3ZM12 3L13 3L13 13L12 13L11 13L11 3L12 3Z" fill="#222222"/>
</svg>
