<svg width="24" height="24" viewBox="0 0 24 24" fill="none" xmlns="http://www.w3.org/2000/svg">
<mask id="path-1-outside-1_9_55674" maskUnits="userSpaceOnUse" x="2" y="9" width="20" height="12" fill="black">
<rect fill="white" x="2" y="9" width="20" height="12"/>
<path d="M12 10C14.0325 10 15.7814 11.2129 16.5632 12.9543C16.7267 13.3185 16.8084 13.5006 16.8665 13.5818C17.0432 13.8288 17.1844 13.9202 17.4821 13.9803C17.58 14 17.72 14 18 14C19.6569 14 21 15.3431 21 17C21 18.6569 19.6569 20 18 20H6C4.34315 20 3 18.6569 3 17C3 15.3431 4.34315 14 6 14C6.28002 14 6.42003 14 6.5179 13.9803C6.81556 13.9202 6.95684 13.8288 7.13351 13.5818C7.1916 13.5006 7.27335 13.3185 7.43685 12.9543C8.21857 11.2129 9.96746 10 12 10Z"/>
</mask>
<path d="M12 10C14.0325 10 15.7814 11.2129 16.5632 12.9543C16.7267 13.3185 16.8084 13.5006 16.8665 13.5818C17.0432 13.8288 17.1844 13.9202 17.4821 13.9803C17.58 14 17.72 14 18 14C19.6569 14 21 15.3431 21 17C21 18.6569 19.6569 20 18 20H6C4.34315 20 3 18.6569 3 17C3 15.3431 4.34315 14 6 14C6.28002 14 6.42003 14 6.5179 13.9803C6.81556 13.9202 6.95684 13.8288 7.13351 13.5818C7.1916 13.5006 7.27335 13.3185 7.43685 12.9543C8.21857 11.2129 9.96746 10 12 10Z" fill="#7E869E" fill-opacity="0.25"/>
<path d="M18 20V20.6V20.6V20ZM6.5179 13.9803L6.63653 14.5684L6.5179 13.9803ZM7.13351 13.5818L6.64552 13.2327L7.13351 13.5818ZM16.5632 12.9543L17.1105 12.7086L16.5632 12.9543ZM16.8665 13.5818L17.3545 13.2327L16.8665 13.5818ZM17.4821 13.9803L17.3635 14.5684V14.5684L17.4821 13.9803ZM12 10V10.6C13.7876 10.6 15.3273 11.6662 16.0158 13.2L16.5632 12.9543L17.1105 12.7086C16.2356 10.7595 14.2774 9.4 12 9.4V10ZM18 14V14.6C19.3255 14.6 20.4 15.6745 20.4 17H21H21.6C21.6 15.0118 19.9882 13.4 18 13.4V14ZM21 17H20.4C20.4 18.3255 19.3255 19.4 18 19.4V20V20.6C19.9882 20.6 21.6 18.9882 21.6 17H21ZM18 20V19.4H6V20V20.6H18V20ZM6 20V19.4C4.67452 19.4 3.6 18.3255 3.6 17H3H2.4C2.4 18.9882 4.01177 20.6 6 20.6V20ZM3 17H3.6C3.6 15.6745 4.67452 14.6 6 14.6V14V13.4C4.01177 13.4 2.4 15.0118 2.4 17H3ZM7.43685 12.9543L7.98423 13.2C8.67274 11.6662 10.2124 10.6 12 10.6V10V9.4C9.72257 9.4 7.7644 10.7595 6.88947 12.7086L7.43685 12.9543ZM6 14V14.6C6.24456 14.6 6.46393 14.6032 6.63653 14.5684L6.5179 13.9803L6.39928 13.3921C6.40079 13.3918 6.38171 13.3956 6.30926 13.3978C6.23815 13.3999 6.14374 13.4 6 13.4V14ZM7.43685 12.9543L6.88947 12.7086C6.80652 12.8934 6.74842 13.0227 6.70381 13.1165C6.65452 13.2201 6.63975 13.2408 6.64552 13.2327L7.13351 13.5818L7.6215 13.9309C7.68536 13.8416 7.74051 13.7307 7.78749 13.6319C7.83915 13.5233 7.90368 13.3794 7.98423 13.2L7.43685 12.9543ZM6.5179 13.9803L6.63653 14.5684C6.8234 14.5307 7.01453 14.473 7.19709 14.3548C7.37965 14.2367 7.51059 14.086 7.6215 13.9309L7.13351 13.5818L6.64552 13.2327C6.57977 13.3246 6.55173 13.3431 6.54506 13.3474C6.5384 13.3517 6.51006 13.3698 6.39928 13.3921L6.5179 13.9803ZM16.5632 12.9543L16.0158 13.2C16.0963 13.3794 16.1608 13.5233 16.2125 13.6319C16.2595 13.7307 16.3146 13.8416 16.3785 13.9309L16.8665 13.5818L17.3545 13.2327C17.3602 13.2408 17.3455 13.2201 17.2962 13.1165C17.2516 13.0227 17.1935 12.8934 17.1105 12.7086L16.5632 12.9543ZM18 14V13.4C17.8563 13.4 17.7619 13.3999 17.6907 13.3978C17.6183 13.3956 17.5992 13.3918 17.6007 13.3921L17.4821 13.9803L17.3635 14.5684C17.5361 14.6032 17.7554 14.6 18 14.6V14ZM16.8665 13.5818L16.3785 13.9309C16.4894 14.086 16.6203 14.2367 16.8029 14.3548C16.9855 14.473 17.1766 14.5307 17.3635 14.5684L17.4821 13.9803L17.6007 13.3921C17.4899 13.3698 17.4616 13.3517 17.4549 13.3474C17.4483 13.3431 17.4202 13.3246 17.3545 13.2327L16.8665 13.5818Z" fill="#7E869E" fill-opacity="0.25" mask="url(#path-1-outside-1_9_55674)"/>
<path d="M14.4996 9.99097C15.6534 10.568 16.5804 11.53 17.11 12.7097C17.1927 12.8941 17.251 13.0233 17.2955 13.1169C17.3321 13.1939 17.3499 13.2255 17.3541 13.2332C17.4195 13.3246 17.4479 13.3439 17.4547 13.3484C17.4617 13.3529 17.4908 13.3712 17.6002 13.3933C17.6001 13.3932 17.6206 13.3961 17.6901 13.3982C17.7611 13.4003 17.8561 13.4011 17.9996 13.4011C19.9879 13.4011 21.5992 15.0125 21.5992 17.0007C21.599 18.9888 19.9877 20.6003 17.9996 20.6003H5.99963C4.01171 20.6001 2.40023 18.9887 2.40002 17.0007C2.40002 15.0126 4.01159 13.4013 5.99963 13.4011C6.14311 13.4011 6.23813 13.4003 6.3092 13.3982C6.37281 13.3963 6.39566 13.3937 6.39905 13.3933C6.50653 13.3716 6.5368 13.3534 6.54456 13.3484C6.55121 13.3441 6.57961 13.3247 6.64514 13.2332C6.64936 13.2256 6.66723 13.1937 6.70374 13.1169C6.74826 13.0233 6.8066 12.8939 6.88928 12.7097C7.41869 11.5304 8.34631 10.569 9.49963 9.99194V11.3816C8.84311 11.8364 8.31471 12.4642 7.98401 13.2009C7.90358 13.3801 7.83835 13.5241 7.78674 13.6326C7.73983 13.7312 7.68446 13.8423 7.62073 13.9314C7.50994 14.0862 7.37913 14.2372 7.1969 14.3552C7.01454 14.4731 6.82301 14.5314 6.63635 14.5691C6.46382 14.6038 6.24399 14.6003 5.99963 14.6003C4.67433 14.6006 3.59924 15.6754 3.59924 17.0007C3.59945 18.3259 4.67446 19.4009 5.99963 19.4011H17.9996C19.325 19.4011 20.3998 18.326 20.4 17.0007C20.4 15.6752 19.3251 14.6003 17.9996 14.6003C17.7552 14.6003 17.5354 14.6039 17.3629 14.5691C17.1762 14.5314 16.9848 14.4733 16.8024 14.3552C16.62 14.2371 16.4894 14.0863 16.3785 13.9314C16.3147 13.8422 16.2595 13.7313 16.2125 13.6326C16.1609 13.524 16.0957 13.3802 16.0153 13.2009C15.6845 12.464 15.1564 11.8364 14.4996 11.3816V9.99097Z" fill="#222222"/>
<path d="M12 3L11.5757 2.57574L12 2.15147L12.4243 2.57574L12 3ZM12.6 13C12.6 13.3314 12.3314 13.6 12 13.6C11.6686 13.6 11.4 13.3314 11.4 13L12 13L12.6 13ZM8 7L7.57574 6.57574L11.5757 2.57574L12 3L12.4243 3.42426L8.42426 7.42426L8 7ZM12 3L12.4243 2.57574L16.4243 6.57574L16 7L15.5757 7.42426L11.5757 3.42426L12 3ZM12 3L12.6 3L12.6 13L12 13L11.4 13L11.4 3L12 3Z" fill="#222222"/>
</svg>
