<svg width="24" height="24" viewBox="0 0 24 24" fill="none" xmlns="http://www.w3.org/2000/svg">
<path d="M12 11C14.0325 11 15.7814 12.2129 16.5632 13.9543C16.7267 14.3185 16.8084 14.5006 16.8665 14.5818C17.0432 14.8288 17.1844 14.9202 17.4821 14.9803C17.58 15 17.72 15 18 15C19.6569 15 21 16.3431 21 18C21 19.6569 19.6569 21 18 21H6C4.34315 21 3 19.6569 3 18C3 16.3431 4.34315 15 6 15C6.28002 15 6.42003 15 6.5179 14.9803C6.81556 14.9202 6.95684 14.8288 7.13351 14.5818C7.1916 14.5006 7.27335 14.3185 7.43685 13.9543C8.21857 12.2129 9.96746 11 12 11Z" fill="#7E869E" fill-opacity="0.25"/>
<path d="M14.5 7.5L12 5L9.5 7.5M12 5L12 15" stroke="#222222" stroke-linecap="round"/>
</svg>
