<svg width="24" height="24" viewBox="0 0 24 24" fill="none" xmlns="http://www.w3.org/2000/svg">
<path d="M11.9999 5C17.4438 5.00003 20.4682 9.23392 21.5439 11.1162C21.7645 11.5023 21.8753 11.6955 21.8632 11.9834C21.8511 12.2714 21.7212 12.4597 21.4618 12.8359C20.1816 14.6933 16.706 19 11.9999 19C7.29381 19 3.81821 14.6933 2.53801 12.8359C2.27863 12.4596 2.14879 12.2714 2.13664 11.9834C2.12455 11.6955 2.23441 11.5022 2.455 11.1162C3.53055 9.23408 6.55568 5 11.9999 5ZM11.9999 9C10.3431 9 8.99992 10.3431 8.99992 12C8.99992 13.6569 10.3431 15 11.9999 15C13.6568 15 14.9999 13.6568 14.9999 12C14.9999 10.3432 13.6568 9.00003 11.9999 9Z" fill="#7E869E" fill-opacity="0.25"/>
<path d="M12 5C6.55576 5 3.53109 9.23425 2.45554 11.1164C2.23488 11.5025 2.12456 11.6956 2.1367 11.9836C2.14885 12.2716 2.27857 12.4598 2.53799 12.8362C3.8182 14.6935 7.29389 19 12 19C16.7061 19 20.1818 14.6935 21.462 12.8362C21.7214 12.4598 21.8511 12.2716 21.8633 11.9836C21.8754 11.6956 21.7651 11.5025 21.5445 11.1164C20.4689 9.23425 17.4442 5 12 5Z" stroke="#222222" stroke-width="1.2"/>
<circle cx="12" cy="12" r="3" stroke="#222222" stroke-width="1.2"/>
</svg>
