<svg width="24" height="24" viewBox="0 0 24 24" fill="none" xmlns="http://www.w3.org/2000/svg">
<path d="M12 4C16.2667 4 20 7 20 11.5C20 16.5681 14.0278 19.9701 12.4033 20.8018C12.1466 20.9331 11.8534 20.9331 11.5967 20.8018C9.9722 19.9701 4 16.5681 4 11.5C4 7 7.87627 4 12 4ZM15.2461 9.59961C14.5082 8.43457 12.7898 8.49212 12.1318 9.7041L12.0625 9.83203C12.0356 9.88151 11.9644 9.88151 11.9375 9.83203L11.8682 9.7041C11.2102 8.49212 9.4918 8.43457 8.75391 9.59961C8.3109 10.2991 8.39962 11.2102 8.96973 11.8105L11.7686 14.7568C11.8611 14.8542 11.9077 14.9026 11.9639 14.9141C11.9876 14.9188 12.0124 14.9188 12.0361 14.9141C12.0923 14.9026 12.1389 14.8542 12.2314 14.7568L15.0303 11.8105C15.6004 11.2102 15.6891 10.2991 15.2461 9.59961Z" fill="#222222"/>
</svg>
