<svg width="24" height="24" viewBox="0 0 24 24" fill="none" xmlns="http://www.w3.org/2000/svg">
<circle cx="17.5" cy="17.5" r="2.5" stroke="#222222" stroke-width="2"/>
<path d="M21 21L19.5 19.5" stroke="#222222" stroke-width="2" stroke-linecap="round"/>
<path d="M12 2C15.7712 2 17.6566 2.0003 18.8281 3.17188C19.9997 4.34345 20 6.22876 20 10V13.1699C19.2645 12.7443 18.4109 12.5 17.5 12.5C14.7386 12.5 12.5 14.7386 12.5 17.5C12.5 19.4424 13.6085 21.1243 15.2266 21.9521C14.3367 21.9976 13.2764 22 12 22C8.22876 22 6.34345 21.9997 5.17188 20.8281C4.0003 19.6566 4 17.7712 4 14V10C4 6.22876 4.0003 4.34345 5.17188 3.17188C6.34345 2.0003 8.22876 2 12 2ZM8 13C7.44772 13 7 13.4477 7 14C7 14.5523 7.44772 15 8 15H11C11.5523 15 12 14.5523 12 14C12 13.4477 11.5523 13 11 13H8ZM8 9C7.44772 9 7 9.44772 7 10C7 10.5523 7.44772 11 8 11H14C14.5523 11 15 10.5523 15 10C15 9.44772 14.5523 9 14 9H8ZM8 5C7.44772 5 7 5.44772 7 6C7 6.55228 7.44772 7 8 7H12C12.5523 7 13 6.55228 13 6C13 5.44772 12.5523 5 12 5H8Z" fill="#222222"/>
</svg>
