<svg width="24" height="24" viewBox="0 0 24 24" fill="none" xmlns="http://www.w3.org/2000/svg">
<path d="M20 6.58579C20 6.851 19.8946 7.10536 19.7071 7.29289L15.2929 11.7071C15.1054 11.8946 15 12.149 15 12.4142V17.6396C15 17.8549 14.8624 18.0462 14.6582 18.1143L9.6582 19.7803C9.33455 19.8882 9.00023 19.6477 9 19.3066V12.4142C9 12.149 8.89464 11.8946 8.70711 11.7071L4.29289 7.29289C4.10536 7.10536 4 6.851 4 6.58579V5C4 4.44772 4.44772 4 5 4H19C19.5523 4 20 4.44772 20 5V6.58579Z" fill="#7E869E" fill-opacity="0.25"/>
<path d="M15 17.6396L15.6 17.6397V17.6396H15ZM14.6582 18.1143L14.8479 18.6835L14.8479 18.6835L14.6582 18.1143ZM9.6582 19.7803L9.46853 19.211L9.46847 19.2111L9.6582 19.7803ZM9 19.3066H8.4L8.4 19.307L9 19.3066ZM8.70711 11.7071L9.13137 11.2828L8.70711 11.7071ZM15.2929 11.7071L14.8686 11.2828L15.2929 11.7071ZM19.7071 7.29289L20.1314 7.71716L19.7071 7.29289ZM19.7071 7.29289L19.2828 6.86863L14.8686 11.2828L15.2929 11.7071L15.7172 12.1314L20.1314 7.71716L19.7071 7.29289ZM15 12.4142H14.4V17.6396H15H15.6V12.4142H15ZM15 17.6396L14.4 17.6396C14.4 17.5972 14.4271 17.5588 14.4685 17.545L14.6582 18.1143L14.8479 18.6835C15.2977 18.5336 15.6 18.1125 15.6 17.6397L15 17.6396ZM14.6582 18.1143L14.4685 17.545L9.46853 19.211L9.6582 19.7803L9.84787 20.3495L14.8479 18.6835L14.6582 18.1143ZM9.6582 19.7803L9.46847 19.2111C9.53247 19.1897 9.59995 19.2372 9.6 19.3062L9 19.3066L8.4 19.307C8.4005 20.0582 9.13662 20.5866 9.84794 20.3495L9.6582 19.7803ZM9 19.3066H9.6V12.4142H9H8.4V19.3066H9ZM8.70711 11.7071L9.13137 11.2828L4.71716 6.86863L4.29289 7.29289L3.86863 7.71716L8.28284 12.1314L8.70711 11.7071ZM4 6.58579H4.6V5H4H3.4V6.58579H4ZM5 4V4.6H19V4V3.4H5V4ZM20 5H19.4V6.58579H20H20.6V5H20ZM19 4V4.6C19.2209 4.6 19.4 4.77909 19.4 5H20H20.6C20.6 4.11634 19.8837 3.4 19 3.4V4ZM4 5H4.6C4.6 4.77909 4.77909 4.6 5 4.6V4V3.4C4.11634 3.4 3.4 4.11634 3.4 5H4ZM4.29289 7.29289L4.71716 6.86863C4.64214 6.79361 4.6 6.69187 4.6 6.58579H4H3.4C3.4 7.01013 3.56857 7.4171 3.86863 7.71716L4.29289 7.29289ZM9 12.4142H9.6C9.6 11.9899 9.43143 11.5829 9.13137 11.2828L8.70711 11.7071L8.28284 12.1314C8.35786 12.2064 8.4 12.3081 8.4 12.4142H9ZM15.2929 11.7071L14.8686 11.2828C14.5686 11.5829 14.4 11.9899 14.4 12.4142H15H15.6C15.6 12.3081 15.6421 12.2064 15.7172 12.1314L15.2929 11.7071ZM19.7071 7.29289L20.1314 7.71716C20.4314 7.4171 20.6 7.01013 20.6 6.58579H20H19.4C19.4 6.69187 19.3579 6.79361 19.2828 6.86863L19.7071 7.29289Z" fill="#222222"/>
</svg>
