<svg width="24" height="24" viewBox="0 0 24 24" fill="none" xmlns="http://www.w3.org/2000/svg">
<path d="M18.5 13.0001H19V13.0001L18.5 13.0001ZM5.5 13.0001L5 13.0001V13.0001H5.5ZM12.0697 2.53916L12.3184 2.10542V2.10542L12.0697 2.53916ZM11.9303 2.53916L12.1791 2.97289L11.9303 2.53916ZM12.0697 2.53916L11.8209 2.97289C12.1446 3.15852 13.7003 4.09801 15.1702 5.78384C16.6372 7.46646 17.9999 9.86931 18 13.0001L18.5 13.0001L19 13.0001C18.9999 9.5581 17.4971 6.93104 15.9239 5.12666C14.3535 3.32549 12.6941 2.32089 12.3184 2.10542L12.0697 2.53916ZM18.5 13.0001H18C18 16.3138 15.3137 19.0001 12 19.0001V19.5001V20.0001C15.866 20.0001 19 16.8661 19 13.0001H18.5ZM12 19.5001V19.0001C8.68629 19.0001 6 16.3138 6 13.0001H5.5H5C5 16.8661 8.13401 20.0001 12 20.0001V19.5001ZM5.5 13.0001L6 13.0001C6.00006 9.8693 7.36275 7.46646 8.82982 5.78384C10.2997 4.09801 11.8554 3.15852 12.1791 2.97289L11.9303 2.53916L11.6816 2.10542C11.3059 2.32089 9.64651 3.32549 8.07609 5.12666C6.50286 6.93104 5.00007 9.5581 5 13.0001L5.5 13.0001ZM12.0697 2.53916L12.3184 2.10542C12.1206 1.99199 11.8794 1.99198 11.6816 2.10542L11.9303 2.53916L12.1791 2.97289C12.0688 3.03616 11.9312 3.03616 11.8209 2.97289L12.0697 2.53916Z" fill="#7E869E" fill-opacity="0.25"/>
<path d="M15.4999 13.9997L15.9999 14.0133V13.9997L15.4999 13.9997ZM15.4951 14.1794L15.9946 14.2047L15.9949 14.193L15.4951 14.1794ZM11.9999 17.4997L11.9999 17.9997H11.9999V17.4997ZM8.50482 14.1794L8.00487 14.193L8.00546 14.2047L8.50482 14.1794ZM8.49994 13.9997L7.99975 13.9997L8.00012 14.0133L8.49994 13.9997ZM12.0849 6.56443L11.7756 6.95725L12.0849 6.56443ZM11.9149 6.56443L11.6056 6.1716L11.9149 6.56443ZM12.0849 6.56443L11.7756 6.95725C12.2642 7.34201 14.9999 9.69184 14.9999 13.9997L15.4999 13.9997L15.9999 13.9997C15.9999 9.23674 12.9758 6.62957 12.3943 6.1716L12.0849 6.56443ZM15.4999 13.9997L15.0001 13.9861L14.9952 14.1658L15.4951 14.1794L15.9949 14.193L15.9998 14.0133L15.4999 13.9997ZM15.4951 14.1794L14.9957 14.1541C14.9155 15.739 13.6049 16.9997 11.9999 16.9997V17.4997V17.9997C14.1404 17.9997 15.8874 16.3186 15.9944 14.2047L15.4951 14.1794ZM11.9999 17.4997L11.9999 16.9997C10.395 16.9997 9.08439 15.739 9.00418 14.1541L8.50482 14.1794L8.00546 14.2047C8.11245 16.3186 9.85952 17.9997 11.9999 17.9997L11.9999 17.4997ZM8.50482 14.1794L9.00464 14.1658L8.99975 13.9861L8.49994 13.9997L8.00012 14.0133L8.00501 14.193L8.50482 14.1794ZM8.49994 13.9997L8.99994 13.9997C9 9.69183 11.7357 7.34201 12.2243 6.95725L11.9149 6.56443L11.6056 6.1716C11.024 6.62957 8.00001 9.23674 7.99994 13.9997L8.49994 13.9997ZM12.0849 6.56443L12.3943 6.1716C12.1625 5.98905 11.8374 5.98904 11.6056 6.1716L11.9149 6.56443L12.2243 6.95725C12.0932 7.0605 11.9067 7.06049 11.7756 6.95725L12.0849 6.56443Z" fill="#222222"/>
<path d="M12 22V14" stroke="#222222"/>
<circle cx="12" cy="14" r="1" fill="#222222"/>
</svg>
