<svg width="24" height="24" viewBox="0 0 24 24" fill="none" xmlns="http://www.w3.org/2000/svg">
<path d="M10.3652 4.06221C10.4189 4.02344 10.4882 4.02755 10.5381 4.071C10.9238 4.40765 12.5557 5.92348 13.7344 8.41865C13.7828 8.52098 13.9235 8.53758 13.9951 8.4499C14.6229 7.67808 15.2079 7.21382 15.418 7.0583C15.467 7.02208 15.532 7.02116 15.5811 7.05732C16.1034 7.44367 18.9725 9.75876 18.999 13.9997L19 14.0007C18.9999 14.0094 18.9991 14.0183 18.999 14.0271C18.9991 14.0374 19 14.048 19 14.0583C19 14.0782 18.9973 14.0983 18.9961 14.1179C18.9812 14.9968 18.8034 15.8656 18.4668 16.6784C18.115 17.5276 17.6001 18.3 16.9502 18.9499C16.3002 19.5998 15.5279 20.1147 14.6787 20.4665C13.8951 20.7911 13.0595 20.968 12.2129 20.9938C14.323 20.8832 16 19.1374 16 16.9997C16 16.7926 15.9845 16.5889 15.9541 16.3903C15.9539 16.3885 15.9544 16.3863 15.9541 16.3845C15.6186 14.1308 13.5447 12.2168 12.542 11.4099C12.2216 11.1522 11.7784 11.1522 11.458 11.4099C10.4553 12.2168 8.38144 14.1308 8.0459 16.3845C8.04563 16.3863 8.04609 16.3885 8.0459 16.3903C8.01555 16.5889 8.00001 16.7926 8 16.9997C8.00002 19.1371 9.67645 20.8827 11.7861 20.9938C10.9399 20.9679 10.1046 20.791 9.32129 20.4665C8.47209 20.1147 7.69977 19.5998 7.0498 18.9499C6.39987 18.3 5.88498 17.5276 5.5332 16.6784C5.18146 15.8292 5.00002 14.9189 5 13.9997C5.00005 8.16279 9.65959 4.57241 10.3652 4.06221Z" fill="#222222"/>
<path d="M11.458 11.4102C11.7784 11.1523 12.2216 11.1524 12.542 11.4102C13.5447 12.2171 15.6187 14.131 15.9541 16.3848C15.9544 16.3867 15.9538 16.3887 15.9541 16.3906C15.9845 16.5893 16 16.7929 16 17C16 19.2091 14.2091 21 12 21C9.79087 21 8.00002 19.2091 8 17C8 16.7929 8.01553 16.5893 8.0459 16.3906C8.04617 16.3887 8.04561 16.3867 8.0459 16.3848C8.38131 14.131 10.4552 12.2171 11.458 11.4102Z" fill="#7E869E" fill-opacity="0.25"/>
</svg>
