<svg width="24" height="24" viewBox="0 0 24 24" fill="none" xmlns="http://www.w3.org/2000/svg">
<path d="M11.9365 3.03306C11.9783 3.01112 12.0217 3.01112 12.0635 3.03306C12.7636 3.40098 18.9998 6.83681 19 12.4999C18.9999 15.0925 17.3646 17.3296 15 18.3729V14.6434C15.6217 13.9384 16 13.0137 16 11.9999C16 9.79072 14.2091 7.99985 12 7.99985C9.79086 7.99985 8 9.79072 8 11.9999C8 13.0137 8.37831 13.9384 9 14.6434V18.3729C6.6354 17.3296 5.00012 15.0925 5 12.4999C5.00016 6.83681 11.2364 3.40098 11.9365 3.03306Z" fill="#222222"/>
<path d="M12 21V12" stroke="#222222" stroke-width="2"/>
<circle cx="12" cy="12" r="2" fill="#222222"/>
</svg>
