<svg width="24" height="24" viewBox="0 0 24 24" fill="none" xmlns="http://www.w3.org/2000/svg">
<path d="M18.5 12C18.5 15.5899 15.5899 18.5 12 18.5C8.41015 18.5 5.5 15.5899 5.5 12C5.5 6.36645 11.2303 2.93685 11.9302 2.53894C11.9741 2.51402 12.0259 2.51402 12.0698 2.53894C12.7697 2.93685 18.5 6.36645 18.5 12Z" stroke="#222222" stroke-width="2" stroke-linejoin="round"/>
<path d="M15.4921 11.7808L14.4937 11.8369L14.494 11.8424L15.4921 11.7808ZM15.4999 11.9995H16.4999V11.9994L15.4999 11.9995ZM11.9999 15.4995L11.9999 16.4995H11.9999V15.4995ZM8.49994 11.9995L7.49994 11.9994V11.9995H8.49994ZM8.50677 11.7856L9.50497 11.8459L9.50527 11.8405L8.50677 11.7856ZM12.0859 6.56436L12.6904 5.76774L12.0859 6.56436ZM11.9142 6.56415L12.5186 7.36087L11.9142 6.56415ZM12.0859 6.56436L11.4814 7.36099C11.7118 7.53582 12.4603 8.13139 13.1599 8.9757C13.8743 9.83798 14.4376 10.8397 14.4937 11.8369L15.4921 11.7808L16.4905 11.7246C16.3991 10.0986 15.5209 8.69052 14.6999 7.69967C13.864 6.69084 12.9831 5.98987 12.6904 5.76774L12.0859 6.56436ZM15.4921 11.7808L14.494 11.8424C14.4979 11.9052 14.4999 11.9552 14.4999 11.9996L15.4999 11.9995L16.4999 11.9994C16.4999 11.8968 16.4953 11.8011 16.4902 11.7191L15.4921 11.7808ZM15.4999 11.9995H14.4999C14.4999 13.3802 13.3807 14.4995 11.9999 14.4995V15.4995V16.4995C14.4852 16.4995 16.4999 14.4848 16.4999 11.9995H15.4999ZM11.9999 15.4995L12 14.4995C10.6192 14.4995 9.49994 13.3802 9.49994 11.9995H8.49994H7.49994C7.49994 14.4848 9.5147 16.4995 11.9999 16.4995L11.9999 15.4995ZM8.49994 11.9995L9.49994 11.9996C9.49994 11.9513 9.50167 11.9004 9.50496 11.8459L8.50677 11.7856L7.50859 11.7254C7.50334 11.8124 7.49995 11.9041 7.49994 11.9994L8.49994 11.9995ZM8.50677 11.7856L9.50527 11.8405C9.56013 10.8427 10.1234 9.8402 10.8386 8.97698C11.5388 8.1318 12.2882 7.53563 12.5186 7.36087L11.9142 6.56415L11.3099 5.76744C11.0172 5.98949 10.1351 6.69115 9.29842 7.70105C8.4767 8.69293 7.5978 10.1027 7.50828 11.7307L8.50677 11.7856ZM12.0859 6.56436L12.6904 5.76774C12.2841 5.45945 11.7206 5.4559 11.3099 5.76744L11.9142 6.56415L12.5186 7.36087C12.2102 7.5948 11.7854 7.59165 11.4814 7.36099L12.0859 6.56436Z" fill="#222222"/>
<path d="M12 21V12" stroke="#222222" stroke-width="2"/>
</svg>
