<svg width="24" height="24" viewBox="0 0 24 24" fill="none" xmlns="http://www.w3.org/2000/svg">
<path d="M18.5 12C18.5 15.5899 15.5899 18.5 12 18.5C8.41015 18.5 5.5 15.5899 5.5 12C5.5 6.36645 11.2303 2.93685 11.9302 2.53894C11.9741 2.51402 12.0259 2.51402 12.0698 2.53894C12.7697 2.93685 18.5 6.36645 18.5 12Z" stroke="#222222" stroke-linejoin="round"/>
<path d="M15.4921 11.7808L14.9929 11.8088L14.9931 11.8116L15.4921 11.7808ZM15.4999 11.9995H15.9999V11.9995L15.4999 11.9995ZM11.9999 15.4995L11.9999 15.9995H11.9999V15.4995ZM8.49994 11.9995L7.99994 11.9995V11.9995H8.49994ZM8.50677 11.7856L9.00587 11.8158L9.00602 11.8131L8.50677 11.7856ZM12.0859 6.56436L11.7837 6.96268L12.0859 6.56436ZM11.9142 6.56415L11.6121 6.1658L11.9142 6.56415ZM12.0859 6.56436L11.7837 6.96268C12.0297 7.14933 12.8112 7.77126 13.5449 8.65669C14.286 9.55111 14.928 10.6544 14.9929 11.8088L15.4921 11.7808L15.9913 11.7527C15.9087 10.2838 15.1093 8.97739 14.3149 8.01868C13.5131 7.05098 12.6653 6.37636 12.3881 6.16605L12.0859 6.56436ZM15.4921 11.7808L14.9931 11.8116C14.9973 11.8791 14.9999 11.9406 14.9999 11.9996L15.4999 11.9995L15.9999 11.9995C15.9999 11.9114 15.9959 11.8271 15.9912 11.7499L15.4921 11.7808ZM15.4999 11.9995H14.9999C14.9999 13.6564 13.6568 14.9995 11.9999 14.9995V15.4995V15.9995C14.2091 15.9995 15.9999 14.2087 15.9999 11.9995H15.4999ZM11.9999 15.4995L11.9999 14.9995C10.3431 14.9995 8.99994 13.6563 8.99994 11.9995H8.49994H7.99994C7.99994 14.2086 9.79083 15.9995 11.9999 15.9995L11.9999 15.4995ZM8.49994 11.9995L8.99994 11.9996C8.99995 11.9395 9.00208 11.8784 9.00587 11.8158L8.50677 11.7856L8.00768 11.7555C8.00292 11.8344 7.99995 11.9159 7.99994 11.9995L8.49994 11.9995ZM8.50677 11.7856L9.00602 11.8131C9.06955 10.6577 9.71174 9.55338 10.4535 8.658C11.1878 7.77164 11.9705 7.14909 12.2164 6.96251L11.9142 6.56415L11.6121 6.1658C11.3349 6.37602 10.486 7.05131 9.68346 8.02004C8.88838 8.97974 8.08838 10.2877 8.00753 11.7582L8.50677 11.7856ZM12.0859 6.56436L12.3881 6.16605C12.1594 5.9925 11.843 5.99062 11.6121 6.1658L11.9142 6.56415L12.2164 6.96251C12.0878 7.06007 11.9101 7.0586 11.7837 6.96268L12.0859 6.56436Z" fill="#222222"/>
<path d="M12 21V12" stroke="#222222"/>
<circle cx="12" cy="12" r="1" fill="#222222"/>
</svg>
