<svg width="24" height="24" viewBox="0 0 24 24" fill="none" xmlns="http://www.w3.org/2000/svg">
<path d="M11.9307 2.53912C11.9742 2.5143 12.0258 2.5143 12.0693 2.53912C12.7687 2.94021 18.4997 6.42749 18.5 13.0001C18.5 16.4216 15.8562 19.2242 12.5 19.4796V14.8643C12.7984 14.6913 13 14.3699 13 14.0001C13 13.4478 12.5523 13.0001 12 13.0001C11.4477 13.0001 11 13.4478 11 14.0001C11 14.3699 11.2016 14.6913 11.5 14.8643V19.4796C8.14384 19.2242 5.5 16.4216 5.5 13.0001C5.50026 6.42749 11.2313 2.94021 11.9307 2.53912Z" fill="#7E869E" fill-opacity="0.25"/>
<path d="M12 22L12 19.4999" stroke="#222222"/>
<path d="M11.915 6.5652C11.9653 6.52555 12.0345 6.52555 12.0849 6.5652C12.6202 6.9868 15.4997 9.46494 15.4999 13.9998L15.4951 14.1795C15.4099 15.8612 14.138 17.2303 12.4999 17.4646V14.864C12.7983 14.691 12.9999 14.3695 12.9999 13.9998C12.9998 13.4476 12.5521 12.9998 11.9999 12.9998C11.4478 12.9998 11.0001 13.4476 10.9999 13.9998C10.9999 14.3695 11.2016 14.691 11.4999 14.864V17.4646C9.86189 17.2302 8.58993 15.8612 8.50482 14.1795L8.49994 13.9998C8.50018 9.46494 11.3796 6.9868 11.915 6.5652Z" fill="#222222"/>
</svg>
