<svg width="24" height="24" viewBox="0 0 24 24" fill="none" xmlns="http://www.w3.org/2000/svg">
<path d="M18.5 13.9996H19V13.9996L18.5 13.9996ZM18.0049 16.4879L18.4668 16.6793L18.4668 16.6792L18.0049 16.4879ZM16.5967 18.5973L16.9502 18.9508L16.9502 18.9508L16.5967 18.5973ZM14.4873 20.0055L14.6786 20.4674L14.6787 20.4674L14.4873 20.0055ZM12 20.5006V21.0006V21.0006V20.5006ZM9.5127 20.0055L9.32135 20.4674L9.32135 20.4674L9.5127 20.0055ZM7.40332 18.5973L7.04976 18.9508L7.04977 18.9508L7.40332 18.5973ZM5.99512 16.4879L5.53317 16.6792L5.53318 16.6793L5.99512 16.4879ZM5.5 14.0006L5 14.0006V14.0006H5.5ZM15.4071 6.58327L15.0655 6.21816L15.4071 6.58327ZM14.3544 7.48298L14.7637 7.19589L14.3544 7.48298ZM14.6034 7.48752L14.2061 7.1839L14.6034 7.48752ZM11.577 4.55593L11.8765 4.15556L11.577 4.55593ZM11.577 4.55593L11.2775 4.9563C11.5755 5.17929 12.8118 6.1542 13.945 7.77007L14.3544 7.48298L14.7637 7.19589C13.5485 5.46304 12.2235 4.41515 11.8765 4.15556L11.577 4.55593ZM14.6034 7.48752L15.0006 7.79115C15.338 7.34974 15.6204 7.06844 15.7487 6.94839L15.4071 6.58327L15.0655 6.21816C14.9032 6.37002 14.5821 6.69199 14.2061 7.1839L14.6034 7.48752ZM15.5917 6.58177L15.251 6.94773C15.7006 7.36632 17.9999 9.71641 18 13.9996L18.5 13.9996L19 13.9996C18.9999 9.33045 16.4893 6.73432 15.9324 6.21581L15.5917 6.58177ZM18.5 13.9996H18V14.0006H18.5H19V13.9996H18.5ZM18.5 14.0006H18C18 14.7883 17.8445 15.5686 17.5429 16.2966L18.0049 16.4879L18.4668 16.6792C18.8185 15.8302 19 14.9199 19 14.0006H18.5ZM18.0049 16.4879L17.5429 16.2966C17.2413 17.0248 16.7999 17.6869 16.2431 18.2437L16.5967 18.5973L16.9502 18.9508C17.6005 18.3006 18.1152 17.5281 18.4668 16.6793L18.0049 16.4879ZM16.5967 18.5973L16.2431 18.2437C15.6863 18.8006 15.0243 19.2419 14.296 19.5436L14.4873 20.0055L14.6787 20.4674C15.5275 20.1158 16.3 19.6011 16.9502 18.9508L16.5967 18.5973ZM14.4873 20.0055L14.296 19.5436C13.5679 19.8451 12.7878 20.0006 12 20.0006V20.5006V21.0006C12.9194 21.0006 13.8295 20.8192 14.6786 20.4674L14.4873 20.0055ZM12 20.5006V20.0006C11.2122 20.0006 10.4321 19.8451 9.70404 19.5436L9.5127 20.0055L9.32135 20.4674C10.1705 20.8192 11.0806 21.0006 12 21.0006V20.5006ZM9.5127 20.0055L9.70405 19.5436C8.97574 19.2419 8.3137 18.8006 7.75687 18.2437L7.40332 18.5973L7.04977 18.9508C7.70004 19.6011 8.4725 20.1158 9.32135 20.4674L9.5127 20.0055ZM7.40332 18.5973L7.75689 18.2437C7.20008 17.6869 6.75871 17.0248 6.45706 16.2966L5.99512 16.4879L5.53318 16.6793C5.88478 17.5281 6.39954 18.3006 7.04976 18.9508L7.40332 18.5973ZM5.99512 16.4879L6.45706 16.2966C6.15554 15.5686 6 14.7883 6 14.0006H5.5H5C5 14.9199 5.18152 15.8302 5.53317 16.6792L5.99512 16.4879ZM5.5 14.0006L6 14.0006C6.00009 11.3675 7.22642 9.22643 8.57206 7.66996C9.91746 6.11377 11.351 5.17934 11.6837 4.97305L11.4202 4.54812L11.1567 4.12319C10.7791 4.35733 9.25265 5.35372 7.81558 7.01595C6.37873 8.67791 5.0001 11.0428 5 14.0006L5.5 14.0006ZM15.4071 6.58327L15.7487 6.94839C15.6163 7.07226 15.3966 7.08331 15.251 6.94773L15.5917 6.58177L15.9324 6.21581C15.6805 5.98133 15.3039 5.99512 15.0655 6.21816L15.4071 6.58327ZM14.3544 7.48298L13.945 7.77007C14.2007 8.13471 14.7343 8.13963 15.0006 7.79115L14.6034 7.48752L14.2061 7.1839C14.3463 7.00051 14.6273 7.00138 14.7637 7.19589L14.3544 7.48298ZM11.577 4.55593L11.8765 4.15556C11.6706 4.00158 11.3874 3.98013 11.1567 4.12319L11.4202 4.54812L11.6837 4.97305C11.5525 5.05438 11.3895 5.04012 11.2775 4.9563L11.577 4.55593Z" fill="#222222"/>
<path d="M15.4921 16.781L14.9929 16.8091L14.9931 16.8118L15.4921 16.781ZM15.4999 16.9998H15.9999V16.9997L15.4999 16.9998ZM11.9999 20.4998L11.9999 20.9998H11.9999V20.4998ZM8.49994 16.9998L7.99994 16.9997V16.9998H8.49994ZM8.50677 16.7859L9.00587 16.816L9.00602 16.8133L8.50677 16.7859ZM12.0859 11.5646L12.3881 11.1663L12.0859 11.5646ZM11.9142 11.5644L12.2164 11.9628L11.9142 11.5644ZM12.0859 11.5646L11.7837 11.9629C12.0297 12.1496 12.8112 12.7715 13.5449 13.6569C14.286 14.5514 14.928 15.6546 14.9929 16.8091L15.4921 16.781L15.9913 16.7529C15.9087 15.2841 15.1093 13.9776 14.3149 13.0189C13.5131 12.0512 12.6653 11.3766 12.3881 11.1663L12.0859 11.5646ZM15.4921 16.781L14.9931 16.8118C14.9973 16.8794 14.9999 16.9409 14.9999 16.9998L15.4999 16.9998L15.9999 16.9997C15.9999 16.9117 15.9959 16.8274 15.9912 16.7502L15.4921 16.781ZM15.4999 16.9998H14.9999C14.9999 18.6566 13.6568 19.9998 11.9999 19.9998V20.4998V20.9998C14.2091 20.9998 15.9999 19.2089 15.9999 16.9998H15.4999ZM11.9999 20.4998L11.9999 19.9998C10.3431 19.9997 8.99994 18.6566 8.99994 16.9998H8.49994H7.99994C7.99994 19.2089 9.79083 20.9997 11.9999 20.9998L11.9999 20.4998ZM8.49994 16.9998L8.99994 16.9998C8.99995 16.9397 9.00208 16.8786 9.00587 16.816L8.50677 16.7859L8.00768 16.7557C8.00292 16.8346 7.99995 16.9161 7.99994 16.9997L8.49994 16.9998ZM8.50677 16.7859L9.00602 16.8133C9.06955 15.658 9.71174 14.5536 10.4535 13.6582C11.1878 12.7719 11.9705 12.1493 12.2164 11.9628L11.9142 11.5644L11.6121 11.166C11.3349 11.3763 10.486 12.0516 9.68346 13.0203C8.88838 13.98 8.08838 15.288 8.00753 16.7584L8.50677 16.7859ZM12.0859 11.5646L12.3881 11.1663C12.1594 10.9927 11.843 10.9909 11.6121 11.166L11.9142 11.5644L12.2164 11.9628C12.0878 12.0603 11.9101 12.0588 11.7837 11.9629L12.0859 11.5646Z" fill="#222222"/>
</svg>
