<svg width="24" height="24" viewBox="0 0 24 24" fill="none" xmlns="http://www.w3.org/2000/svg">
<path d="M19 19L5 19" stroke="#33363F" stroke-width="2" stroke-linecap="round" stroke-linejoin="round"/>
<path d="M12 4L12 7" stroke="#33363F" stroke-width="2" stroke-linecap="round" stroke-linejoin="round"/>
<path d="M20.5 9L18 10M3.5 9L6 10" stroke="#33363F" stroke-width="2" stroke-linecap="round" stroke-linejoin="round"/>
<path d="M17.5 5.5L16 7.5M6.5 5.5L8 7.5" stroke="#33363F" stroke-width="2" stroke-linecap="round" stroke-linejoin="round"/>
<path d="M14.6758 11C15.4321 11 16.07 11.5631 16.1641 12.3135L17 19H7L7.83594 12.3135C7.92998 11.5631 8.5679 11 9.32422 11H14.6758ZM12.5 12C12.2239 12 12 12.2239 12 12.5C12 12.7761 12.2239 13 12.5 13H14.5C14.7761 13 15 12.7761 15 12.5C15 12.2239 14.7761 12 14.5 12H12.5Z" fill="#33363F"/>
</svg>
