<svg width="24" height="24" viewBox="0 0 24 24" fill="none" xmlns="http://www.w3.org/2000/svg">
<path d="M7 17H6C5.44772 17 5 17.4477 5 18C5 18.5523 5.44772 19 6 19H7V21H4C3.44772 21 3 20.5523 3 20V16H7V17ZM7 7H6C5.44772 7 5 7.44772 5 8C5 8.55228 5.44772 9 6 9H7V10H6C5.44772 10 5 10.4477 5 11C5 11.5523 5.44772 12 6 12H7V14H3V5C3 4.44772 3.44772 4 4 4H7V7Z" fill="#222222"/>
<path d="M12 17H11C10.4477 17 10 17.4477 10 18C10 18.5523 10.4477 19 11 19H12V21H9C8.44772 21 8 20.5523 8 20V16H12V17ZM12 7H11C10.4477 7 10 7.44772 10 8C10 8.55228 10.4477 9 11 9H12V10H11C10.4477 10 10 10.4477 10 11C10 11.5523 10.4477 12 11 12H12V14H8V5C8 4.44772 8.44772 4 9 4H12V7Z" fill="#222222"/>
<path d="M20 20C20 20.5523 19.5523 21 19 21H14C13.4477 21 13 20.5523 13 20V16H20V20ZM16 17C15.4477 17 15 17.4477 15 18C15 18.5523 15.4477 19 16 19H17C17.5523 19 18 18.5523 18 18C18 17.4477 17.5523 17 17 17H16ZM19 4C19.5523 4 20 4.44772 20 5V14H13V5C13 4.44772 13.4477 4 14 4H19ZM16 10C15.4477 10 15 10.4477 15 11C15 11.5523 15.4477 12 16 12H17C17.5523 12 18 11.5523 18 11C18 10.4477 17.5523 10 17 10H16ZM16 7C15.4477 7 15 7.44772 15 8C15 8.55228 15.4477 9 16 9H17C17.5523 9 18 8.55228 18 8C18 7.44772 17.5523 7 17 7H16Z" fill="#222222"/>
</svg>
