<svg width="24" height="24" viewBox="0 0 24 24" fill="none" xmlns="http://www.w3.org/2000/svg">
<path d="M19.5 13.5001V9.90003C19.5 9.05996 19.5 8.63992 19.3365 8.31905C19.1927 8.03681 18.9632 7.80734 18.681 7.66353C18.3601 7.50003 17.9401 7.50003 17.1 7.50003H13.5276C13.1519 7.50003 12.9641 7.50003 12.7935 7.44825C12.6426 7.4024 12.5022 7.32724 12.3803 7.22706C12.2426 7.1139 12.1384 6.95758 11.93 6.64496L11.07 5.35471C10.8616 5.04208 10.7574 4.88577 10.6197 4.77261C10.4978 4.67243 10.3574 4.59727 10.2065 4.55142C10.0359 4.49963 9.84808 4.49963 9.47237 4.49963H6.9C6.05992 4.49963 5.63988 4.49963 5.31901 4.66312C5.03677 4.80693 4.8073 5.0364 4.66349 5.31865C4.5 5.63952 4.5 6.05956 4.5 6.89963V9.49983M19.5 15.75V16.1C19.5 16.9401 19.5 17.3602 19.3365 17.681C19.1927 17.9633 18.9632 18.1927 18.681 18.3365C18.3601 18.5 17.9401 18.5 17.1 18.5H6.9C6.05992 18.5 5.63988 18.5 5.31901 18.3365C5.03677 18.1927 4.8073 17.9633 4.66349 17.681C4.5 17.3602 4.5 16.9401 4.5 16.1V11.5001" stroke="#222222" stroke-linecap="round"/>
</svg>
