<svg width="24" height="24" viewBox="0 0 24 24" fill="none" xmlns="http://www.w3.org/2000/svg">
<path d="M8.20508 9C8.3603 9 8.44429 9.00007 8.50684 9.00293C8.52911 9.00395 8.54263 9.0051 8.5498 9.00586C8.57009 9.01076 8.58962 9.0184 8.60742 9.0293C8.59563 9.02206 8.60026 9.02265 8.63965 9.05859C8.68591 9.10082 8.74567 9.15973 8.85547 9.26953L10.7305 11.1445C10.9044 11.3184 11.1022 11.5253 11.3477 11.6758C11.5445 11.7964 11.7589 11.8856 11.9834 11.9395C12.2632 12.0066 12.5491 12 12.7949 12H18.5996C18.7125 12 18.8142 12.0006 18.9062 12.001C18.8868 12.0648 18.8654 12.1246 18.8369 12.1807C18.6931 12.4629 18.4629 12.6931 18.1807 12.8369C17.8598 13.0002 17.4393 13 16.5996 13H7.40039C6.56068 13 6.14015 13.0002 5.81934 12.8369C5.53709 12.6931 5.3069 12.4629 5.16309 12.1807C4.99981 11.8598 5 11.4393 5 10.5996V9.00195C5.11571 9.00106 5.24773 9 5.40039 9H8.20508ZM14 3.7998C14 4.34336 13.9989 4.81164 14.0303 5.19531C14.0626 5.59057 14.1344 5.98401 14.3271 6.3623C14.6147 6.92653 15.0735 7.38528 15.6377 7.67285C16.016 7.8656 16.4094 7.93742 16.8047 7.96973C17.1884 8.00107 17.6566 8 18.2002 8H19V10.002C18.8719 10.0011 18.7381 10 18.5996 10H12.7949C12.6397 10 12.5557 9.99993 12.4932 9.99707C12.4709 9.99605 12.4574 9.9949 12.4502 9.99414C12.4299 9.98924 12.4104 9.9816 12.3926 9.9707C12.4044 9.97794 12.3997 9.97735 12.3604 9.94141C12.3141 9.89918 12.2543 9.84027 12.1445 9.73047L10.2695 7.85547C10.0956 7.68158 9.89783 7.47466 9.65234 7.32422C9.45553 7.20362 9.24105 7.11443 9.0166 7.06055C8.73678 6.99337 8.45091 6.99999 8.20508 7H5.40039C5.2619 7 5.12813 7.00113 5 7.00195V5.40039C5 4.56068 4.99981 4.14015 5.16309 3.81934C5.3069 3.53709 5.53709 3.3069 5.81934 3.16309C6.14015 2.99981 6.56068 3 7.40039 3H14V3.7998ZM16.1084 3.14746C16.2093 3.2093 16.2959 3.29588 16.4688 3.46875L18.5312 5.53125C18.7041 5.70413 18.7907 5.79074 18.8525 5.8916C18.8738 5.9263 18.8914 5.96308 18.9082 6H18.2002C17.6236 6 17.2511 5.99874 16.9678 5.97559C16.6962 5.95339 16.5953 5.91581 16.5459 5.89062C16.3579 5.79479 16.2052 5.64207 16.1094 5.4541C16.0842 5.40466 16.0466 5.30381 16.0244 5.03223C16.0013 4.74889 16 4.37636 16 3.7998V3.0918C16.0369 3.10864 16.0737 3.1262 16.1084 3.14746Z" fill="#222222"/>
<path d="M3 11.4C3 10.5599 3 10.1399 3.16349 9.81901C3.3073 9.53677 3.53677 9.3073 3.81901 9.16349C4.13988 9 4.55992 9 5.4 9H8.20471C8.49822 9 8.64497 9 8.78308 9.03316C8.90552 9.06255 9.02258 9.11104 9.12994 9.17683C9.25104 9.25104 9.35481 9.35481 9.56236 9.56236L11.4376 11.4376C11.6452 11.6452 11.749 11.749 11.8701 11.8232C11.9774 11.889 12.0945 11.9374 12.2169 11.9668C12.355 12 12.5018 12 12.7953 12H18.6C19.4401 12 19.8601 12 20.181 12.1635C20.4632 12.3073 20.6927 12.5368 20.8365 12.819C21 13.1399 21 13.5599 21 14.4V19.6C21 20.4401 21 20.8601 20.8365 21.181C20.6927 21.4632 20.4632 21.6927 20.181 21.8365C19.8601 22 19.4401 22 18.6 22H5.4C4.55992 22 4.13988 22 3.81901 21.8365C3.53677 21.6927 3.3073 21.4632 3.16349 21.181C3 20.8601 3 20.4401 3 19.6V11.4Z" fill="#222222"/>
</svg>
