<svg width="24" height="24" viewBox="0 0 24 24" fill="none" xmlns="http://www.w3.org/2000/svg">
<path d="M3 8C3 7.06812 3 6.60218 3.15224 6.23463C3.35523 5.74458 3.74458 5.35523 4.23463 5.15224C4.60218 5 5.06812 5 6 5H8.34315C9.16065 5 9.5694 5 9.93694 5.15224C10.3045 5.30448 10.5935 5.59351 11.1716 6.17157L13 8H3Z" fill="#222222"/>
<path d="M17.7998 8C18.9199 8 19.4804 7.99979 19.9082 8.21777C20.2845 8.40951 20.5905 8.71554 20.7822 9.0918C21.0002 9.51962 21 10.0801 21 11.2002V16.7998C21 17.9199 21.0002 18.4804 20.7822 18.9082C20.5905 19.2845 20.2845 19.5905 19.9082 19.7822C19.4804 20.0002 18.9199 20 17.7998 20H6.2002C5.08009 20 4.51962 20.0002 4.0918 19.7822C3.71554 19.5905 3.40951 19.2845 3.21777 18.9082C2.99979 18.4804 3 17.9199 3 16.7998V8H17.7998ZM12 13.293L9.35352 10.6465L8.64648 11.3535L11.293 14L8.64648 16.6465L9.35352 17.3535L12 14.707L14.6465 17.3535L15.3535 16.6465L12.707 14L15.3535 11.3535L14.6465 10.6465L12 13.293Z" fill="#222222"/>
</svg>
