<svg width="24" height="24" viewBox="0 0 24 24" fill="none" xmlns="http://www.w3.org/2000/svg">
<path d="M3 8C3 7.06812 3 6.60218 3.15224 6.23463C3.35523 5.74458 3.74458 5.35523 4.23463 5.15224C4.60218 5 5.06812 5 6 5H8.34315C9.16065 5 9.5694 5 9.93694 5.15224C10.3045 5.30448 10.5935 5.59351 11.1716 6.17157L13 8H3Z" fill="#222222"/>
<path d="M17.7998 8C18.9199 8 19.4804 7.99979 19.9082 8.21777C20.2845 8.40951 20.5905 8.71554 20.7822 9.0918C21.0002 9.51962 21 10.0801 21 11.2002V16.7998C21 17.9199 21.0002 18.4804 20.7822 18.9082C20.5905 19.2845 20.2845 19.5905 19.9082 19.7822C19.4804 20.0002 18.9199 20 17.7998 20H6.2002C5.08009 20 4.51962 20.0002 4.0918 19.7822C3.71554 19.5905 3.40951 19.2845 3.21777 18.9082C2.99979 18.4804 3 17.9199 3 16.7998V8H17.7998ZM11.5 10C9.567 10 8 11.567 8 13.5C8 15.433 9.567 17 11.5 17C12.2484 17 12.9408 16.7634 13.5098 16.3633C13.4687 16.6626 13.5628 16.9769 13.793 17.207L15.293 18.707C15.6835 19.0976 16.3165 19.0976 16.707 18.707C17.0976 18.3165 17.0976 17.6835 16.707 17.293L15.207 15.793C14.9769 15.5628 14.6626 15.4687 14.3633 15.5098C14.7634 14.9408 15 14.2484 15 13.5C15 11.567 13.433 10 11.5 10ZM11.5 12C12.3284 12 13 12.6716 13 13.5C13 14.3284 12.3284 15 11.5 15C10.6716 15 10 14.3284 10 13.5C10 12.6716 10.6716 12 11.5 12Z" fill="#222222"/>
</svg>
