<svg width="24" height="24" viewBox="0 0 24 24" fill="none" xmlns="http://www.w3.org/2000/svg">
<path d="M14.5 18.5004H5.9C5.05992 18.5004 4.63988 18.5004 4.31901 18.3369C4.03677 18.1931 3.8073 17.9636 3.66349 17.6814C3.5 17.3605 3.5 16.9405 3.5 16.1004V6.9C3.5 6.05992 3.5 5.63988 3.66349 5.31901C3.8073 5.03677 4.03677 4.8073 4.31901 4.66349C4.63988 4.5 5.05992 4.5 5.9 4.5H8.47237C8.84808 4.5 9.03594 4.5 9.20646 4.55179C9.35741 4.59763 9.49785 4.6728 9.61972 4.77298C9.75739 4.88614 9.86159 5.04245 10.07 5.35507L10.93 6.64533C11.1384 6.95795 11.2426 7.11426 11.3803 7.22742C11.5022 7.3276 11.6426 7.40277 11.7935 7.44861C11.9641 7.5004 12.1519 7.5004 12.5276 7.5004H16.1C16.9401 7.5004 17.3601 7.5004 17.681 7.66389C17.9632 7.8077 18.1927 8.03717 18.3365 8.31942C18.5 8.64028 18.5 9.06032 18.5 9.9004V10.5" stroke="#2A4157" stroke-opacity="0.24" stroke-linecap="round"/>
<path d="M17.6704 10C18.7942 10 19.3562 10.0002 19.7251 10.2354C20.0481 10.4414 20.2802 10.7632 20.3735 11.1348C20.4801 11.5592 20.3023 12.0927 19.9468 13.1592L18.5474 17.3594C18.3508 17.949 18.252 18.2438 18.0698 18.4619C17.9089 18.6544 17.7017 18.8036 17.4683 18.8955C17.2036 18.9996 16.8921 19 16.27 19H5.22023C4.47075 19 4.09512 18.9997 3.84913 18.8428C3.63405 18.7054 3.47965 18.4907 3.41749 18.2432C3.3466 17.9602 3.46475 17.6043 3.70167 16.8936L5.45265 11.6406C5.64919 11.051 5.74795 10.7562 5.93019 10.5381C6.09119 10.3456 6.29822 10.1964 6.53175 10.1045C6.79639 10.0004 7.10796 10 7.72999 10H17.6704ZM8.49952 14C8.22356 14.0002 7.99952 14.224 7.99952 14.5C7.99952 14.776 8.22356 14.9998 8.49952 15H15.4995C15.7757 15 15.9995 14.7761 15.9995 14.5C15.9995 14.2239 15.7757 14 15.4995 14H8.49952Z" fill="#222222"/>
</svg>
