<svg width="24" height="24" viewBox="0 0 24 24" fill="none" xmlns="http://www.w3.org/2000/svg">
<rect width="24" height="24" fill="white"/>
<path d="M16 20H5.6C5.03995 20 4.75992 20 4.54601 19.891C4.35785 19.7951 4.20487 19.6422 4.10899 19.454C4 19.2401 4 18.9601 4 18.4V7.2C4 6.07989 4 5.51984 4.21799 5.09202C4.40973 4.71569 4.71569 4.40973 5.09202 4.21799C5.51984 4 6.0799 4 7.2 4H8.67452C9.1637 4 9.40829 4 9.63846 4.05526C9.84254 4.10425 10.0376 4.18506 10.2166 4.29472C10.4184 4.4184 10.5914 4.59135 10.9373 4.93726L11.0627 5.06274C11.4086 5.40865 11.5816 5.5816 11.7834 5.70528C11.9624 5.81494 12.1575 5.89575 12.3615 5.94474C12.5917 6 12.8363 6 13.3255 6H15.8C16.9201 6 17.4802 6 17.908 6.21799C18.2843 6.40973 18.5903 6.71569 18.782 7.09202C19 7.51984 19 8.07989 19 9.2V12.5" stroke="#222222" stroke-width="2" stroke-linecap="round" stroke-linejoin="round"/>
<path d="M19.5733 10C20.7259 10 21.3022 10.0004 21.6748 10.2422C22.0008 10.4538 22.2328 10.7834 22.3203 11.1621C22.4204 11.5949 22.223 12.1367 21.8291 13.2197L19.7657 18.8936C19.4898 19.6522 19.3516 20.0317 19.1084 20.3115C18.8937 20.5586 18.622 20.7498 18.3164 20.8672C17.9703 21.0001 17.5662 21 16.7588 21H9.85257C7.54729 21 6.3946 20.9994 5.64945 20.5156C4.99746 20.0923 4.53541 19.4322 4.36038 18.6748C4.16045 17.8092 4.55404 16.7259 5.34183 14.5596L6.23441 12.1064C6.51036 11.3476 6.64845 10.9683 6.89163 10.6885C7.10638 10.4414 7.37802 10.2502 7.68363 10.1328C8.02974 9.99992 8.4338 10 9.24124 10H19.5733ZM10 14C9.44775 14 9.00003 14.4477 9.00003 15C9.00003 15.5523 9.44775 16 10 16H17C17.5523 16 18 15.5523 18 15C18 14.4477 17.5523 14 17 14H10Z" fill="#222222"/>
</svg>
