<svg width="24" height="24" viewBox="0 0 24 24" fill="none" xmlns="http://www.w3.org/2000/svg">
<path d="M8 5C8 4.44772 8.44772 4 9 4H10.5858C10.851 4 11.1054 4.10536 11.2929 4.29289L11.7071 4.70711C11.8946 4.89464 12.149 5 12.4142 5H15C15.5523 5 16 5.44772 16 6V10C16 10.5523 15.5523 11 15 11H9C8.44772 11 8 10.5523 8 10V5Z" fill="#222222"/>
<path d="M14 14C14 13.4477 14.4477 13 15 13H16.5858C16.851 13 17.1054 13.1054 17.2929 13.2929L17.7071 13.7071C17.8946 13.8946 18.149 14 18.4142 14H21C21.5523 14 22 14.4477 22 15V19C22 19.5523 21.5523 20 21 20H15C14.4477 20 14 19.5523 14 19V14Z" fill="#222222"/>
<path d="M2 14C2 13.4477 2.44772 13 3 13H4.58579C4.851 13 5.10536 13.1054 5.29289 13.2929L5.70711 13.7071C5.89464 13.8946 6.149 14 6.41421 14H9C9.55228 14 10 14.4477 10 15V19C10 19.5523 9.55228 20 9 20H3C2.44772 20 2 19.5523 2 19V14Z" fill="#222222"/>
<path d="M7 7L5 8.5V7.5C4.76774 7.50018 4.60888 7.50158 4.48438 7.51172C4.34903 7.52278 4.29825 7.54209 4.27344 7.55469C4.17936 7.60262 4.10262 7.67936 4.05469 7.77344C4.04209 7.79825 4.02278 7.84903 4.01172 7.98438C4.00019 8.12592 4 8.31188 4 8.59961V12H3V8.59961C3 8.328 2.99996 8.09409 3.01562 7.90234C3.03177 7.70487 3.06688 7.50834 3.16309 7.31934C3.3069 7.03709 3.53709 6.8069 3.81934 6.66309C4.00834 6.56688 4.20487 6.53177 4.40234 6.51562C4.57023 6.50191 4.77045 6.5002 5 6.5V5.5L7 7ZM19 6.5C19.2295 6.5002 19.4298 6.50191 19.5977 6.51562C19.7951 6.53177 19.9917 6.56688 20.1807 6.66309C20.4629 6.8069 20.6931 7.03709 20.8369 7.31934C20.9331 7.50834 20.9682 7.70487 20.9844 7.90234C21 8.09409 21 8.328 21 8.59961V12H20V8.59961C20 8.31188 19.9998 8.12592 19.9883 7.98438C19.9772 7.84903 19.9579 7.79825 19.9453 7.77344C19.8974 7.67936 19.8206 7.60262 19.7266 7.55469C19.7017 7.54209 19.651 7.52278 19.5156 7.51172C19.3911 7.50158 19.2323 7.50018 19 7.5V8.5L17 7L19 5.5V6.5Z" fill="#222222"/>
</svg>
