<svg width="24" height="24" viewBox="0 0 24 24" fill="none" xmlns="http://www.w3.org/2000/svg">
<path d="M5 15C5 16.6569 6.34315 18 8 18H16.9795C16.9556 18.3923 16.9032 18.6707 16.7822 18.9082C16.5905 19.2845 16.2845 19.5905 15.9082 19.7822C15.4804 20.0002 14.9199 20 13.7998 20H9.40039C7.16018 20 6.03924 20.0004 5.18359 19.5645C4.43109 19.181 3.81902 18.5689 3.43555 17.8164C2.99957 16.9608 3 15.8398 3 13.5996V11.2002C3 10.0801 2.99979 9.51962 3.21777 9.0918C3.40951 8.71554 3.71554 8.40951 4.0918 8.21777C4.32928 8.09677 4.60773 8.0444 5 8.02051V15ZM11.501 4C12.0519 4 12.3277 3.99968 12.583 4.06836C12.809 4.12917 13.0224 4.2296 13.2139 4.36426C13.43 4.51639 13.6073 4.72813 13.96 5.15137L15.5 7H17.7998C18.9199 7 19.4804 6.99979 19.9082 7.21777C20.2845 7.40951 20.5905 7.71554 20.7822 8.0918C21.0002 8.51962 21 9.08009 21 10.2002V12.7998C21 13.9199 21.0002 14.4804 20.7822 14.9082C20.5905 15.2845 20.2845 15.5905 19.9082 15.7822C19.4804 16.0002 18.9199 16 17.7998 16H8C7.44772 16 7 15.5523 7 15V7.0918C7.00021 6.04348 7.00693 5.50559 7.21777 5.0918C7.40951 4.71554 7.71554 4.40951 8.0918 4.21777C8.51962 3.99979 9.08009 4 10.2002 4H11.501Z" fill="#222222"/>
</svg>
