<svg width="24" height="24" viewBox="0 0 24 24" fill="none" xmlns="http://www.w3.org/2000/svg">
<path d="M3 12V7.2C3 6.07989 3 5.51984 3.21799 5.09202C3.40973 4.71569 3.71569 4.40973 4.09202 4.21799C4.51984 4 5.0799 4 6.2 4H7.67452C8.1637 4 8.40829 4 8.63846 4.05526C8.84254 4.10425 9.03763 4.18506 9.21657 4.29472C9.4184 4.4184 9.59135 4.59135 9.93726 4.93726L10.0627 5.06274C10.4086 5.40865 10.5816 5.5816 10.7834 5.70528C10.9624 5.81494 11.1575 5.89575 11.3615 5.94474C11.5917 6 11.8363 6 12.3255 6H12.8C13.9201 6 14.4802 6 14.908 6.21799C15.2843 6.40973 15.5903 6.71569 15.782 7.09202C16 7.51984 16 8.07989 16 9.2V9.5" stroke="#33363F" stroke-width="2" stroke-linecap="round"/>
<path d="M4.7 20L15.6192 19.9997C16.4735 19.9996 16.9006 19.9996 17.2609 19.8541C17.5789 19.7257 17.8586 19.5176 18.073 19.2498C18.3159 18.9465 18.4387 18.5374 18.6841 17.7192L19.7641 14.1195C20.183 12.7233 20.3924 12.0252 20.2409 11.4719C20.1083 10.9873 19.7981 10.5704 19.372 10.3041C18.8856 10 18.1567 10 16.6991 10H11.3809C10.5266 10 10.0995 10 9.73915 10.1455C9.42108 10.2739 9.14139 10.482 8.92696 10.7498C8.68406 11.0531 8.56132 11.4622 8.31584 12.2805L6.36777 18.7737C6.14949 19.5013 5.47979 19.9996 4.72016 19.9996C3.77014 19.9996 3 19.2295 3 18.2794V11" stroke="#33363F" stroke-width="2" stroke-linecap="round"/>
<path d="M16.6993 10C18.1567 10 18.8857 9.99975 19.3722 10.3037C19.7982 10.57 20.1086 10.9872 20.2413 11.4717C20.3928 12.025 20.1826 12.7231 19.7638 14.1191L18.6847 17.7188C18.4392 18.537 18.3162 18.9467 18.0733 19.25C17.8589 19.5177 17.5789 19.7261 17.2608 19.8545C16.9006 19.9999 16.4733 20 15.6192 20H10.3009C8.84335 20 8.11446 19.9994 7.62803 19.6953C7.20208 19.429 6.89153 19.0119 6.75889 18.5273C6.60763 17.9741 6.81765 17.2757 7.23643 15.8799L8.31553 12.2803C8.56093 11.4623 8.6841 11.0533 8.92686 10.75C9.14128 10.4823 9.42128 10.274 9.73936 10.1455C10.0996 10 10.5268 10 11.381 10H16.6993ZM12.0001 14C11.4478 14 11.0001 14.4477 11.0001 15C11.0001 15.5523 11.4478 16 12.0001 16H16.0001C16.5524 16 17.0001 15.5523 17.0001 15C17.0001 14.4477 16.5524 14 16.0001 14H12.0001Z" fill="#33363F"/>
</svg>
