<svg width="24" height="24" viewBox="0 0 24 24" fill="none" xmlns="http://www.w3.org/2000/svg">
<path d="M8.20508 10C8.3603 10 8.44429 10.0001 8.50684 10.0029C8.52911 10.004 8.54263 10.0051 8.5498 10.0059C8.57009 10.0108 8.58962 10.0184 8.60742 10.0293C8.59563 10.0221 8.60026 10.0226 8.63965 10.0586C8.68591 10.1008 8.74567 10.1597 8.85547 10.2695L10.7305 12.1445C10.9044 12.3184 11.1022 12.5253 11.3477 12.6758C11.5445 12.7964 11.7589 12.8856 11.9834 12.9395C12.2632 13.0066 12.5491 13 12.7949 13H8.40039C7.56068 13 7.14015 13.0002 6.81934 12.8369C6.53709 12.6931 6.3069 12.4629 6.16309 12.1807C5.99981 11.8598 6 11.4393 6 10.5996V10H8.20508ZM14 4.90039C14 5.172 14 5.40591 14.0156 5.59766C14.0318 5.79513 14.0669 5.99166 14.1631 6.18066C14.3069 6.46291 14.5371 6.6931 14.8193 6.83691C15.0083 6.93312 15.2049 6.96823 15.4023 6.98438C15.5941 7.00004 15.828 7 16.0996 7H18V10.5996C18 10.7451 17.9989 10.878 17.998 11H12.7949C12.6397 11 12.5557 10.9999 12.4932 10.9971C12.4709 10.996 12.4574 10.9949 12.4502 10.9941C12.4299 10.9892 12.4104 10.9816 12.3926 10.9707C12.4044 10.9779 12.3997 10.9774 12.3604 10.9414C12.3141 10.8992 12.2543 10.8403 12.1445 10.7305L10.2695 8.85547C10.0956 8.68158 9.89783 8.47466 9.65234 8.32422C9.45553 8.20362 9.24105 8.11443 9.0166 8.06055C8.73678 7.99337 8.45091 7.99999 8.20508 8H6V5.40039C6 4.56068 5.99981 4.14015 6.16309 3.81934C6.3069 3.53709 6.53709 3.3069 6.81934 3.16309C7.14015 2.99981 7.56068 3 8.40039 3H14V4.90039ZM15.1084 3.14746C15.2093 3.2093 15.2959 3.29588 15.4688 3.46875L17.5312 5.53125C17.7041 5.70413 17.7907 5.79074 17.8525 5.8916C17.8738 5.9263 17.8914 5.96308 17.9082 6H16.0996C15.8119 6 15.6259 5.99981 15.4844 5.98828C15.349 5.97722 15.2983 5.95791 15.2734 5.94531C15.1794 5.89738 15.1026 5.82064 15.0547 5.72656C15.0421 5.70175 15.0228 5.65097 15.0117 5.51562C15.0002 5.37408 15 5.18812 15 4.90039V3.0918C15.0369 3.10864 15.0737 3.1262 15.1084 3.14746Z" fill="#222222"/>
<path d="M3 11.4C3 10.5599 3 10.1399 3.16349 9.81901C3.3073 9.53677 3.53677 9.3073 3.81901 9.16349C4.13988 9 4.55992 9 5.4 9H8.20471C8.49822 9 8.64497 9 8.78308 9.03316C8.90552 9.06255 9.02258 9.11104 9.12994 9.17683C9.25104 9.25104 9.35481 9.35481 9.56236 9.56236L11.4376 11.4376C11.6452 11.6452 11.749 11.749 11.8701 11.8232C11.9774 11.889 12.0945 11.9374 12.2169 11.9668C12.355 12 12.5018 12 12.7953 12H18.6C19.4401 12 19.8601 12 20.181 12.1635C20.4632 12.3073 20.6927 12.5368 20.8365 12.819C21 13.1399 21 13.5599 21 14.4V19.6C21 20.4401 21 20.8601 20.8365 21.181C20.6927 21.4632 20.4632 21.6927 20.181 21.8365C19.8601 22 19.4401 22 18.6 22H5.4C4.55992 22 4.13988 22 3.81901 21.8365C3.53677 21.6927 3.3073 21.4632 3.16349 21.181C3 20.8601 3 20.4401 3 19.6V11.4Z" fill="#222222"/>
</svg>
