<svg width="24" height="24" viewBox="0 0 24 24" fill="none" xmlns="http://www.w3.org/2000/svg">
<path d="M17 5C17.9428 5 18.4141 5.00008 18.707 5.29297C18.9999 5.58586 19 6.05719 19 7V17C19 18.8856 18.9998 19.8283 18.4141 20.4141C18.0875 20.7406 17.65 20.8843 17 20.9482V19.5C17 18.6716 16.3284 18 15.5 18C14.6716 18 14 18.6716 14 19.5V21H10V19.5C10 18.6716 9.32843 18 8.5 18C7.67157 18 7 18.6716 7 19.5V20.9482C6.35 20.8843 5.91251 20.7406 5.58594 20.4141C5.00015 19.8283 5 18.8856 5 17V7C5 6.05719 5.00008 5.58586 5.29297 5.29297C5.58586 5.00008 6.05719 5 7 5H17Z" fill="#7E869E" fill-opacity="0.25"/>
<path d="M8.5 9.5L15.5 9.5" stroke="#222222" stroke-linecap="round"/>
<path d="M8.5 12.5L12.5 12.5" stroke="#222222" stroke-linecap="round"/>
<path d="M8.5 15.5L14.5 15.5" stroke="#222222" stroke-linecap="round"/>
</svg>
