<svg width="24" height="24" viewBox="0 0 24 24" fill="none" xmlns="http://www.w3.org/2000/svg">
<path d="M17 2C18.8856 2 19.8283 2.00015 20.4141 2.58594C20.9998 3.17172 21 4.11438 21 6V16C21 18.8284 20.9998 20.2424 20.1211 21.1211C19.4798 21.7624 18.5534 21.9346 17 21.9814V19C17 18.4477 16.5523 18 16 18C15.4477 18 15 18.4477 15 19V22H9V19C9 18.4477 8.55228 18 8 18C7.44772 18 7 18.4477 7 19V21.9814C5.44658 21.9346 4.5202 21.7624 3.87891 21.1211C3.00023 20.2424 3 18.8284 3 16V6C3 4.11438 3.00015 3.17172 3.58594 2.58594C4.17172 2.00015 5.11438 2 7 2H17ZM8 12C7.44772 12 7 12.4477 7 13C7 13.5523 7.44772 14 8 14H16C16.5523 14 17 13.5523 17 13C17 12.4477 16.5523 12 16 12H8ZM8 8C7.44772 8 7 8.44772 7 9C7 9.55228 7.44772 10 8 10H16C16.5523 10 17 9.55228 17 9C17 8.44772 16.5523 8 16 8H8Z" fill="#222222"/>
</svg>
