<svg width="24" height="24" viewBox="0 0 24 24" fill="none" xmlns="http://www.w3.org/2000/svg">
<path d="M4 5V4.5H3.5V5H4ZM12.1464 13.8536C12.3417 14.0488 12.6583 14.0488 12.8536 13.8536C13.0488 13.6583 13.0488 13.3417 12.8536 13.1464L12.5 13.5L12.1464 13.8536ZM4 11H4.5V5H4H3.5V11H4ZM4 5V5.5H10V5V4.5H4V5ZM4 5L3.64645 5.35355L12.1464 13.8536L12.5 13.5L12.8536 13.1464L4.35355 4.64645L4 5Z" fill="#222222"/>
<path d="M21 13H16C14.1144 13 13.1716 13 12.5858 13.5858C12 14.1716 12 15.1144 12 17V19" stroke="#222222" stroke-linecap="round"/>
</svg>
