<svg width="24" height="24" viewBox="0 0 24 24" fill="none" xmlns="http://www.w3.org/2000/svg">
<path d="M4 20H3.5V20.5H4V20ZM9.35355 15.3536C9.54882 15.1583 9.54882 14.8417 9.35355 14.6464C9.15829 14.4512 8.84171 14.4512 8.64645 14.6464L9 15L9.35355 15.3536ZM4 14H3.5V20H4H4.5V14H4ZM4 20V20.5H10V20V19.5H4V20ZM4 20L4.35355 20.3536L9.35355 15.3536L9 15L8.64645 14.6464L3.64645 19.6464L4 20Z" fill="#222222"/>
<path d="M20 4H20.5V3.5H20V4ZM14.6464 8.64645C14.4512 8.84171 14.4512 9.15829 14.6464 9.35355C14.8417 9.54882 15.1583 9.54882 15.3536 9.35355L15 9L14.6464 8.64645ZM20 10H20.5V4H20H19.5V10H20ZM20 4V3.5H14V4V4.5H20V4ZM20 4L19.6464 3.64645L14.6464 8.64645L15 9L15.3536 9.35355L20.3536 4.35355L20 4Z" fill="#222222"/>
</svg>
