<svg width="24" height="24" viewBox="0 0 24 24" fill="none" xmlns="http://www.w3.org/2000/svg">
<path d="M4 4V3H3V4H4ZM11.2929 12.7071C11.6834 13.0976 12.3166 13.0976 12.7071 12.7071C13.0976 12.3166 13.0976 11.6834 12.7071 11.2929L12 12L11.2929 12.7071ZM4 10H5V4H4H3V10H4ZM4 4V5H10V4V3H4V4ZM4 4L3.29289 4.70711L11.2929 12.7071L12 12L12.7071 11.2929L4.70711 3.29289L4 4Z" fill="#33363F"/>
<path d="M4 20V21H3V20H4ZM11.2929 11.2929C11.6834 10.9024 12.3166 10.9024 12.7071 11.2929C13.0976 11.6834 13.0976 12.3166 12.7071 12.7071L12 12L11.2929 11.2929ZM4 14H5V20H4H3V14H4ZM4 20V19H10V20V21H4V20ZM4 20L3.29289 19.2929L11.2929 11.2929L12 12L12.7071 12.7071L4.70711 20.7071L4 20Z" fill="#33363F"/>
<path d="M20 4V3H21V4H20ZM12.7071 12.7071C12.3166 13.0976 11.6834 13.0976 11.2929 12.7071C10.9024 12.3166 10.9024 11.6834 11.2929 11.2929L12 12L12.7071 12.7071ZM20 10H19V4H20H21V10H20ZM20 4V5H14V4V3H20V4ZM20 4L20.7071 4.70711L12.7071 12.7071L12 12L11.2929 11.2929L19.2929 3.29289L20 4Z" fill="#33363F"/>
<path d="M20 20V21H21V20H20ZM12.7071 11.2929C12.3166 10.9024 11.6834 10.9024 11.2929 11.2929C10.9024 11.6834 10.9024 12.3166 11.2929 12.7071L12 12L12.7071 11.2929ZM20 14H19V20H20H21V14H20ZM20 20V19H14V20V21H20V20ZM20 20L20.7071 19.2929L12.7071 11.2929L12 12L11.2929 12.7071L19.2929 20.7071L20 20Z" fill="#33363F"/>
</svg>
