<svg width="24" height="24" viewBox="0 0 24 24" fill="none" xmlns="http://www.w3.org/2000/svg">
<rect x="1" y="9" width="20" height="4" rx="2" fill="#33363F"/>
<path d="M12 6.5V10H8.5C6.567 10 5 8.433 5 6.5C5 4.567 6.567 3 8.5 3C10.433 3 12 4.567 12 6.5Z" stroke="#33363F" stroke-width="2" stroke-linecap="round"/>
<path d="M12 7.5V10H14.5C15.8807 10 17 8.88071 17 7.5C17 6.11929 15.8807 5 14.5 5C13.1193 5 12 6.11929 12 7.5Z" stroke="#33363F" stroke-width="2" stroke-linecap="round"/>
<path d="M12 14V21H13V14H18V20.4004C18 20.9602 17.9996 21.2402 17.8906 21.4541C17.7948 21.6421 17.6421 21.7948 17.4541 21.8906C17.2402 21.9996 16.9602 22 16.4004 22H5.59961C5.03982 22 4.75976 21.9996 4.5459 21.8906C4.35793 21.7948 4.20522 21.6421 4.10938 21.4541C4.00041 21.2402 4 20.9602 4 20.4004V14H12ZM16.4004 12C16.9602 12 17.2402 12.0004 17.4541 12.1094C17.6421 12.2052 17.7948 12.3579 17.8906 12.5459C17.9511 12.6646 17.9763 12.804 17.9883 13H4.01172C4.0237 12.804 4.04888 12.6646 4.10938 12.5459C4.20522 12.3579 4.35793 12.2052 4.5459 12.1094C4.75976 12.0004 5.03982 12 5.59961 12H16.4004Z" fill="#33363F"/>
</svg>
