<svg width="24" height="24" viewBox="0 0 24 24" fill="none" xmlns="http://www.w3.org/2000/svg">
<circle cx="12" cy="12" r="3" fill="#222222"/>
<path d="M11.9996 2.40002C12.3308 2.40002 12.599 2.66844 12.5992 2.99963V4.99963C12.5992 5.00838 12.5967 5.01735 12.5963 5.026C15.9859 5.31198 18.6854 8.0126 18.9723 11.402C18.9813 11.4016 18.9904 11.4 18.9996 11.4H20.9996C21.3308 11.4 21.599 11.6684 21.5992 11.9996C21.5992 12.331 21.331 12.5992 20.9996 12.5992H18.9996C18.9904 12.5992 18.9814 12.5967 18.9723 12.5963C18.6862 15.9865 15.9864 18.6862 12.5963 18.9723C12.5967 18.9814 12.5992 18.9904 12.5992 18.9996V20.9996C12.5992 21.331 12.331 21.5992 11.9996 21.5992C11.6684 21.599 11.4 21.3309 11.4 20.9996V18.9996C11.4 18.9905 11.4015 18.9814 11.4019 18.9723C8.01257 18.6854 5.31195 15.9859 5.02597 12.5963C5.01732 12.5967 5.00835 12.5992 4.9996 12.5992H2.9996C2.66841 12.599 2.39999 12.3309 2.39999 11.9996C2.4002 11.6686 2.66854 11.4002 2.9996 11.4H4.9996C5.00865 11.4 5.018 11.4016 5.02695 11.402C5.31374 8.01318 8.01315 5.31377 11.4019 5.02698C11.4016 5.01803 11.4 5.00868 11.4 4.99963V2.99963C11.4002 2.66857 11.6685 2.40024 11.9996 2.40002ZM11.9996 5.99963C8.6862 5.99984 5.99981 8.68623 5.9996 11.9996C5.9996 15.3132 8.68607 17.9994 11.9996 17.9996C15.3133 17.9996 17.9996 15.3133 17.9996 11.9996C17.9994 8.6861 15.3132 5.99963 11.9996 5.99963Z" fill="#7E869E" fill-opacity="0.25"/>
</svg>
