<svg width="24" height="24" viewBox="0 0 24 24" fill="none" xmlns="http://www.w3.org/2000/svg">
<path d="M9 6C9 6.39397 9.0776 6.78407 9.22836 7.14805C9.37913 7.51203 9.6001 7.84274 9.87868 8.12132C10.1573 8.3999 10.488 8.62087 10.852 8.77164C11.2159 8.9224 11.606 9 12 9C12.394 9 12.7841 8.9224 13.1481 8.77164C13.512 8.62087 13.8427 8.3999 14.1213 8.12132C14.3999 7.84274 14.6209 7.51203 14.7716 7.14805C14.9224 6.78407 15 6.39396 15 6C15 5.60603 14.9224 5.21593 14.7716 4.85195C14.6209 4.48797 14.3999 4.15725 14.1213 3.87868C13.8427 3.6001 13.512 3.37912 13.148 3.22836C12.7841 3.0776 12.394 3 12 3C11.606 3 11.2159 3.0776 10.8519 3.22836C10.488 3.37913 10.1573 3.6001 9.87868 3.87868C9.6001 4.15726 9.37912 4.48797 9.22836 4.85195C9.0776 5.21593 9 5.60604 9 6L9 6Z" stroke="#222222"/>
<path d="M4.43781 13.9015C4.09663 14.0985 3.79758 14.3607 3.55775 14.6733C3.31792 14.9858 3.142 15.3426 3.04004 15.7231C2.93807 16.1037 2.91206 16.5006 2.96348 16.8912C3.0149 17.2818 3.14275 17.6584 3.33974 17.9996C3.53672 18.3408 3.79897 18.6398 4.11153 18.8796C4.42408 19.1195 4.78081 19.2954 5.16136 19.3974C5.5419 19.4993 5.9388 19.5253 6.32939 19.4739C6.71999 19.4225 7.09663 19.2946 7.43781 19.0977C7.779 18.9007 8.07804 18.6384 8.31787 18.3259C8.5577 18.0133 8.73362 17.6566 8.83559 17.276C8.93756 16.8955 8.96357 16.4986 8.91215 16.108C8.86072 15.7174 8.73287 15.3408 8.53589 14.9996C8.33891 14.6584 8.07665 14.3594 7.7641 14.1195C7.45154 13.8797 7.09481 13.7038 6.71427 13.6018C6.33373 13.4998 5.93683 13.4738 5.54623 13.5252C5.15564 13.5767 4.779 13.7045 4.43781 13.9015L4.43781 13.9015Z" stroke="#222222"/>
<path d="M19.5622 13.9015C19.9034 14.0985 20.2024 14.3607 20.4422 14.6733C20.6821 14.9859 20.858 15.3426 20.96 15.7231C21.0619 16.1037 21.0879 16.5006 21.0365 16.8912C20.9851 17.2818 20.8572 17.6584 20.6603 17.9996C20.4633 18.3408 20.201 18.6398 19.8885 18.8796C19.5759 19.1195 19.2192 19.2954 18.8386 19.3974C18.4581 19.4993 18.0612 19.5253 17.6706 19.4739C17.28 19.4225 16.9034 19.2946 16.5622 19.0977C16.221 18.9007 15.922 18.6384 15.6821 18.3259C15.4423 18.0133 15.2664 17.6566 15.1644 17.276C15.0624 16.8955 15.0364 16.4986 15.0879 16.108C15.1393 15.7174 15.2671 15.3408 15.4641 14.9996C15.6611 14.6584 15.9234 14.3594 16.2359 14.1195C16.5485 13.8797 16.9052 13.7038 17.2857 13.6018C17.6663 13.4998 18.0632 13.4738 18.4538 13.5252C18.8444 13.5767 19.221 13.7045 19.5622 13.9015L19.5622 13.9015Z" stroke="#222222"/>
<path d="M16.5625 19.0977C16.863 19.2711 17.1914 19.388 17.5322 19.4492C16.8516 20.0329 16.0838 20.5083 15.2529 20.8525C14.2217 21.2797 13.1162 21.5 12 21.5C10.8838 21.5 9.77834 21.2797 8.74707 20.8525C7.91595 20.5082 7.14761 20.0331 6.4668 19.4492C6.80795 19.388 7.13672 19.2713 7.4375 19.0977C7.47318 19.0771 7.50627 19.0523 7.54102 19.0303C8.03111 19.3923 8.56438 19.6944 9.12988 19.9287C10.0398 20.3056 11.0151 20.5 12 20.5C12.9849 20.5 13.9602 20.3056 14.8701 19.9287C15.4354 19.6945 15.9681 19.3921 16.458 19.0303C16.4929 19.0524 16.5266 19.0769 16.5625 19.0977ZM9.18164 4.98242C9.06376 5.3088 9.00003 5.65229 9 6C9 6.04199 9.0041 6.0841 9.00586 6.12598C8.14508 6.50081 7.36073 7.03189 6.69629 7.69629C5.99995 8.39263 5.44819 9.2201 5.07129 10.1299C4.69442 11.0397 4.50004 12.0152 4.5 13C4.5 13.2824 4.51714 13.5642 4.54883 13.8438C4.51183 13.8631 4.47373 13.8805 4.4375 13.9014C4.13634 14.0752 3.87024 14.3021 3.64648 14.5674C3.54968 14.0518 3.5 13.527 3.5 13C3.50004 11.8839 3.72034 10.7782 4.14746 9.74707C4.57462 8.71601 5.20009 7.77842 5.98926 6.98926C6.77846 6.2001 7.71597 5.5746 8.74707 5.14746C8.89042 5.08809 9.03559 5.03377 9.18164 4.98242ZM14.8174 4.98242C14.9637 5.03385 15.1093 5.08797 15.2529 5.14746C16.284 5.5746 17.2215 6.2001 18.0107 6.98926C18.7999 7.77842 19.4254 8.71601 19.8525 9.74707C20.2797 10.7782 20.5 11.8839 20.5 13C20.5 13.5271 20.4494 14.0518 20.3525 14.5674C20.1289 14.3023 19.8635 14.0751 19.5625 13.9014C19.5261 13.8803 19.4874 13.8632 19.4502 13.8438C19.4819 13.5642 19.5 13.2825 19.5 13C19.5 12.0152 19.3056 11.0397 18.9287 10.1299C18.5518 9.22009 18.0001 8.39263 17.3037 7.69629C16.6391 7.03168 15.8543 6.50083 14.9932 6.12598C14.9949 6.08409 15 6.042 15 6C15 5.6522 14.9353 5.30888 14.8174 4.98242Z" fill="#222222"/>
</svg>
