<svg width="24" height="24" viewBox="0 0 24 24" fill="none" xmlns="http://www.w3.org/2000/svg">
<circle cx="12" cy="9" r="1.5" stroke="#222222" stroke-linecap="round"/>
<path d="M15.701 8.25C15.8999 7.90547 16.2275 7.65408 16.6118 7.55111C16.996 7.44815 17.4055 7.50205 17.75 7.70096C18.0945 7.89987 18.3459 8.2275 18.4489 8.61177C18.5519 8.99604 18.498 9.40547 18.299 9.75C18.1001 10.0945 17.7725 10.3459 17.3882 10.4489C17.004 10.5519 16.5945 10.498 16.25 10.299C15.9055 10.1001 15.6541 9.7725 15.5511 9.38823C15.4481 9.00396 15.502 8.59453 15.701 8.25L15.701 8.25Z" stroke="#222222"/>
<path d="M5.70096 8.25C5.89987 7.90547 6.2275 7.65408 6.61177 7.55111C6.99604 7.44815 7.40547 7.50205 7.75 7.70096C8.09453 7.89987 8.34592 8.2275 8.44889 8.61177C8.55185 8.99604 8.49795 9.40547 8.29904 9.75C8.10013 10.0945 7.7725 10.3459 7.38823 10.4489C7.00396 10.5519 6.59453 10.498 6.25 10.299C5.90547 10.1001 5.65408 9.7725 5.55111 9.38823C5.44815 9.00396 5.50205 8.59453 5.70096 8.25L5.70096 8.25Z" stroke="#222222"/>
<path d="M16.5004 12.5L16.5004 12H16.5004V12.5ZM20.3636 15.5127L20.8499 15.3964L20.8499 15.3962L20.3636 15.5127ZM19.5004 16.5V17H19.5006L19.5004 16.5ZM14.5004 16.5L14.5002 16L14.5004 17V16.5ZM15.3802 15.5098L15.8696 15.407L15.8696 15.4069L15.3802 15.5098ZM14.1 13.1855L13.8093 12.7787L13.277 13.159L13.7837 13.5728L14.1 13.1855ZM16.5004 12.5L16.5003 13C17.7262 13.0001 18.4895 13.4089 18.9821 13.912C19.4882 14.429 19.7473 15.0863 19.8774 15.6292L20.3636 15.5127L20.8499 15.3962C20.6961 14.7546 20.3753 13.9057 19.6967 13.2125C19.0044 12.5054 17.9781 12.0001 16.5004 12L16.5004 12.5ZM20.3636 15.5127L19.8774 15.629C19.9009 15.7274 19.8753 15.807 19.8167 15.8718C19.7526 15.9424 19.6413 15.9999 19.5002 16L19.5004 16.5L19.5006 17C20.3 16.9997 21.0701 16.3171 20.8499 15.3964L20.3636 15.5127ZM19.5004 16.5V16H14.5004V16.5V17H19.5004V16.5ZM14.5004 16.5L14.5006 17C15.3043 16.9997 16.0612 16.3192 15.8696 15.407L15.3802 15.5098L14.8909 15.6126C14.9126 15.7156 14.8842 15.8011 14.8215 15.8694C14.7543 15.9427 14.6411 15.9999 14.5002 16L14.5004 16.5ZM15.3802 15.5098L15.8696 15.4069C15.7083 14.6399 15.3299 13.5443 14.4162 12.7983L14.1 13.1855L13.7837 13.5728C14.4367 14.106 14.7482 14.9337 14.8909 15.6126L15.3802 15.5098ZM14.1 13.1855L14.3906 13.5924C14.8685 13.2509 15.5404 13 16.5004 13V12.5V12C15.3547 12 14.4745 12.3035 13.8093 12.7787L14.1 13.1855Z" fill="#222222"/>
<path d="M7.50031 12.5L7.50033 12H7.50031V12.5ZM9.89972 13.1865L10.2161 13.5737L10.7225 13.16L10.1904 12.7797L9.89972 13.1865ZM8.61945 15.5098L8.13014 15.4069L8.13012 15.407L8.61945 15.5098ZM3.63605 15.5127L3.14982 15.3962L3.14975 15.3964L3.63605 15.5127ZM7.50031 12.5L7.50028 13C8.45982 13 9.1308 13.2516 9.60901 13.5933L9.89972 13.1865L10.1904 12.7797C9.52562 12.3046 8.64647 12.0001 7.50033 12L7.50031 12.5ZM9.89972 13.1865L9.58337 12.7993C8.67044 13.5452 8.29139 14.6397 8.13014 15.4069L8.61945 15.5098L9.10875 15.6126C9.25134 14.9342 9.56324 14.1071 10.2161 13.5737L9.89972 13.1865ZM8.61945 15.5098L8.13012 15.407C7.9384 16.3198 8.69684 17 9.50031 17V16.5V16C9.35929 16 9.24587 15.9427 9.17842 15.8693C9.11554 15.8008 9.08718 15.7153 9.10877 15.6125L8.61945 15.5098ZM9.50031 16.5V16H4.50031V16.5V17H9.50031V16.5ZM4.50031 16.5V16C4.35908 16 4.2475 15.9424 4.18326 15.8717C4.12438 15.8068 4.09887 15.7271 4.12234 15.629L3.63605 15.5127L3.14975 15.3964C2.92949 16.3177 3.7011 17 4.50031 17V16.5ZM3.63605 15.5127L4.12228 15.6292C4.2524 15.0864 4.51163 14.429 5.01793 13.912C5.51069 13.4088 6.27431 13 7.50031 13V12.5V12C6.02245 12 4.99589 12.5053 4.30347 13.2123C3.62457 13.9056 3.3036 14.7545 3.14982 15.3962L3.63605 15.5127Z" fill="#222222"/>
<path d="M12 12.5C14.3642 12.5 15.1314 14.3251 15.3804 15.5097C15.494 16.0501 15.0523 16.5 14.5 16.5H9.5C8.94772 16.5 8.50601 16.0501 8.61961 15.5097C8.86859 14.3251 9.63581 12.5 12 12.5Z" stroke="#222222" stroke-linecap="round"/>
<path d="M18.5 21.5H20C20.8284 21.5 21.5 20.8284 21.5 20V18.5" stroke="#2A4157" stroke-opacity="0.24" stroke-linecap="round"/>
<path d="M18.5 2.5H20C20.8284 2.5 21.5 3.17157 21.5 4V5.5" stroke="#2A4157" stroke-opacity="0.24" stroke-linecap="round"/>
<path d="M5.5 21.5H4C3.17157 21.5 2.5 20.8284 2.5 20V18.5" stroke="#2A4157" stroke-opacity="0.24" stroke-linecap="round"/>
<path d="M5.5 2.5H4C3.17157 2.5 2.5 3.17157 2.5 4V5.5" stroke="#2A4157" stroke-opacity="0.24" stroke-linecap="round"/>
</svg>
