<svg width="24" height="24" viewBox="0 0 24 24" fill="none" xmlns="http://www.w3.org/2000/svg">
<path d="M17 3H19C20.1046 3 21 3.89543 21 5V7M17 21H19C20.1046 21 21 20.1046 21 19V17M7 3H5C3.89543 3 3 3.89543 3 5V7M7 21H5C3.89543 21 3 20.1046 3 19V17" stroke="#33363F" stroke-width="2" stroke-linecap="round"/>
<path d="M15.9998 13V12H15.9997L15.9998 13ZM18.6873 14.9141L19.6076 14.5228L19.6076 14.5228L18.6873 14.9141ZM14.1326 16L14.1324 17H14.1326V16ZM14.0692 15.9961L13.9998 14.9985L14.006 16.9941L14.0692 15.9961ZM14.8318 15.0176L15.787 14.7214L15.787 14.7214L14.8318 15.0176ZM14.0818 13.7529L13.3837 13.0369L12.6475 13.7548L13.3856 14.4708L14.0818 13.7529ZM15.9998 13V14C16.9741 14 17.4729 14.6134 17.767 15.3053L18.6873 14.9141L19.6076 14.5228C19.1715 13.4971 18.1392 12 15.9998 12V13ZM18.6873 14.9141L17.767 15.3053C17.7559 15.2792 17.745 15.2306 17.7538 15.1711C17.7621 15.1146 17.7846 15.0723 17.8053 15.0459C17.8438 14.997 17.8748 15 17.867 15V16V17C18.4607 17 19.0195 16.7368 19.3766 16.2833C19.748 15.8117 19.8766 15.1556 19.6076 14.5228L18.6873 14.9141ZM17.867 16V15H14.1326V16V17H17.867V16ZM14.1326 16L14.1328 15C14.1473 15 14.1588 15.0004 14.166 15.0008C14.1697 15.001 14.1725 15.0012 14.1744 15.0013C14.1753 15.0013 14.176 15.0014 14.1765 15.0014C14.1767 15.0014 14.1769 15.0014 14.177 15.0015C14.177 15.0015 14.1771 15.0015 14.1771 15.0015C14.1771 15.0015 14.1772 15.0015 14.1772 15.0015C14.1772 15.0015 14.1771 15.0015 14.1771 15.0015C14.1771 15.0015 14.177 15.0015 14.177 15.0015C14.1769 15.0014 14.1767 15.0014 14.1765 15.0014C14.176 15.0014 14.1753 15.0013 14.1744 15.0012C14.1734 15.0012 14.1724 15.0011 14.1709 15.001C14.1695 15.0008 14.1678 15.0007 14.166 15.0006C14.1591 15 14.1467 14.999 14.1323 14.9981L14.0692 15.9961L14.006 16.9941C14.0021 16.9939 14.0002 16.9937 14.0039 16.994C14.0047 16.994 14.016 16.995 14.0243 16.9956C14.0434 16.9971 14.0837 17 14.1324 17L14.1326 16ZM14.0692 15.9961L14.1385 16.9937C14.653 16.9579 15.1448 16.7217 15.4768 16.3175C15.8229 15.8961 15.9707 15.3139 15.787 14.7214L14.8318 15.0176L13.8767 15.3138C13.8669 15.282 13.8609 15.2316 13.873 15.1735C13.8847 15.1178 13.9088 15.0754 13.9312 15.0481C13.9529 15.0217 13.9726 15.0094 13.9828 15.0043C13.9936 14.999 13.9995 14.9985 13.9998 14.9985L14.0692 15.9961ZM14.8318 15.0176L15.787 14.7214C15.626 14.2025 15.3281 13.5686 14.7781 13.0351L14.0818 13.7529L13.3856 14.4708C13.6263 14.7042 13.7821 15.0088 13.8767 15.3138L14.8318 15.0176ZM14.0818 13.7529L14.78 14.4689C15.051 14.2047 15.4229 14 15.9999 14L15.9998 13L15.9997 12C14.8605 12.0001 13.9981 12.4379 13.3837 13.0369L14.0818 13.7529Z" fill="#33363F"/>
<path d="M8.00024 13L8.00032 12H8.00024V13ZM9.91724 13.7529L10.6136 14.4706L11.3516 13.7545L10.6152 13.0368L9.91724 13.7529ZM9.16821 15.0176L8.2131 14.7213L8.21308 14.7214L9.16821 15.0176ZM9.92993 15.9961L9.99209 16.9942L10.0002 14.9986L9.92993 15.9961ZM9.86743 16V17H9.86765L9.86743 16ZM5.31274 14.9141L4.39247 14.5228L4.39245 14.5228L5.31274 14.9141ZM8.00024 13L8.00017 14C8.57635 14 8.94783 14.2045 9.2193 14.4691L9.91724 13.7529L10.6152 13.0368C10.0013 12.4385 9.13976 12.0001 8.00032 12L8.00024 13ZM9.91724 13.7529L9.22082 13.0353C8.67067 13.5692 8.37365 14.2037 8.2131 14.7213L9.16821 15.0176L10.1233 15.3138C10.2182 15.0079 10.3737 14.7034 10.6136 14.4706L9.91724 13.7529ZM9.16821 15.0176L8.21308 14.7214C8.0295 15.3134 8.17694 15.8953 8.52262 16.3167C8.8542 16.7209 9.34551 16.9574 9.85969 16.9936L9.92993 15.9961L10.0002 14.9986C10.0005 14.9986 10.0065 14.999 10.0173 15.0044C10.0276 15.0096 10.0473 15.0218 10.0689 15.0483C10.0914 15.0757 10.1154 15.118 10.127 15.1737C10.1392 15.2317 10.1332 15.282 10.1233 15.3138L9.16821 15.0176ZM9.92993 15.9961L9.86777 14.998C9.85262 14.999 9.83966 15 9.83245 15.0006C9.82927 15.0009 9.82489 15.0012 9.82367 15.0013C9.82267 15.0014 9.82199 15.0015 9.82148 15.0015C9.82123 15.0015 9.82106 15.0016 9.82093 15.0016C9.82087 15.0016 9.82083 15.0016 9.8208 15.0016C9.82077 15.0016 9.82075 15.0016 9.82075 15.0016C9.82075 15.0016 9.82077 15.0016 9.8208 15.0016C9.82083 15.0016 9.82088 15.0016 9.82094 15.0016C9.82106 15.0016 9.82125 15.0015 9.82149 15.0015C9.82197 15.0015 9.82271 15.0014 9.82368 15.0014C9.82559 15.0012 9.82859 15.0011 9.83243 15.0009C9.83999 15.0005 9.85203 15 9.86722 15L9.86743 16L9.86765 17C9.91732 17 9.95829 16.9969 9.9769 16.9955C9.98196 16.9951 9.98648 16.9947 9.98958 16.9944C9.99355 16.9941 9.99436 16.994 9.99636 16.9939C9.99952 16.9936 9.9969 16.9939 9.99209 16.9942L9.92993 15.9961ZM9.86743 16V15H6.13306V16V17H9.86743V16ZM6.13306 16V15C6.12526 15 6.15621 14.997 6.19472 15.0459C6.21547 15.0723 6.23797 15.1146 6.24631 15.1711C6.25511 15.2306 6.24412 15.2792 6.23304 15.3053L5.31274 14.9141L4.39245 14.5228C4.12346 15.1556 4.25203 15.8117 4.62346 16.2833C4.98059 16.7368 5.53935 17 6.13306 17V16ZM5.31274 14.9141L6.23302 15.3053C6.52721 14.6134 7.02601 14 8.00024 14V13V12C5.86081 12 4.82856 13.4971 4.39247 14.5228L5.31274 14.9141Z" fill="#33363F"/>
<path d="M12 13C13.8516 13 14.5604 14.1429 14.8317 15.0178C14.9953 15.5453 14.5523 16 14 16H10C9.44772 16 9.00469 15.5453 9.16826 15.0178C9.43957 14.1429 10.1484 13 12 13Z" stroke="#33363F" stroke-width="2" stroke-linecap="round"/>
<circle cx="12" cy="9" r="2" fill="#33363F"/>
<circle cx="16" cy="9" r="2" fill="#33363F"/>
<circle cx="8" cy="9" r="2" fill="#33363F"/>
</svg>
