<svg width="24" height="24" viewBox="0 0 24 24" fill="none" xmlns="http://www.w3.org/2000/svg">
<circle cx="9" cy="9" r="4" fill="#33363F"/>
<path d="M11.2755 16.1778C11.5541 15.8705 12.0228 15.8483 12.3335 16.1231C12.9053 16.6287 13.2811 17.2436 13.5279 17.8333C13.7718 18.4159 13.2923 19 12.6608 19H11.1341C10.5323 19 10.0794 18.4704 10.2809 17.9034C10.4712 17.368 10.781 16.7235 11.2755 16.1778ZM14.0004 15C16.2951 15.0002 17.3003 16.7199 17.7205 17.9041C17.9216 18.471 17.469 19 16.8675 19H15.0793C14.9718 19 14.8857 18.918 14.8646 18.8125C14.7005 17.9916 14.3198 16.7942 13.4154 15.7891C13.1634 15.509 13.2582 15.0477 13.6336 15.0155C13.752 15.0053 13.8743 15 14.0004 15Z" fill="#33363F"/>
<path d="M9 15C12.5715 15 13.5919 17.5512 13.8834 19.0089C13.9917 19.5504 13.5523 20 13 20H5C4.44772 20 4.00829 19.5504 4.11659 19.0089C4.4081 17.5512 5.42846 15 9 15Z" fill="#33363F"/>
<path d="M14 7C15.6569 7 17 8.34315 17 10C17 11.6569 15.6569 13 14 13C13.4455 13 12.9281 12.8463 12.4824 12.584C13.4173 11.6755 14 10.4066 14 9C14 8.29931 13.855 7.63268 13.5947 7.02734C13.7273 7.00944 13.8625 7 14 7ZM12.6348 7.33008C12.8687 7.83839 13 8.40376 13 9C13 10.1622 12.5034 11.2077 11.7119 11.9385C11.2684 11.4155 11 10.7394 11 10C11 8.83516 11.6647 7.82709 12.6348 7.33008Z" fill="#33363F"/>
<path d="M19 3V7" stroke="#33363F" stroke-width="2" stroke-linecap="round"/>
<path d="M21 5L17 5" stroke="#33363F" stroke-width="2" stroke-linecap="round"/>
</svg>
