<svg width="24" height="24" viewBox="0 0 24 24" fill="none" xmlns="http://www.w3.org/2000/svg">
<path d="M14.3262 4C15.1518 4 15.5651 4.00023 15.9355 4.15527C16.3058 4.31037 16.5955 4.60452 17.1748 5.19238L18.8486 6.89062C19.4166 7.46698 19.7011 7.75558 19.8506 8.12012C20 8.48463 20 8.88929 20 9.69824V14.3428C20 15.16 19.9998 15.5691 19.8477 15.9365C19.6954 16.3041 19.4062 16.5938 18.8281 17.1719L17.1719 18.8281C16.5938 19.4062 16.3041 19.6954 15.9365 19.8477C15.5691 19.9998 15.16 20 14.3428 20H9.69824C8.88929 20 8.48463 20 8.12012 19.8506C7.75558 19.7011 7.46698 19.4166 6.89062 18.8486L5.19238 17.1748C4.60452 16.5955 4.31037 16.3058 4.15527 15.9355C4.00023 15.5651 4 15.1518 4 14.3262V9.71582C4 8.89832 4.0001 8.48961 4.15234 8.12207C4.30458 7.75453 4.59382 7.46575 5.17188 6.8877L6.8877 5.17188C7.46575 4.59382 7.75453 4.30458 8.12207 4.15234C8.48961 4.0001 8.89832 4 9.71582 4H14.3262ZM16.8945 10.5527C16.6475 10.0588 16.0467 9.85848 15.5527 10.1055L15.1309 10.3164C13.1602 11.3018 10.8398 11.3018 8.86914 10.3164L8.44727 10.1055C7.95329 9.85848 7.35246 10.0588 7.10547 10.5527C6.85848 11.0467 7.05876 11.6475 7.55273 11.8945L7.8584 12.0469L7.60547 12.5527C7.35848 13.0467 7.55876 13.6475 8.05273 13.8945C8.54671 14.1415 9.14754 13.9412 9.39453 13.4473L9.73438 12.7656C10.1514 12.8741 10.5744 12.9505 11 12.998V14C11 14.5523 11.4477 15 12 15C12.5523 15 13 14.5523 13 14V12.998C13.4252 12.9505 13.848 12.874 14.2646 12.7656L14.6055 13.4473C14.8525 13.9412 15.4533 14.1415 15.9473 13.8945C16.4412 13.6475 16.6415 13.0467 16.3945 12.5527L16.1416 12.0469L16.4473 11.8945C16.9412 11.6475 17.1415 11.0467 16.8945 10.5527Z" fill="#33363F"/>
</svg>
