<svg width="24" height="24" viewBox="0 0 24 24" fill="none" xmlns="http://www.w3.org/2000/svg">
<path d="M2 8L1.29289 7.29289L0.585788 8L1.29289 8.70711L2 8ZM21 9C21.5523 9 22 8.55229 22 8C22 7.44772 21.5523 7 21 7V8V9ZM6 4L5.29289 3.29289L1.29289 7.29289L2 8L2.70711 8.70711L6.70711 4.70711L6 4ZM2 8L1.29289 8.70711L5.29289 12.7071L6 12L6.70711 11.2929L2.70711 7.29289L2 8ZM2 8V9H21V8V7H2V8Z" fill="#33363F"/>
<path d="M22 16L22.7071 15.2929L23.4142 16L22.7071 16.7071L22 16ZM13 17C12.4477 17 12 16.5523 12 16C12 15.4477 12.4477 15 13 15L13 16L13 17ZM18 12L18.7071 11.2929L22.7071 15.2929L22 16L21.2929 16.7071L17.2929 12.7071L18 12ZM22 16L22.7071 16.7071L18.7071 20.7071L18 20L17.2929 19.2929L21.2929 15.2929L22 16ZM22 16L22 17L13 17L13 16L13 15L22 15L22 16Z" fill="#33363F"/>
</svg>
