<svg width="24" height="24" viewBox="0 0 24 24" fill="none" xmlns="http://www.w3.org/2000/svg">
<path d="M22 8L22.7071 7.29289L23.4142 8L22.7071 8.70711L22 8ZM3 9C2.44772 9 2 8.55229 2 8C2 7.44772 2.44772 7 3 7V8V9ZM18 4L18.7071 3.29289L22.7071 7.29289L22 8L21.2929 8.70711L17.2929 4.70711L18 4ZM22 8L22.7071 8.70711L18.7071 12.7071L18 12L17.2929 11.2929L21.2929 7.29289L22 8ZM22 8V9H3V8V7H22V8Z" fill="#33363F"/>
<path d="M2 16L1.29289 15.2929L0.585787 16L1.29289 16.7071L2 16ZM11 17C11.5523 17 12 16.5523 12 16C12 15.4477 11.5523 15 11 15L11 16L11 17ZM6 12L5.29289 11.2929L1.29289 15.2929L2 16L2.70711 16.7071L6.70711 12.7071L6 12ZM2 16L1.29289 16.7071L5.29289 20.7071L6 20L6.70711 19.2929L2.70711 15.2929L2 16ZM2 16L2 17L11 17L11 16L11 15L2 15L2 16Z" fill="#33363F"/>
</svg>
