<svg width="24" height="24" viewBox="0 0 24 24" fill="none" xmlns="http://www.w3.org/2000/svg">
<path d="M11.3662 3.57987C11.7247 3.23917 12.2753 3.23917 12.6338 3.57987C14.3568 5.21747 18.9998 10.0505 19 14.5711C19 18.1215 15.866 20.9998 12 20.9998C8.13401 20.9998 5 18.1215 5 14.5711C5.00022 10.0505 9.64324 5.21747 11.3662 3.57987ZM8.46484 14.0281C8.19186 14.0694 8.00377 14.3245 8.04492 14.5974C8.17323 15.4465 8.57154 16.2324 9.18066 16.8377C9.7898 17.4428 10.5779 17.8359 11.4277 17.9588C11.7009 17.9982 11.9546 17.8082 11.9941 17.5349C12.0333 17.2619 11.8434 17.008 11.5703 16.9685C10.9331 16.8763 10.3425 16.5816 9.88574 16.1277C9.42891 15.6737 9.12943 15.0848 9.0332 14.448C8.99186 14.1752 8.73769 13.9871 8.46484 14.0281Z" fill="#33363F"/>
</svg>
