<svg width="24" height="24" viewBox="0 0 24 24" fill="none" xmlns="http://www.w3.org/2000/svg">
<path d="M17 12L12.2622 20.528C12.1463 20.7367 12.0883 20.8411 12 20.8411C11.9117 20.8411 11.8537 20.7367 11.7378 20.528L7 12" stroke="#33363F" stroke-width="2" stroke-linecap="round"/>
<path d="M12 3V2V2V3ZM14.2959 3.49512L14.7053 2.58276L14.7053 2.58276L14.2959 3.49512ZM16.2422 4.90332L16.977 4.22504L16.9769 4.22496L16.2422 4.90332ZM17.543 7.0127L18.477 6.65556L18.477 6.65556L17.543 7.0127ZM19 9.55957H20V9.55954L19 9.55957ZM17.7676 11.2578L18.0377 12.2206L18.0377 12.2206L17.7676 11.2578ZM6.23242 11.2578L5.96224 12.2206L5.96231 12.2206L6.23242 11.2578ZM5 9.55957H4V9.55959L5 9.55957ZM6.45703 7.0127L5.52298 6.65556L5.52298 6.65556L6.45703 7.0127ZM7.75781 4.90332L7.02308 4.22496L7.02301 4.22504L7.75781 4.90332ZM9.7041 3.49512L9.29471 2.58276L9.2947 2.58276L9.7041 3.49512ZM6.09548 7.81049L5.62398 6.92862L6.09548 7.81049ZM6.26078 7.60897L7.22386 7.87819L6.26078 7.60897ZM6.21337 7.73379L6.99333 8.35962L6.21337 7.73379ZM17.7383 7.60889L16.7749 7.87707L17.7383 7.60889ZM17.9036 7.81047L17.4325 8.69254L17.9036 7.81047ZM17.7856 7.73372L18.5658 7.10814L17.7856 7.73372ZM12 3V4C12.6446 4 13.2853 4.13772 13.8865 4.40747L14.2959 3.49512L14.7053 2.58276C13.8506 2.19923 12.9312 2 12 2V3ZM14.2959 3.49512L13.8865 4.40747C14.4878 4.67728 15.0394 5.07473 15.5075 5.58168L16.2422 4.90332L16.9769 4.22496C16.3309 3.52521 15.5595 2.96609 14.7053 2.58276L14.2959 3.49512ZM16.2422 4.90332L15.5074 5.5816C15.9758 6.08903 16.3514 6.69642 16.6089 7.36983L17.543 7.0127L18.477 6.65556C18.1314 5.75174 17.6229 4.92477 16.977 4.22504L16.2422 4.90332ZM17.543 7.0127L16.6089 7.36983C16.6713 7.53288 16.7262 7.70205 16.7749 7.87707L17.7383 7.60889L18.7017 7.3407C18.6381 7.11234 18.5641 6.88324 18.477 6.65556L17.543 7.0127ZM17.9036 7.81047L17.4325 8.69254C17.798 8.88774 18 9.21386 18 9.5596L19 9.55957L20 9.55954C20 8.36384 19.2864 7.41534 18.3748 6.9284L17.9036 7.81047ZM19 9.55957H18C18 9.94197 17.7701 10.2185 17.4974 10.295L17.7676 11.2578L18.0377 12.2206C19.2672 11.8757 20 10.7373 20 9.55957H19ZM17.7676 11.2578L17.4975 10.295C15.9168 10.7384 14.0328 11 12 11V12V13C14.1974 13 16.2646 12.7181 18.0377 12.2206L17.7676 11.2578ZM12 12V11C9.96721 11 8.08321 10.7384 6.50253 10.295L6.23242 11.2578L5.96231 12.2206C7.73539 12.7181 9.80263 13 12 13V12ZM6.23242 11.2578L6.5026 10.295C6.22985 10.2185 6.00001 9.94195 6 9.55955L5 9.55957L4 9.55959C4.00002 10.7374 4.73284 11.8756 5.96224 12.2206L6.23242 11.2578ZM5 9.55957H6C6 9.21367 6.20198 8.8875 6.56697 8.69236L6.09548 7.81049L5.62398 6.92862C4.7126 7.41589 4 8.36455 4 9.55957H5ZM6.26078 7.60897L7.22386 7.87819C7.27244 7.7044 7.32802 7.53477 7.39108 7.36983L6.45703 7.0127L5.52298 6.65556C5.43657 6.88155 5.3619 7.11007 5.2977 7.33976L6.26078 7.60897ZM6.45703 7.0127L7.39108 7.36983C7.64856 6.69642 8.02422 6.08903 8.49262 5.5816L7.75781 4.90332L7.02301 4.22504C6.3771 4.92477 5.86856 5.75174 5.52298 6.65556L6.45703 7.0127ZM7.75781 4.90332L8.49254 5.58168C8.9606 5.07473 9.51224 4.67728 10.1135 4.40747L9.7041 3.49512L9.2947 2.58276C8.44045 2.96609 7.66914 3.52521 7.02308 4.22496L7.75781 4.90332ZM9.7041 3.49512L10.1135 4.40747C10.7147 4.13772 11.3554 4 12 4V3V2C11.0688 2 10.1494 2.19923 9.29471 2.58276L9.7041 3.49512ZM6.09548 7.81049L6.56697 8.69236C6.58772 8.68127 6.64771 8.6498 6.70207 8.61581C6.76219 8.57822 6.88249 8.49775 6.99333 8.35962L6.21337 7.73379L5.43341 7.10796C5.52504 6.99376 5.6193 6.93405 5.64172 6.92004C5.65464 6.91196 5.66179 6.90819 5.65599 6.91139C5.65024 6.91456 5.6421 6.91893 5.62398 6.92862L6.09548 7.81049ZM6.26078 7.60897L5.2977 7.33976C5.29245 7.35851 5.29035 7.36595 5.2889 7.3709C5.28746 7.37578 5.29011 7.36628 5.2959 7.35014C5.30749 7.31779 5.34578 7.21717 5.43341 7.10796L6.21337 7.73379L6.99333 8.35962C7.10017 8.22646 7.15276 8.09706 7.17856 8.02511C7.20057 7.9637 7.21831 7.89805 7.22386 7.87819L6.26078 7.60897ZM17.7383 7.60889L16.7749 7.87707C16.7804 7.89687 16.7981 7.96268 16.8202 8.02427C16.846 8.09657 16.8986 8.22605 17.0055 8.35929L17.7856 7.73372L18.5658 7.10814C18.6534 7.21739 18.6917 7.31807 18.7034 7.35077C18.7092 7.36701 18.7118 7.37661 18.7104 7.37176C18.709 7.36686 18.7069 7.35946 18.7017 7.3407L17.7383 7.60889ZM17.9036 7.81047L18.3748 6.9284C18.3566 6.91871 18.3485 6.91434 18.3427 6.91118C18.337 6.90799 18.3441 6.91177 18.3571 6.91988C18.3797 6.934 18.4741 6.99378 18.5658 7.10814L17.7856 7.73372L17.0055 8.35929C17.1164 8.49764 17.2368 8.57821 17.2972 8.61591C17.3516 8.64996 17.4118 8.68146 17.4325 8.69254L17.9036 7.81047Z" fill="#33363F"/>
<path d="M17.7321 7.84485C16.8643 8.07198 15.5 8.5 14 8.5" stroke="#33363F" stroke-width="2" stroke-linecap="round"/>
</svg>
