<svg width="24" height="24" viewBox="0 0 24 24" fill="none" xmlns="http://www.w3.org/2000/svg">
<path d="M17 12L12.2622 20.528C12.1463 20.7367 12.0883 20.8411 12 20.8411C11.9117 20.8411 11.8537 20.7367 11.7378 20.528L7 12" stroke="#33363F" stroke-linecap="round"/>
<path d="M12 3V2.5V2.5V3ZM14.2959 3.49512L14.5006 3.03894L14.5006 3.03894L14.2959 3.49512ZM16.2422 4.90332L16.6096 4.56418L16.6096 4.56414L16.2422 4.90332ZM17.543 7.0127L18.01 6.83413L18.01 6.83413L17.543 7.0127ZM19 9.55957H19.5V9.55955L19 9.55957ZM17.7676 11.2578L17.9026 11.7392L17.9026 11.7392L17.7676 11.2578ZM6.23242 11.2578L6.09733 11.7392L6.09737 11.7392L6.23242 11.2578ZM5 9.55957H4.5V9.55958L5 9.55957ZM6.45703 7.0127L5.99001 6.83413L5.99 6.83413L6.45703 7.0127ZM7.75781 4.90332L7.39045 4.56414L7.39041 4.56418L7.75781 4.90332ZM9.7041 3.49512L9.4994 3.03894L9.4994 3.03894L9.7041 3.49512ZM6.09548 7.81049L5.85973 7.36955L6.09548 7.81049ZM6.26078 7.60897L6.74232 7.74358L6.26078 7.60897ZM6.21337 7.73379L6.60335 8.0467L6.21337 7.73379ZM17.7383 7.60889L17.2566 7.74298L17.7383 7.60889ZM17.9036 7.81047L17.6681 8.2515L17.9036 7.81047ZM17.7856 7.73372L18.1757 7.42093L17.7856 7.73372ZM12 3V3.5C12.7163 3.5 13.4266 3.6531 14.0912 3.9513L14.2959 3.49512L14.5006 3.03894C13.7093 2.68385 12.8596 2.5 12 2.5V3ZM14.2959 3.49512L14.0912 3.95129C14.7557 4.24948 15.3623 4.68735 15.8748 5.2425L16.2422 4.90332L16.6096 4.56414C16.008 3.91259 15.2916 3.39389 14.5006 3.03894L14.2959 3.49512ZM16.2422 4.90332L15.8748 5.24246C16.3876 5.79797 16.7964 6.46025 17.0759 7.19126L17.543 7.0127L18.01 6.83413C17.6864 5.98791 17.2111 5.21584 16.6096 4.56418L16.2422 4.90332ZM17.543 7.0127L17.0759 7.19126C17.1445 7.37047 17.2042 7.55463 17.2566 7.74298L17.7383 7.60889L18.22 7.4748C18.1601 7.25977 18.0909 7.04565 18.01 6.83413L17.543 7.0127ZM17.9036 7.81047L17.6681 8.2515C18.1701 8.51964 18.5 9.00136 18.5 9.55959L19 9.55957L19.5 9.55955C19.5 8.57635 18.9143 7.78344 18.1392 7.36943L17.9036 7.81047ZM19 9.55957H18.5C18.5 10.1408 18.1444 10.6328 17.6325 10.7764L17.7676 11.2578L17.9026 11.7392C18.8929 11.4614 19.5 10.5385 19.5 9.55957H19ZM17.7676 11.2578L17.6325 10.7764C16.0037 11.2333 14.074 11.5 12 11.5V12V12.5C14.1563 12.5 16.1776 12.2232 17.9026 11.7392L17.7676 11.2578ZM12 12V11.5C9.92606 11.5 7.99626 11.2333 6.36748 10.7764L6.23242 11.2578L6.09737 11.7392C7.82235 12.2232 9.84377 12.5 12 12.5V12ZM6.23242 11.2578L6.36751 10.7764C5.8556 10.6328 5.50001 10.1408 5.5 9.55956L5 9.55957L4.5 9.55958C4.50002 10.5385 5.10709 11.4613 6.09733 11.7392L6.23242 11.2578ZM5 9.55957H5.5C5.5 9.00139 5.82963 8.5196 6.33122 8.25142L6.09548 7.81049L5.85973 7.36955C5.08494 7.78379 4.5 8.57683 4.5 9.55957H5ZM6.26078 7.60897L6.74232 7.74358C6.7948 7.55582 6.85516 7.37146 6.92406 7.19126L6.45703 7.0127L5.99 6.83413C5.90943 7.04486 5.83953 7.25866 5.77924 7.47437L6.26078 7.60897ZM6.45703 7.0127L6.92406 7.19126C7.20356 6.46025 7.61244 5.79797 8.12521 5.24246L7.75781 4.90332L7.39041 4.56418C6.78888 5.21584 6.31356 5.98791 5.99001 6.83413L6.45703 7.0127ZM7.75781 4.90332L8.12518 5.2425C8.63773 4.68735 9.24429 4.24948 9.9088 3.95129L9.7041 3.49512L9.4994 3.03894C8.7084 3.39389 7.99201 3.91259 7.39045 4.56414L7.75781 4.90332ZM9.7041 3.49512L9.9088 3.9513C10.5734 3.6531 11.2837 3.5 12 3.5V3V2.5C11.1404 2.5 10.2907 2.68385 9.4994 3.03894L9.7041 3.49512ZM6.09548 7.81049L6.33122 8.25142C6.35804 8.23708 6.40038 8.21476 6.43698 8.19187C6.47646 8.16718 6.54313 8.12175 6.60335 8.0467L6.21337 7.73379L5.82339 7.42087C5.86441 7.36976 5.90502 7.3451 5.90681 7.34398C5.90855 7.34289 5.90669 7.34413 5.89747 7.34921C5.88828 7.35428 5.87701 7.36031 5.85973 7.36955L6.09548 7.81049ZM6.26078 7.60897L5.77924 7.47437C5.77427 7.49215 5.77116 7.50322 5.76852 7.51219C5.76589 7.52113 5.76544 7.522 5.76656 7.51888C5.76881 7.51261 5.78438 7.4695 5.82339 7.42087L6.21337 7.73379L6.60335 8.0467C6.66157 7.97414 6.69144 7.90225 6.70789 7.85637C6.72245 7.81576 6.73484 7.77032 6.74232 7.74358L6.26078 7.60897ZM17.7383 7.60889L17.2566 7.74298C17.2641 7.76969 17.2764 7.8152 17.291 7.85589C17.3074 7.90195 17.3373 7.97389 17.3955 8.0465L17.7856 7.73372L18.1757 7.42093C18.2147 7.46955 18.2303 7.5127 18.2326 7.51914C18.2337 7.52231 18.2333 7.52148 18.2307 7.51257C18.228 7.50363 18.2249 7.49258 18.22 7.4748L17.7383 7.60889ZM17.9036 7.81047L18.1392 7.36943C18.1219 7.36019 18.1106 7.35416 18.1014 7.34909C18.0922 7.34401 18.0904 7.34278 18.0921 7.34389C18.094 7.34505 18.1347 7.36974 18.1757 7.42093L17.7856 7.73372L17.3955 8.0465C17.4558 8.12167 17.5226 8.16716 17.5622 8.1919C17.5988 8.21482 17.6412 8.23717 17.6681 8.2515L17.9036 7.81047Z" fill="#33363F"/>
<path d="M17.7321 7.84485C16.8643 8.07198 15.5 8.5 14 8.5" stroke="#33363F" stroke-linecap="round"/>
</svg>
