<svg width="24" height="24" viewBox="0 0 24 24" fill="none" xmlns="http://www.w3.org/2000/svg">
<path d="M3.5 15.4998L5.41016 13.5896C6.75555 12.2442 7.42846 11.572 8.15723 11.5105C8.52416 11.4795 8.89249 11.5506 9.22168 11.7156C9.87543 12.0434 10.2504 12.9178 11 14.6667L11.0537 14.7908C11.3796 15.5512 11.5424 15.9321 11.8105 16.0984C12.0191 16.2275 12.2682 16.2755 12.5098 16.2332C12.8207 16.1786 13.1139 15.8859 13.6992 15.3005L13.8125 15.1873C14.5336 14.4661 14.8948 14.1058 15.3037 13.9539C15.753 13.787 16.247 13.787 16.6963 13.9539C17.1052 14.1058 17.4664 14.4661 18.1875 15.1873L18.9395 15.9392C19.4762 16.476 20.1643 16.8255 20.9033 16.949C20.778 18.2771 20.4898 19.1662 19.8281 19.8279C18.6565 20.9994 16.7712 20.9998 13 20.9998H11C7.22881 20.9998 5.34345 20.9994 4.17188 19.8279C3.00031 18.6563 3 16.7709 3 12.9998V10.9998C3 8.16107 3.00035 6.39081 3.5 5.18921V15.4998Z" fill="#222222"/>
<path d="M12 3H11C7.22876 3 5.34315 3 4.17157 4.17157C3 5.34315 3 7.22876 3 11V13C3 16.7712 3 18.6569 4.17157 19.8284C5.34315 21 7.22876 21 11 21H13C16.7712 21 18.6569 21 19.8284 19.8284C21 18.6569 21 16.7712 21 13V12" stroke="#222222" stroke-width="2"/>
<path d="M21 3V2H22V3H21ZM16.6247 7.78087C16.1934 8.12588 15.5641 8.05596 15.2191 7.62469C14.8741 7.19343 14.944 6.56414 15.3753 6.21913L16 7L16.6247 7.78087ZM21 8H20V3H21H22V8H21ZM21 3V4H16V3V2H21V3ZM21 3L21.6247 3.78087L16.6247 7.78087L16 7L15.3753 6.21913L20.3753 2.21913L21 3Z" fill="#222222"/>
</svg>
