<svg width="24" height="24" viewBox="0 0 24 24" fill="none" xmlns="http://www.w3.org/2000/svg">
<path d="M21 3.35938C21.9994 4.54334 22 6.42341 22 10V14C22 17.7712 21.9997 19.6566 20.8281 20.8281C19.6566 21.9997 17.7712 22 14 22H10C6.22876 22 4.34345 21.9997 3.17188 20.8281C2.0003 19.6566 2 17.7712 2 14V10C2 6.42341 2.00063 4.54334 3 3.35938V15.5L4.91016 13.5898C6.25562 12.2444 6.92844 11.5713 7.65723 11.5098C8.0241 11.4788 8.39254 11.5499 8.72168 11.7148C9.37555 12.0426 9.75036 12.9178 10.5 14.667L10.5537 14.791C10.8796 15.5515 11.0423 15.9323 11.3105 16.0986C11.5191 16.2277 11.7682 16.2757 12.0098 16.2334C12.3207 16.1788 12.6139 15.8861 13.1992 15.3008L13.3125 15.1875C14.0337 14.4663 14.3948 14.1061 14.8037 13.9541C15.253 13.7872 15.747 13.7872 16.1963 13.9541C16.6052 14.1061 16.9663 14.4663 17.6875 15.1875L18.4395 15.9395C19.1186 16.6185 20.0396 17 21 17V3.35938Z" fill="#222222"/>
<path d="M10 2.5H14C15.8996 2.5 17.2741 2.50071 18.3223 2.6416C19.3561 2.78059 19.9972 3.04799 20.4746 3.52539C20.952 4.00279 21.2194 4.64392 21.3584 5.67773C21.4993 6.7259 21.5 8.1004 21.5 10V14C21.5 15.8996 21.4993 17.2741 21.3584 18.3223C21.2194 19.3561 20.952 19.9972 20.4746 20.4746C19.9972 20.952 19.3561 21.2194 18.3223 21.3584C17.2741 21.4993 15.8996 21.5 14 21.5H10C8.1004 21.5 6.7259 21.4993 5.67773 21.3584C4.64392 21.2194 4.00279 20.952 3.52539 20.4746C3.04799 19.9972 2.78059 19.3561 2.6416 18.3223C2.50071 17.2741 2.5 15.8996 2.5 14V10C2.5 8.1004 2.50071 6.7259 2.6416 5.67773C2.78059 4.64392 3.04799 4.00279 3.52539 3.52539C4.00279 3.04799 4.64392 2.78059 5.67773 2.6416C6.7259 2.50071 8.1004 2.5 10 2.5Z" stroke="#222222"/>
<circle cx="15" cy="9" r="1.5" stroke="#222222" stroke-linecap="round"/>
</svg>
