<svg width="24" height="24" viewBox="0 0 24 24" fill="none" xmlns="http://www.w3.org/2000/svg">
<path d="M3 15.5L5.30469 11.7539C6.08355 10.4883 7.92236 10.4842 8.70703 11.7461L11.3477 15.9951C11.6744 16.5206 12.3956 16.6265 12.8594 16.2168L15.0762 14.2578C15.8741 13.553 17.0842 13.5968 17.8291 14.3574L19.3086 15.8682C19.8852 16.457 20.6354 16.8371 21.4404 16.958C21.34 18.5633 21.0682 19.5881 20.3281 20.3281C19.1566 21.4997 17.2712 21.5 13.5 21.5H10.5C6.72878 21.5 4.84345 21.4997 3.67188 20.3281C2.50031 19.1566 2.5 17.2712 2.5 13.5V10.5C2.5 7.66132 2.50035 5.89106 3 4.68945V15.5Z" fill="#222222"/>
<path d="M12 2.5H6.5C4.29086 2.5 2.5 4.29086 2.5 6.5V17.5C2.5 19.7091 4.29086 21.5 6.5 21.5H17.5C19.7091 21.5 21.5 19.7091 21.5 17.5V12" stroke="#222222"/>
<path d="M21.5 2.5V2H22V2.5H21.5ZM16.3536 8.35355C16.1583 8.54882 15.8417 8.54882 15.6464 8.35355C15.4512 8.15829 15.4512 7.84171 15.6464 7.64645L16 8L16.3536 8.35355ZM21.5 8H21V2.5H21.5H22V8H21.5ZM21.5 2.5V3H16V2.5V2H21.5V2.5ZM21.5 2.5L21.8536 2.85355L16.3536 8.35355L16 8L15.6464 7.64645L21.1464 2.14645L21.5 2.5Z" fill="#222222"/>
</svg>
