<svg width="24" height="24" viewBox="0 0 24 24" fill="none" xmlns="http://www.w3.org/2000/svg">
<path d="M8.44434 10.8057C8.53141 10.818 8.61759 10.8379 8.70117 10.8652C8.96326 10.9511 9.20862 11.1584 9.51172 11.667C9.81941 12.1833 10.1366 12.9215 10.585 13.9678C10.7878 14.4411 10.9587 14.8421 11.1348 15.1387C11.316 15.444 11.547 15.7171 11.9092 15.8477C11.9889 15.8764 12.0709 15.8982 12.1543 15.9131C12.5339 15.9807 12.8716 15.8583 13.1816 15.6836C13.4834 15.5135 13.8341 15.2497 14.249 14.9385C14.7347 14.5742 15.07 14.3227 15.3516 14.1523C15.624 13.9875 15.8098 13.9224 15.9854 13.9043C16.0298 13.8997 16.0745 13.8971 16.1191 13.8965C16.296 13.8942 16.4868 13.9381 16.7744 14.0693C17.072 14.2051 17.432 14.4138 17.9531 14.7178L20.9404 16.46C20.8399 18.0641 20.5679 19.0883 19.8281 19.8281C18.6566 20.9997 16.7712 21 13 21H11C7.22876 21 5.34345 20.9997 4.17188 19.8281C3.20298 18.8592 3.03681 17.4022 3.00781 14.7939L5.38477 12.7578C6.24901 12.017 6.85924 11.4944 7.36328 11.167C7.85964 10.8446 8.17132 10.7671 8.44434 10.8057ZM13 3C16.7712 3 18.6566 3.0003 19.8281 4.17188C20.9997 5.34345 21 7.22876 21 11V13C21 13.8721 20.9979 14.6432 20.9834 15.3281L18.457 13.8545C17.9531 13.5605 17.5431 13.3206 17.1895 13.1592C16.8262 12.9935 16.4838 12.8917 16.1064 12.8965C16.0319 12.8974 15.957 12.9016 15.8828 12.9092C15.5068 12.9479 15.177 13.0894 14.834 13.2969C14.4999 13.499 14.1191 13.7864 13.6494 14.1387C13.2119 14.4668 12.9218 14.682 12.6904 14.8125C12.4676 14.9381 12.3781 14.9373 12.3301 14.9287C12.3023 14.9237 12.2746 14.9168 12.248 14.9072C12.2014 14.8904 12.1244 14.8457 11.9951 14.6279C11.8605 14.4012 11.7179 14.0726 11.5039 13.5732C11.0669 12.5537 10.72 11.7423 10.3701 11.1553C10.0157 10.5605 9.60989 10.1108 9.0127 9.91504C8.8734 9.86941 8.73009 9.83599 8.58496 9.81543C7.96276 9.72727 7.39986 9.95111 6.81934 10.3281C6.24617 10.7004 5.5758 11.276 4.7334 11.998L3 13.4834V11C3 7.22876 3.0003 5.34345 4.17188 4.17188C5.34345 3.0003 7.22876 3 11 3H13Z" fill="#7E869E" fill-opacity="0.25"/>
<circle cx="16" cy="8" r="2" fill="#222222"/>
</svg>
