<svg width="24" height="24" viewBox="0 0 24 24" fill="none" xmlns="http://www.w3.org/2000/svg">
<path d="M7 10.4944C4.58831 9.95626 3.00031 9.04025 3 8.00024C3 6.96011 4.58803 6.0433 7 5.50513V10.4944ZM17 5.50513C19.412 6.0433 21 6.96011 21 8.00024C20.9997 9.04025 19.4117 9.95626 17 10.4944V5.50513Z" fill="#7E869E" fill-opacity="0.25"/>
<path d="M21 18C21 18.0708 20.99 18.1404 20.9756 18.21C20.969 18.2416 20.9627 18.2734 20.9531 18.3047C20.4947 19.8183 16.6617 21 12 21C8.3623 21 5.22955 20.2794 3.81055 19.2441C3.80601 19.2408 3.80138 19.2377 3.79688 19.2344C3.68429 19.1514 3.58316 19.0662 3.49316 18.9795C3.47724 18.9642 3.46148 18.949 3.44629 18.9336C3.42101 18.9079 3.39628 18.8825 3.37305 18.8564C3.36077 18.8427 3.34959 18.8283 3.33789 18.8145C3.30615 18.7769 3.27645 18.7393 3.24902 18.7012C3.2315 18.6769 3.21495 18.6525 3.19922 18.6279C3.188 18.6104 3.17729 18.5928 3.16699 18.5752C3.15027 18.5466 3.13438 18.5181 3.12012 18.4893C3.11227 18.4733 3.10475 18.4574 3.09766 18.4414C3.05844 18.3531 3.03116 18.2636 3.01562 18.1729C3.01362 18.1611 3.01136 18.1495 3.00977 18.1377C3.00355 18.092 3.00002 18.0462 3 18V8C3 9.59167 6.71867 10.8922 11.418 10.9922C11.6106 10.9955 11.8046 11 12 11C16.9706 11 21 9.65685 21 8V18ZM10 14.4141C9.58585 14.4141 9.25239 14.7476 8.58594 15.4141L5.1416 18.8564C5.37694 18.9639 5.64665 19.071 5.95215 19.1729C7.45391 19.6734 9.59229 20 12 20C14.4077 20 16.5461 19.6734 18.0479 19.1729C18.8038 18.9209 19.3436 18.643 19.6738 18.3828C19.6961 18.3652 19.7158 18.3467 19.7354 18.3301L18.4512 16.5322C17.7993 15.6197 17.4733 15.1631 17.0127 15.124C16.9863 15.1218 16.9592 15.1202 16.9326 15.1201C16.4701 15.1182 16.1051 15.5447 15.375 16.3965C14.7469 17.1293 14.4319 17.4964 14.0176 17.5273C13.9937 17.5291 13.9693 17.5292 13.9453 17.5293C13.5301 17.53 13.1889 17.1889 12.5068 16.5068L11.4141 15.4141C10.7476 14.7476 10.4141 14.4141 10 14.4141Z" fill="#222222"/>
</svg>
