<svg width="24" height="24" viewBox="0 0 24 24" fill="none" xmlns="http://www.w3.org/2000/svg">
<circle cx="19" cy="6" r="2" fill="#2A4157" fill-opacity="0.24"/>
<path d="M8.48812 8.09082L8.06635 7.82229L8.06631 7.82235L8.48812 8.09082ZM10.5125 8.09082L10.0907 8.35928L10.0907 8.35929L10.5125 8.09082ZM13.7459 13.1709L13.3241 13.4394C13.4122 13.5778 13.5627 13.6642 13.7267 13.6705C13.8907 13.6768 14.0473 13.6023 14.1459 13.471L13.7459 13.1709ZM15.5399 10.7803L15.9398 11.0804L15.9399 11.0803L15.5399 10.7803ZM17.4598 10.7803L17.0598 11.0803L17.0598 11.0803L17.4598 10.7803ZM21.0604 15.5801L21.4604 15.2802L21.4604 15.28L21.0604 15.5801ZM20.1004 17.5V18H20.1006L20.1004 17.5ZM3.67367 15.6553L3.25186 15.3868L3.25184 15.3868L3.67367 15.6553ZM8.48812 8.09082L8.9099 8.35935C9.18506 7.92714 9.81574 7.92723 10.0907 8.35928L10.5125 8.09082L10.9343 7.82236C10.2663 6.7727 8.73439 6.773 8.06635 7.82229L8.48812 8.09082ZM10.5125 8.09082L10.0907 8.35929L13.3241 13.4394L13.7459 13.1709L14.1677 12.9024L10.9343 7.82235L10.5125 8.09082ZM13.7459 13.1709L14.1459 13.471L15.9398 11.0804L15.5399 10.7803L15.14 10.4802L13.346 12.8708L13.7459 13.1709ZM15.5399 10.7803L15.9399 11.0803C16.2199 10.7069 16.7798 10.7069 17.0598 11.0803L17.4598 10.7803L17.8598 10.4803C17.1798 9.57361 15.8199 9.57361 15.1399 10.4803L15.5399 10.7803ZM17.4598 10.7803L17.0598 11.0803L20.6604 15.8801L21.0604 15.5801L21.4604 15.28L17.8598 10.4802L17.4598 10.7803ZM21.0604 15.5801L20.6603 15.88C21.0062 16.3413 20.677 16.9998 20.1003 17L20.1004 17.5L20.1006 18C21.501 17.9996 22.3006 16.4008 21.4604 15.2802L21.0604 15.5801ZM20.1004 17.5V17H4.68636V17.5V18H20.1004V17.5ZM4.68636 17.5V17C4.13397 17 3.79896 16.3897 4.0955 15.9237L3.67367 15.6553L3.25184 15.3868C2.53163 16.5186 3.34494 18 4.68636 18V17.5ZM3.67367 15.6553L4.09548 15.9237L8.90993 8.35929L8.48812 8.09082L8.06631 7.82235L3.25186 15.3868L3.67367 15.6553Z" fill="#222222"/>
</svg>
