<svg width="24" height="24" viewBox="0 0 24 24" fill="none" xmlns="http://www.w3.org/2000/svg">
<rect width="24" height="24" fill="white"/>
<path d="M4.5 16L7.34822 12.8353C8.19896 11.89 9.70429 11.9684 10.4523 12.9969L12.2634 15.4872C12.6408 16.006 13.4022 16.0403 13.8247 15.5575L14.9793 14.238C15.7815 13.3212 17.2101 13.3284 18.0029 14.2534L19.5 16" stroke="#222222" stroke-linecap="round"/>
<path d="M6 8.50004C6 8.77618 6.22386 9.00004 6.5 9.00004C6.77614 9.00004 7 8.77618 7 8.50004H6.5H6ZM7 5.00004C7 4.72389 6.77614 4.50004 6.5 4.50004C6.22386 4.50004 6 4.72389 6 5.00004H6.5H7ZM17 8.50004C17 8.77618 17.2239 9.00004 17.5 9.00004C17.7761 9.00004 18 8.77618 18 8.50004H17.5H17ZM18 5.00004C18 4.72389 17.7761 4.50004 17.5 4.50004C17.2239 4.50004 17 4.72389 17 5.00004H17.5H18ZM2.5 17H2V17H2.5ZM21.5 17H22H21.5ZM17.5994 4.47155C17.328 4.42073 17.0668 4.59957 17.016 4.87099C16.9651 5.14242 17.144 5.40365 17.4154 5.45447L17.5074 4.96301L17.5994 4.47155ZM6.56016 5.45906C6.83152 5.40791 7.01004 5.14645 6.95888 4.87509C6.90772 4.60373 6.64627 4.42522 6.3749 4.47637L6.46753 4.96772L6.56016 5.45906ZM6.5 8.50004H7V5.00004H6.5H6V8.50004H6.5ZM17.5 8.50004H18V5.00004H17.5H17V8.50004H17.5ZM2.5 17H3V7.00004H2.5H2V17H2.5ZM21.5 7.00004H21V17H21.5H22V7.00004H21.5ZM17.5074 4.96301L17.4154 5.45447C19.0432 5.75925 20.1663 6.17885 20.7021 6.60143L21.0117 6.20886L21.3214 5.81629C20.583 5.23388 19.252 4.78097 17.5994 4.47155L17.5074 4.96301ZM21.0117 6.20886L20.7021 6.60143C20.9655 6.80926 20.9987 6.94663 20.9999 6.99595C21.0011 7.04049 20.9799 7.16972 20.7334 7.37337L21.0518 7.75884L21.3703 8.14432C21.7347 7.84323 22.012 7.44872 21.9996 6.97008C21.9874 6.49621 21.6949 6.11095 21.3214 5.81629L21.0117 6.20886ZM21.0518 7.75884L20.7334 7.37337C20.2262 7.79238 19.1307 8.21537 17.5177 8.52617L17.6123 9.01714L17.7069 9.5081C19.3422 9.19302 20.6555 8.73477 21.3703 8.14432L21.0518 7.75884ZM17.6123 9.01714L17.5177 8.52617C15.9305 8.83199 14.003 8.99919 12.0152 9.00003L12.0154 9.50003L12.0156 10C14.0537 9.99916 16.0459 9.82817 17.7069 9.5081L17.6123 9.01714ZM12.0154 9.50003L12.0152 9.00003C10.0274 9.00088 8.09767 8.83533 6.50652 8.53082L6.41253 9.02191L6.31855 9.513C7.98332 9.8316 9.97751 10.0009 12.0156 10L12.0154 9.50003ZM6.41253 9.02191L6.50652 8.53082C4.88998 8.22145 3.78789 7.79926 3.27389 7.37934L2.95756 7.76656L2.64123 8.15377C3.36159 8.74227 4.67916 9.19925 6.31855 9.513L6.41253 9.02191ZM2.95756 7.76656L3.27389 7.37934C3.02331 7.17463 2.9994 7.04344 3.00001 6.99789C3.00067 6.94984 3.03083 6.81439 3.29031 6.60748L2.97859 6.21655L2.66686 5.82562C2.29549 6.12174 2.00655 6.50919 2.00011 6.98433C1.99363 7.46197 2.27463 7.85427 2.64123 8.15377L2.95756 7.76656ZM2.97859 6.21655L3.29031 6.60748C3.81927 6.18569 4.93588 5.76527 6.56016 5.45906L6.46753 4.96772L6.3749 4.47637C4.72644 4.78714 3.3996 5.24133 2.66686 5.82562L2.97859 6.21655ZM21.5 17H21C21 17.0639 20.9441 17.2581 20.5087 17.5347C20.0973 17.7961 19.4572 18.0561 18.5903 18.2843L18.7175 18.7678L18.8448 19.2513C19.7594 19.0106 20.5105 18.7183 21.045 18.3788C21.5555 18.0544 22 17.5992 22 17H21.5ZM18.7175 18.7678L18.5903 18.2843C16.8622 18.739 14.4912 19 12 19V19.5V20C14.548 20 17.0096 19.7343 18.8448 19.2513L18.7175 18.7678ZM12 19.5V19C9.50884 19 7.13775 18.739 5.40973 18.2843L5.28249 18.7678L5.15524 19.2513C6.99041 19.7343 9.45205 20 12 20V19.5ZM5.28249 18.7678L5.40973 18.2843C4.54277 18.0561 3.90266 17.7961 3.49127 17.5347C3.05594 17.2581 3 17.0639 3 17H2.5H2C2 17.5992 2.4445 18.0544 2.95502 18.3788C3.48948 18.7183 4.24061 19.0106 5.15524 19.2513L5.28249 18.7678Z" fill="#2A4157" fill-opacity="0.24"/>
</svg>
