<svg width="24" height="24" viewBox="0 0 24 24" fill="none" xmlns="http://www.w3.org/2000/svg">
<mask id="mask0_9_52544" style="mask-type:alpha" maskUnits="userSpaceOnUse" x="3" y="3" width="18" height="18">
<path d="M3 12C3 9.20435 3 7.80653 3.45672 6.7039C4.06569 5.23373 5.23373 4.06569 6.7039 3.45672C7.80653 3 9.20435 3 12 3C14.7956 3 16.1935 3 17.2961 3.45672C18.7663 4.06569 19.9343 5.23373 20.5433 6.7039C21 7.80653 21 9.20435 21 12V13.8C21 16.7998 21 18.2997 20.2361 19.3511C19.9893 19.6907 19.6907 19.9893 19.3511 20.2361C18.2997 21 16.7998 21 13.8 21H10.2C7.20021 21 5.70032 21 4.64886 20.2361C4.30928 19.9893 4.01065 19.6907 3.76393 19.3511C3 18.2997 3 16.7998 3 13.8V12Z" fill="black"/>
</mask>
<g mask="url(#mask0_9_52544)">
<path d="M13.012 -0.556264C16.7773 -0.765446 18.66 -0.869881 19.8948 0.234751C21.1296 1.33953 21.2344 3.22227 21.4436 6.98768L21.9495 16.0902C21.9769 16.5841 21.5837 17.0003 21.0891 17.0004C21.032 17.0004 20.9772 16.9773 20.9368 16.9369L18.971 14.9711C18.4533 14.4534 18.194 14.1941 17.9173 14.0512C17.3421 13.7544 16.6585 13.7545 16.0833 14.0512C15.8064 14.194 15.5465 14.4531 15.0286 14.9711C14.7595 15.2401 14.6246 15.3745 14.4817 15.4467C14.1845 15.5967 13.8326 15.589 13.5423 15.4262C13.4026 15.3478 13.2732 15.2079 13.0159 14.9271L11.3225 13.0795C10.16 11.8113 9.57855 11.1768 8.91531 11.057C8.25202 10.9374 7.22572 11.4605 5.1741 12.5062C4.59537 12.8012 4.01478 13.0003 3.50027 13.0004C3.50027 12.2398 3.42778 10.1773 3.33816 7.91346C3.1899 4.16862 3.11529 2.29553 4.21706 1.08338C5.31911 -0.128748 7.18225 -0.232119 10.9075 -0.439077L13.012 -0.556264ZM16.5003 6.00038C15.6718 6.00038 15.0003 6.67195 15.0003 7.50038C15.0005 8.32865 15.672 9.00038 16.5003 9.00038C17.3284 9.00014 18.0001 8.3285 18.0003 7.50038C18.0003 6.67209 17.3285 6.00061 16.5003 6.00038Z" fill="#222222"/>
</g>
<path d="M12.5 20.5H16.5C18.7091 20.5 20.5 18.7091 20.5 16.5V7.5C20.5 5.29086 18.7091 3.5 16.5 3.5H7.5C5.29086 3.5 3.5 5.29086 3.5 7.5V12.5" stroke="#222222" stroke-linecap="round"/>
<path d="M8.5 15.5V15H9V15.5H8.5ZM4.35355 20.3536C4.15829 20.5488 3.84171 20.5488 3.64645 20.3536C3.45118 20.1583 3.45118 19.8417 3.64645 19.6464L4 20L4.35355 20.3536ZM8.5 20H8V15.5H8.5H9V20H8.5ZM8.5 15.5V16H4V15.5V15H8.5V15.5ZM8.5 15.5L8.85355 15.8536L4.35355 20.3536L4 20L3.64645 19.6464L8.14645 15.1464L8.5 15.5Z" fill="#222222"/>
</svg>
