<svg width="24" height="24" viewBox="0 0 24 24" fill="none" xmlns="http://www.w3.org/2000/svg">
<mask id="mask0_9_52536" style="mask-type:alpha" maskUnits="userSpaceOnUse" x="3" y="3" width="18" height="18">
<path d="M3 11C3 7.22876 3 5.34315 4.17157 4.17157C5.34315 3 7.22876 3 11 3H13C16.7712 3 18.6569 3 19.8284 4.17157C21 5.34315 21 7.22876 21 11V13C21 16.7712 21 18.6569 19.8284 19.8284C18.6569 21 16.7712 21 13 21H11C7.22876 21 5.34315 21 4.17157 19.8284C3 18.6569 3 16.7712 3 13V11Z" fill="black"/>
</mask>
<g mask="url(#mask0_9_52536)">
<path d="M13.0127 -0.55624C16.7779 -0.765416 18.6608 -0.869969 19.8955 0.234776C21.1301 1.33957 21.2342 3.22246 21.4434 6.98771L21.9492 16.0902C21.9767 16.5841 21.5835 17.0004 21.0889 17.0004C21.0319 17.0003 20.9768 16.9772 20.9365 16.9369L18.9707 14.9711C18.4528 14.4532 18.1939 14.1941 17.917 14.0512C17.3417 13.7544 16.6583 13.7544 16.083 14.0512C15.8061 14.1941 15.5472 14.4532 15.0293 14.9711C14.7602 15.2402 14.6253 15.3744 14.4824 15.4467C14.1852 15.5968 13.8324 15.5891 13.542 15.4262C13.4024 15.3478 13.2737 15.2076 13.0166 14.9272L11.1143 12.852C9.96118 11.5941 9.38443 10.9646 8.70312 10.852C8.02188 10.7395 7.12543 11.2307 5.33301 12.2123C4.51249 12.6617 3.67156 13.0004 3 13.0004V7.56876C3 3.98474 2.99998 2.19223 4.09375 1.03556C5.18794 -0.121103 6.97806 -0.220711 10.5566 -0.419521L13.0127 -0.55624ZM16.5 6.0004C15.6716 6.0004 15 6.67197 15 7.5004C15.0002 8.32867 15.6717 9.0004 16.5 9.0004C17.3283 9.0004 17.9998 8.32867 18 7.5004C18 6.67197 17.3284 6.0004 16.5 6.0004Z" fill="#222222"/>
</g>
<path d="M12 21H17C19.2091 21 21 19.2091 21 17V7C21 4.79086 19.2091 3 17 3H7C4.79086 3 3 4.79086 3 7V12" stroke="#222222" stroke-width="2" stroke-linecap="round"/>
<path d="M8 16V15H9V16H8ZM3.70711 21.7071C3.31658 22.0976 2.68342 22.0976 2.29289 21.7071C1.90237 21.3166 1.90237 20.6834 2.29289 20.2929L3 21L3.70711 21.7071ZM8 21H7V16H8H9V21H8ZM8 16V17H3V16V15H8V16ZM8 16L8.70711 16.7071L3.70711 21.7071L3 21L2.29289 20.2929L7.29289 15.2929L8 16Z" fill="#222222"/>
</svg>
