<svg width="24" height="24" viewBox="0 0 24 24" fill="none" xmlns="http://www.w3.org/2000/svg">
<path d="M13 3C16.7712 3 18.6566 3.0003 19.8281 4.17188C20.9997 5.34345 21 7.22876 21 11V13C21 16.7712 20.9997 18.6566 19.8281 19.8281C18.6566 20.9997 16.7712 21 13 21H11C7.22876 21 5.34345 20.9997 4.17188 19.8281C3.0003 18.6566 3 16.7712 3 13V11C3 7.22876 3.0003 5.34345 4.17188 4.17188C5.34345 3.0003 7.22876 3 11 3H13ZM12 8C9.79086 8 8 9.79086 8 12C8 14.2091 9.79086 16 12 16C14.2091 16 16 14.2091 16 12C16 9.79086 14.2091 8 12 8Z" fill="#7E869E" fill-opacity="0.25"/>
<path d="M3 11C3 7.22876 3 5.34315 4.17157 4.17157C5.34315 3 7.22876 3 11 3H13C16.7712 3 18.6569 3 19.8284 4.17157C21 5.34315 21 7.22876 21 11V13C21 16.7712 21 18.6569 19.8284 19.8284C18.6569 21 16.7712 21 13 21H11C7.22876 21 5.34315 21 4.17157 19.8284C3 18.6569 3 16.7712 3 13V11Z" stroke="#222222" stroke-width="1.2"/>
<circle cx="16.5" cy="7.5" r="1.5" fill="#222222"/>
<circle cx="12" cy="12" r="3.4" stroke="#222222" stroke-width="1.2"/>
</svg>
