<svg width="24" height="24" viewBox="0 0 24 24" fill="none" xmlns="http://www.w3.org/2000/svg">
<path d="M11 13V9.75C11 9.05964 10.4404 8.5 9.75 8.5C9.05964 8.5 8.5 9.05964 8.5 9.75C8.5 10.4404 9.05964 11 9.75 11H14.25C14.9404 11 15.5 10.4404 15.5 9.75C15.5 9.05964 14.9404 8.5 14.25 8.5C13.5596 8.5 13 9.05964 13 9.75V13" stroke="#7E869E" stroke-opacity="0.25" stroke-linecap="round"/>
<circle cx="12" cy="9" r="6.5" stroke="#7E869E" stroke-opacity="0.25"/>
<mask id="path-3-inside-1_9_53499" fill="white">
<path d="M12 2C15.866 2 19 5.13401 19 9C19 11.7347 17.4313 14.102 15.1451 15.2539C15.0528 15.3004 15 15.3967 15 15.5V18.5C15 19.8807 13.8807 21 12.5 21H11.5C10.1193 21 9 19.8807 9 18.5V15.5C9 15.3968 8.94621 15.3004 8.85402 15.2539C6.56822 14.1019 5 11.7344 5 9C5 5.13401 8.13401 2 12 2Z"/>
</mask>
<path d="M11.5 21V22V22V21ZM8.85402 15.2539L9.30409 14.3609L8.85402 15.2539ZM15.1451 15.2539L15.595 16.147L15.1451 15.2539ZM12 2V3C15.3137 3 18 5.68629 18 9H19H20C20 4.58172 16.4183 1 12 1V2ZM19 9H18C18 11.3423 16.6574 13.3722 14.6951 14.3609L15.1451 15.2539L15.595 16.147C18.2051 14.8319 20 12.1272 20 9H19ZM15 15.5H14V18.5H15H16V15.5H15ZM15 18.5H14C14 19.3284 13.3284 20 12.5 20V21V22C14.433 22 16 20.433 16 18.5H15ZM12.5 21V20H11.5V21V22H12.5V21ZM11.5 21V20C10.6716 20 10 19.3284 10 18.5H9H8C8 20.433 9.567 22 11.5 22V21ZM9 18.5H10V15.5H9H8V18.5H9ZM8.85402 15.2539L9.30409 14.3609C7.3422 13.3721 6 11.3421 6 9H5H4C4 12.1267 5.79424 14.8316 8.40394 16.1469L8.85402 15.2539ZM5 9H6C6 5.68629 8.68629 3 12 3V2V1C7.58172 1 4 4.58172 4 9H5ZM9 15.5H10C10 15.0572 9.76617 14.5938 9.30409 14.3609L8.85402 15.2539L8.40394 16.1469C8.12624 16.007 8 15.7363 8 15.5H9ZM15.1451 15.2539L14.6951 14.3609C14.2274 14.5965 14 15.0638 14 15.5H15H16C16 15.7296 15.8783 16.0043 15.595 16.147L15.1451 15.2539Z" fill="#222222" mask="url(#path-3-inside-1_9_53499)"/>
</svg>
