<svg width="24" height="24" viewBox="0 0 24 24" fill="none" xmlns="http://www.w3.org/2000/svg">
<path d="M12 4L5 7L12 10L19 7L12 4Z" stroke="#222222" stroke-linejoin="round"/>
<path d="M19.1973 11.5396C19.3809 11.6184 19.4998 11.7998 19.5 11.9996C19.5 12.1995 19.381 12.3807 19.1973 12.4595L12.1973 15.4595C12.0715 15.5134 11.9285 15.5134 11.8027 15.4595L4.80273 12.4595C4.61905 12.3807 4.5 12.1995 4.5 11.9996C4.50017 11.7998 4.61909 11.6184 4.80273 11.5396L7.65918 10.316L8.92969 10.8589L6.27051 11.9996L12 14.4547L17.7295 11.9996L15.0693 10.8589L16.3398 10.316L19.1973 11.5396Z" fill="#222222"/>
<path d="M19.1973 16.5396C19.3809 16.6184 19.4998 16.7998 19.5 16.9996C19.5 17.1995 19.381 17.3807 19.1973 17.4595L12.1973 20.4595C12.0715 20.5134 11.9285 20.5134 11.8027 20.4595L4.80273 17.4595C4.61905 17.3807 4.5 17.1995 4.5 16.9996C4.50017 16.7998 4.61909 16.6184 4.80273 16.5396L7.65918 15.316L8.92969 15.8589L6.27051 16.9996L12 19.4547L17.7295 16.9996L15.0693 15.8589L16.3398 15.316L19.1973 16.5396Z" fill="#222222"/>
</svg>
