<svg width="24" height="24" viewBox="0 0 24 24" fill="none" xmlns="http://www.w3.org/2000/svg">
<path d="M11.1056 3.44721L5.78885 6.10557C5.00831 6.49585 4.61803 6.69098 4.61803 7C4.61803 7.30902 5.00831 7.50415 5.78885 7.89443L11.1056 10.5528C11.5445 10.7722 11.7639 10.882 12 10.882C12.2361 10.882 12.4555 10.7722 12.8944 10.5528L18.2111 7.89443C18.9917 7.50415 19.382 7.30902 19.382 7C19.382 6.69098 18.9917 6.49585 18.2111 6.10557L12.8944 3.44721C12.4555 3.22776 12.2361 3.11803 12 3.11803C11.7639 3.11803 11.5445 3.22776 11.1056 3.44721Z" fill="#222222"/>
<path d="M18.2109 11.1055C18.9912 11.4956 19.3816 11.6911 19.3818 12C19.3818 12.309 18.9915 12.5043 18.2109 12.8945L12.8945 15.5527C12.4556 15.7722 12.2361 15.8818 12 15.8818C11.764 15.8818 11.5443 15.7721 11.1055 15.5527L5.78906 12.8945C5.00852 12.5043 4.61816 12.309 4.61816 12C4.6184 11.6911 5.00875 11.4956 5.78906 11.1055L7.02246 10.4893C7.62622 10.8134 8.3371 11.169 9.15527 11.5781L10.2109 12.1064C11.0887 12.5453 11.5279 12.7646 12 12.7646C12.4721 12.7646 12.9113 12.5453 13.7891 12.1064L14.8447 11.5781C15.6626 11.1692 16.373 10.8133 16.9766 10.4893L18.2109 11.1055Z" fill="#222222"/>
<path d="M18.2109 16.1055C18.9915 16.4957 19.3818 16.691 19.3818 17C19.3818 17.309 18.9915 17.5043 18.2109 17.8945L12.8945 20.5527C12.4556 20.7722 12.2361 20.8818 12 20.8818C11.764 20.8818 11.5443 20.7721 11.1055 20.5527L5.78906 17.8945C5.00852 17.5043 4.61816 17.309 4.61816 17C4.6182 16.691 5.00855 16.4957 5.78906 16.1055L7.02148 15.4893C7.6254 15.8135 8.33675 16.1689 9.15527 16.5781L10.2109 17.1064C11.0887 17.5453 11.5279 17.7646 12 17.7646C12.4721 17.7646 12.9112 17.5454 13.7891 17.1064L14.8447 16.5781C15.6629 16.169 16.3738 15.8134 16.9775 15.4893L18.2109 16.1055Z" fill="#222222"/>
</svg>
