<svg width="24" height="24" viewBox="0 0 24 24" fill="none" xmlns="http://www.w3.org/2000/svg">
<path d="M12 4L5 7L12 10L19 7L12 4Z" fill="#7E869E" fill-opacity="0.25" stroke="#222222" stroke-width="1.2" stroke-linejoin="round"/>
<path d="M19 11.9999L12 14.9999L5 11.9999L10.833 9.49988L12 9.99988L13.166 9.49988L19 11.9999Z" fill="#7E869E" fill-opacity="0.25"/>
<path d="M19 11.9999L19.2364 12.5514C19.457 12.4568 19.6 12.2399 19.6 11.9999C19.6 11.7598 19.4569 11.5429 19.2363 11.4484L19 11.9999ZM12 14.9999L11.7636 15.5514C11.9146 15.616 12.0854 15.616 12.2364 15.5514L12 14.9999ZM5 11.9999L4.76364 11.4484C4.54303 11.5429 4.4 11.7599 4.4 11.9999C4.4 12.2399 4.54304 12.4568 4.76365 12.5514L5 11.9999ZM10.833 9.49988L11.0693 8.94837C10.9184 8.8837 10.7476 8.88372 10.5966 8.9484L10.833 9.49988ZM12 9.99988L11.7637 10.5514C11.9147 10.6161 12.0855 10.616 12.2365 10.5513L12 9.99988ZM13.166 9.49988L13.4023 8.94838C13.2514 8.88369 13.0805 8.88371 12.9296 8.94844L13.166 9.49988ZM19 11.9999L18.7636 11.4484L11.7636 14.4484L12 14.9999L12.2364 15.5514L19.2364 12.5514L19 11.9999ZM12 14.9999L12.2364 14.4484L5.23635 11.4484L5 11.9999L4.76365 12.5514L11.7636 15.5514L12 14.9999ZM5 11.9999L5.23636 12.5514L11.0694 10.0514L10.833 9.49988L10.5966 8.9484L4.76364 11.4484L5 11.9999ZM10.833 9.49988L10.5967 10.0514L11.7637 10.5514L12 9.99988L12.2363 9.44837L11.0693 8.94837L10.833 9.49988ZM12 9.99988L12.2365 10.5513L13.4025 10.0513L13.166 9.49988L12.9296 8.94844L11.7635 9.44844L12 9.99988ZM13.166 9.49988L12.9297 10.0514L18.7637 12.5514L19 11.9999L19.2363 11.4484L13.4023 8.94838L13.166 9.49988Z" fill="#222222"/>
<path d="M19 17L12 20L5 17L10.833 14.5L12 15L13.166 14.5L19 17Z" fill="#7E869E" fill-opacity="0.25"/>
<path d="M19 17L19.2364 17.5515C19.457 17.4569 19.6 17.24 19.6 17C19.6 16.76 19.4569 16.543 19.2363 16.4485L19 17ZM12 20L11.7636 20.5515C11.9146 20.6162 12.0854 20.6162 12.2364 20.5515L12 20ZM5 17L4.76364 16.4485C4.54303 16.5431 4.4 16.76 4.4 17C4.4 17.24 4.54304 17.4569 4.76365 17.5515L5 17ZM10.833 14.5L11.0693 13.9485C10.9184 13.8838 10.7476 13.8838 10.5966 13.9485L10.833 14.5ZM12 15L11.7637 15.5515C11.9147 15.6162 12.0855 15.6162 12.2365 15.5514L12 15ZM13.166 14.5L13.4023 13.9485C13.2514 13.8838 13.0805 13.8838 12.9296 13.9486L13.166 14.5ZM19 17L18.7636 16.4485L11.7636 19.4485L12 20L12.2364 20.5515L19.2364 17.5515L19 17ZM12 20L12.2364 19.4485L5.23635 16.4485L5 17L4.76365 17.5515L11.7636 20.5515L12 20ZM5 17L5.23636 17.5515L11.0694 15.0515L10.833 14.5L10.5966 13.9485L4.76364 16.4485L5 17ZM10.833 14.5L10.5967 15.0515L11.7637 15.5515L12 15L12.2363 14.4485L11.0693 13.9485L10.833 14.5ZM12 15L12.2365 15.5514L13.4025 15.0514L13.166 14.5L12.9296 13.9486L11.7635 14.4486L12 15ZM13.166 14.5L12.9297 15.0515L18.7637 17.5515L19 17L19.2363 16.4485L13.4023 13.9485L13.166 14.5Z" fill="#222222"/>
</svg>
