<svg width="24" height="24" viewBox="0 0 24 24" fill="none" xmlns="http://www.w3.org/2000/svg">
<path d="M12 4L5 7L12 10L19 7L12 4Z" stroke="#33363F" stroke-width="2" stroke-linejoin="round"/>
<path d="M19.3936 11.0811C19.7612 11.2387 20 11.6 20 12.0001C20 12.4001 19.7612 12.7614 19.3936 12.919L12.3936 15.919C12.1422 16.0267 11.8578 16.0267 11.6064 15.919L4.60645 12.919C4.23877 12.7614 4.00002 12.4001 4 12.0001C4 11.6 4.23877 11.2387 4.60645 11.0811L7.02539 10.044L9.5625 11.1309L7.53711 12.0001L12 13.9122L16.4619 12.0001L14.4355 11.1309L16.9736 10.044L19.3936 11.0811Z" fill="#33363F"/>
<path d="M19.3936 16.0811C19.7612 16.2387 20 16.6 20 17.0001C20 17.4001 19.7612 17.7614 19.3936 17.919L12.3936 20.919C12.1422 21.0267 11.8578 21.0267 11.6064 20.919L4.60645 17.919C4.23877 17.7614 4.00002 17.4001 4 17.0001C4 16.6 4.23877 16.2387 4.60645 16.0811L7.02539 15.044L9.5625 16.1309L7.53711 17.0001L12 18.9122L16.4619 17.0001L14.4355 16.1309L16.9736 15.044L19.3936 16.0811Z" fill="#33363F"/>
</svg>
