<svg width="24" height="24" viewBox="0 0 24 24" fill="none" xmlns="http://www.w3.org/2000/svg">
<path d="M12 4C16.4183 4 20 7.58172 20 12C20 16.4183 16.4183 20 12 20C7.58172 20 4 16.4183 4 12C4 7.58172 7.58172 4 12 4ZM11.7988 7.00488C11.5979 6.96501 11.411 7.41254 11.0381 8.30762L9.98926 10.8262C9.62078 11.7105 9.43641 12.153 9.54688 12.502C9.60386 12.6816 9.71061 12.8422 9.85449 12.9639C10.1341 13.2001 10.6133 13.2002 11.5713 13.2002C11.7382 13.2002 11.8218 13.2001 11.8828 13.2383C11.9146 13.2583 11.9419 13.2856 11.9619 13.3174C12 13.3783 12 13.4622 12 13.6289V15.5C12 16.47 12.0002 16.9549 12.2012 16.9951C12.4021 17.035 12.589 16.5875 12.9619 15.6924L14.0107 13.1738C14.3792 12.2895 14.5636 11.847 14.4531 11.498C14.3961 11.3184 14.2894 11.1578 14.1455 11.0361C13.8659 10.7999 13.3867 10.7998 12.4287 10.7998C12.2618 10.7998 12.1782 10.7999 12.1172 10.7617C12.0854 10.7417 12.0581 10.7144 12.0381 10.6826C12 10.6217 12 10.5378 12 10.3711V8.5C12 7.53003 11.9998 7.04508 11.7988 7.00488Z" fill="#222222"/>
</svg>
