<svg width="24" height="24" viewBox="0 0 24 24" fill="none" xmlns="http://www.w3.org/2000/svg">
<path d="M12 3C16.9706 3 21 7.02944 21 12C21 16.9706 16.9706 21 12 21C7.02944 21 3 16.9706 3 12C3 7.02944 7.02944 3 12 3ZM11.8135 5.7041C11.6275 5.65554 11.4401 5.98605 11.0654 6.64551L8.69727 10.8115C7.94197 12.1409 7.56525 12.8057 7.85449 13.3027C8.14373 13.7997 8.9077 13.7998 10.4365 13.7998H11.5C11.7356 13.7998 11.8535 13.7999 11.9268 13.873C12 13.9462 12 14.0642 12 14.2998V17.1074C12 17.8665 12.0004 18.2467 12.1865 18.2959C12.3725 18.3445 12.5599 18.0139 12.9346 17.3545L15.3027 13.1885C16.058 11.8591 16.4348 11.1943 16.1455 10.6973C15.8563 10.2003 15.0923 10.2002 13.5635 10.2002H12.5C12.2644 10.2002 12.1465 10.2001 12.0732 10.127C12 10.0537 12 9.93577 12 9.7002V6.89258C12 6.13352 11.9996 5.75329 11.8135 5.7041Z" fill="#7E869E" fill-opacity="0.25"/>
<path d="M11.5 13.8H10.4367C8.90773 13.8 8.14327 13.8 7.85403 13.303C7.56479 12.806 7.94244 12.1413 8.69774 10.812L11.0653 6.64512C11.4403 5.98516 11.6277 5.65517 11.8139 5.70436C12 5.75354 12 6.13307 12 6.89213V9.7C12 9.9357 12 10.0536 12.0732 10.1268C12.1464 10.2 12.2643 10.2 12.5 10.2H13.5633C15.0923 10.2 15.8567 10.2 16.146 10.697C16.4352 11.194 16.0576 11.8587 15.3023 13.188L12.9347 17.3549C12.5597 18.0148 12.3723 18.3448 12.1861 18.2956C12 18.2465 12 17.8669 12 17.1079V14.3C12 14.0643 12 13.9464 11.9268 13.8732C11.8536 13.8 11.7357 13.8 11.5 13.8Z" stroke="#222222" stroke-width="1.2"/>
<circle cx="12" cy="12" r="9" stroke="#222222" stroke-width="1.2"/>
</svg>
