<svg width="24" height="24" viewBox="0 0 24 24" fill="none" xmlns="http://www.w3.org/2000/svg">
<path d="M7.36133 10.2766C7.19949 10.6003 7.11861 10.7626 7.19141 10.8811C7.26466 10.9996 7.44628 11.0002 7.80859 11.0002H9.79297C10.3067 11.0002 10.563 11.0002 10.627 11.1545C10.6908 11.3089 10.5097 11.4905 10.1465 11.8538L8.85352 13.1467C8.49036 13.5099 8.30913 13.6916 8.37305 13.8459C8.43726 13.9999 8.69381 14.0002 9.20703 14.0002H10.1914C10.5537 14.0002 10.7353 13.9999 10.8086 14.1184C10.8818 14.237 10.8008 14.3996 10.6387 14.7239L10.1074 15.7854C9.67759 16.6451 9.46235 17.0752 9.62305 17.2014C9.78427 17.3273 10.1498 17.0147 10.8799 16.3889L14.9736 12.8792C15.4037 12.5105 15.6189 12.3266 15.5586 12.1633C15.4982 12.0001 15.215 12.0002 14.6484 12.0002H14.207C13.6938 12.0002 13.4373 11.9999 13.373 11.8459C13.3091 11.6916 13.4904 11.5099 13.8535 11.1467L15.1465 9.85376C15.5097 9.49052 15.6908 9.30886 15.627 9.15454C15.563 9.00022 15.3067 9.00024 14.793 9.00024H13.9346C13.5238 9.00024 13.318 8.99994 13.2471 8.86841C13.1764 8.73638 13.2904 8.56506 13.5186 8.2229L15.7207 4.91724C18.2648 6.25647 20 8.92544 20 12.0002C19.9999 16.4184 16.4182 20.0002 12 20.0002C7.58181 20.0002 4.00015 16.4184 4 12.0002C4 8.12251 6.75888 4.88863 10.4209 4.15552L7.36133 10.2766Z" fill="#33363F"/>
</svg>
