<svg width="24" height="24" viewBox="0 0 24 24" fill="none" xmlns="http://www.w3.org/2000/svg">
<path d="M20.3363 8.25323C20.7491 7.88633 21.3806 7.92346 21.7475 8.33624C22.1141 8.74902 22.0771 9.38054 21.6645 9.74737L19.308 11.8421C17.747 13.2297 16.5065 14.3353 15.4135 15.0823C14.2972 15.8452 13.2293 16.3108 12.0004 16.3108C10.7716 16.3108 9.70362 15.8452 8.58733 15.0823C8.25566 14.8557 7.91095 14.5946 7.54729 14.304C8.13157 13.786 8.63385 13.3427 9.07951 12.9651C9.30099 13.1359 9.51163 13.2918 9.71526 13.431C10.6547 14.073 11.3285 14.3108 12.0004 14.3108C12.6723 14.3108 13.3461 14.073 14.2856 13.431C15.2486 12.7728 16.3794 11.7696 17.9799 10.347L20.3363 8.25323ZM2.25334 8.33624C2.62026 7.92345 3.25169 7.88631 3.66447 8.25323L5.25334 9.66436C4.77244 10.0821 4.26787 10.5267 3.74065 10.9954L2.33635 9.74737C1.92357 9.38046 1.88644 8.74902 2.25334 8.33624Z" fill="#33363F"/>
<path d="M12.0004 7.68945C13.2293 7.68953 14.2971 8.155 15.4135 8.91797C15.7448 9.14438 16.0884 9.40517 16.4516 9.69531C15.8673 10.2133 15.3649 10.6565 14.9194 11.0342C14.6984 10.8639 14.4888 10.7082 14.2856 10.5693C13.3461 9.92725 12.6723 9.68953 12.0004 9.68945C11.3285 9.68945 10.6548 9.92726 9.71526 10.5693C8.7523 11.2275 7.62126 12.2298 6.02093 13.6523L3.66448 15.7471C3.25181 16.1137 2.62026 16.0765 2.25335 15.6641C1.88643 15.2513 1.92358 14.6189 2.33636 14.252L4.6928 12.1582C6.25383 10.7706 7.49433 9.66496 8.58733 8.91797C9.70373 8.15502 10.7715 7.68945 12.0004 7.68945ZM21.6645 14.252C22.0771 14.6188 22.1142 15.2513 21.7475 15.6641C21.3806 16.0766 20.7491 16.1136 20.3364 15.7471L18.7465 14.334C19.2274 13.9162 19.732 13.4716 20.2592 13.0029L21.6645 14.252Z" fill="#33363F"/>
</svg>
