<svg width="24" height="24" viewBox="0 0 24 24" fill="none" xmlns="http://www.w3.org/2000/svg">
<path d="M17 7C19.7614 7 22 9.23858 22 12C22 14.7614 19.7614 17 17 17H14.5C14.0341 17 13.8011 17 13.6173 16.9239C13.3723 16.8224 13.1776 16.6277 13.0761 16.3827C13 16.1989 13 15.9659 13 15.5C13 15.0341 13 14.8011 13.0761 14.6173C13.1776 14.3723 13.3723 14.1776 13.6173 14.0761C13.8011 14 14.0341 14 14.5 14H17C18.1046 14 19 13.1046 19 12C19 10.8954 18.1046 10 17 10H14.5C14.0341 10 13.8011 10 13.6173 9.92388C13.3723 9.82239 13.1776 9.62771 13.0761 9.38268C13 9.19891 13 8.96594 13 8.5C13 8.03406 13 7.80109 13.0761 7.61732C13.1776 7.37229 13.3723 7.17761 13.6173 7.07612C13.8011 7 14.0341 7 14.5 7H17Z" fill="#33363F"/>
<path d="M7 7C4.23858 7 2 9.23858 2 12C2 14.7614 4.23858 17 7 17H9.5C9.96594 17 10.1989 17 10.3827 16.9239C10.6277 16.8224 10.8224 16.6277 10.9239 16.3827C11 16.1989 11 15.9659 11 15.5C11 15.0341 11 14.8011 10.9239 14.6173C10.8224 14.3723 10.6277 14.1776 10.3827 14.0761C10.1989 14 9.96594 14 9.5 14H7C5.89543 14 5 13.1046 5 12C5 10.8954 5.89543 10 7 10H9.5C9.96594 10 10.1989 10 10.3827 9.92388C10.6277 9.82239 10.8224 9.62771 10.9239 9.38268C11 9.19891 11 8.96594 11 8.5C11 8.03406 11 7.80109 10.9239 7.61732C10.8224 7.37229 10.6277 7.17761 10.3827 7.07612C10.1989 7 9.96594 7 9.5 7H7Z" fill="#33363F"/>
<path d="M17 12L7 12" stroke="#33363F" stroke-width="2" stroke-linecap="round" stroke-linejoin="round"/>
</svg>
