<svg width="24" height="24" viewBox="0 0 24 24" fill="none" xmlns="http://www.w3.org/2000/svg">
<path d="M20.668 8.62597C20.8744 8.44274 21.1906 8.46166 21.374 8.66796C21.5572 8.87436 21.5383 9.19063 21.332 9.37402L18.9756 11.4678C17.4046 12.8642 16.1914 13.9441 15.1309 14.6689C14.0586 15.4017 13.0897 15.8105 12 15.8105C10.9103 15.8105 9.94136 15.4017 8.86913 14.6689C8.56868 14.4636 8.25638 14.2292 7.92675 13.9678C8.19961 13.727 8.45503 13.5058 8.69335 13.2998C8.95142 13.5009 9.19644 13.6823 9.43261 13.8437C10.4165 14.5161 11.1888 14.8105 12 14.8105C12.8112 14.8105 13.5835 14.5161 14.5674 13.8437C15.5629 13.1633 16.7209 12.1346 18.3115 10.7207L20.668 8.62597ZM2.62597 8.66796C2.80936 8.46165 3.12563 8.44275 3.33203 8.62597L4.87109 9.99413C4.62543 10.2099 4.37439 10.4327 4.11718 10.6611L2.66796 9.37402C2.46166 9.19063 2.44274 8.87436 2.62597 8.66796Z" fill="#222222"/>
<path d="M12.0001 8.18945C13.0899 8.18945 14.0587 8.59823 15.1309 9.33105C15.4309 9.53606 15.7423 9.77039 16.0714 10.0312C15.7987 10.2719 15.5439 10.4933 15.3057 10.6992C15.0481 10.4984 14.8033 10.3174 14.5675 10.1562C13.5836 9.48385 12.8113 9.18945 12.0001 9.18945C11.1889 9.18945 10.4166 9.48385 9.4327 10.1562C8.43721 10.8367 7.27913 11.8655 5.68856 13.2793L3.33211 15.373C3.12572 15.5565 2.80952 15.5384 2.62606 15.332C2.44266 15.1256 2.46168 14.8094 2.66805 14.626L5.0245 12.5312C6.59537 11.1349 7.80873 10.0558 8.86922 9.33105C9.9415 8.59823 10.9103 8.18945 12.0001 8.18945ZM21.3321 14.626C21.5385 14.8094 21.5575 15.1256 21.3741 15.332C21.1906 15.5384 20.8744 15.5565 20.6681 15.373L19.128 14.0039C19.3736 13.7881 19.6247 13.5654 19.8819 13.3369L21.3321 14.626Z" fill="#222222"/>
</svg>
