<svg width="24" height="24" viewBox="0 0 24 24" fill="none" xmlns="http://www.w3.org/2000/svg">
<path d="M3 4H21" stroke="#222222" stroke-width="2" stroke-linecap="round"/>
<path d="M19 15.7998C19 16.9199 19.0002 17.4804 18.7822 17.9082C18.5905 18.2845 18.2845 18.5905 17.9082 18.7822C17.4804 19.0002 16.9199 19 15.7998 19H8.2002C7.08009 19 6.51962 19.0002 6.0918 18.7822C5.71554 18.5905 5.40951 18.2845 5.21777 17.9082C4.99979 17.4804 5 16.9199 5 15.7998V4H19V15.7998ZM12 8C11.696 8 11.4246 8.13649 11.2412 8.35059C11.2231 8.36654 11.2038 8.38213 11.1865 8.39941L8.29297 11.293C7.90244 11.6835 7.90244 12.3165 8.29297 12.707C8.68349 13.0976 9.31651 13.0976 9.70703 12.707L11 11.4141V15C11 15.5523 11.4477 16 12 16C12.5523 16 13 15.5523 13 15V11.4141L14.293 12.707C14.6835 13.0976 15.3165 13.0976 15.707 12.707C16.0976 12.3165 16.0976 11.6835 15.707 11.293L12.8135 8.39941L12.7578 8.35059C12.5744 8.13677 12.3038 8 12 8Z" fill="#222222"/>
</svg>
