<svg width="24" height="24" viewBox="0 0 24 24" fill="none" xmlns="http://www.w3.org/2000/svg">
<path d="M3 3H21" stroke="#222222" stroke-width="2" stroke-linecap="round"/>
<path d="M19 14.7598C19 14.8438 18.9997 14.8859 18.9834 14.918C18.969 14.9462 18.9462 14.969 18.918 14.9834C18.8859 14.9997 18.8438 15 18.7598 15H16.2002C15.0801 15 14.5196 14.9998 14.0918 15.2178C13.7155 15.4095 13.4095 15.7155 13.2178 16.0918C12.9998 16.5196 13 17.0801 13 18.2002V20.7598C13 20.8438 12.9997 20.8859 12.9834 20.918C12.969 20.9462 12.9462 20.969 12.918 20.9834C12.8859 20.9997 12.8438 21 12.7598 21H8.2002C7.08009 21 6.51962 21.0002 6.0918 20.7822C5.71554 20.5905 5.40951 20.2845 5.21777 19.9082C4.99979 19.4804 5 18.9199 5 17.7998V3H19V14.7598ZM12 6C11.696 6 11.4246 6.13649 11.2412 6.35059C11.2231 6.36654 11.2038 6.38213 11.1865 6.39941L8.29297 9.29297C7.90244 9.68349 7.90244 10.3165 8.29297 10.707C8.68349 11.0976 9.31651 11.0976 9.70703 10.707L11 9.41406V13C11 13.5523 11.4477 14 12 14C12.5523 14 13 13.5523 13 13V9.41406L14.293 10.707C14.6835 11.0976 15.3165 11.0976 15.707 10.707C16.0976 10.3165 16.0976 9.68349 15.707 9.29297L12.8135 6.39941L12.7578 6.35059C12.5744 6.13677 12.3038 6 12 6Z" fill="#222222"/>
<path d="M15.2561 20.7439L18.7439 17.2561C18.8384 17.1616 18.7715 17 18.6379 17H15.5C15.2239 17 15 17.2239 15 17.5V20.6379C15 20.7715 15.1616 20.8384 15.2561 20.7439Z" fill="#222222"/>
</svg>
