<svg width="24" height="24" viewBox="0 0 24 24" fill="none" xmlns="http://www.w3.org/2000/svg">
<path d="M9 17.4692C9 17.9281 9.3123 18.3281 9.75746 18.4394L13.7575 19.4394C14.3886 19.5971 15 19.1198 15 18.4692V6.53077C15 6.0719 14.6877 5.67192 14.2425 5.56062L10.2425 4.56062C9.61139 4.40284 9 4.8802 9 5.53077V17.4692Z" fill="#33363F"/>
<path d="M7 17.7218C7 18.1306 6.7511 18.4983 6.37151 18.6502L4.37151 19.4505C3.71463 19.7134 3 19.2296 3 18.5221V6.6764C3 6.26746 3.24899 5.89974 3.62869 5.74789L5.62869 4.94809C6.28554 4.68541 7 5.16917 7 5.8766V17.7218ZM21 17.3222C21 17.7311 20.751 18.0989 20.3713 18.2507L18.3713 19.0505C17.7145 19.3132 17 18.8294 17 18.122V6.27601C17 5.86707 17.249 5.49934 17.6287 5.3475L19.6287 4.5477C20.2855 4.28502 21 4.76878 21 5.47621V17.3222Z" fill="#7E869E" fill-opacity="0.25"/>
</svg>
