<svg width="24" height="24" viewBox="0 0 24 24" fill="none" xmlns="http://www.w3.org/2000/svg">
<path d="M7 17.7223C7 18.1311 6.7511 18.4988 6.37151 18.6507L4.37151 19.451C3.71463 19.7138 3 19.2301 3 18.5226V6.67689C3 6.26795 3.24899 5.90022 3.62869 5.74838L5.62869 4.94858C6.28554 4.6859 7 5.16966 7 5.87708V17.7223ZM14.2425 5.56043C14.6877 5.67172 15 6.0717 15 6.53057V18.469C15 19.1196 14.3886 19.5969 13.7575 19.4392L9.75746 18.4392C9.3123 18.3279 9 17.9279 9 17.469V5.53057C9 4.88 9.61139 4.40264 10.2425 4.56043L14.2425 5.56043ZM21 17.3227C21 17.7316 20.751 18.0994 20.3713 18.2512L18.3713 19.051C17.7145 19.3137 17 18.8299 17 18.1225V6.2765C17 5.86756 17.249 5.49983 17.6287 5.34799L19.6287 4.54819C20.2855 4.28551 21 4.76926 21 5.47669V17.3227Z" fill="#33363F"/>
</svg>
