<svg width="24" height="24" viewBox="0 0 24 24" fill="none" xmlns="http://www.w3.org/2000/svg">
<path d="M21 10.8997V15.0002C21 17.8286 20.9998 19.2427 20.1211 20.1213C19.2424 20.9999 17.8283 21.0002 15 21.0002H9C6.17166 21.0002 4.75759 20.9999 3.87891 20.1213C3.00024 19.2427 3 17.8286 3 15.0002V10.8997C3 10.7317 3.00259 10.5708 3.00293 10.4172L4.70703 12.1213C5.26957 12.6839 6.03258 13.0002 6.82812 13.0002H17.1719C17.9674 13.0002 18.7304 12.6839 19.293 12.1213L20.9961 10.4172C20.9964 10.5708 21 10.7317 21 10.8997ZM12 3.18872C12.4244 3.18872 12.8249 3.36633 13.625 3.72192L17.4365 5.41626C19.1658 6.18485 20.0311 6.56921 20.5156 7.3147C20.6183 7.4727 20.6979 7.64037 20.7617 7.82349L17.8789 10.7073C17.6914 10.8947 17.437 11.0002 17.1719 11.0002H6.82812C6.56302 11.0002 6.30856 10.8947 6.12109 10.7073L3.2373 7.82349C3.30109 7.64025 3.38164 7.47278 3.48438 7.3147C3.96891 6.56921 4.83415 6.18485 6.56348 5.41626L10.375 3.72192C11.1751 3.36633 11.5756 3.18872 12 3.18872Z" fill="#222222"/>
</svg>
