<svg width="24" height="24" viewBox="0 0 24 24" fill="none" xmlns="http://www.w3.org/2000/svg">
<path d="M12 22V19" stroke="#222222" stroke-width="2" stroke-linecap="round" stroke-linejoin="round"/>
<path d="M12 3C14.9729 3 17.4388 5.16245 17.915 8H16C15.4477 8 15 8.44772 15 9C15 9.55228 15.4477 10 16 10H18V12H16C15.4477 12 15 12.4477 15 13C15 13.5523 15.4477 14 16 14H17.915C17.4388 16.8376 14.9729 19 12 19C9.02712 19 6.56117 16.8376 6.08496 14H9C9.55228 14 10 13.5523 10 13C10 12.4477 9.55228 12 9 12H6V10H9C9.55228 10 10 9.55228 10 9C10 8.44772 9.55228 8 9 8H6.08496C6.56117 5.16245 9.02712 3 12 3Z" fill="#222222"/>
</svg>
