<svg width="24" height="24" viewBox="0 0 24 24" fill="none" xmlns="http://www.w3.org/2000/svg">
<circle cx="12" cy="12" r="4" fill="#33363F"/>
<circle cx="18" cy="19" r="1" stroke="#33363F" stroke-width="2"/>
<circle cx="19" cy="5" r="3" fill="#33363F"/>
<circle cx="5.5" cy="5.5" r="2.5" fill="#33363F"/>
<circle cx="5.5" cy="18.5" r="3.5" fill="#33363F"/>
<path d="M18.7811 18.3749L17.2186 19.6249L14.5555 16.2968C15.1364 15.9505 15.6404 15.4901 16.038 14.9462L18.7811 18.3749ZM7.828 14.7567C8.19945 15.3177 8.68119 15.7992 9.24207 16.1708L7.70691 17.7069L6.29285 16.2928L7.828 14.7567ZM9.24207 7.828C8.68122 8.1995 8.1995 8.68122 7.828 9.24207L5.29285 6.70691L6.70691 5.29285L9.24207 7.828ZM17.7069 7.70691L16.1708 9.24207C15.7992 8.68119 15.3177 8.19945 14.7567 7.828L16.2928 6.29285L17.7069 7.70691Z" fill="#33363F"/>
</svg>
