<svg width="24" height="24" viewBox="0 0 24 24" fill="none" xmlns="http://www.w3.org/2000/svg">
<path d="M17 6C18.8856 6 19.8283 6.00015 20.4141 6.58594C20.9998 7.17172 21 8.11438 21 10V14C21 15.8856 20.9998 16.8283 20.4141 17.4141C19.8283 17.9998 18.8856 18 17 18H7C5.11438 18 4.17172 17.9998 3.58594 17.4141C3.00015 16.8283 3 15.8856 3 14V10C3 8.11438 3.00015 7.17172 3.58594 6.58594C4.17172 6.00015 5.11438 6 7 6H17ZM12 9C10.3431 9 9 10.3431 9 12C9 13.6569 10.3431 15 12 15C13.6569 15 15 13.6569 15 12C15 10.3431 13.6569 9 12 9Z" fill="#7E869E" fill-opacity="0.25"/>
<rect x="3" y="6" width="18" height="12" rx="2" stroke="#222222" stroke-width="1.2"/>
<path d="M6 9H8" stroke="#222222" stroke-width="1.2" stroke-linecap="round"/>
<path d="M16 15H18" stroke="#222222" stroke-width="1.2" stroke-linecap="round"/>
<circle cx="12" cy="12" r="2.4" stroke="#222222" stroke-width="1.2"/>
</svg>
