<svg width="24" height="24" viewBox="0 0 24 24" fill="none" xmlns="http://www.w3.org/2000/svg">
<path d="M15 10.999L16 10.999V10.999H15ZM9.71388 18.4855L10.69 18.2684L9.71388 18.4855ZM11.9406 5.21233L11.377 6.03838L11.9406 5.21233ZM11.9406 5.21233L12.5042 4.38629C14.6127 5.8249 15.9998 8.25012 16 10.999L15 10.999L14 10.9991C13.9999 8.93874 12.9625 7.12015 11.377 6.03838L11.9406 5.21233ZM15 10.999H16C16 13.9801 14.369 16.5785 11.9555 17.9534L11.4605 17.0845L10.9655 16.2156C12.7801 15.1819 14 13.2325 14 10.999H15ZM11.4338 18.9774L11.5137 17.9806C11.6739 17.9934 11.8361 18 12 18V19V20C11.7826 20 11.5671 19.9913 11.3538 19.9742L11.4338 18.9774ZM12 19V18C15.3137 18 18 15.3137 18 12H19H20C20 16.4183 16.4183 20 12 20V19ZM19 12H18C18 8.68629 15.3137 6 12 6V5V4C16.4183 4 20 7.58172 20 12H19ZM11.4605 17.0845L11.9555 17.9534C11.3208 18.315 10.93 18.5397 10.6963 18.7131C10.5792 18.8001 10.5765 18.8211 10.6049 18.7799C10.6515 18.7124 10.7461 18.5206 10.69 18.2684L9.71388 18.4855L8.73774 18.7027C8.64155 18.2703 8.78227 17.9 8.95848 17.6445C9.11657 17.4152 9.32726 17.2386 9.50454 17.107C9.85973 16.8435 10.3824 16.5478 10.9655 16.2156L11.4605 17.0845ZM11.4338 18.9774L11.3538 19.9742C10.8439 19.9333 10.34 19.8958 9.96392 19.8069C9.61659 19.7248 8.91286 19.4899 8.73774 18.7027L9.71388 18.4855L10.69 18.2684C10.651 18.0931 10.543 17.9582 10.4391 17.8849C10.3674 17.8343 10.3349 17.8394 10.424 17.8605C10.5043 17.8795 10.6285 17.8992 10.8216 17.9199C11.0118 17.9402 11.2364 17.9583 11.5137 17.9806L11.4338 18.9774ZM12 5V6C12.4501 6 12.7657 5.67911 12.8569 5.347C12.9452 5.02519 12.8472 4.62032 12.5042 4.38629L11.9406 5.21233L11.377 6.03838C10.9402 5.74037 10.8151 5.22934 10.9283 4.81735C11.0442 4.39507 11.4364 4 12 4V5Z" fill="#33363F"/>
<path d="M5.4 10.2L5.4 10.2C5.50137 10.5041 5.55206 10.6562 5.60276 10.7225C5.80288 10.9843 6.19712 10.9843 6.39724 10.7225C6.44794 10.6562 6.49863 10.5041 6.6 10.2L6.6 10.2C6.68177 9.95468 6.72266 9.83201 6.77555 9.72099C6.97291 9.30672 7.30672 8.97291 7.72099 8.77555C7.83201 8.72266 7.95468 8.68177 8.2 8.6L8.2 8.6C8.50412 8.49863 8.65618 8.44794 8.7225 8.39724C8.98431 8.19712 8.98431 7.80288 8.7225 7.60276C8.65618 7.55206 8.50412 7.50137 8.2 7.4L8.2 7.4C7.95468 7.31822 7.83201 7.27734 7.72099 7.22445C7.30672 7.02709 6.97291 6.69329 6.77555 6.27901C6.72266 6.16799 6.68177 6.04532 6.6 5.8C6.49863 5.49588 6.44794 5.34382 6.39724 5.2775C6.19712 5.01569 5.80288 5.01569 5.60276 5.2775C5.55206 5.34382 5.50137 5.49588 5.4 5.8C5.31823 6.04532 5.27734 6.16799 5.22445 6.27901C5.02709 6.69329 4.69329 7.02709 4.27901 7.22445C4.16799 7.27734 4.04532 7.31823 3.8 7.4C3.49588 7.50137 3.34382 7.55206 3.2775 7.60276C3.01569 7.80288 3.01569 8.19712 3.2775 8.39724C3.34382 8.44794 3.49588 8.49863 3.8 8.6C4.04532 8.68177 4.16799 8.72266 4.27901 8.77555C4.69329 8.97291 5.02709 9.30672 5.22445 9.72099C5.27734 9.83201 5.31822 9.95468 5.4 10.2Z" stroke="#33363F" stroke-width="2"/>
</svg>
