<svg width="24" height="24" viewBox="0 0 24 24" fill="none" xmlns="http://www.w3.org/2000/svg">
<path d="M15 4C15.2931 4 15.4397 4 15.5799 4.04196C16.1934 4.22551 16.4787 4.931 16.1653 5.48943C16.0937 5.61708 15.8753 5.82826 15.4386 6.25062C13.935 7.70471 13 9.74291 13 12C13 14.2569 13.9349 16.2945 15.4384 17.7483C15.8759 18.1714 16.0947 18.383 16.1664 18.5108C16.4796 19.0691 16.1943 19.7743 15.5812 19.958C15.4408 20 15.2939 20 15 20C10.5817 20 7 16.4183 7 12C7 7.58172 10.5817 4 15 4Z" fill="#7E869E" fill-opacity="0.25"/>
<path d="M15.4384 17.7483L15.0213 18.1797L15.4384 17.7483ZM16.1664 18.5108L16.6897 18.2173L16.1664 18.5108ZM15.5812 19.958L15.7533 20.5327L15.5812 19.958ZM15.4386 6.25062L15.0215 5.81931L15.4386 6.25062ZM16.1653 5.48943L15.6421 5.19577V5.19577L16.1653 5.48943ZM15.4386 6.25062L15.0215 5.81931C13.4058 7.38174 12.4 9.57365 12.4 12H13H13.6C13.6 9.91217 14.4641 8.02768 15.8557 6.68192L15.4386 6.25062ZM13 12H12.4C12.4 14.4262 13.4058 16.6175 15.0213 18.1797L15.4384 17.7483L15.8555 17.317C14.464 15.9715 13.6 14.0876 13.6 12H13ZM15 20V19.4C10.9131 19.4 7.6 16.0869 7.6 12H7H6.4C6.4 16.7496 10.2504 20.6 15 20.6V20ZM7 12H7.6C7.6 7.91309 10.9131 4.6 15 4.6V4V3.4C10.2504 3.4 6.4 7.25035 6.4 12H7ZM15.4384 17.7483L15.0213 18.1797C15.2431 18.3941 15.3991 18.545 15.5094 18.6585C15.6321 18.7847 15.6508 18.818 15.6431 18.8043L16.1664 18.5108L16.6897 18.2173C16.6104 18.0758 16.4838 17.9394 16.3698 17.8221C16.2434 17.692 16.0713 17.5257 15.8555 17.317L15.4384 17.7483ZM15 20V20.6C15.26 20.6 15.5095 20.6057 15.7533 20.5327L15.5812 19.958L15.409 19.3832C15.3721 19.3943 15.3277 19.4 15 19.4V20ZM16.1664 18.5108L15.6431 18.8043C15.7683 19.0275 15.6541 19.3098 15.409 19.3832L15.5812 19.958L15.7533 20.5327C16.7346 20.2388 17.1908 19.1106 16.6897 18.2173L16.1664 18.5108ZM15 4V4.6C15.3269 4.6 15.371 4.60573 15.4079 4.61678L15.5799 4.04196L15.7519 3.46714C15.5084 3.39427 15.2594 3.4 15 3.4V4ZM15.4386 6.25062L15.8557 6.68192C16.0711 6.47364 16.2429 6.30754 16.3691 6.1777C16.4829 6.0606 16.6093 5.92436 16.6886 5.78308L16.1653 5.48943L15.6421 5.19577C15.6498 5.18215 15.6311 5.21533 15.5086 5.34131C15.3985 5.45457 15.2429 5.60523 15.0215 5.81931L15.4386 6.25062ZM15.5799 4.04196L15.4079 4.61678C15.6532 4.69016 15.7674 4.97252 15.6421 5.19577L16.1653 5.48943L16.6886 5.78308C17.1901 4.88949 16.7336 3.76085 15.7519 3.46714L15.5799 4.04196Z" fill="#222222"/>
</svg>
