<svg width="24" height="24" viewBox="0 0 24 24" fill="none" xmlns="http://www.w3.org/2000/svg">
<path d="M15.4384 17.7483L15.0908 18.1078L15.4384 17.7483ZM16.1664 18.5108L16.6025 18.2662L16.1664 18.5108ZM15.5812 19.958L15.7246 20.4369L15.5812 19.958ZM15.4386 6.25062L15.091 5.89119L15.4386 6.25062ZM16.1653 5.48943L15.7293 5.24471V5.24471L16.1653 5.48943ZM15.4386 6.25062L15.091 5.89119C13.494 7.43557 12.5 9.60186 12.5 12H13H13.5C13.5 9.88396 14.3759 7.97386 15.7862 6.61004L15.4386 6.25062ZM13 12H12.5C12.5 14.398 13.494 16.5637 15.0908 18.1078L15.4384 17.7483L15.786 17.3889C14.3758 16.0253 13.5 14.1158 13.5 12H13ZM15 20V19.5C10.8579 19.5 7.5 16.1421 7.5 12H7H6.5C6.5 16.6944 10.3056 20.5 15 20.5V20ZM7 12H7.5C7.5 7.85786 10.8579 4.5 15 4.5V4V3.5C10.3056 3.5 6.5 7.30558 6.5 12H7ZM15.4384 17.7483L15.0908 18.1078C15.3121 18.3217 15.4694 18.474 15.5811 18.5888C15.7031 18.7143 15.7307 18.7561 15.7303 18.7554L16.1664 18.5108L16.6025 18.2662C16.5304 18.1377 16.4129 18.0098 16.2981 17.8918C16.1731 17.7631 16.0022 17.598 15.786 17.3889L15.4384 17.7483ZM15 20V20.5C15.2656 20.5 15.4981 20.5048 15.7246 20.4369L15.5812 19.958L15.4377 19.479C15.3835 19.4952 15.3221 19.5 15 19.5V20ZM16.1664 18.5108L15.7303 18.7554C15.8868 19.0344 15.7442 19.3872 15.4377 19.479L15.5812 19.958L15.7246 20.4369C16.6445 20.1614 17.0723 19.1037 16.6025 18.2662L16.1664 18.5108ZM15 4V4.5C15.3212 4.5 15.3824 4.50477 15.4366 4.52098L15.5799 4.04196L15.7232 3.56294C15.4969 3.49523 15.265 3.5 15 3.5V4ZM15.4386 6.25062L15.7862 6.61004C16.002 6.40128 16.1726 6.23646 16.2974 6.108C16.412 5.99016 16.5293 5.86251 16.6014 5.73414L16.1653 5.48943L15.7293 5.24471C15.7297 5.244 15.7021 5.28577 15.5803 5.41101C15.4689 5.52565 15.3119 5.6776 15.091 5.89119L15.4386 6.25062ZM15.5799 4.04196L15.4366 4.52098C15.7432 4.61272 15.886 4.9656 15.7293 5.24471L16.1653 5.48943L16.6014 5.73414C17.0715 4.8964 16.6436 3.83829 15.7232 3.56294L15.5799 4.04196Z" fill="#222222"/>
</svg>
