<svg width="24" height="24" viewBox="0 0 24 24" fill="none" xmlns="http://www.w3.org/2000/svg">
<path d="M17 11.999L17.5 11.999V11.999H17ZM11.7139 19.4855L12.2019 19.3769L11.7139 19.4855ZM13.9406 6.21233L13.6588 6.62536L13.9406 6.21233ZM13.9406 6.21233L14.2224 5.79931C16.2001 7.14871 17.4998 9.42227 17.5 11.999L17 11.999L16.5 11.9991C16.4999 9.76658 15.375 7.79633 13.6588 6.62536L13.9406 6.21233ZM17 11.999H17.5C17.5 14.7932 15.9718 17.2293 13.708 18.519L13.4605 18.0845L13.213 17.6501C15.1773 16.531 16.5 14.4194 16.5 11.999H17ZM13.4338 19.9774L13.4737 19.479C13.6472 19.4929 13.8227 19.5 14 19.5V20V20.5C13.796 20.5 13.5938 20.4918 13.3938 20.4758L13.4338 19.9774ZM14 20V19.5C17.5899 19.5 20.5 16.5899 20.5 13H21H21.5C21.5 17.1421 18.1421 20.5 14 20.5V20ZM21 13H20.5C20.5 9.41015 17.5899 6.5 14 6.5V6V5.5C18.1421 5.5 21.5 8.85786 21.5 13H21ZM13.4605 18.0845L13.708 18.519C13.0862 18.8732 12.6625 19.1157 12.3984 19.3116C12.2662 19.4097 12.2116 19.4696 12.1933 19.496C12.1842 19.5093 12.22 19.458 12.2019 19.3769L11.7139 19.4855L11.2258 19.5941C11.1677 19.3329 11.2496 19.1031 11.3701 18.9283C11.4816 18.7667 11.6402 18.6289 11.8025 18.5086C12.1273 18.2675 12.617 17.9896 13.213 17.6501L13.4605 18.0845ZM13.4338 19.9774L13.3938 20.4758C12.8656 20.4334 12.4086 20.3982 12.0789 20.3203C11.7636 20.2457 11.3334 20.0778 11.2258 19.5941L11.7139 19.4855L12.2019 19.3769C12.1745 19.2536 12.0577 19.2877 12.309 19.3471C12.5459 19.4031 12.9088 19.4337 13.4737 19.479L13.4338 19.9774ZM14 6V6.5C14.1967 6.5 14.3353 6.3581 14.3747 6.21459C14.4127 6.07623 14.3705 5.90033 14.2224 5.79931L13.9406 6.21233L13.6588 6.62536C13.417 6.46036 13.3477 6.1783 13.4104 5.94976C13.4746 5.71608 13.6898 5.5 14 5.5V6Z" fill="#222222"/>
<path d="M7.4 11.2L7.4 11.2C7.50137 11.5041 7.55206 11.6562 7.60276 11.7225C7.80288 11.9843 8.19712 11.9843 8.39724 11.7225C8.44794 11.6562 8.49863 11.5041 8.6 11.2L8.6 11.2C8.68177 10.9547 8.72266 10.832 8.77555 10.721C8.97291 10.3067 9.30672 9.97291 9.72099 9.77555C9.83201 9.72266 9.95468 9.68177 10.2 9.6L10.2 9.6C10.5041 9.49863 10.6562 9.44794 10.7225 9.39724C10.9843 9.19712 10.9843 8.80288 10.7225 8.60276C10.6562 8.55206 10.5041 8.50137 10.2 8.4L10.2 8.4C9.95468 8.31822 9.83201 8.27734 9.72099 8.22445C9.30672 8.02709 8.97291 7.69329 8.77555 7.27901C8.72266 7.16799 8.68177 7.04532 8.6 6.8C8.49863 6.49588 8.44794 6.34382 8.39724 6.2775C8.19712 6.01569 7.80288 6.01569 7.60276 6.2775C7.55206 6.34382 7.50137 6.49588 7.4 6.8C7.31823 7.04532 7.27734 7.16799 7.22445 7.27901C7.02709 7.69329 6.69329 8.02709 6.27901 8.22445C6.16799 8.27734 6.04532 8.31823 5.8 8.4C5.49588 8.50137 5.34382 8.55206 5.2775 8.60276C5.01569 8.80288 5.01569 9.19712 5.2775 9.39724C5.34382 9.44794 5.49588 9.49863 5.8 9.6C6.04532 9.68177 6.16799 9.72266 6.27901 9.77555C6.69329 9.97291 7.02709 10.3067 7.22445 10.721C7.27734 10.832 7.31822 10.9547 7.4 11.2Z" stroke="#222222"/>
</svg>
