<svg width="24" height="24" viewBox="0 0 24 24" fill="none" xmlns="http://www.w3.org/2000/svg">
<path d="M12 5C11.8865 5 11.8468 5.14836 11.9406 5.21233C13.7876 6.47252 14.9999 8.59443 15 10.999C15 13.6063 13.5746 15.8802 11.4605 17.0845C10.2426 17.7783 9.63373 18.1252 9.71388 18.4855C9.79403 18.8458 10.3406 18.8897 11.4338 18.9774C11.6205 18.9924 11.8094 19 12 19C15.866 19 19 15.866 19 12C19 8.13401 15.866 5 12 5Z" fill="#7E869E" fill-opacity="0.25"/>
<path d="M15 10.999L15.6 10.999V10.999H15ZM9.71388 18.4855L10.2996 18.3552L9.71388 18.4855ZM11.9406 5.21233L11.6024 5.70796L11.9406 5.21233ZM11.9406 5.21233L12.2788 4.71671C14.2826 6.08395 15.5998 8.38784 15.6 10.999L15 10.999L14.4 10.9991C14.3999 8.80101 13.2925 6.8611 11.6024 5.70796L11.9406 5.21233ZM15 10.999H15.6C15.6 13.8306 14.0512 16.2992 11.7575 17.6059L11.4605 17.0845L11.1635 16.5632C13.0979 15.4612 14.4 13.382 14.4 10.999H15ZM11.4338 18.9774L11.4817 18.3793C11.6526 18.393 11.8254 18.4 12 18.4V19V19.6C11.7933 19.6 11.5885 19.5917 11.3858 19.5755L11.4338 18.9774ZM12 19V18.4C15.5346 18.4 18.4 15.5346 18.4 12H19H19.6C19.6 16.1974 16.1974 19.6 12 19.6V19ZM19 12H18.4C18.4 8.46538 15.5346 5.6 12 5.6V5V4.4C16.1974 4.4 19.6 7.80264 19.6 12H19ZM11.4605 17.0845L11.7575 17.6059C11.1331 17.9616 10.716 18.2005 10.458 18.3919C10.3288 18.4878 10.2846 18.5399 10.2757 18.5528C10.2741 18.555 10.2881 18.5356 10.298 18.4962C10.3088 18.4529 10.3102 18.4032 10.2996 18.3552L9.71388 18.4855L9.1282 18.6158C9.06247 18.3203 9.15611 18.0625 9.28778 17.8716C9.40856 17.6964 9.57764 17.5509 9.7429 17.4282C10.0738 17.1827 10.57 16.9013 11.1635 16.5632L11.4605 17.0845ZM11.4338 18.9774L11.3858 19.5755C10.8612 19.5334 10.3949 19.4977 10.0559 19.4176C9.73421 19.3415 9.2493 19.1602 9.1282 18.6158L9.71388 18.4855L10.2996 18.3552C10.2586 18.1712 10.0871 18.1919 10.332 18.2498C10.5596 18.3036 10.9131 18.3337 11.4817 18.3793L11.4338 18.9774ZM12 5V5.6C12.2473 5.6 12.4214 5.4223 12.4711 5.24107C12.5192 5.06602 12.4658 4.84433 12.2788 4.71671L11.9406 5.21233L11.6024 5.70796C11.3216 5.51636 11.2412 5.18851 11.314 4.92328C11.3885 4.65188 11.6392 4.4 12 4.4V5Z" fill="#222222"/>
<path d="M5.4 10.2L5.4 10.2C5.50137 10.5041 5.55206 10.6562 5.60276 10.7225C5.80288 10.9843 6.19712 10.9843 6.39724 10.7225C6.44794 10.6562 6.49863 10.5041 6.6 10.2L6.6 10.2C6.68177 9.95468 6.72266 9.83201 6.77555 9.72099C6.97291 9.30672 7.30672 8.97291 7.72099 8.77555C7.83201 8.72266 7.95468 8.68177 8.2 8.6L8.2 8.6C8.50412 8.49863 8.65618 8.44794 8.7225 8.39724C8.98431 8.19712 8.98431 7.80288 8.7225 7.60276C8.65618 7.55206 8.50412 7.50137 8.2 7.4L8.2 7.4C7.95468 7.31822 7.83201 7.27734 7.72099 7.22445C7.30672 7.02709 6.97291 6.69329 6.77555 6.27901C6.72266 6.16799 6.68177 6.04532 6.6 5.8C6.49863 5.49588 6.44794 5.34382 6.39724 5.2775C6.19712 5.01569 5.80288 5.01569 5.60276 5.2775C5.55206 5.34382 5.50137 5.49588 5.4 5.8C5.31823 6.04532 5.27734 6.16799 5.22445 6.27901C5.02709 6.69329 4.69329 7.02709 4.27901 7.22445C4.16799 7.27734 4.04532 7.31823 3.8 7.4C3.49588 7.50137 3.34382 7.55206 3.2775 7.60276C3.01569 7.80288 3.01569 8.19712 3.2775 8.39724C3.34382 8.44794 3.49588 8.49863 3.8 8.6C4.04532 8.68177 4.16799 8.72266 4.27901 8.77555C4.69329 8.97291 5.02709 9.30672 5.22445 9.72099C5.27734 9.83201 5.31822 9.95468 5.4 10.2Z" fill="#7E869E" fill-opacity="0.25" stroke="#222222" stroke-width="1.2"/>
</svg>
