<svg width="24" height="24" viewBox="0 0 24 24" fill="none" xmlns="http://www.w3.org/2000/svg">
<path d="M12 3L12.7295 2.31606L12 1.53789L11.2705 2.31606L12 3ZM11 9C11 9.55228 11.4477 10 12 10C12.5523 10 13 9.55228 13 9H12H11ZM15 6.2L15.7295 5.51606L12.7295 2.31606L12 3L11.2705 3.68394L14.2705 6.88394L15 6.2ZM12 3L11.2705 2.31606L8.27046 5.51606L9 6.2L9.72954 6.88394L12.7295 3.68394L12 3ZM12 3H11V9H12H13V3H12Z" fill="#33363F"/>
<path d="M21 12L21.6839 12.7295L22.4621 12L21.6839 11.2705L21 12ZM15 11C14.4477 11 14 11.4477 14 12C14 12.5523 14.4477 13 15 13L15 12L15 11ZM17.8 15L18.4839 15.7295L21.6839 12.7295L21 12L20.3161 11.2705L17.1161 14.2705L17.8 15ZM21 12L21.6839 11.2705L18.4839 8.27046L17.8 9L17.1161 9.72954L20.3161 12.7295L21 12ZM21 12L21 11L15 11L15 12L15 13L21 13L21 12Z" fill="#33363F"/>
<path d="M12 21L12.7295 21.6839L12 22.4621L11.2705 21.6839L12 21ZM11 15C11 14.4477 11.4477 14 12 14C12.5523 14 13 14.4477 13 15H12H11ZM15 17.8L15.7295 18.4839L12.7295 21.6839L12 21L11.2705 20.3161L14.2705 17.1161L15 17.8ZM12 21L11.2705 21.6839L8.27046 18.4839L9 17.8L9.72954 17.1161L12.7295 20.3161L12 21ZM12 21H11V15H12H13V21H12Z" fill="#33363F"/>
<path d="M3 12L2.31606 12.7295L1.53789 12L2.31606 11.2705L3 12ZM9 11C9.55228 11 10 11.4477 10 12C10 12.5523 9.55228 13 9 13L9 12L9 11ZM6.2 15L5.51606 15.7295L2.31606 12.7295L3 12L3.68394 11.2705L6.88394 14.2705L6.2 15ZM3 12L2.31606 11.2705L5.51606 8.27046L6.2 9L6.88394 9.72954L3.68394 12.7295L3 12ZM3 12L3 11L9 11L9 12L9 13L3 13L3 12Z" fill="#33363F"/>
</svg>
