<svg width="24" height="24" viewBox="0 0 24 24" fill="none" xmlns="http://www.w3.org/2000/svg">
<path d="M12 3L12.3123 2.60957L12 2.35969L11.6877 2.60957L12 3ZM11.5 9C11.5 9.27614 11.7239 9.5 12 9.5C12.2761 9.5 12.5 9.27614 12.5 9H12H11.5ZM16 6.2L16.3123 5.80957L12.3123 2.60957L12 3L11.6877 3.39043L15.6877 6.59043L16 6.2ZM12 3L11.6877 2.60957L7.68765 5.80957L8 6.2L8.31235 6.59043L12.3123 3.39043L12 3ZM12 3H11.5V9H12H12.5V3H12Z" fill="#222222"/>
<path d="M21 12L21.3904 12.3123L21.6403 12L21.3904 11.6877L21 12ZM15 11.5C14.7239 11.5 14.5 11.7239 14.5 12C14.5 12.2761 14.7239 12.5 15 12.5L15 12L15 11.5ZM17.8 16L18.1904 16.3123L21.3904 12.3123L21 12L20.6096 11.6877L17.4096 15.6877L17.8 16ZM21 12L21.3904 11.6877L18.1904 7.68765L17.8 8L17.4096 8.31235L20.6096 12.3123L21 12ZM21 12L21 11.5L15 11.5L15 12L15 12.5L21 12.5L21 12Z" fill="#222222"/>
<path d="M12 21L12.3123 21.3904L12 21.6403L11.6877 21.3904L12 21ZM11.5 15C11.5 14.7239 11.7239 14.5 12 14.5C12.2761 14.5 12.5 14.7239 12.5 15H12H11.5ZM16 17.8L16.3123 18.1904L12.3123 21.3904L12 21L11.6877 20.6096L15.6877 17.4096L16 17.8ZM12 21L11.6877 21.3904L7.68765 18.1904L8 17.8L8.31235 17.4096L12.3123 20.6096L12 21ZM12 21H11.5V15H12H12.5V21H12Z" fill="#222222"/>
<path d="M3 12L2.60957 12.3123L2.35969 12L2.60957 11.6877L3 12ZM9 11.5C9.27614 11.5 9.5 11.7239 9.5 12C9.5 12.2761 9.27614 12.5 9 12.5L9 12L9 11.5ZM6.2 16L5.80956 16.3123L2.60957 12.3123L3 12L3.39043 11.6877L6.59043 15.6877L6.2 16ZM3 12L2.60957 11.6877L5.80957 7.68765L6.2 8L6.59043 8.31235L3.39043 12.3123L3 12ZM3 12L3 11.5L9 11.5L9 12L9 12.5L3 12.5L3 12Z" fill="#222222"/>
</svg>
