<svg width="24" height="24" viewBox="0 0 24 24" fill="none" xmlns="http://www.w3.org/2000/svg">
<path d="M12 3L12.3648 2.65803L12 2.26894L11.6352 2.65803L12 3ZM11.5 9C11.5 9.27614 11.7239 9.5 12 9.5C12.2761 9.5 12.5 9.27614 12.5 9H12H11.5ZM15 6.2L15.3648 5.85803L12.3648 2.65803L12 3L11.6352 3.34197L14.6352 6.54197L15 6.2ZM12 3L11.6352 2.65803L8.63523 5.85803L9 6.2L9.36477 6.54197L12.3648 3.34197L12 3ZM12 3H11.5V9H12H12.5V3H12Z" fill="#222222"/>
<path d="M21 12L21.342 12.3648L21.7311 12L21.342 11.6352L21 12ZM15 11.5C14.7239 11.5 14.5 11.7239 14.5 12C14.5 12.2761 14.7239 12.5 15 12.5L15 12L15 11.5ZM17.8 15L18.142 15.3648L21.342 12.3648L21 12L20.658 11.6352L17.458 14.6352L17.8 15ZM21 12L21.342 11.6352L18.142 8.63523L17.8 9L17.458 9.36477L20.658 12.3648L21 12ZM21 12L21 11.5L15 11.5L15 12L15 12.5L21 12.5L21 12Z" fill="#222222"/>
<path d="M12 21L12.3648 21.342L12 21.7311L11.6352 21.342L12 21ZM11.5 15C11.5 14.7239 11.7239 14.5 12 14.5C12.2761 14.5 12.5 14.7239 12.5 15H12H11.5ZM15 17.8L15.3648 18.142L12.3648 21.342L12 21L11.6352 20.658L14.6352 17.458L15 17.8ZM12 21L11.6352 21.342L8.63523 18.142L9 17.8L9.36477 17.458L12.3648 20.658L12 21ZM12 21H11.5V15H12H12.5V21H12Z" fill="#222222"/>
<path d="M3 12L2.65803 12.3648L2.26894 12L2.65803 11.6352L3 12ZM9 11.5C9.27614 11.5 9.5 11.7239 9.5 12C9.5 12.2761 9.27614 12.5 9 12.5L9 12L9 11.5ZM6.2 15L5.85803 15.3648L2.65803 12.3648L3 12L3.34197 11.6352L6.54197 14.6352L6.2 15ZM3 12L2.65803 11.6352L5.85803 8.63523L6.2 9L6.54197 9.36477L3.34197 12.3648L3 12ZM3 12L3 11.5L9 11.5L9 12L9 12.5L3 12.5L3 12Z" fill="#222222"/>
</svg>
