<svg width="24" height="24" viewBox="0 0 24 24" fill="none" xmlns="http://www.w3.org/2000/svg">
<path d="M19.2252 19.2563C19.4686 19.8039 19.5905 20.0781 19.5387 20.2543C19.4937 20.4072 19.3781 20.5294 19.2282 20.5834C19.0553 20.6456 18.774 20.54 18.2125 20.3295L12.2809 18.1049C12.1773 18.066 12.1252 18.0472 12.0719 18.0395C12.0245 18.0326 11.9758 18.0326 11.9283 18.0395C11.875 18.0472 11.8229 18.066 11.7194 18.1049L5.78675 20.3295C5.22548 20.54 4.94496 20.6456 4.7721 20.5834C4.62211 20.5294 4.50659 20.4072 4.46155 20.2543C4.40971 20.0781 4.5316 19.804 4.77503 19.2563L7.81335 12.4189C7.94977 12.1119 8.01798 11.9584 8.12877 11.8792C8.22594 11.8098 8.34477 11.7774 8.46375 11.7879C8.59941 11.7999 8.73609 11.8976 9.00945 12.0928L11.4186 13.8139C11.7661 14.0621 12.233 14.0619 12.5807 13.8139L14.9899 12.0928C15.2632 11.8975 15.3999 11.7999 15.5356 11.7879C15.6545 11.7773 15.7734 11.8097 15.8705 11.8792C15.9813 11.9584 16.0495 12.1118 16.186 12.4188L19.2252 19.2563ZM11.778 3.78359C11.918 3.7141 12.0822 3.71403 12.2223 3.78359C12.3836 3.86373 12.4996 4.12399 12.7311 4.64492L14.6936 9.06124C14.788 9.27376 14.8353 9.38002 14.8361 9.48412C14.8368 9.57593 14.8122 9.66616 14.765 9.74492C14.7115 9.83422 14.6168 9.90182 14.4276 10.037L12.4647 11.4396C12.2974 11.5591 12.2137 11.6189 12.1224 11.642C12.0418 11.6625 11.9574 11.6625 11.8768 11.642C11.7856 11.6189 11.7019 11.5591 11.5345 11.4396L9.57173 10.0371C9.38249 9.90187 9.28786 9.83425 9.23435 9.74494C9.18716 9.66617 9.16257 9.57593 9.16328 9.48411C9.16408 9.37999 9.21132 9.27372 9.30581 9.06118L11.2692 4.64492C11.5007 4.124 11.6166 3.86372 11.778 3.78359Z" fill="#222222"/>
</svg>
