<svg width="24" height="24" viewBox="0 0 24 24" fill="none" xmlns="http://www.w3.org/2000/svg">
<path d="M12 2C17.5228 2 22 6.47715 22 12C22 17.5228 17.5228 22 12 22C6.47715 22 2 17.5228 2 12C2 6.47715 6.47715 2 12 2ZM17.3926 6C17.1165 5.52176 16.5046 5.35776 16.0264 5.63379C15.5481 5.90992 15.384 6.52171 15.6602 7C16.5378 8.52019 17 10.2446 17 12C17 13.7554 16.5378 15.4798 15.6602 17C15.384 17.4783 15.5481 18.0901 16.0264 18.3662C16.5046 18.6422 17.1165 18.4782 17.3926 18C18.4458 16.1758 19 14.1064 19 12C19 9.89361 18.4458 7.8242 17.3926 6ZM13.7939 7.5C13.5178 7.0218 12.906 6.85767 12.4277 7.13379C11.9497 7.41001 11.7864 8.0218 12.0625 8.5C12.6768 9.5641 13 10.7713 13 12C13 12.5941 12.9219 13.1826 12.7744 13.7529L9.04785 7.79102C8.99081 7.52408 8.82716 7.28105 8.57227 7.13379C8.40362 7.03642 8.21839 6.99439 8.03711 7.00098C7.84373 6.99362 7.64617 7.04206 7.46973 7.15234C7.20968 7.31502 7.04989 7.57769 7.00977 7.85938C6.34758 9.13715 6 10.5569 6 12C6 13.5798 6.41614 15.1318 7.20605 16.5C7.48223 16.9782 8.09401 17.1423 8.57227 16.8662C9.05035 16.59 9.21359 15.9782 8.9375 15.5C8.32317 14.4359 8 13.2287 8 12C8 11.4056 8.07699 10.8166 8.22461 10.2461L11.9512 16.209C12.0082 16.476 12.1728 16.7189 12.4277 16.8662C12.5961 16.9634 12.7809 17.0045 12.9619 16.998C13.1556 17.0056 13.3535 16.9581 13.5303 16.8477C13.7906 16.6848 13.9493 16.4216 13.9893 16.1396C14.6513 14.862 15 13.443 15 12C15 10.4202 14.5839 8.86817 13.7939 7.5Z" fill="#222222"/>
</svg>
