<svg width="24" height="24" viewBox="0 0 24 24" fill="none" xmlns="http://www.w3.org/2000/svg">
<path d="M12 2C17.5228 2 22 6.47715 22 12C22 17.5228 17.5228 22 12 22C6.47715 22 2 17.5228 2 12C2 6.47715 6.47715 2 12 2ZM16.959 6.25C16.8209 6.01096 16.5155 5.92934 16.2764 6.06738C16.0373 6.20548 15.9557 6.51089 16.0938 6.75C17.0152 8.34615 17.5 10.1569 17.5 12C17.5 13.8431 17.0152 15.6539 16.0938 17.25C15.9557 17.4891 16.0373 17.7945 16.2764 17.9326C16.5155 18.0707 16.8209 17.989 16.959 17.75C17.9683 16.0018 18.5 14.0187 18.5 12C18.5 9.98133 17.9683 7.99822 16.959 6.25ZM13.3613 7.75C13.2233 7.51085 12.9169 7.42931 12.6777 7.56738C12.439 7.70559 12.3572 8.01103 12.4951 8.25C13.1534 9.39014 13.5 10.6835 13.5 12C13.5 13.004 13.2968 13.9937 12.9092 14.9131L8.56934 7.96875C8.55901 7.8076 8.47247 7.65434 8.32227 7.56738C8.2298 7.514 8.12727 7.49326 8.02832 7.50195C7.92872 7.4962 7.82647 7.51928 7.73535 7.57617C7.5849 7.6702 7.50242 7.83102 7.50098 7.99609C6.84392 9.22673 6.5 10.6021 6.5 12C6.5 13.492 6.89266 14.9578 7.63867 16.25C7.77674 16.4891 8.08312 16.5707 8.32227 16.4326C8.561 16.2944 8.64283 15.989 8.50488 15.75C7.84662 14.6099 7.5 13.3165 7.5 12C7.5 10.9959 7.70208 10.0054 8.08984 9.08594L12.4297 16.0303C12.4397 16.1918 12.5272 16.3455 12.6777 16.4326C12.7699 16.4858 12.872 16.5056 12.9707 16.4971C13.0706 16.503 13.1732 16.4809 13.2646 16.4238C13.4154 16.3296 13.4969 16.1683 13.498 16.0029C14.155 14.7724 14.5 13.3978 14.5 12C14.5 10.508 14.1073 9.04215 13.3613 7.75Z" fill="#222222"/>
</svg>
