<svg width="24" height="24" viewBox="0 0 24 24" fill="none" xmlns="http://www.w3.org/2000/svg">
<path d="M3.5 7.5H7.5" stroke="#222222" stroke-linecap="round"/>
<path d="M3.5 15.5H7.5" stroke="#222222" stroke-linecap="round"/>
<path d="M3.5 11.5H7.5" stroke="#222222" stroke-linecap="round"/>
<path d="M15 3C16.8856 3 17.8283 3.00015 18.4141 3.58594C18.9998 4.17172 19 5.11438 19 7V17C19 18.8856 18.9998 19.8283 18.4141 20.4141C17.8283 20.9998 16.8856 21 15 21H9C7.11438 21 6.17172 20.9998 5.58594 20.4141C5.14666 19.9748 5.03627 19.3349 5.00879 18.2471L5.00213 17.3021C5.00113 17.1598 5.00062 17.0886 5.04462 17.0443C5.08862 17 5.15979 17 5.30212 17H7.5C8.32843 17 9 16.3284 9 15.5C9 14.6716 8.32843 14 7.5 14H5.3C5.15858 14 5.08787 14 5.04393 13.9561C5 13.9121 5 13.8414 5 13.7V13.3C5 13.1586 5 13.0879 5.04393 13.0439C5.08787 13 5.15858 13 5.3 13H7.5C8.32843 13 9 12.3284 9 11.5C9 10.6716 8.32843 10 7.5 10H5.3C5.15858 10 5.08787 10 5.04393 9.95607C5 9.91213 5 9.84142 5 9.7V9.3C5 9.15858 5 9.08787 5.04393 9.04393C5.08787 9 5.15858 9 5.3 9H7.5C8.32843 9 9 8.32843 9 7.5C9 6.67157 8.32843 6 7.5 6H5.31121C5.1674 6 5.09549 6 5.05132 5.95456C5.00714 5.90913 5.00914 5.83788 5.01315 5.69539C5.04276 4.64247 5.15447 4.01741 5.58594 3.58594C6.17172 3.00015 7.11438 3 9 3H15Z" fill="#7E869E" fill-opacity="0.25"/>
<path d="M15.5 10.5V7.5" stroke="#222222" stroke-linecap="round"/>
</svg>
