<svg width="24" height="24" viewBox="0 0 24 24" fill="none" xmlns="http://www.w3.org/2000/svg">
<path d="M13.5 6.57667C13.5 6.39684 13.5 6.30693 13.562 6.26201C13.624 6.2171 13.7065 6.24417 13.8716 6.2983C16.2687 7.08464 18 9.34009 18 12.0002C17.9998 15.3138 15.3136 18.0002 12 18.0002C8.68641 18.0002 6.0002 15.3138 6 12.0002C6 9.34009 7.73129 7.08464 10.1284 6.2983C10.2935 6.24417 10.376 6.2171 10.438 6.26201C10.5 6.30693 10.5 6.39684 10.5 6.57667V9.00021C10.5002 9.82849 11.1717 10.5002 12 10.5002C12.8283 10.5002 13.4998 9.82849 13.5 9.00021V6.57667Z" fill="#7E869E" fill-opacity="0.25"/>
<path d="M12 9L12 4" stroke="#222222" stroke-linecap="round"/>
<path d="M18.0104 5.98959C19.1992 7.17834 20.0087 8.69289 20.3367 10.3417C20.6646 11.9906 20.4963 13.6996 19.853 15.2528C19.2096 16.806 18.1202 18.1335 16.7223 19.0675C15.3245 20.0015 13.6811 20.5 12 20.5C10.3189 20.5 8.67547 20.0015 7.27765 19.0675C5.87984 18.1335 4.79037 16.806 4.14702 15.2528C3.50368 13.6996 3.33535 11.9906 3.66332 10.3417C3.9913 8.69289 4.80085 7.17834 5.98959 5.98959" stroke="#222222" stroke-linecap="round"/>
</svg>
