<svg width="24" height="24" viewBox="0 0 24 24" fill="none" xmlns="http://www.w3.org/2000/svg">
<path d="M12 3C16.9706 3 21 7.02944 21 12C21 16.9706 16.9706 21 12 21C7.02944 21 3 16.9706 3 12C3 7.02944 7.02944 3 12 3ZM16.9502 7.0498C16.5597 6.65951 15.9256 6.65954 15.5352 7.0498C15.1448 7.44029 15.1448 8.07436 15.5352 8.46484C16.2343 9.16405 16.7114 10.0546 16.9043 11.0244C17.0972 11.9942 16.9975 12.9996 16.6191 13.9131C16.2408 14.8264 15.6002 15.6079 14.7783 16.1572C13.9562 16.7065 12.9887 16.9999 12 17C11.0113 16.9999 10.0438 16.7065 9.22168 16.1572C8.39976 15.6079 7.75921 14.8264 7.38086 13.9131C7.00253 12.9996 6.90282 11.9942 7.0957 11.0244C7.28863 10.0546 7.7657 9.16405 8.46484 8.46484C8.85515 8.07436 8.85515 7.44029 8.46484 7.0498C8.07436 6.65953 7.44028 6.65951 7.0498 7.0498C6.07094 8.02873 5.40486 9.277 5.13477 10.6348C4.86478 11.9925 5.00348 13.3998 5.5332 14.6787C6.06299 15.9576 6.96035 17.0512 8.11133 17.8203C9.26228 18.5892 10.6158 18.9999 12 19C13.3842 18.9999 14.7377 18.5892 15.8887 17.8203C17.0397 17.0512 17.937 15.9576 18.4668 14.6787C18.9965 13.3998 19.1352 11.9925 18.8652 10.6348C18.5951 9.277 17.9291 8.02873 16.9502 7.0498ZM12 5C11.4479 5.00018 11 5.44782 11 6V9C11 9.55218 11.4479 9.99982 12 10C12.5521 9.99982 13 9.55218 13 9V6C13 5.44782 12.5521 5.00018 12 5Z" fill="#222222"/>
</svg>
