<svg width="24" height="24" viewBox="0 0 24 24" fill="none" xmlns="http://www.w3.org/2000/svg">
<path d="M19 2C20.1046 2 21 2.89543 21 4V20C21 21.1046 20.1046 22 19 22H5C3.89543 22 3 21.1046 3 20V4C3 2.89543 3.89543 2 5 2H19ZM12 5C8.68629 5 6 7.68629 6 11C6 14.3137 8.68629 17 12 17C15.3137 17 18 14.3137 18 11C18 7.68629 15.3137 5 12 5ZM11.5 11.5V15.8887C11.0901 15.7089 10.6756 15.3062 10.3174 14.6494C9.87955 13.8466 9.57812 12.7465 9.51367 11.5H11.5ZM14.4863 11.5C14.4219 12.7465 14.1205 13.8466 13.6826 14.6494C13.3244 15.3062 12.9099 15.7089 12.5 15.8887V11.5H14.4863ZM8.5127 11.5C8.57783 12.8915 8.91187 14.1617 9.43945 15.1289C9.48576 15.2138 9.53482 15.2966 9.58496 15.3779C8.18192 14.6023 7.1905 13.1729 7.02441 11.5H8.5127ZM16.9756 11.5C16.8095 13.1732 15.8175 14.6024 14.4141 15.3779C14.4643 15.2964 14.5142 15.214 14.5605 15.1289C15.0881 14.1617 15.4222 12.8915 15.4873 11.5H16.9756ZM9.43945 6.87109C8.91187 7.83833 8.57783 9.10848 8.5127 10.5H7.02441C7.19052 8.82693 8.18171 7.39666 9.58496 6.62109C9.53467 6.70268 9.4859 6.78595 9.43945 6.87109ZM11.5 10.5H9.51367C9.57812 9.25351 9.87955 8.15341 10.3174 7.35059C10.6758 6.69357 11.09 6.29006 11.5 6.11035V10.5ZM12.5 6.11035C12.91 6.29006 13.3242 6.69357 13.6826 7.35059C14.1205 8.15341 14.4219 9.25351 14.4863 10.5H12.5V6.11035ZM14.4141 6.62109C15.8177 7.39657 16.8095 8.82663 16.9756 10.5H15.4873C15.4222 9.10848 15.0881 7.83833 14.5605 6.87109C14.514 6.7858 14.4645 6.70282 14.4141 6.62109Z" fill="#222222"/>
</svg>
