<svg width="24" height="24" viewBox="0 0 24 24" fill="none" xmlns="http://www.w3.org/2000/svg">
<path d="M19.6368 10.0218C20.1904 9.80039 20.8184 10.11 20.9047 10.7C21.0813 11.907 21.0121 13.1437 20.6924 14.3342C20.4146 15.3684 19.9555 16.338 19.3431 17.2017C18.9982 17.6881 18.298 17.6788 17.9053 17.23L14.6123 13.4661C14.1583 12.9471 14.3533 12.1352 14.9935 11.8791L19.6368 10.0218ZM13 4.17487C13 3.57858 13.5207 3.11049 14.1006 3.2495C15.1929 3.51136 16.2328 3.97653 17.1631 4.62811C18.0145 5.22449 18.7505 5.96078 19.344 6.79979C19.6884 7.2866 19.4472 7.94396 18.8935 8.1654L14.3714 9.97413C13.7145 10.2369 13 9.7531 13 9.04565V4.17487Z" fill="#33363F"/>
<path d="M10.9997 11.9435C10.9998 12.222 11.1005 12.4918 11.2839 12.7013L17.0685 19.3126C17.4583 19.758 17.3794 20.4469 16.8627 20.7355C16.2433 21.0814 15.587 21.362 14.903 21.5695C13.3294 22.0468 11.6623 22.1285 10.0495 21.8078C8.4366 21.4869 6.92718 20.7729 5.65596 19.7297C4.38501 18.6865 3.39072 17.3463 2.76143 15.8273C2.1321 14.308 1.88735 12.6563 2.04854 11.0197C2.20974 9.38323 2.77172 7.81177 3.68526 6.4445C4.59886 5.0772 5.8356 3.95604 7.28584 3.18082C8.11359 2.73838 8.99663 2.41822 9.90786 2.22433C10.4868 2.10116 10.9997 2.56764 10.9997 3.15949V11.9435Z" fill="#33363F"/>
</svg>
