<svg width="24" height="24" viewBox="0 0 24 24" fill="none" xmlns="http://www.w3.org/2000/svg">
<path d="M12 2C15.866 2 19 5.13401 19 9C19 14.0159 13.8819 17.0342 12.3984 17.8037C12.1456 17.9349 11.8544 17.9349 11.6016 17.8037C10.1181 17.0342 5 14.0159 5 9C5 5.13401 8.13401 2 12 2ZM12 6C10.3431 6 9 7.34315 9 9C9 10.6569 10.3431 12 12 12C13.6569 12 15 10.6569 15 9C15 7.34315 13.6569 6 12 6Z" fill="#7E869E" fill-opacity="0.25"/>
<path d="M12.3984 17.8037L12.6747 18.3363L12.6747 18.3363L12.3984 17.8037ZM11.6016 17.8037L11.3253 18.3363L11.3253 18.3363L11.6016 17.8037ZM12 2V2.6C15.5346 2.6 18.4 5.46538 18.4 9H19H19.6C19.6 4.80264 16.1974 1.4 12 1.4V2ZM19 9H18.4C18.4 11.2905 17.233 13.1559 15.8294 14.5718C14.4263 15.9872 12.837 16.9003 12.1222 17.2711L12.3984 17.8037L12.6747 18.3363C13.4434 17.9376 15.1548 16.9568 16.6816 15.4166C18.2079 13.877 19.6 11.7253 19.6 9H19ZM12.3984 17.8037L12.1222 17.2711C12.0425 17.3124 11.9575 17.3124 11.8778 17.2711L11.6016 17.8037L11.3253 18.3363C11.7514 18.5573 12.2486 18.5573 12.6747 18.3363L12.3984 17.8037ZM11.6016 17.8037L11.8778 17.2711C11.163 16.9003 9.57366 15.9872 8.17058 14.5718C6.76695 13.1559 5.6 11.2905 5.6 9H5H4.4C4.4 11.7253 5.79209 13.877 7.31837 15.4166C8.8452 16.9568 10.5566 17.9376 11.3253 18.3363L11.6016 17.8037ZM5 9H5.6C5.6 5.46538 8.46538 2.6 12 2.6V2V1.4C7.80264 1.4 4.4 4.80264 4.4 9H5ZM12 6V5.4C10.0118 5.4 8.4 7.01178 8.4 9H9H9.6C9.6 7.67452 10.6745 6.6 12 6.6V6ZM9 9H8.4C8.4 10.9882 10.0118 12.6 12 12.6V12V11.4C10.6745 11.4 9.6 10.3255 9.6 9H9ZM12 12V12.6C13.9882 12.6 15.6 10.9882 15.6 9H15H14.4C14.4 10.3255 13.3255 11.4 12 11.4V12ZM15 9H15.6C15.6 7.01178 13.9882 5.4 12 5.4V6V6.6C13.3255 6.6 14.4 7.67452 14.4 9H15Z" fill="#222222"/>
<path d="M19.7942 17.5C20.5841 17.9561 21 18.4734 21 19C21 19.5266 20.5841 20.0439 19.7942 20.5C19.0043 20.9561 17.8682 21.3348 16.5 21.5981C15.1318 21.8614 13.5798 22 12 22C10.4202 22 8.86817 21.8614 7.5 21.5981C6.13183 21.3348 4.99569 20.9561 4.20577 20.5C3.41586 20.0439 3 19.5266 3 19C3 18.4734 3.41586 17.9561 4.20577 17.5" stroke="#222222" stroke-width="1.2" stroke-linecap="round"/>
</svg>
