<svg width="24" height="24" viewBox="0 0 24 24" fill="none" xmlns="http://www.w3.org/2000/svg">
<path d="M12.4474 4.01392C13.4828 4.07174 14.502 4.32972 15.4464 4.78052C16.8417 5.44662 18.0148 6.50311 18.8224 7.82153C19.6299 9.13992 20.0377 10.6647 19.9972 12.2102C19.9566 13.7556 19.4693 15.2563 18.5939 16.5305C17.7183 17.8048 16.4919 18.7988 15.0636 19.3909C13.6354 19.9829 12.0663 20.1475 10.546 19.8665C9.02579 19.5854 7.61932 18.8703 6.49719 17.8069C6.04422 17.3775 5.64619 16.8983 5.30774 16.3811L7.37903 15.8264C7.53227 16.0115 7.69658 16.1883 7.87219 16.3547C8.71383 17.1525 9.76901 17.6898 10.9093 17.9006C12.0496 18.1114 13.2268 17.9873 14.298 17.5432C15.3692 17.0991 16.2888 16.3534 16.9454 15.3977C17.602 14.442 17.9678 13.3165 17.9982 12.1575C18.0285 10.9983 17.722 9.85524 17.1163 8.86646C16.5106 7.87765 15.6315 7.08478 14.5851 6.58521C14.081 6.34456 13.5482 6.17758 13.0031 6.08521L12.4474 4.01392Z" fill="#33363F"/>
<path d="M5.91239 4.06647C6.68924 3.47037 7.54796 2.99272 8.46042 2.64739C8.87978 2.48868 9.08946 2.40932 9.28694 2.51053C9.48442 2.61174 9.54649 2.84338 9.67063 3.30667L11.7412 11.0341C11.8632 11.4894 11.9242 11.7171 11.8206 11.8964C11.7171 12.0758 11.4894 12.1368 11.0341 12.2588L3.30667 14.3294C2.84338 14.4535 2.61174 14.5156 2.42535 14.3952C2.23896 14.2747 2.20284 14.0535 2.13061 13.6109C1.97344 12.6481 1.95774 11.6656 2.08555 10.6947C2.25696 9.39275 2.68314 8.13728 3.33975 7C3.99636 5.86272 4.87054 4.8659 5.91239 4.06647Z" stroke="#33363F" stroke-width="2"/>
</svg>
