<svg width="24" height="24" viewBox="0 0 24 24" fill="none" xmlns="http://www.w3.org/2000/svg">
<path d="M15.9999 2C19.3136 2 21.9999 4.68629 21.9999 8C21.9999 10.9622 19.8533 13.423 17.0308 13.9118C16.3774 14.0249 15.7365 14.2634 15.2676 14.7322C14.2913 15.7085 12.7084 15.7085 11.7321 14.7322L9.26763 12.2678C8.29132 11.2915 8.29132 9.70854 9.26763 8.73223C9.73647 8.26339 9.97496 7.62243 10.0881 6.96911C10.5769 4.14667 13.0378 2.0001 15.9999 2Z" fill="#222222"/>
<path d="M6.5 15.5L10.5 11.5L12.5 13.5L8.5 17.5L6.30128 18.8192C6.12422 18.9255 5.89757 18.8976 5.75156 18.7516L5.24844 18.2484C5.10243 18.1024 5.07453 17.8758 5.18077 17.6987L6.5 15.5Z" stroke="#222222" stroke-width="2" stroke-linecap="round" stroke-linejoin="round"/>
</svg>
