<svg width="24" height="24" viewBox="0 0 24 24" fill="none" xmlns="http://www.w3.org/2000/svg">
<path d="M16.4996 2.5V2H16.4996L16.4996 2.5ZM16.4996 12.5L16.4996 13H16.4996V12.5ZM10.8665 11.8668L10.5129 12.2204L10.8665 11.8668ZM16.4996 2.5V3C18.9849 3 20.9996 5.01472 20.9996 7.5H21.4996H21.9996C21.9996 4.46243 19.5372 2 16.4996 2V2.5ZM21.4996 7.5H20.9996C20.9996 9.98528 18.9849 12 16.4996 12V12.5V13C19.5372 13 21.9996 10.5376 21.9996 7.5H21.4996ZM14.934 13.065L14.5803 12.7115L14.5123 12.7796L14.8659 13.1331L15.2195 13.4866L15.2876 13.4185L14.934 13.065ZM12.133 13.1334L12.4866 12.7798L11.22 11.5133L10.8665 11.8668L10.5129 12.2204L11.7795 13.487L12.133 13.1334ZM10.8661 9.13285L11.2198 9.48632L11.2884 9.41772L10.9347 9.06424L10.5811 8.71077L10.5125 8.77938L10.8661 9.13285ZM11.4996 7.5H11.9996C11.9996 5.0149 14.0145 3.00021 16.4997 3L16.4996 2.5L16.4996 2C13.4623 2.00025 10.9996 4.46253 10.9996 7.5H11.4996ZM10.9347 9.06424L11.2884 9.41772C11.8206 8.88524 11.9996 8.15536 11.9996 7.5H11.4996H10.9996C10.9996 7.99569 10.8626 8.42915 10.5811 8.71077L10.9347 9.06424ZM10.8665 11.8668L11.22 11.5133C10.6603 10.9536 10.6602 10.0462 11.2198 9.48632L10.8661 9.13285L10.5125 8.77938C9.56257 9.72976 9.56275 11.2702 10.5129 12.2204L10.8665 11.8668ZM14.8659 13.1331L14.5123 12.7796C13.953 13.3391 13.046 13.3393 12.4866 12.7798L12.133 13.1334L11.7795 13.487C12.7295 14.4369 14.2698 14.4368 15.2195 13.4866L14.8659 13.1331ZM16.4996 12.5L16.4997 12C15.8442 11.9999 15.1133 12.1783 14.5803 12.7115L14.934 13.065L15.2876 13.4185C15.5692 13.1368 16.0028 13 16.4996 13L16.4996 12.5Z" fill="#222222"/>
<path d="M6.5 15.5L10.5 11.5L12.5 13.5L8.5 17.5L6.30128 18.8192C6.12422 18.9255 5.89757 18.8976 5.75156 18.7516L5.24844 18.2484C5.10243 18.1024 5.07453 17.8758 5.18077 17.6987L6.5 15.5Z" stroke="#222222" stroke-linecap="round" stroke-linejoin="round"/>
<path d="M13.5 7.5C13.5 6.70435 13.8161 5.94129 14.3787 5.37868C14.9413 4.81607 15.7044 4.5 16.5 4.5" stroke="#222222" stroke-linecap="round" stroke-linejoin="round"/>
</svg>
