<svg width="24" height="24" viewBox="0 0 24 24" fill="none" xmlns="http://www.w3.org/2000/svg">
<path d="M11.7283 5.19016C11.5803 4.63801 11.5063 4.36194 11.6717 4.16291C11.8372 3.96388 12.0992 3.98433 12.6232 4.02522C13.5981 4.1013 14.5556 4.35581 15.4466 4.78117C16.8417 5.44721 18.014 6.503 18.8216 7.82121C19.6292 9.13964 20.0379 10.6643 19.9974 12.2099C19.9569 13.7555 19.4696 15.2568 18.5941 16.5312C17.7185 17.8054 16.492 18.7984 15.0638 19.3905C13.6355 19.9826 12.0656 20.1482 10.5452 19.8671C9.025 19.586 7.61848 18.8701 6.4964 17.8066C6.08608 17.4176 5.7205 16.9881 5.40398 16.5262C5.1068 16.0926 4.95822 15.8758 5.04794 15.6331C5.13767 15.3904 5.41375 15.3165 5.96591 15.1687L12.0989 13.5263C12.1276 13.5186 12.2938 13.4773 12.4456 13.414C12.6386 13.3334 13.0001 13.1436 13.2454 12.7187C13.4907 12.2937 13.4743 11.886 13.4476 11.6786C13.4265 11.5152 13.379 11.3505 13.3714 11.3222L11.7283 5.19016Z" fill="#7E869E" fill-opacity="0.25"/>
<path d="M9.67063 3.30667C9.54649 2.84338 9.48442 2.61174 9.28694 2.51053C9.08946 2.40932 8.87978 2.48868 8.46042 2.64739C7.54796 2.99272 6.68924 3.47037 5.91239 4.06647C4.87054 4.8659 3.99636 5.86272 3.33975 7C2.68314 8.13728 2.25696 9.39275 2.08555 10.6947C1.95774 11.6656 1.97344 12.6481 2.13061 13.6109C2.20284 14.0535 2.23896 14.2747 2.42535 14.3952C2.61174 14.5156 2.84338 14.4535 3.30667 14.3294L11.0341 12.2588C11.4894 12.1368 11.7171 12.0758 11.8206 11.8964C11.9242 11.7171 11.8632 11.4894 11.7412 11.0341L9.67063 3.30667Z" fill="#222222"/>
</svg>
