<svg width="24" height="24" viewBox="0 0 24 24" fill="none" xmlns="http://www.w3.org/2000/svg">
<path d="M16.0002 3L16.0003 2H16.0002V3ZM16.0002 13V14H16.0003L16.0002 13ZM14.4345 13.565L15.1418 14.2719L14.4345 13.565ZM16.0002 3L16.0002 4C18.2093 4.00012 20.0002 5.79101 20.0002 8H21.0002H22.0002C22.0002 4.68633 19.3138 2.00018 16.0003 2L16.0002 3ZM21.0002 8H20.0002C20.0002 10.209 18.2093 11.9999 16.0002 12L16.0002 13L16.0003 14C19.3138 13.9998 22.0002 11.3137 22.0002 8H21.0002ZM14.4345 13.565L13.7273 12.858L13.487 13.0984L14.1943 13.8053L14.9015 14.5123L15.1418 14.2719L14.4345 13.565ZM10.8059 13.8056L11.513 13.0985L10.9019 12.4874L10.1948 13.1945L9.48765 13.9016L10.0988 14.5128L10.8059 13.8056ZM10.1944 9.80516L10.9017 10.5121L11.1425 10.2712L10.4353 9.56422L9.72806 8.85724L9.4872 9.09819L10.1944 9.80516ZM11.0002 8H12.0002C12.0002 5.79086 13.7911 4 16.0002 4V3V2C12.6865 2 10.0002 4.68629 10.0002 8H11.0002ZM10.4353 9.56422L11.1425 10.2712C11.8002 9.6133 12.0002 8.7352 12.0002 8H11.0002H10.0002C10.0002 8.41584 9.88417 8.70107 9.72806 8.85724L10.4353 9.56422ZM10.1948 13.1945L10.9019 12.4874C10.3564 11.942 10.3563 11.0577 10.9017 10.5121L10.1944 9.80516L9.4872 9.09819C8.16107 10.4248 8.16127 12.5752 9.48765 13.9016L10.1948 13.1945ZM14.1943 13.8053L13.487 13.0984C12.942 13.6436 12.0581 13.6437 11.513 13.0985L10.8059 13.8056L10.0988 14.5128C11.4251 15.839 13.5755 15.8388 14.9015 14.5123L14.1943 13.8053ZM16.0002 13V12C15.2655 12 14.3861 12.199 13.7273 12.858L14.4345 13.565L15.1418 14.2719C15.2976 14.116 15.5827 14 16.0002 14V13Z" fill="#222222"/>
<path d="M6.5 15.5L9.5 12.5L11.5 14.5L8.5 17.5L6.30128 18.8192C6.12422 18.9255 5.89757 18.8976 5.75156 18.7516L5.24844 18.2484C5.10243 18.1024 5.07453 17.8758 5.18077 17.6987L6.5 15.5Z" stroke="#222222" stroke-width="2" stroke-linecap="round" stroke-linejoin="round"/>
</svg>
