<svg width="24" height="24" viewBox="0 0 24 24" fill="none" xmlns="http://www.w3.org/2000/svg">
<path d="M12 2C17.5228 2 22 6.47715 22 12C22 17.5228 17.5228 22 12 22C6.47715 22 2 17.5228 2 12C2 6.47715 6.47715 2 12 2ZM12 17C11.4477 17 11 17.4477 11 18V20C11 20.5523 11.4477 21 12 21C12.5523 21 13 20.5523 13 20V18C13 17.4477 12.5523 17 12 17ZM8.46484 15.5352C8.07444 15.1447 7.44133 15.145 7.05078 15.5352L5.63574 16.9492C5.24522 17.3397 5.24522 17.9737 5.63574 18.3643C6.02627 18.7547 6.66027 18.7548 7.05078 18.3643L8.46484 16.9492C8.855 16.5587 8.8552 15.9256 8.46484 15.5352ZM16.9502 15.5361C16.5597 15.1456 15.9257 15.1456 15.5352 15.5361C15.145 15.9266 15.1449 16.5598 15.5352 16.9502L16.9502 18.3643C17.3407 18.7546 17.9738 18.7547 18.3643 18.3643C18.7546 17.9738 18.7545 17.3407 18.3643 16.9502L16.9502 15.5361ZM4 11C3.44772 11 3 11.4477 3 12C3 12.5523 3.44772 13 4 13H7C7.55228 13 8 12.5523 8 12C8 11.4477 7.55228 11 7 11H4ZM18 11C17.4477 11 17 11.4477 17 12C17 12.5523 17.4477 13 18 13H20C20.5523 13 21 12.5523 21 12C21 11.4477 20.5523 11 20 11H18ZM7.0498 5.63672C6.65928 5.24624 6.02625 5.24621 5.63574 5.63672C5.24558 6.02726 5.24538 6.66037 5.63574 7.05078L7.75781 9.17188C8.14835 9.56218 8.78142 9.56233 9.17188 9.17188C9.56219 8.78141 9.56214 8.14831 9.17188 7.75781L7.0498 5.63672ZM18.3535 5.64648C17.963 5.25596 17.33 5.25596 16.9395 5.64648L16.2324 6.35352C15.8419 6.74404 15.8419 7.37707 16.2324 7.76758C16.6229 8.15804 17.256 8.15805 17.6465 7.76758L18.3535 7.06055C18.744 6.67004 18.744 6.03701 18.3535 5.64648ZM12 3C11.4477 3 11 3.44772 11 4V7C11 7.55228 11.4477 8 12 8C12.5523 8 13 7.55228 13 7V4C13 3.44772 12.5523 3 12 3Z" fill="#222222"/>
</svg>
