<svg width="24" height="24" viewBox="0 0 24 24" fill="none" xmlns="http://www.w3.org/2000/svg">
<circle cx="12" cy="12" r="10" fill="#7E869E" fill-opacity="0.25"/>
<path d="M12 17.5C12.2761 17.5 12.5 17.7239 12.5 18V20C12.5 20.2761 12.2761 20.5 12 20.5C11.7239 20.5 11.5 20.2761 11.5 20V18C11.5 17.7239 11.7239 17.5 12 17.5ZM15.8887 15.8896C16.0839 15.6944 16.4014 15.6944 16.5967 15.8896L18.0107 17.3037C18.2057 17.4989 18.2058 17.8155 18.0107 18.0107C17.8156 18.2059 17.499 18.2058 17.3037 18.0107L15.8887 16.5967C15.6937 16.4015 15.6938 16.0849 15.8887 15.8896ZM7.4043 15.8887C7.59959 15.6938 7.91618 15.6935 8.11133 15.8887C8.30643 16.0838 8.30622 16.4004 8.11133 16.5957L6.69629 18.0107C6.501 18.2055 6.18437 18.2058 5.98926 18.0107C5.794 17.8155 5.794 17.498 5.98926 17.3027L7.4043 15.8887ZM7 11.5C7.27614 11.5 7.5 11.7239 7.5 12C7.5 12.2761 7.27614 12.5 7 12.5H4C3.72386 12.5 3.5 12.2761 3.5 12C3.5 11.7239 3.72386 11.5 4 11.5H7ZM20 11.5C20.2761 11.5 20.5 11.7239 20.5 12C20.5 12.2761 20.2761 12.5 20 12.5H18C17.7239 12.5 17.5 12.2761 17.5 12C17.5 11.7239 17.7239 11.5 18 11.5H20ZM5.98926 5.99023C6.18451 5.79499 6.50102 5.79502 6.69629 5.99023L8.81836 8.11133C9.01336 8.30656 9.01341 8.62316 8.81836 8.81836C8.62317 9.01355 8.30661 9.0134 8.11133 8.81836L5.98926 6.69727C5.79416 6.50212 5.79436 6.18551 5.98926 5.99023ZM17.293 6C17.4882 5.80474 17.8047 5.80474 18 6C18.1952 6.19527 18.1952 6.51178 18 6.70703L17.293 7.41406C17.0977 7.60927 16.7812 7.60927 16.5859 7.41406C16.3907 7.21881 16.3907 6.9023 16.5859 6.70703L17.293 6ZM12 3.5C12.2761 3.5 12.5 3.72386 12.5 4V7C12.5 7.27614 12.2761 7.5 12 7.5C11.7239 7.5 11.5 7.27614 11.5 7V4C11.5 3.72386 11.7239 3.5 12 3.5Z" fill="#222222"/>
</svg>
