<svg width="24" height="24" viewBox="0 0 24 24" fill="none" xmlns="http://www.w3.org/2000/svg">
<path d="M18 13V13.5V13.5V13ZM7.43685 5.95428L6.9807 5.74952L7.43685 5.95428ZM16.5632 5.95428L17.0193 5.74952L16.5632 5.95428ZM12 3V3.5C13.8285 3.5 15.403 4.59066 16.107 6.15905L16.5632 5.95428L17.0193 5.74952C16.1599 3.83507 14.2366 2.5 12 2.5V3ZM18 7V7.5C19.3807 7.5 20.5 8.61929 20.5 10H21H21.5C21.5 8.067 19.933 6.5 18 6.5V7ZM21 10H20.5C20.5 11.3807 19.3807 12.5 18 12.5V13V13.5C19.933 13.5 21.5 11.933 21.5 10H21ZM18 13V12.5H6V13V13.5H18V13ZM6 13V12.5C4.61929 12.5 3.5 11.3807 3.5 10H3H2.5C2.5 11.933 4.067 13.5 6 13.5V13ZM3 10H3.5C3.5 8.61929 4.61929 7.5 6 7.5V7V6.5C4.067 6.5 2.5 8.067 2.5 10H3ZM7.43685 5.95428L7.893 6.15905C8.59704 4.59066 10.1715 3.5 12 3.5V3V2.5C9.76338 2.5 7.84009 3.83507 6.9807 5.74952L7.43685 5.95428ZM6 7V7.5C6.89572 7.5 7.57711 6.86273 7.893 6.15905L7.43685 5.95428L6.9807 5.74952C6.77208 6.21425 6.38503 6.5 6 6.5V7ZM16.5632 5.95428L16.107 6.15905C16.4229 6.86273 17.1043 7.5 18 7.5V7V6.5C17.615 6.5 17.2279 6.21425 17.0193 5.74952L16.5632 5.95428Z" fill="#222222"/>
<path d="M12 19V17" stroke="#222222" stroke-linecap="round"/>
<path d="M17 20V17" stroke="#222222" stroke-linecap="round"/>
<path d="M7 21V17" stroke="#222222" stroke-linecap="round"/>
</svg>
