<svg width="24" height="24" viewBox="0 0 24 24" fill="none" xmlns="http://www.w3.org/2000/svg">
<path d="M18 13V14V14V13ZM7.43685 5.95428L6.52455 5.54475L7.43685 5.95428ZM16.5632 5.95428L17.4754 5.54475L16.5632 5.95428ZM12 3V4C13.6244 4 15.0245 4.96845 15.6509 6.36381L16.5632 5.95428L17.4754 5.54475C16.5384 3.45727 14.4407 2 12 2V3ZM18 7V8C19.1046 8 20 8.89543 20 10H21H22C22 7.79086 20.2091 6 18 6V7ZM21 10H20C20 11.1046 19.1046 12 18 12V13V14C20.2091 14 22 12.2091 22 10H21ZM18 13V12H6V13V14H18V13ZM6 13V12C4.89543 12 4 11.1046 4 10H3H2C2 12.2091 3.79086 14 6 14V13ZM3 10H4C4 8.89543 4.89543 8 6 8V7V6C3.79086 6 2 7.79086 2 10H3ZM7.43685 5.95428L8.34914 6.36381C8.97552 4.96845 10.3756 4 12 4V3V2C9.55931 2 7.46162 3.45727 6.52455 5.54475L7.43685 5.95428ZM6 7V8C7.15106 8 7.97963 7.18697 8.34914 6.36381L7.43685 5.95428L6.52455 5.54475C6.36956 5.89001 6.12968 6 6 6V7ZM16.5632 5.95428L15.6509 6.36381C16.0204 7.18697 16.8489 8 18 8V7V6C17.8703 6 17.6304 5.89001 17.4754 5.54475L16.5632 5.95428Z" fill="#33363F"/>
<path d="M12 19V17" stroke="#33363F" stroke-width="2" stroke-linecap="round"/>
<path d="M17 20V17" stroke="#33363F" stroke-width="2" stroke-linecap="round"/>
<path d="M7 21V17" stroke="#33363F" stroke-width="2" stroke-linecap="round"/>
</svg>
