<svg width="24" height="24" viewBox="0 0 24 24" fill="none" xmlns="http://www.w3.org/2000/svg">
<path d="M15 15V14.5H14.5V15H15ZM20.6464 21.3536C20.8417 21.5488 21.1583 21.5488 21.3536 21.3536C21.5488 21.1583 21.5488 20.8417 21.3536 20.6464L21 21L20.6464 21.3536ZM15 9H14.5V9.5H15V9ZM21.3536 3.35355C21.5488 3.15829 21.5488 2.84171 21.3536 2.64645C21.1583 2.45118 20.8417 2.45118 20.6464 2.64645L21 3L21.3536 3.35355ZM9 15H9.5V14.5H9V15ZM2.64645 20.6464C2.45118 20.8417 2.45118 21.1583 2.64645 21.3536C2.84171 21.5488 3.15829 21.5488 3.35355 21.3536L3 21L2.64645 20.6464ZM9 9V9.5H9.5V9H9ZM3.35355 2.64645C3.15829 2.45118 2.84171 2.45118 2.64645 2.64645C2.45118 2.84171 2.45118 3.15829 2.64645 3.35355L3 3L3.35355 2.64645ZM15 20H15.5V15H15H14.5V20H15ZM15 15V15.5H20V15V14.5H15V15ZM15 15L14.6464 15.3536L20.6464 21.3536L21 21L21.3536 20.6464L15.3536 14.6464L15 15ZM15 4H14.5V9H15H15.5V4H15ZM15 9V9.5H20V9V8.5H15V9ZM15 9L15.3536 9.35355L21.3536 3.35355L21 3L20.6464 2.64645L14.6464 8.64645L15 9ZM9 20H9.5V15H9H8.5V20H9ZM9 15V14.5H4V15V15.5H9V15ZM9 15L8.64645 14.6464L2.64645 20.6464L3 21L3.35355 21.3536L9.35355 15.3536L9 15ZM9 4H8.5V9H9H9.5V4H9ZM9 9V8.5H4V9V9.5H9V9ZM9 9L9.35355 8.64645L3.35355 2.64645L3 3L2.64645 3.35355L8.64645 9.35355L9 9Z" fill="#222222"/>
</svg>
