<svg width="24" height="24" viewBox="0 0 24 24" fill="none" xmlns="http://www.w3.org/2000/svg">
<path d="M7.59766 10.0096C7.59865 10.0098 7.59959 10.0104 7.60059 10.0106C7.82844 10.0572 7.99995 10.2583 8 10.4999C8 10.5361 7.99559 10.5713 7.98828 10.6053L6.10938 19.9999H17.8906L16.0107 10.6053C16.0035 10.5714 16 10.536 16 10.4999C16 10.2586 16.1711 10.0576 16.3984 10.0106C16.3997 10.0103 16.401 10.0099 16.4023 10.0096L16.5 9.99988H18.2998C18.8516 9.99988 19.2957 9.99988 19.6543 10.0292C20.0186 10.0589 20.3387 10.1215 20.6348 10.2723C21.1051 10.512 21.4879 10.8947 21.7275 11.3651C21.8784 11.6612 21.9409 11.9813 21.9707 12.3456C22 12.7041 22 13.1483 22 13.7001V17.2997C22 17.8514 22 18.2956 21.9707 18.6542C21.9409 19.0185 21.8783 19.3386 21.7275 19.6346C21.4879 20.105 21.1052 20.4877 20.6348 20.7274C20.3387 20.8782 20.0186 20.9408 19.6543 20.9706C19.3419 20.9961 18.9646 20.9975 18.5078 20.9979C18.5009 20.998 18.4941 20.9991 18.4873 20.9989C18.4262 20.9989 18.3637 20.9999 18.2998 20.9999H5.7002C5.63626 20.9999 5.57377 20.9989 5.5127 20.9989C5.50554 20.9991 5.49841 20.9981 5.49121 20.9979C5.03482 20.9975 4.65786 20.9961 4.3457 20.9706C3.98136 20.9408 3.66132 20.8782 3.36523 20.7274C2.89485 20.4877 2.51214 20.105 2.27246 19.6346C2.12166 19.3386 2.05906 19.0185 2.0293 18.6542C2.00001 18.2956 2 17.8514 2 17.2997V13.7001C2 13.1483 2 12.7041 2.0293 12.3456C2.05907 11.9813 2.12165 11.6612 2.27246 11.3651C2.51215 10.8947 2.89485 10.512 3.36523 10.2723C3.66132 10.1215 3.98137 10.0589 4.3457 10.0292C4.70429 9.99988 5.1484 9.99988 5.7002 9.99988H7.5L7.59766 10.0096ZM5.7002 10.9999C5.1319 10.9999 4.73518 11.0001 4.42676 11.0253C4.12474 11.05 3.95091 11.096 3.81934 11.163C3.53712 11.3068 3.3069 11.537 3.16309 11.8192C3.09614 11.9508 3.0501 12.1246 3.02539 12.4266C3.00019 12.735 3 13.1318 3 13.7001V17.2997C3 17.8679 3.0002 18.2647 3.02539 18.5731C3.05009 18.8751 3.09615 19.049 3.16309 19.1805C3.30689 19.4628 3.53711 19.693 3.81934 19.8368C3.95091 19.9037 4.12471 19.9498 4.42676 19.9745C4.61055 19.9895 4.82571 19.9944 5.08984 19.9969L6.89062 10.9999H5.7002ZM18.9092 19.9969C19.1738 19.9944 19.3892 19.9895 19.5732 19.9745C19.8753 19.9498 20.0491 19.9037 20.1807 19.8368C20.4629 19.693 20.6931 19.4628 20.8369 19.1805C20.9038 19.049 20.9499 18.8751 20.9746 18.5731C20.9998 18.2647 21 17.8679 21 17.2997V13.7001C21 13.1318 20.9998 12.735 20.9746 12.4266C20.9499 12.1246 20.9039 11.9508 20.8369 11.8192C20.6931 11.537 20.4629 11.3068 20.1807 11.163C20.0491 11.096 19.8753 11.05 19.5732 11.0253C19.2648 11.0001 18.8681 10.9999 18.2998 10.9999H17.1094L18.9092 19.9969ZM12 14.9999C12.2761 14.9999 12.4999 15.2238 12.5 15.4999V17.4999C12.5 17.776 12.2761 17.9999 12 17.9999C11.7239 17.9999 11.5 17.776 11.5 17.4999V15.4999C11.5001 15.2238 11.7239 14.9999 12 14.9999Z" fill="#7E869E" fill-opacity="0.25"/>
<path d="M12 7.5V4C12 3.7643 12 3.64645 12.0732 3.57322C12.1464 3.5 12.2643 3.5 12.5 3.5H18.5L16.5 5.5L18.5 7.5H12ZM12 7.5V12" stroke="#222222" stroke-linecap="round" stroke-linejoin="round"/>
</svg>
