<svg width="24" height="24" viewBox="0 0 24 24" fill="none" xmlns="http://www.w3.org/2000/svg">
<path d="M8.57385 19.3523L11.9553 12.5894C11.9737 12.5526 12.0263 12.5526 12.0447 12.5894L15.4261 19.3523C15.4483 19.3965 15.3996 19.4426 15.3566 19.4181L12.0248 17.5142C12.0094 17.5054 11.9906 17.5054 11.9752 17.5142L8.64338 19.4181C8.60043 19.4426 8.55173 19.3965 8.57385 19.3523Z" stroke="#222222" stroke-linecap="round"/>
<path d="M18.2998 3.99994C18.8516 3.99994 19.2957 3.99994 19.6543 4.02924C20.0186 4.059 20.3387 4.12158 20.6348 4.2724C21.1052 4.51207 21.4879 4.8948 21.7275 5.36517C21.8784 5.66124 21.9409 5.98133 21.9707 6.34564C22 6.70421 22 7.14837 22 7.70013V13.2997C22 13.8515 22 14.2957 21.9707 14.6542C21.9409 15.0186 21.8783 15.3386 21.7275 15.6347C21.4879 16.1051 21.1052 16.4878 20.6348 16.7275C20.3387 16.8783 20.0186 16.9409 19.6543 16.9706C19.3393 16.9964 18.9582 16.9976 18.4961 16.998C18.4889 16.9979 18.4817 16.9993 18.4746 16.999C18.4176 16.999 18.3593 16.9999 18.2998 16.9999H16C15.7239 16.9999 15.5 16.7761 15.5 16.4999C15.5 16.2238 15.7239 15.9999 16 15.9999H17.9102L16.0762 4.99994H7.92383L6.08984 15.9999H8C8.27612 15.9999 8.49996 16.2238 8.5 16.4999C8.5 16.7761 8.27614 16.9999 8 16.9999H5.7002C5.64034 16.9999 5.58176 16.999 5.52441 16.999C5.51728 16.9993 5.51012 16.998 5.50293 16.998C5.04126 16.9976 4.66053 16.9964 4.3457 16.9706C3.98136 16.9409 3.66132 16.8783 3.36523 16.7275C2.89484 16.4878 2.51214 16.1051 2.27246 15.6347C2.12166 15.3386 2.05906 15.0186 2.0293 14.6542C2.00001 14.2957 2 13.8515 2 13.2997V7.70013C2 7.14837 2 6.70421 2.0293 6.34564C2.05907 5.98133 2.12165 5.66124 2.27246 5.36517C2.51215 4.8948 2.89485 4.51207 3.36523 4.2724C3.66132 4.12158 3.98137 4.059 4.3457 4.02924C4.70429 3.99994 5.1484 3.99994 5.7002 3.99994H18.2998ZM5.7002 4.99994C5.1319 4.99994 4.73518 5.00013 4.42676 5.02533C4.12473 5.05003 3.95091 5.09608 3.81934 5.16302C3.53711 5.30682 3.3069 5.53706 3.16309 5.81927C3.09614 5.95084 3.05009 6.12469 3.02539 6.4267C3.00019 6.7351 3 7.13187 3 7.70013V13.2997C3 13.868 3.0002 14.2648 3.02539 14.5732C3.05009 14.8752 3.09615 15.049 3.16309 15.1806C3.30689 15.4628 3.53711 15.693 3.81934 15.8369C3.95091 15.9038 4.12471 15.9498 4.42676 15.9745C4.60737 15.9893 4.81827 15.9944 5.07617 15.997L6.91016 4.99994H5.7002ZM18.9229 15.997C19.1812 15.9944 19.3924 15.9893 19.5732 15.9745C19.8753 15.9498 20.0491 15.9038 20.1807 15.8369C20.4629 15.693 20.6931 15.4628 20.8369 15.1806C20.9038 15.049 20.9499 14.8752 20.9746 14.5732C20.9998 14.2648 21 13.868 21 13.2997V7.70013C21 7.13187 20.9998 6.7351 20.9746 6.4267C20.9499 6.12469 20.9039 5.95084 20.8369 5.81927C20.6931 5.53706 20.4629 5.30682 20.1807 5.16302C20.0491 5.09608 19.8753 5.05003 19.5732 5.02533C19.2648 5.00013 18.8681 4.99994 18.2998 4.99994H17.0898L18.9229 15.997ZM12 5.99994C12.2761 5.99994 12.5 6.22383 12.5 6.49994V9.49994C12.5 9.77608 12.2761 9.99994 12 9.99994C11.7239 9.99994 11.5 9.77608 11.5 9.49994V6.49994C11.5 6.22383 11.7239 5.99994 12 5.99994Z" fill="#7E869E" fill-opacity="0.25"/>
</svg>
