<svg width="24" height="24" viewBox="0 0 24 24" fill="none" xmlns="http://www.w3.org/2000/svg">
<path d="M16.1719 3C16.5804 3 16.785 3.00007 16.9688 3.07617C17.1524 3.15232 17.297 3.29704 17.5859 3.58594L20.4141 6.41406C20.703 6.70296 20.8477 6.8476 20.9238 7.03125C20.9999 7.21498 21 7.41958 21 7.82812V15C21 17.8284 20.9998 19.2424 20.1211 20.1211C19.3518 20.8904 18.1722 20.9861 15.9922 20.998C15.9965 20.6982 16 20.367 16 20V19C16 17.1144 15.9998 16.1717 15.4141 15.5859C14.8283 15.0002 13.8856 15 12 15H11C9.11438 15 8.17172 15.0002 7.58594 15.5859C7.00015 16.1717 7 17.1144 7 19V20C7 20.3602 7.00275 20.686 7.00684 20.9814C5.4493 20.9349 4.52114 20.7633 3.87891 20.1211C3.00023 19.2424 3 17.8284 3 15V9C3 6.17157 3.00023 4.75759 3.87891 3.87891C4.75759 3.00023 6.17157 3 9 3H16.1719Z" fill="#7E869E" fill-opacity="0.25"/>
<path d="M16 21V19C16 17.1144 16 16.1716 15.4142 15.5858C14.8284 15 13.8856 15 12 15H11C9.11438 15 8.17157 15 7.58579 15.5858C7 16.1716 7 17.1144 7 19V21" stroke="#222222" stroke-width="1.2"/>
<path d="M7 8H12" stroke="#222222" stroke-width="1.2" stroke-linecap="round"/>
<path d="M3 9C3 6.17157 3 4.75736 3.87868 3.87868C4.75736 3 6.17157 3 9 3H16.1716C16.5803 3 16.7847 3 16.9685 3.07612C17.1522 3.15224 17.2968 3.29676 17.5858 3.58579L20.4142 6.41421C20.7032 6.70324 20.8478 6.84776 20.9239 7.03153C21 7.2153 21 7.41968 21 7.82843V15C21 17.8284 21 19.2426 20.1213 20.1213C19.2426 21 17.8284 21 15 21H9C6.17157 21 4.75736 21 3.87868 20.1213C3 19.2426 3 17.8284 3 15V9Z" stroke="#222222" stroke-width="1.2"/>
</svg>
