<svg width="24" height="24" viewBox="0 0 24 24" fill="none" xmlns="http://www.w3.org/2000/svg">
<path d="M12 5C15.866 5 19 8.13401 19 12C19 15.866 15.866 19 12 19C8.13401 19 5 15.866 5 12C5 8.13401 8.13401 5 12 5ZM12 6C11.2121 6 10.432 6.15552 9.7041 6.45703C8.97615 6.75856 8.31496 7.20066 7.75781 7.75781C7.20066 8.31496 6.75856 8.97615 6.45703 9.7041C6.15552 10.432 6 11.2121 6 12C6 12.2761 6.22386 12.5 6.5 12.5C6.77614 12.5 7 12.2761 7 12C7 11.3435 7.12964 10.6935 7.38086 10.0869C7.63213 9.48029 8.00055 8.92914 8.46484 8.46484C8.92914 8.00055 9.48029 7.63213 10.0869 7.38086C10.6935 7.12964 11.3435 7 12 7C12.2761 7 12.5 6.77614 12.5 6.5C12.5 6.22386 12.2761 6 12 6Z" fill="#7E869E" fill-opacity="0.25"/>
<path d="M20.5 20.5L17 17" stroke="#222222" stroke-linecap="round"/>
<circle cx="11" cy="11" r="8.5" stroke="#222222"/>
</svg>
