<svg width="24" height="24" viewBox="0 0 24 24" fill="none" xmlns="http://www.w3.org/2000/svg">
<path d="M11 5C14.3137 5 17 7.68629 17 11C17 14.3137 14.3137 17 11 17C7.68629 17 5 14.3137 5 11C5 7.68629 7.68629 5 11 5ZM11 7C10.4748 7 9.95494 7.10376 9.46973 7.30469C8.98442 7.50571 8.54331 7.80044 8.17188 8.17188C7.80044 8.54331 7.50571 8.98442 7.30469 9.46973C7.10376 9.95494 7 10.4748 7 11C7 11.2761 7.22386 11.5 7.5 11.5C7.77614 11.5 8 11.2761 8 11C8 10.606 8.07775 10.2155 8.22852 9.85156C8.37928 9.48774 8.60043 9.15738 8.87891 8.87891C9.15738 8.60043 9.48774 8.37928 9.85156 8.22852C10.2155 8.07775 10.606 8 11 8C11.2761 8 11.5 7.77614 11.5 7.5C11.5 7.22386 11.2761 7 11 7Z" fill="#222222"/>
<path d="M17.0627 14.5002C17.2009 14.2612 17.5063 14.1796 17.7454 14.3176C17.9842 14.4558 18.066 14.7612 17.928 15.0002C17.661 15.4626 17.3486 15.8942 16.9983 16.2913L19.8538 19.1467C20.0488 19.342 20.0489 19.6586 19.8538 19.8538C19.6586 20.0489 19.342 20.0488 19.1467 19.8538L16.2913 16.9983C15.8942 17.3486 15.4626 17.661 15.0002 17.928C14.7612 18.066 14.4558 17.9842 14.3176 17.7454C14.1796 17.5063 14.2612 17.2009 14.5002 17.0627C15.5643 16.4484 16.4484 15.5643 17.0627 14.5002Z" fill="#7E869E" fill-opacity="0.25"/>
</svg>
