<svg width="24" height="24" viewBox="0 0 24 24" fill="none" xmlns="http://www.w3.org/2000/svg">
<path d="M16.2053 5.26482C17.861 4.71289 18.6891 4.43718 19.1262 4.8742C19.563 5.31125 19.2874 6.1395 18.7355 7.79509L15.8976 16.3078C15.1133 18.6608 14.7208 19.8379 14.0002 19.8381C13.2794 19.8381 12.8871 18.661 12.1027 16.3078L11.3537 14.0597L15.7072 9.7072C16.0977 9.31673 16.0976 8.68367 15.7072 8.29314C15.3167 7.90262 14.6837 7.90263 14.2932 8.29314L9.93964 12.6467L7.69257 11.8976C5.33952 11.1133 4.16245 10.7208 4.16229 10.0002C4.16229 9.27941 5.33935 8.88712 7.69257 8.10271L16.2053 5.26482Z" fill="#222222"/>
</svg>
