<svg width="24" height="24" viewBox="0 0 24 24" fill="none" xmlns="http://www.w3.org/2000/svg">
<path d="M17.9471 3.71413C18.4638 3.62222 19.1596 3.59104 19.7225 4.06569L19.8329 4.16725L19.9344 4.27761C20.4091 4.84051 20.3779 5.53636 20.286 6.053C20.1867 6.61118 19.9486 7.31616 19.6835 8.11159L17.5204 14.6018C17.2518 15.4077 17.038 16.0495 16.8514 16.5276C16.6782 16.9717 16.4724 17.4322 16.163 17.7542C14.9825 18.9825 13.0172 18.9825 11.8368 17.7542C11.5274 17.4321 11.3216 16.9717 11.1483 16.5276C10.9618 16.0495 10.748 15.4077 10.4794 14.6018C10.3592 14.2412 10.3321 14.1693 10.3026 14.1135C10.2088 13.9363 10.0638 13.7913 9.8866 13.6975C9.8308 13.668 9.75911 13.641 9.39832 13.5208C8.59237 13.2521 7.95066 13.0384 7.47253 12.8518C7.02841 12.6785 6.56801 12.4728 6.24597 12.1633C5.01757 10.9829 5.01766 9.01767 6.24597 7.83718C6.56799 7.52778 7.02843 7.32198 7.47253 7.1487C7.95064 6.96216 8.59242 6.74839 9.39832 6.47975L15.8885 4.31667C16.684 4.05152 17.389 3.81347 17.9471 3.71413ZM18.2977 5.68386C17.9188 5.75128 17.3814 5.92744 16.5214 6.21413L10.0302 8.37721C9.2029 8.65297 8.61896 8.84816 8.1991 9.01198C7.9916 9.09295 7.84649 9.15817 7.74597 9.2112C7.67424 9.24908 7.64118 9.2725 7.63171 9.27956C7.22247 9.67305 7.22239 10.3275 7.63171 10.721C7.64121 10.728 7.67419 10.7514 7.74597 10.7893C7.84651 10.8424 7.99153 10.9076 8.1991 10.9885C8.61897 11.1524 9.20284 11.3475 10.0302 11.6233C10.327 11.7223 10.5852 11.8042 10.8212 11.929C11.3536 12.2106 11.7896 12.6465 12.0712 13.179C12.1959 13.4149 12.2779 13.6731 12.3768 13.97C12.6526 14.7972 12.8478 15.3812 13.0116 15.801C13.0926 16.0086 13.1578 16.1536 13.2108 16.2542C13.2487 16.3259 13.2721 16.359 13.2792 16.3684C13.6726 16.7777 14.3271 16.7777 14.7206 16.3684C14.7276 16.359 14.7511 16.3259 14.7889 16.2542C14.842 16.1537 14.9072 16.0085 14.9882 15.801C15.152 15.3812 15.3472 14.7972 15.6229 13.97L17.786 7.47878C18.0727 6.61875 18.2489 6.0813 18.3163 5.70241C18.3176 5.69524 18.3171 5.68776 18.3182 5.68093C18.3116 5.68204 18.3046 5.68263 18.2977 5.68386Z" fill="#33363F"/>
</svg>
