<svg width="24" height="24" viewBox="0 0 24 24" fill="none" xmlns="http://www.w3.org/2000/svg">
<path d="M18.0353 4.20557C18.5449 4.11495 19.0804 4.12094 19.4796 4.52002C19.8788 4.91917 19.8847 5.45473 19.7941 5.96436C19.7028 6.47769 19.4797 7.14106 19.2091 7.95264L17.046 14.4429C16.7757 15.254 16.5667 15.8817 16.3859 16.3452C16.2118 16.7915 16.0355 17.1644 15.8029 17.4067C14.8191 18.4304 13.1811 18.4304 12.1974 17.4067C11.9647 17.1644 11.7886 16.7916 11.6144 16.3452C11.4336 15.8817 11.2246 15.2541 10.9542 14.4429C10.8394 14.0984 10.7985 13.9802 10.7453 13.8794C10.6045 13.6133 10.3864 13.3952 10.1203 13.2544C10.0195 13.2011 9.90139 13.1603 9.55678 13.0454C8.74544 12.775 8.11802 12.5661 7.65444 12.3853C7.20801 12.2111 6.83528 12.035 6.59292 11.8022C5.56932 10.8185 5.56925 9.18048 6.59292 8.19678C6.83528 7.96416 7.20817 7.78789 7.65444 7.61377C8.118 7.43292 8.74559 7.22402 9.55678 6.95362L16.047 4.79053C16.8587 4.51998 17.5219 4.29689 18.0353 4.20557ZM18.7726 5.22705C18.7348 5.18929 18.6369 5.11406 18.2101 5.18995C17.7864 5.26534 17.2072 5.45751 16.3634 5.73877L9.87221 7.90284C9.05053 8.17673 8.45209 8.37595 8.01772 8.54541C7.56716 8.72121 7.36852 8.83778 7.2853 8.91748C6.67112 9.50769 6.67119 10.4913 7.2853 11.0815C7.36837 11.1613 7.56669 11.2776 8.01772 11.4536C8.45211 11.6231 9.05037 11.8222 9.87221 12.0962C10.1852 12.2005 10.3971 12.2696 10.588 12.3706C11.0315 12.6052 11.3944 12.9681 11.629 13.4116C11.73 13.6026 11.7992 13.8146 11.9035 14.1274C12.1774 14.9491 12.3766 15.5476 12.546 15.9819C12.7219 16.4328 12.8384 16.6312 12.9181 16.7144C13.5083 17.3286 14.4919 17.3286 15.0822 16.7144C15.1619 16.6311 15.2784 16.4325 15.4542 15.9819C15.6237 15.5476 15.823 14.9491 16.0968 14.1274L18.2609 7.63623C18.5421 6.79252 18.7343 6.21321 18.8097 5.78955C18.8856 5.36252 18.8103 5.26478 18.7726 5.22705Z" fill="#222222"/>
</svg>
