<svg width="24" height="24" viewBox="0 0 24 24" fill="none" xmlns="http://www.w3.org/2000/svg">
<path d="M12 4C12.7669 4 13.5241 4.17642 14.2119 4.51562C14.8996 4.85481 15.5 5.34775 15.9668 5.95605C16.4337 6.56449 16.7547 7.27223 16.9043 8.02441C16.9356 8.18165 16.9586 8.33997 16.9741 8.49882C17.0009 8.77474 17.2228 9 17.5 9C19.433 9 21 10.567 21 12.5C21 14.433 19.433 16 17.5 16C17.0341 16 16.8011 16 16.6173 15.9239C16.3723 15.8224 16.1776 15.6277 16.0761 15.3827C16 15.1989 16 14.9659 16 14.5V13.0557C16 11.9511 15.1046 11.0557 14 11.0557H10C8.89543 11.0557 8 11.9511 8 13.0557V14.5C8 14.9659 8 15.1989 7.92388 15.3827C7.82239 15.6277 7.62771 15.8224 7.38268 15.9239C7.19891 16 6.96594 16 6.5 16C4.567 16 3 14.433 3 12.5C3 10.567 4.567 9 6.5 9C6.77722 9 6.99912 8.77474 7.02592 8.49882C7.04135 8.33997 7.06443 8.18165 7.0957 8.02441C7.24533 7.27223 7.56633 6.56449 8.0332 5.95605C8.49999 5.34775 9.10042 4.85481 9.78809 4.51562C10.4759 4.17642 11.2331 4 12 4Z" fill="#7E869E" fill-opacity="0.25"/>
<path d="M12 4V3.4V3.4V4ZM14.2119 4.51562L14.4773 3.97752L14.4773 3.9775L14.2119 4.51562ZM15.9668 5.95605L16.4428 5.5908L16.4428 5.59079L15.9668 5.95605ZM16.9043 8.02441L17.4928 7.90736L17.4928 7.90735L16.9043 8.02441ZM6.5 9V8.4V8.4V9ZM7.0957 8.02441L6.50723 7.90735L6.50723 7.90736L7.0957 8.02441ZM8.0332 5.95605L7.5572 5.59079L7.55719 5.5908L8.0332 5.95605ZM9.78809 4.51562L9.52271 3.9775L9.52267 3.97752L9.78809 4.51562ZM7.02592 8.49882L6.42873 8.4408L7.02592 8.49882ZM7.92388 15.3827L8.47821 15.6123L7.92388 15.3827ZM7.38268 15.9239L7.61229 16.4782L7.38268 15.9239ZM16.6173 15.9239L16.8469 15.3696L16.6173 15.9239ZM16.0761 15.3827L16.6304 15.1531L16.0761 15.3827ZM16.9741 8.49882L16.3769 8.55683L16.9741 8.49882ZM12 4V4.6C12.675 4.6 13.3413 4.75527 13.9465 5.05375L14.2119 4.51562L14.4773 3.9775C13.7068 3.59756 12.8589 3.4 12 3.4V4ZM14.2119 4.51562L13.9465 5.05373C14.5516 5.35219 15.08 5.78596 15.4908 6.32132L15.9668 5.95605L16.4428 5.59079C15.92 4.90953 15.2476 4.35744 14.4773 3.97752L14.2119 4.51562ZM15.9668 5.95605L15.4908 6.32131C15.9017 6.85686 16.1842 7.47971 16.3158 8.14148L16.9043 8.02441L17.4928 7.90735C17.3252 7.06476 16.9656 6.27212 16.4428 5.5908L15.9668 5.95605ZM16.9043 8.02441L16.3158 8.14147C16.3431 8.27849 16.3633 8.41709 16.3769 8.55683L16.9741 8.49882L17.5713 8.4408C17.554 8.26286 17.5281 8.0848 17.4928 7.90736L16.9043 8.02441ZM17.5 9V9.6C19.1016 9.6 20.4 10.8984 20.4 12.5H21H21.6C21.6 10.2356 19.7644 8.4 17.5 8.4V9ZM21 12.5H20.4C20.4 14.1016 19.1016 15.4 17.5 15.4V16V16.6C19.7644 16.6 21.6 14.7644 21.6 12.5H21ZM16 14.5H16.6V13.0557H16H15.4V14.5H16ZM16 13.0557H16.6C16.6 11.6197 15.4359 10.4557 14 10.4557V11.0557V11.6557C14.7732 11.6557 15.4 12.2825 15.4 13.0557H16ZM14 11.0557V10.4557H10V11.0557V11.6557H14V11.0557ZM10 11.0557V10.4557C8.56406 10.4557 7.4 11.6197 7.4 13.0557H8H8.6C8.6 12.2825 9.2268 11.6557 10 11.6557V11.0557ZM8 13.0557H7.4V14.5H8H8.6V13.0557H8ZM6.5 16V15.4C4.89837 15.4 3.6 14.1016 3.6 12.5H3H2.4C2.4 14.7644 4.23563 16.6 6.5 16.6V16ZM3 12.5H3.6C3.6 10.8984 4.89837 9.6 6.5 9.6V9V8.4C4.23563 8.4 2.4 10.2356 2.4 12.5H3ZM7.02592 8.49882L7.62311 8.55683C7.63669 8.41709 7.65692 8.27849 7.68417 8.14147L7.0957 8.02441L6.50723 7.90736C6.47194 8.0848 6.44602 8.26286 6.42873 8.4408L7.02592 8.49882ZM7.0957 8.02441L7.68417 8.14148C7.81581 7.47971 8.09827 6.85686 8.50922 6.32131L8.0332 5.95605L7.55719 5.5908C7.03439 6.27212 6.67485 7.06476 6.50723 7.90735L7.0957 8.02441ZM8.0332 5.95605L8.50921 6.32132C8.92002 5.78596 9.44841 5.35219 10.0535 5.05373L9.78809 4.51562L9.52267 3.97752C8.75243 4.35744 8.07997 4.90953 7.5572 5.59079L8.0332 5.95605ZM9.78809 4.51562L10.0535 5.05375C10.6587 4.75527 11.325 4.6 12 4.6V4V3.4C11.1411 3.4 10.2932 3.59756 9.52271 3.9775L9.78809 4.51562ZM6.5 9V9.6C7.12208 9.6 7.57005 9.10305 7.62311 8.55683L7.02592 8.49882L6.42873 8.4408C6.42916 8.43644 6.43103 8.43006 6.4388 8.42251C6.44321 8.41822 6.45067 8.41252 6.4619 8.40777C6.47367 8.4028 6.48706 8.4 6.5 8.4V9ZM8 14.5H7.4C7.4 14.7412 7.39967 14.892 7.39188 15.0063C7.38445 15.1152 7.37228 15.1465 7.36955 15.1531L7.92388 15.3827L8.47821 15.6123C8.5516 15.4351 8.57749 15.258 8.58909 15.088C8.60033 14.9234 8.6 14.7248 8.6 14.5H8ZM6.5 16V16.6C6.72476 16.6 6.92338 16.6003 7.088 16.5891C7.258 16.5775 7.43511 16.5516 7.61229 16.4782L7.38268 15.9239L7.15307 15.3696C7.14648 15.3723 7.11522 15.3844 7.00631 15.3919C6.89202 15.3997 6.74118 15.4 6.5 15.4V16ZM7.92388 15.3827L7.36955 15.1531C7.32895 15.2511 7.25108 15.329 7.15307 15.3696L7.38268 15.9239L7.61229 16.4782C8.00434 16.3158 8.31582 16.0043 8.47821 15.6123L7.92388 15.3827ZM17.5 16V15.4C17.2588 15.4 17.108 15.3997 16.9937 15.3919C16.8848 15.3844 16.8535 15.3723 16.8469 15.3696L16.6173 15.9239L16.3877 16.4782C16.5649 16.5516 16.742 16.5775 16.912 16.5891C17.0766 16.6003 17.2752 16.6 17.5 16.6V16ZM16 14.5H15.4C15.4 14.7248 15.3997 14.9234 15.4109 15.088C15.4225 15.258 15.4484 15.4351 15.5218 15.6123L16.0761 15.3827L16.6304 15.1531C16.6277 15.1465 16.6156 15.1152 16.6081 15.0063C16.6003 14.892 16.6 14.7412 16.6 14.5H16ZM16.6173 15.9239L16.8469 15.3696C16.7489 15.329 16.671 15.2511 16.6304 15.1531L16.0761 15.3827L15.5218 15.6123C15.6842 16.0043 15.9957 16.3158 16.3877 16.4782L16.6173 15.9239ZM16.9741 8.49882L16.3769 8.55683C16.4299 9.10305 16.8779 9.6 17.5 9.6V9V8.4C17.5129 8.4 17.5263 8.4028 17.5381 8.40777C17.5493 8.41252 17.5568 8.41822 17.5612 8.42251C17.569 8.43006 17.5708 8.43644 17.5713 8.4408L16.9741 8.49882Z" fill="#222222"/>
<rect x="8" y="11" width="8" height="10" rx="2" stroke="#222222" stroke-width="1.2"/>
<path d="M11.5 16H12.5" stroke="#222222" stroke-width="1.2" stroke-linecap="round"/>
</svg>
