<svg width="24" height="24" viewBox="0 0 24 24" fill="none" xmlns="http://www.w3.org/2000/svg">
<path d="M12 4V3V3V4ZM14.2119 4.51562L14.6543 3.61879L14.6542 3.61875L14.2119 4.51562ZM15.9668 5.95605L16.7601 5.34729L16.7601 5.34728L15.9668 5.95605ZM16.9043 8.02441L17.8851 7.82932L17.8851 7.82931L16.9043 8.02441ZM6.5 9V8V8V9ZM7.0957 8.02441L6.11492 7.82931L6.11492 7.82932L7.0957 8.02441ZM8.0332 5.95605L7.23986 5.34728L7.23985 5.34729L8.0332 5.95605ZM9.78809 4.51562L9.3458 3.61875L9.34572 3.61879L9.78809 4.51562ZM7.02592 8.49882L6.03061 8.40213L7.02592 8.49882ZM7.92388 15.3827L8.84776 15.7654L7.92388 15.3827ZM7.38268 15.9239L7.76537 16.8478L7.38268 15.9239ZM16.6173 15.9239L17 15L16.6173 15.9239ZM16.0761 15.3827L17 15L16.0761 15.3827ZM16.9741 8.49882L15.9788 8.5955L16.9741 8.49882ZM12 4V5C12.6137 5 13.2194 5.14118 13.7696 5.4125L14.2119 4.51562L14.6542 3.61875C13.8287 3.21166 12.9202 3 12 3V4ZM14.2119 4.51562L13.7696 5.41246C14.3196 5.68377 14.8 6.07811 15.1735 6.56483L15.9668 5.95605L16.7601 5.34728C16.2001 4.61738 15.4796 4.02586 14.6543 3.61879L14.2119 4.51562ZM15.9668 5.95605L15.1734 6.56482C15.5471 7.05178 15.8039 7.61803 15.9235 8.21952L16.9043 8.02441L17.8851 7.82931C17.7055 6.92644 17.3202 6.07721 16.7601 5.34729L15.9668 5.95605ZM16.9043 8.02441L15.9235 8.2195C15.9481 8.34305 15.9664 8.4685 15.9788 8.5955L16.9741 8.49882L17.9694 8.40213C17.9509 8.21145 17.9231 8.02024 17.8851 7.82932L16.9043 8.02441ZM17.5 9V10C18.8807 10 20 11.1193 20 12.5H21H22C22 10.0147 19.9853 8 17.5 8V9ZM21 12.5H20C20 13.8807 18.8807 15 17.5 15V16V17C19.9853 17 22 14.9853 22 12.5H21ZM16 14.5H17V12.0557H16H15V14.5H16ZM16 12.0557H17C17 10.9511 16.1046 10.0557 15 10.0557V11.0557V12.0557H16ZM15 11.0557V10.0557H9V11.0557V12.0557H15V11.0557ZM9 11.0557V10.0557C7.89543 10.0557 7 10.9511 7 12.0557H8H9V11.0557ZM8 12.0557H7V14.5H8H9V12.0557H8ZM6.5 16V15C5.11929 15 4 13.8807 4 12.5H3H2C2 14.9853 4.01472 17 6.5 17V16ZM3 12.5H4C4 11.1193 5.11929 10 6.5 10V9V8C4.01472 8 2 10.0147 2 12.5H3ZM7.02592 8.49882L8.02124 8.5955C8.03358 8.4685 8.05191 8.34305 8.07649 8.2195L7.0957 8.02441L6.11492 7.82932C6.07694 8.02024 6.04913 8.21145 6.03061 8.40213L7.02592 8.49882ZM7.0957 8.02441L8.07649 8.21952C8.19614 7.61803 8.4529 7.05178 8.82656 6.56482L8.0332 5.95605L7.23985 5.34729C6.67977 6.07721 6.29452 6.92644 6.11492 7.82931L7.0957 8.02441ZM8.0332 5.95605L8.82655 6.56483C9.20004 6.07811 9.68041 5.68377 10.2304 5.41246L9.78809 4.51562L9.34572 3.61879C8.52044 4.02586 7.79995 4.61738 7.23986 5.34728L8.0332 5.95605ZM9.78809 4.51562L10.2304 5.4125C10.7806 5.14118 11.3863 5 12 5V4V3C11.0798 3 10.1713 3.21166 9.3458 3.61875L9.78809 4.51562ZM6.5 9V10C7.35198 10 7.95067 9.32193 8.02124 8.5955L7.02592 8.49882L6.03061 8.40213C6.04757 8.22754 6.20246 8 6.5 8V9ZM8 14.5H7C7 14.7467 6.99946 14.8816 6.9928 14.9791C6.98676 15.0676 6.97918 15.0503 7 15L7.92388 15.3827L8.84776 15.7654C8.9447 15.5313 8.97518 15.3056 8.98817 15.1152C9.00054 14.9338 9 14.7193 9 14.5H8ZM6.5 16V17C6.71929 17 6.93384 17.0005 7.11523 16.9882C7.3056 16.9752 7.53132 16.9447 7.76537 16.8478L7.38268 15.9239L7 15C7.05027 14.9792 7.06763 14.9868 6.97908 14.9928C6.88156 14.9995 6.74665 15 6.5 15V16ZM7.92388 15.3827L7 15V15L7.38268 15.9239L7.76537 16.8478C8.25542 16.6448 8.64477 16.2554 8.84776 15.7654L7.92388 15.3827ZM17.5 16V15C17.2533 15 17.1184 14.9995 17.0209 14.9928C16.9324 14.9868 16.9497 14.9792 17 15L16.6173 15.9239L16.2346 16.8478C16.4687 16.9447 16.6944 16.9752 16.8848 16.9882C17.0662 17.0005 17.2807 17 17.5 17V16ZM16 14.5H15C15 14.7193 14.9995 14.9338 15.0118 15.1152C15.0248 15.3056 15.0553 15.5313 15.1522 15.7654L16.0761 15.3827L17 15C17.0208 15.0503 17.0132 15.0676 17.0072 14.9791C17.0005 14.8816 17 14.7467 17 14.5H16ZM16.6173 15.9239L17 15V15L16.0761 15.3827L15.1522 15.7654C15.3552 16.2554 15.7446 16.6448 16.2346 16.8478L16.6173 15.9239ZM16.9741 8.49882L15.9788 8.5955C16.0493 9.32193 16.648 10 17.5 10V9V8C17.7975 8 17.9524 8.22754 17.9694 8.40213L16.9741 8.49882Z" fill="#33363F"/>
<rect x="8" y="11" width="8" height="10" rx="2" stroke="#33363F" stroke-width="2"/>
<path d="M11.5 16H12.5" stroke="#33363F" stroke-width="2" stroke-linecap="round"/>
</svg>
