<svg width="24" height="24" viewBox="0 0 24 24" fill="none" xmlns="http://www.w3.org/2000/svg">
<path d="M12 4V3.5V3.5V4ZM14.2119 4.51562L14.4331 4.06721L14.4331 4.06719L14.2119 4.51562ZM15.9668 5.95605L16.3635 5.65167L16.3635 5.65167L15.9668 5.95605ZM16.9043 8.02441L17.3947 7.92687L17.3947 7.92686L16.9043 8.02441ZM6.5 9V8.5V8.5V9ZM7.0957 8.02441L6.60531 7.92686L6.60531 7.92687L7.0957 8.02441ZM8.0332 5.95605L7.63653 5.65167L7.63653 5.65167L8.0332 5.95605ZM9.78809 4.51562L9.56694 4.06719L9.5669 4.06721L9.78809 4.51562ZM7.02592 8.49882L6.52827 8.45047L7.02592 8.49882ZM7.92388 15.3827L8.38582 15.574L7.92388 15.3827ZM7.38268 15.9239L7.57403 16.3858L7.38268 15.9239ZM16.6173 15.9239L16.8087 15.4619L16.6173 15.9239ZM16.0761 15.3827L16.5381 15.1913L16.0761 15.3827ZM16.9741 8.49882L16.4764 8.54716L16.9741 8.49882ZM12 4V4.5C12.6903 4.5 13.3718 4.6588 13.9908 4.96406L14.2119 4.51562L14.4331 4.06719C13.6764 3.69404 12.8436 3.5 12 3.5V4ZM14.2119 4.51562L13.9907 4.96404C14.6096 5.26929 15.15 5.71293 15.5701 6.26044L15.9668 5.95605L16.3635 5.65167C15.85 4.98256 15.1896 4.44034 14.4331 4.06721L14.2119 4.51562ZM15.9668 5.95605L15.5701 6.26044C15.9904 6.80813 16.2793 7.44513 16.4139 8.12196L16.9043 8.02441L17.3947 7.92686C17.2301 7.09934 16.877 6.32085 16.3635 5.65167L15.9668 5.95605ZM16.9043 8.02441L16.4139 8.12196C16.4418 8.26235 16.4625 8.40424 16.4764 8.54716L16.9741 8.49882L17.4717 8.45047C17.4548 8.27571 17.4293 8.10094 17.3947 7.92687L16.9043 8.02441ZM17.5 9V9.5C19.1569 9.5 20.5 10.8431 20.5 12.5H21H21.5C21.5 10.2909 19.7091 8.5 17.5 8.5V9ZM21 12.5H20.5C20.5 14.1569 19.1569 15.5 17.5 15.5V16V16.5C19.7091 16.5 21.5 14.7091 21.5 12.5H21ZM16 14.5H16.5V12.0557H16H15.5V14.5H16ZM16 12.0557H16.5C16.5 11.2272 15.8284 10.5557 15 10.5557V11.0557V11.5557C15.2761 11.5557 15.5 11.7795 15.5 12.0557H16ZM15 11.0557V10.5557H9V11.0557V11.5557H15V11.0557ZM9 11.0557V10.5557C8.17157 10.5557 7.5 11.2272 7.5 12.0557H8H8.5C8.5 11.7795 8.72386 11.5557 9 11.5557V11.0557ZM8 12.0557H7.5V14.5H8H8.5V12.0557H8ZM6.5 16V15.5C4.84315 15.5 3.5 14.1569 3.5 12.5H3H2.5C2.5 14.7091 4.29086 16.5 6.5 16.5V16ZM3 12.5H3.5C3.5 10.8431 4.84315 9.5 6.5 9.5V9V8.5C4.29086 8.5 2.5 10.2909 2.5 12.5H3ZM7.02592 8.49882L7.52358 8.54716C7.53746 8.40424 7.55817 8.26235 7.5861 8.12196L7.0957 8.02441L6.60531 7.92687C6.57068 8.10094 6.54524 8.27571 6.52827 8.45047L7.02592 8.49882ZM7.0957 8.02441L7.58609 8.12196C7.72073 7.44513 8.00962 6.80813 8.42988 6.26044L8.0332 5.95605L7.63653 5.65167C7.12305 6.32085 6.76993 7.09934 6.60531 7.92686L7.0957 8.02441ZM8.0332 5.95605L8.42987 6.26044C8.85001 5.71293 9.39041 5.26929 10.0093 4.96404L9.78809 4.51562L9.5669 4.06721C8.81043 4.44034 8.14997 4.98256 7.63653 5.65167L8.0332 5.95605ZM9.78809 4.51562L10.0092 4.96406C10.6282 4.6588 11.3097 4.5 12 4.5V4V3.5C11.1564 3.5 10.3236 3.69404 9.56694 4.06719L9.78809 4.51562ZM6.5 9V9.5C7.0646 9.5 7.4749 9.04834 7.52358 8.54716L7.02592 8.49882L6.52827 8.45047C6.52639 8.46983 6.51758 8.48539 6.50848 8.49424C6.50437 8.49823 6.50149 8.49961 6.50081 8.49989C6.50058 8.49999 6.50077 8.5 6.5 8.5V9ZM8 14.5H7.5C7.5 14.7398 7.49973 14.8946 7.49164 15.0131C7.48387 15.1271 7.47056 15.1705 7.46194 15.1913L7.92388 15.3827L8.38582 15.574C8.45332 15.4111 8.47807 15.2461 8.48933 15.0812C8.50027 14.9208 8.5 14.7261 8.5 14.5H8ZM6.5 16V16.5C6.72613 16.5 6.92077 16.5003 7.08119 16.4893C7.24611 16.4781 7.41106 16.4533 7.57403 16.3858L7.38268 15.9239L7.19134 15.4619C7.17053 15.4706 7.12712 15.4839 7.01312 15.4916C6.89463 15.4997 6.73981 15.5 6.5 15.5V16ZM7.92388 15.3827L7.46194 15.1913C7.41119 15.3139 7.31386 15.4112 7.19134 15.4619L7.38268 15.9239L7.57403 16.3858C7.94157 16.2336 8.23358 15.9416 8.38582 15.574L7.92388 15.3827ZM17.5 16V15.5C17.2602 15.5 17.1054 15.4997 16.9869 15.4916C16.8729 15.4839 16.8295 15.4706 16.8087 15.4619L16.6173 15.9239L16.426 16.3858C16.5889 16.4533 16.7539 16.4781 16.9188 16.4893C17.0792 16.5003 17.2739 16.5 17.5 16.5V16ZM16 14.5H15.5C15.5 14.7261 15.4997 14.9208 15.5107 15.0812C15.5219 15.2461 15.5467 15.4111 15.6142 15.574L16.0761 15.3827L16.5381 15.1913C16.5294 15.1705 16.5161 15.1271 16.5084 15.0131C16.5003 14.8946 16.5 14.7398 16.5 14.5H16ZM16.6173 15.9239L16.8087 15.4619C16.6861 15.4112 16.5888 15.3139 16.5381 15.1913L16.0761 15.3827L15.6142 15.574C15.7664 15.9416 16.0584 16.2336 16.426 16.3858L16.6173 15.9239ZM16.9741 8.49882L16.4764 8.54716C16.5251 9.04834 16.9354 9.5 17.5 9.5V9V8.5C17.4992 8.5 17.4994 8.49999 17.4992 8.49989C17.4985 8.49961 17.4956 8.49823 17.4915 8.49424C17.4824 8.48539 17.4736 8.46983 17.4717 8.45047L16.9741 8.49882Z" fill="#222222"/>
<rect x="8" y="11" width="8" height="10" rx="2" stroke="#222222"/>
<path d="M11.5 16H12.5" stroke="#222222" stroke-linecap="round"/>
</svg>
