<svg width="24" height="24" viewBox="0 0 24 24" fill="none" xmlns="http://www.w3.org/2000/svg">
<path d="M12.6318 2V1.4V2ZM13.4629 2.07031L13.6837 1.51243L13.6835 1.51234L13.4629 2.07031ZM13.9834 2.54199L14.5167 2.2671L14.5167 2.26704L13.9834 2.54199ZM14.1357 3.36133L14.7328 3.30171L14.1357 3.36133ZM14.4307 4.81836L13.9536 5.18218L13.9537 5.18233L14.4307 4.81836ZM15.3594 5.20312L15.4393 5.79777L15.4396 5.79774L15.3594 5.20312ZM16.5977 4.38086L16.2178 3.91645L16.5977 4.38086ZM17.2861 3.90918L17.1038 3.33756L17.1037 3.33758L17.2861 3.90918ZM17.9873 3.94434L18.2258 3.39378L18.2257 3.39375L17.9873 3.94434ZM18.625 4.48242L18.2007 4.90669L18.625 4.48242ZM19.5176 5.375L19.9418 4.95074L19.5176 5.375ZM20.0557 6.0127L20.6063 5.77437L20.6062 5.77416L20.0557 6.0127ZM20.0908 6.71387L20.6623 6.89657L20.6624 6.8963L20.0908 6.71387ZM19.6182 7.40137L20.0825 7.78142L19.6182 7.40137ZM18.7969 8.63965L18.2023 8.55904L18.2022 8.55953L18.7969 8.63965ZM19.1816 9.56836L18.8177 10.0454L18.8178 10.0455L19.1816 9.56836ZM20.6387 9.86328L20.6984 9.26626V9.26626L20.6387 9.86328ZM21.459 10.0166L21.7344 9.48355L21.7342 9.48342L21.459 10.0166ZM21.9297 10.5371L22.4876 10.3164L22.4876 10.3164L21.9297 10.5371ZM22 11.3682H22.6H22ZM22 12.6318H22.6H22ZM21.9297 13.4629L22.4876 13.6837L22.4877 13.6834L21.9297 13.4629ZM21.458 13.9834L21.7329 14.5167L21.7329 14.5167L21.458 13.9834ZM20.6387 14.1357L20.6983 14.7328L20.6387 14.1357ZM19.1826 14.4307L18.8189 13.9535L18.8189 13.9535L19.1826 14.4307ZM18.7979 15.3594L18.2032 15.4395L18.2032 15.4396L18.7979 15.3594ZM19.6191 16.5977L20.0835 16.2177L19.6191 16.5977ZM20.0908 17.2842L20.6623 17.1015L20.6622 17.1011L20.0908 17.2842ZM20.0557 17.9863L20.6062 18.225L20.6063 18.2247L20.0557 17.9863ZM17.9873 20.0547L18.2257 20.6053L18.2258 20.6052L17.9873 20.0547ZM17.2861 20.0898L17.1037 20.6614L17.1038 20.6615L17.2861 20.0898ZM16.5977 19.6182L16.9776 19.1538L16.5977 19.6182ZM15.3584 18.7959L15.4382 18.2012L15.4379 18.2012L15.3584 18.7959ZM14.4307 19.1807L13.9537 18.8167L13.9537 18.8167L14.4307 19.1807ZM14.1357 20.6377L13.5387 20.5781L14.1357 20.6377ZM13.9834 21.458L14.5166 21.7331L14.5168 21.7328L13.9834 21.458ZM13.4629 21.9297L13.6836 22.4876L13.6837 22.4876L13.4629 21.9297ZM11.3682 22V22.6V22ZM10.5371 21.9297L10.3164 22.4876L10.3164 22.4876L10.5371 21.9297ZM10.0166 21.459L9.48342 21.7342L9.48355 21.7344L10.0166 21.459ZM9.86328 20.6387L9.26626 20.6984L9.86328 20.6387ZM9.56836 19.1816L10.0455 18.8178L10.0454 18.8177L9.56836 19.1816ZM8.63965 18.7969L8.55953 18.2022L8.55904 18.2023L8.63965 18.7969ZM7.40137 19.6182L7.78142 20.0825L7.40137 19.6182ZM6.71387 20.0908L6.8963 20.6624L6.89657 20.6623L6.71387 20.0908ZM6.0127 20.0557L5.77416 20.6062L5.77437 20.6063L6.0127 20.0557ZM4.48242 18.625L4.05816 19.0493L4.48242 18.625ZM3.94434 17.9873L3.39375 18.2257L3.39378 18.2258L3.94434 17.9873ZM3.90918 17.2861L3.33758 17.1037L3.33756 17.1038L3.90918 17.2861ZM4.38086 16.5977L3.91645 16.2178L4.38086 16.5977ZM5.20312 15.3594L5.79774 15.4396L5.79777 15.4393L5.20312 15.3594ZM4.81836 14.4307L5.18233 13.9537L5.18218 13.9536L4.81836 14.4307ZM3.36133 14.1357L3.30171 14.7328L3.36133 14.1357ZM2.54199 13.9834L2.26704 14.5167L2.2671 14.5167L2.54199 13.9834ZM2.07031 13.4629L1.51234 13.6835L1.51243 13.6837L2.07031 13.4629ZM2 12.6318H1.4H2ZM2 11.3682H1.4H2ZM2.07031 10.5371L1.51239 10.3164L1.51237 10.3164L2.07031 10.5371ZM2.54102 10.0166L2.26587 9.48341L2.26559 9.48355L2.54102 10.0166ZM3.36133 9.86328L3.30157 9.26626L3.36133 9.86328ZM4.81836 9.56836L5.18236 10.0453L5.18245 10.0453L4.81836 9.56836ZM5.20312 8.64062L5.7978 8.56085L5.79777 8.56065L5.20312 8.64062ZM4.38086 7.40137L3.9165 7.78133V7.78133L4.38086 7.40137ZM3.90918 6.71387L3.33757 6.89626L3.33763 6.89644L3.90918 6.71387ZM3.94434 6.0127L3.39378 5.77418L3.39374 5.77428L3.94434 6.0127ZM6.0127 3.94434L5.77421 3.39377L5.77419 3.39378L6.0127 3.94434ZM6.71387 3.90918L6.89632 3.33759L6.89622 3.33756L6.71387 3.90918ZM7.40234 4.38086L7.02246 4.84528L7.40234 4.38086ZM8.64062 5.20215L8.56074 5.79681L8.56082 5.79682L8.64062 5.20215ZM9.56836 4.81738L10.0453 5.18137L10.0454 5.18126L9.56836 4.81738ZM9.86328 3.36133L10.4603 3.4211L9.86328 3.36133ZM10.0166 2.54102L9.48356 2.26559L9.48339 2.2659L10.0166 2.54102ZM10.5371 2.07031L10.3165 1.51235L10.3164 1.51238L10.5371 2.07031ZM12.6318 2V2.6C12.8574 2.6 12.9976 2.60038 13.104 2.60754C13.2046 2.61431 13.2346 2.62526 13.2423 2.62829L13.4629 2.07031L13.6835 1.51234C13.514 1.44533 13.3464 1.42113 13.1846 1.41025C13.0287 1.39976 12.8419 1.4 12.6318 1.4V2ZM13.4629 2.07031L13.2421 2.6282C13.3316 2.66363 13.4055 2.73051 13.4501 2.81694L13.9834 2.54199L14.5167 2.26704C14.3396 1.92347 14.044 1.65505 13.6837 1.51243L13.4629 2.07031ZM13.9834 2.54199L13.4501 2.81688C13.4538 2.8242 13.4677 2.85289 13.4844 2.95207C13.502 3.05716 13.5163 3.19643 13.5387 3.42095L14.1357 3.36133L14.7328 3.30171C14.7119 3.09279 14.6936 2.90704 14.6678 2.75313C14.6409 2.59332 14.6002 2.42906 14.5167 2.2671L13.9834 2.54199ZM14.1357 3.36133L13.5387 3.42095C13.5787 3.82136 13.6118 4.15721 13.659 4.41946C13.7052 4.67587 13.7782 4.95227 13.9536 5.18218L14.4307 4.81836L14.9078 4.45454C14.9114 4.45925 14.878 4.41754 14.8401 4.20693C14.8032 4.00217 14.7748 3.7221 14.7328 3.30171L14.1357 3.36133ZM14.4307 4.81836L13.9537 5.18233C14.3022 5.63913 14.8695 5.8744 15.4393 5.79777L15.3594 5.20312L15.2794 4.60848C15.1371 4.62761 14.9949 4.56874 14.9077 4.45439L14.4307 4.81836ZM15.3594 5.20312L15.4396 5.79774C15.7265 5.75905 15.9736 5.61475 16.1871 5.46609C16.4055 5.31403 16.6663 5.09986 16.9776 4.84527L16.5977 4.38086L16.2178 3.91645C15.8904 4.18422 15.6724 4.36226 15.5014 4.48128C15.3256 4.6037 15.2729 4.60936 15.2792 4.60851L15.3594 5.20312ZM16.5977 4.38086L16.9776 4.84527C17.3563 4.53548 17.4226 4.49543 17.4685 4.48078L17.2861 3.90918L17.1037 3.33758C16.7864 3.43883 16.5143 3.67386 16.2178 3.91645L16.5977 4.38086ZM17.2861 3.90918L17.4685 4.4808C17.5604 4.45147 17.6599 4.45641 17.7489 4.49493L17.9873 3.94434L18.2257 3.39375C17.871 3.24011 17.4725 3.21993 17.1038 3.33756L17.2861 3.90918ZM17.9873 3.94434L17.7488 4.49489C17.7565 4.49822 17.7855 4.51175 17.8614 4.57802C17.9417 4.6482 18.0411 4.74708 18.2007 4.90669L18.625 4.48242L19.0493 4.05816C18.9006 3.90947 18.7686 3.77718 18.6509 3.67433C18.5287 3.56758 18.393 3.46622 18.2258 3.39378L17.9873 3.94434ZM18.625 4.48242L18.2007 4.90669L19.0933 5.79926L19.5176 5.375L19.9418 4.95074L19.0493 4.05816L18.625 4.48242ZM19.5176 5.375L19.0933 5.79926C19.2529 5.95881 19.3518 6.05828 19.4219 6.13862C19.4883 6.21454 19.5018 6.2436 19.5051 6.25123L20.0557 6.0127L20.6062 5.77416C20.5338 5.60697 20.4324 5.47129 20.3257 5.34912C20.2228 5.23138 20.0905 5.09941 19.9418 4.95074L19.5176 5.375ZM20.0557 6.0127L19.505 6.25103C19.5436 6.34015 19.5485 6.43971 19.5192 6.53143L20.0908 6.71387L20.6624 6.8963C20.7801 6.52743 20.7598 6.12895 20.6063 5.77437L20.0557 6.0127ZM20.0908 6.71387L19.5193 6.53117C19.517 6.53848 19.5066 6.56833 19.4479 6.6506C19.3857 6.7377 19.2971 6.84634 19.1539 7.02132L19.6182 7.40137L20.0825 7.78142C20.2153 7.61913 20.334 7.47476 20.4246 7.34779C20.5187 7.21599 20.6067 7.07073 20.6623 6.89657L20.0908 6.71387ZM19.6182 7.40137L19.1539 7.02132C18.899 7.3327 18.6851 7.59348 18.5331 7.81225C18.3845 8.02625 18.2411 8.273 18.2023 8.55904L18.7969 8.63965L19.3914 8.72026C19.3907 8.7257 19.3968 8.67236 19.5187 8.49688C19.6373 8.32619 19.815 8.10812 20.0825 7.78142L19.6182 7.40137ZM18.7969 8.63965L18.2022 8.55953C18.1254 9.1296 18.3608 9.69681 18.8177 10.0454L19.1816 9.56836L19.5456 9.09135C19.4311 9.00398 19.3723 8.86192 19.3915 8.71977L18.7969 8.63965ZM19.1816 9.56836L18.8178 10.0455C19.0478 10.2208 19.3242 10.2938 19.5805 10.3399C19.8426 10.3871 20.1785 10.4202 20.5789 10.4603L20.6387 9.86328L20.6984 9.26626C20.2778 9.22417 19.9977 9.19572 19.7929 9.15889C19.5823 9.12101 19.5407 9.08764 19.5455 9.09126L19.1816 9.56836ZM20.6387 9.86328L20.5789 10.4603C21.0653 10.509 21.141 10.5277 21.1838 10.5498L21.459 10.0166L21.7342 9.48342C21.4383 9.33073 21.0795 9.3044 20.6984 9.26626L20.6387 9.86328ZM21.459 10.0166L21.1836 10.5497C21.2693 10.594 21.3362 10.6678 21.3718 10.7578L21.9297 10.5371L22.4876 10.3164C22.3454 9.95699 22.078 9.66109 21.7344 9.48355L21.459 10.0166ZM21.9297 10.5371L21.3718 10.7578C21.3748 10.7655 21.3857 10.7954 21.3925 10.8959C21.3996 11.0023 21.4 11.1424 21.4 11.3682H22H22.6C22.6 11.158 22.6003 10.9712 22.5898 10.8154C22.5789 10.6536 22.5547 10.4859 22.4876 10.3164L21.9297 10.5371ZM22 11.3682H21.4V12.6318H22H22.6V11.3682H22ZM22 12.6318H21.4C21.4 12.8574 21.3996 12.9976 21.3924 13.104C21.3857 13.2046 21.3747 13.2347 21.3717 13.2424L21.9297 13.4629L22.4877 13.6834C22.5547 13.514 22.5788 13.3464 22.5897 13.1846C22.6002 13.0287 22.6 12.8419 22.6 12.6318H22ZM21.9297 13.4629L21.3718 13.2421C21.3364 13.3316 21.2695 13.4055 21.1831 13.4501L21.458 13.9834L21.7329 14.5167C22.0766 14.3396 22.345 14.044 22.4876 13.6837L21.9297 13.4629ZM21.458 13.9834L21.1831 13.4501C21.1758 13.4538 21.1471 13.4677 21.0479 13.4844C20.9429 13.502 20.8036 13.5163 20.5791 13.5387L20.6387 14.1357L20.6983 14.7328C20.9072 14.7119 21.093 14.6936 21.2469 14.6677C21.4067 14.6409 21.5709 14.6002 21.7329 14.5167L21.458 13.9834ZM20.6387 14.1357L20.5791 13.5387C20.1787 13.5787 19.843 13.6119 19.581 13.6591C19.3246 13.7053 19.0486 13.7784 18.8189 13.9535L19.1826 14.4307L19.5463 14.9078C19.5418 14.9113 19.5835 14.8779 19.7937 14.8401C19.9982 14.8032 20.2781 14.7747 20.6983 14.7328L20.6387 14.1357ZM19.1826 14.4307L18.8189 13.9535C18.3615 14.3022 18.1264 14.8694 18.2032 15.4395L18.7979 15.3594L19.3925 15.2792C19.3733 15.1368 19.432 14.995 19.5464 14.9078L19.1826 14.4307ZM18.7979 15.3594L18.2032 15.4396C18.2418 15.726 18.3855 15.9729 18.5341 16.1868C18.6861 16.4055 18.9 16.6663 19.1548 16.9776L19.6191 16.5977L20.0835 16.2177C19.816 15.8908 19.6382 15.6727 19.5195 15.502C19.3975 15.3264 19.3917 15.2734 19.3925 15.2792L18.7979 15.3594ZM19.6191 16.5977L19.1548 16.9776C19.2977 17.1522 19.3861 17.2607 19.448 17.3476C19.5065 17.4297 19.517 17.4596 19.5194 17.4672L20.0908 17.2842L20.6622 17.1011C20.6066 16.9275 20.519 16.7826 20.4251 16.6509C20.3346 16.524 20.2162 16.3799 20.0835 16.2177L19.6191 16.5977ZM20.0908 17.2842L19.5193 17.4669C19.5486 17.5586 19.5437 17.6586 19.5051 17.7479L20.0557 17.9863L20.6063 18.2247C20.7599 17.87 20.7804 17.4707 20.6623 17.1015L20.0908 17.2842ZM20.0557 17.9863L19.5052 17.7477C19.5019 17.7553 19.4883 17.7844 19.4219 17.8604C19.3517 17.9408 19.2527 18.0403 19.0933 18.1998L19.5176 18.624L19.9418 19.0483C20.0905 18.8996 20.2227 18.7677 20.3256 18.6499C20.4323 18.5278 20.5337 18.3921 20.6062 18.225L20.0557 17.9863ZM19.5176 18.624L19.0933 18.1998L18.2007 19.0923L18.625 19.5166L19.0493 19.9409L19.9418 19.0483L19.5176 18.624ZM18.625 19.5166L18.2007 19.0923C18.0411 19.2519 17.9417 19.3508 17.8614 19.421C17.7855 19.4873 17.7565 19.5008 17.7488 19.5041L17.9873 20.0547L18.2258 20.6052C18.393 20.5328 18.5287 20.4314 18.6509 20.3247C18.7686 20.2218 18.9006 20.0896 19.0493 19.9409L18.625 19.5166ZM17.9873 20.0547L17.7489 19.5041C17.6599 19.5426 17.5604 19.5476 17.4685 19.5182L17.2861 20.0898L17.1038 20.6615C17.4725 20.7791 17.871 20.7589 18.2257 20.6053L17.9873 20.0547ZM17.2861 20.0898L17.4686 19.5182C17.4226 19.5036 17.3562 19.4635 16.9776 19.1538L16.5977 19.6182L16.2178 20.0826C16.5142 20.3251 16.7864 20.5602 17.1037 20.6614L17.2861 20.0898ZM16.5977 19.6182L16.9776 19.1538C16.6661 18.899 16.4051 18.6848 16.1864 18.5326C15.9726 18.3839 15.7252 18.2397 15.4382 18.2012L15.3584 18.7959L15.2786 19.3906C15.2724 19.3897 15.3253 19.3954 15.5012 19.5178C15.6722 19.6367 15.8904 19.8148 16.2178 20.0826L16.5977 19.6182ZM15.3584 18.7959L15.4379 18.2012C14.8686 18.1251 14.302 18.3602 13.9537 18.8167L14.4307 19.1807L14.9077 19.5446C14.9948 19.4304 15.1367 19.3716 15.2789 19.3906L15.3584 18.7959ZM14.4307 19.1807L13.9537 18.8167C13.7782 19.0467 13.7051 19.3231 13.659 19.5795C13.6118 19.8417 13.5787 20.1776 13.5387 20.5781L14.1357 20.6377L14.7328 20.6973C14.7748 20.2767 14.8032 19.9967 14.84 19.792C14.8779 19.5815 14.9113 19.5399 14.9077 19.5446L14.4307 19.1807ZM14.1357 20.6377L13.5387 20.5781C13.5163 20.8028 13.502 20.9423 13.4843 21.0477C13.4676 21.1472 13.4538 21.176 13.45 21.1832L13.9834 21.458L14.5168 21.7328C14.6003 21.5707 14.641 21.4061 14.6678 21.2463C14.6936 21.0923 14.7119 20.9063 14.7328 20.6973L14.1357 20.6377ZM13.9834 21.458L13.4502 21.1829C13.4055 21.2694 13.3314 21.3364 13.242 21.3718L13.4629 21.9297L13.6837 22.4876C14.044 22.3449 14.3395 22.0764 14.5166 21.7331L13.9834 21.458ZM13.4629 21.9297L13.2422 21.3718C13.2346 21.3747 13.2046 21.3857 13.1038 21.3925C12.9971 21.3996 12.8567 21.4 12.6309 21.4V22V22.6C12.8411 22.6 13.0281 22.6003 13.1841 22.5898C13.346 22.5789 13.5139 22.5548 13.6836 22.4876L13.4629 21.9297ZM12.6309 22V21.4H11.3682V22V22.6H12.6309V22ZM11.3682 22V21.4C11.1424 21.4 11.0023 21.3996 10.8959 21.3925C10.7954 21.3857 10.7655 21.3748 10.7578 21.3718L10.5371 21.9297L10.3164 22.4876C10.4859 22.5547 10.6536 22.5789 10.8154 22.5898C10.9712 22.6003 11.158 22.6 11.3682 22.6V22ZM10.5371 21.9297L10.7578 21.3718C10.6678 21.3362 10.594 21.2693 10.5497 21.1836L10.0166 21.459L9.48355 21.7344C9.66109 22.078 9.95699 22.3454 10.3164 22.4876L10.5371 21.9297ZM10.0166 21.459L10.5498 21.1838C10.5277 21.141 10.509 21.0653 10.4603 20.5789L9.86328 20.6387L9.26626 20.6984C9.3044 21.0795 9.33073 21.4383 9.48342 21.7342L10.0166 21.459ZM9.86328 20.6387L10.4603 20.5789C10.4202 20.1785 10.3871 19.8426 10.3399 19.5805C10.2938 19.3241 10.2208 19.0478 10.0455 18.8178L9.56836 19.1816L9.09126 19.5455C9.08764 19.5407 9.12101 19.5823 9.15889 19.7929C9.19572 19.9977 9.22417 20.2778 9.26626 20.6984L9.86328 20.6387ZM9.56836 19.1816L10.0454 18.8177C9.69681 18.3608 9.1296 18.1254 8.55953 18.2022L8.63965 18.7969L8.71977 19.3915C8.86192 19.3723 9.00398 19.4311 9.09135 19.5456L9.56836 19.1816ZM8.63965 18.7969L8.55904 18.2023C8.273 18.2411 8.02625 18.3845 7.81225 18.5331C7.59348 18.6851 7.3327 18.899 7.02132 19.1539L7.40137 19.6182L7.78142 20.0825C8.10812 19.815 8.32619 19.6373 8.49688 19.5187C8.67236 19.3968 8.7257 19.3907 8.72026 19.3914L8.63965 18.7969ZM7.40137 19.6182L7.02132 19.1539C6.84634 19.2971 6.7377 19.3857 6.6506 19.4479C6.56833 19.5066 6.53848 19.517 6.53117 19.5193L6.71387 20.0908L6.89657 20.6623C7.07073 20.6067 7.21599 20.5187 7.34779 20.4246C7.47476 20.334 7.61913 20.2153 7.78142 20.0825L7.40137 19.6182ZM6.71387 20.0908L6.53143 19.5192C6.43971 19.5485 6.34015 19.5436 6.25103 19.505L6.0127 20.0557L5.77437 20.6063C6.12895 20.7598 6.52743 20.7801 6.8963 20.6624L6.71387 20.0908ZM6.0127 20.0557L6.25123 19.5051C6.2436 19.5018 6.21454 19.4883 6.13862 19.4219C6.05828 19.3518 5.95881 19.2529 5.79926 19.0933L5.375 19.5176L4.95074 19.9418C5.09941 20.0905 5.23138 20.2228 5.34912 20.3257C5.47129 20.4324 5.60697 20.5338 5.77416 20.6062L6.0127 20.0557ZM5.375 19.5176L5.79926 19.0933L4.90669 18.2007L4.48242 18.625L4.05816 19.0493L4.95074 19.9418L5.375 19.5176ZM4.48242 18.625L4.90669 18.2007C4.74708 18.0411 4.6482 17.9417 4.57802 17.8614C4.51175 17.7855 4.49822 17.7565 4.49489 17.7488L3.94434 17.9873L3.39378 18.2258C3.46622 18.393 3.56758 18.5287 3.67433 18.6509C3.77718 18.7686 3.90947 18.9006 4.05816 19.0493L4.48242 18.625ZM3.94434 17.9873L4.49493 17.7489C4.45641 17.6599 4.45147 17.5604 4.4808 17.4685L3.90918 17.2861L3.33756 17.1038C3.21993 17.4725 3.24011 17.871 3.39375 18.2257L3.94434 17.9873ZM3.90918 17.2861L4.48078 17.4685C4.49543 17.4226 4.53548 17.3563 4.84527 16.9776L4.38086 16.5977L3.91645 16.2178C3.67386 16.5143 3.43883 16.7864 3.33758 17.1037L3.90918 17.2861ZM4.38086 16.5977L4.84527 16.9776C5.09986 16.6663 5.31403 16.4055 5.46609 16.1871C5.61475 15.9736 5.75905 15.7265 5.79774 15.4396L5.20312 15.3594L4.60851 15.2792C4.60936 15.2729 4.6037 15.3256 4.48128 15.5014C4.36226 15.6724 4.18422 15.8904 3.91645 16.2178L4.38086 16.5977ZM5.20312 15.3594L5.79777 15.4393C5.8744 14.8695 5.63913 14.3022 5.18233 13.9537L4.81836 14.4307L4.45439 14.9077C4.56874 14.9949 4.62761 15.1371 4.60848 15.2794L5.20312 15.3594ZM4.81836 14.4307L5.18218 13.9536C4.95227 13.7782 4.67587 13.7052 4.41946 13.659C4.15721 13.6118 3.82136 13.5787 3.42095 13.5387L3.36133 14.1357L3.30171 14.7328C3.7221 14.7748 4.00217 14.8032 4.20693 14.8401C4.41754 14.878 4.45925 14.9114 4.45454 14.9078L4.81836 14.4307ZM3.36133 14.1357L3.42095 13.5387C3.19643 13.5163 3.05716 13.502 2.95207 13.4844C2.85289 13.4677 2.8242 13.4538 2.81688 13.4501L2.54199 13.9834L2.2671 14.5167C2.42906 14.6002 2.59332 14.6409 2.75313 14.6678C2.90704 14.6936 3.09279 14.7119 3.30171 14.7328L3.36133 14.1357ZM2.54199 13.9834L2.81694 13.4501C2.73051 13.4055 2.66363 13.3316 2.6282 13.2421L2.07031 13.4629L1.51243 13.6837C1.65505 14.044 1.92347 14.3396 2.26704 14.5167L2.54199 13.9834ZM2.07031 13.4629L2.62829 13.2423C2.62526 13.2346 2.61431 13.2046 2.60754 13.104C2.60038 12.9976 2.6 12.8574 2.6 12.6318H2H1.4C1.4 12.8419 1.39976 13.0287 1.41025 13.1846C1.42113 13.3464 1.44533 13.514 1.51234 13.6835L2.07031 13.4629ZM2 12.6318H2.6V11.3682H2H1.4V12.6318H2ZM2 11.3682H2.6C2.6 11.1424 2.60037 11.0023 2.60752 10.8959C2.61428 10.7954 2.62522 10.7655 2.62826 10.7578L2.07031 10.5371L1.51237 10.3164C1.44532 10.486 1.42111 10.6536 1.41023 10.8154C1.39975 10.9712 1.4 11.158 1.4 11.3682H2ZM2.07031 10.5371L2.62824 10.7578C2.66385 10.6678 2.73069 10.594 2.81644 10.5497L2.54102 10.0166L2.26559 9.48355C1.92199 9.66109 1.65457 9.95698 1.51239 10.3164L2.07031 10.5371ZM2.54102 10.0166L2.81616 10.5498C2.85898 10.5277 2.93469 10.509 3.42109 10.4603L3.36133 9.86328L3.30157 9.26626C2.92051 9.30441 2.56172 9.33074 2.26587 9.48341L2.54102 10.0166ZM3.36133 9.86328L3.42109 10.4603C3.82145 10.4202 4.15733 10.3871 4.41946 10.34C4.67579 10.2939 4.95232 10.2209 5.18236 10.0453L4.81836 9.56836L4.45436 9.09138C4.45921 9.08769 4.41774 9.12105 4.20712 9.15892C4.00229 9.19574 3.72225 9.22416 3.30157 9.26626L3.36133 9.86328ZM4.81836 9.56836L5.18245 10.0453C5.63855 9.69705 5.87425 9.13077 5.7978 8.56085L5.20312 8.64062L4.60845 8.7204C4.62746 8.86213 4.56889 9.00395 4.45427 9.09146L4.81836 9.56836ZM5.20312 8.64062L5.79777 8.56065C5.75919 8.2738 5.61509 8.02647 5.46637 7.81261C5.31422 7.59381 5.10003 7.33281 4.84522 7.0214L4.38086 7.40137L3.9165 7.78133C4.18418 8.10847 4.36225 8.32671 4.48117 8.49772C4.60352 8.67366 4.6093 8.72669 4.60848 8.7206L5.20312 8.64062ZM4.38086 7.40137L4.84522 7.0214C4.70239 6.84685 4.61396 6.73818 4.55215 6.65133C4.49376 6.5693 4.48323 6.53914 4.48073 6.53129L3.90918 6.71387L3.33763 6.89644C3.39308 7.07003 3.48048 7.21508 3.57449 7.34716C3.66506 7.47443 3.7835 7.61879 3.9165 7.78133L4.38086 7.40137ZM3.90918 6.71387L4.48079 6.53147C4.45147 6.43961 4.4564 6.34011 4.49493 6.25111L3.94434 6.0127L3.39374 5.77428C3.24014 6.12901 3.2199 6.52748 3.33757 6.89626L3.90918 6.71387ZM3.94434 6.0127L4.49489 6.25121C4.4982 6.24357 4.51173 6.21453 4.57804 6.13862C4.64823 6.05829 4.74712 5.95883 4.90669 5.79926L4.48242 5.375L4.05816 4.95074C3.90948 5.09941 3.7772 5.23138 3.67434 5.34912C3.56761 5.47129 3.46622 5.60697 3.39378 5.77418L3.94434 6.0127ZM4.48242 5.375L4.90669 5.79926L5.79926 4.90669L5.375 4.48242L4.95074 4.05816L4.05816 4.95074L4.48242 5.375ZM5.375 4.48242L5.79926 4.90669C5.95884 4.74711 6.05829 4.64822 6.13863 4.57804C6.21452 4.51174 6.24356 4.49821 6.2512 4.4949L6.0127 3.94434L5.77419 3.39378C5.60697 3.46622 5.47129 3.5676 5.34911 3.67434C5.23138 3.7772 5.09941 3.90948 4.95074 4.05816L5.375 4.48242ZM6.0127 3.94434L6.25118 4.4949C6.34006 4.4564 6.43951 4.45145 6.53152 4.4808L6.71387 3.90918L6.89622 3.33756C6.52752 3.21994 6.12907 3.24005 5.77421 3.39377L6.0127 3.94434ZM6.71387 3.90918L6.53142 4.48077C6.57731 4.49542 6.6439 4.53563 7.02246 4.84528L7.40234 4.38086L7.78223 3.91644C7.48583 3.674 7.21352 3.43884 6.89632 3.33759L6.71387 3.90918ZM7.40234 4.38086L7.02246 4.84528C7.33377 5.09992 7.59457 5.3139 7.81316 5.46585C8.02694 5.61446 8.27401 5.75829 8.56074 5.79681L8.64062 5.20215L8.72051 4.60749C8.72654 4.6083 8.67368 4.60259 8.49811 4.48053C8.32733 4.36182 8.10934 4.18401 7.78223 3.91644L7.40234 4.38086ZM8.64062 5.20215L8.56082 5.79682C9.13078 5.87331 9.69707 5.63776 10.0453 5.18137L9.56836 4.81738L9.09138 4.45339C9.00393 4.56798 8.86231 4.62652 8.72043 4.60748L8.64062 5.20215ZM9.56836 4.81738L10.0454 5.18126C10.2208 4.95138 10.2938 4.67522 10.3399 4.41894C10.3871 4.15697 10.4202 3.82133 10.4603 3.4211L9.86328 3.36133L9.26627 3.30156C9.22417 3.72199 9.19574 4.00178 9.15891 4.20637C9.12106 4.41664 9.08773 4.45818 9.0913 4.4535L9.56836 4.81738ZM9.86328 3.36133L10.4603 3.4211C10.509 2.93474 10.5277 2.85896 10.5498 2.81613L10.0166 2.54102L9.48339 2.2659C9.33076 2.56172 9.30441 2.92052 9.26627 3.30156L9.86328 3.36133ZM10.0166 2.54102L10.5496 2.81645C10.594 2.73067 10.6678 2.66384 10.7578 2.62824L10.5371 2.07031L10.3164 1.51238C9.95696 1.65457 9.66109 1.92199 9.48356 2.26559L10.0166 2.54102ZM10.5371 2.07031L10.7577 2.62828C10.7654 2.62523 10.7954 2.61429 10.8959 2.60753C11.0023 2.60037 11.1424 2.6 11.3682 2.6V2V1.4C11.158 1.4 10.9712 1.39975 10.8154 1.41024C10.6536 1.42112 10.486 1.44533 10.3165 1.51235L10.5371 2.07031ZM11.3682 2V2.6H12.6318V2V1.4H11.3682V2Z" fill="#33363F"/>
<circle cx="12" cy="12" r="3.5" stroke="#7E869E" stroke-opacity="0.25"/>
</svg>
