<svg width="24" height="24" viewBox="0 0 24 24" fill="none" xmlns="http://www.w3.org/2000/svg">
<path d="M12 1.48456C12.6574 1.48457 13.2293 1.90615 14.3731 2.74921L16.0938 4.01776C16.2738 4.15045 16.3643 4.21683 16.461 4.27264C16.5576 4.32846 16.6604 4.37354 16.8653 4.46307L18.8242 5.31952C20.1264 5.88859 20.7778 6.17301 21.1065 6.74237C21.4352 7.31171 21.3565 8.01774 21.1983 9.42987L20.96 11.5549C20.9351 11.7771 20.9229 11.8885 20.9229 12.0002C20.9229 12.1118 20.9351 12.2232 20.96 12.4455L21.1983 14.5695C21.3565 15.9818 21.4352 16.6886 21.1065 17.258C20.7777 17.8272 20.1262 18.1119 18.8242 18.6808L16.8653 19.5363C16.6603 19.6259 16.5577 19.6709 16.461 19.7267C16.3643 19.7826 16.2739 19.8498 16.0938 19.9826L14.3731 21.2502C13.2292 22.0933 12.6575 22.5158 12 22.5158C11.3426 22.5158 10.7709 22.0933 9.62698 21.2502L7.9053 19.9826C7.72524 19.8499 7.63576 19.7826 7.53909 19.7267C7.44235 19.6709 7.33895 19.626 7.13382 19.5363L5.17581 18.6808C3.8739 18.1119 3.22236 17.8271 2.89358 17.258C2.56486 16.6886 2.64354 15.9818 2.80178 14.5695L3.04007 12.4455C3.06498 12.2232 3.07716 12.1118 3.07717 12.0002C3.07717 11.8885 3.06497 11.7771 3.04007 11.5549L2.80178 9.42987C2.64355 8.01772 2.56487 7.31171 2.89358 6.74237C3.2223 6.17302 3.87366 5.88859 5.17581 5.31952L7.13382 4.46307C7.33895 4.37342 7.44235 4.32849 7.53909 4.27264C7.63564 4.21687 7.72552 4.15027 7.9053 4.01776L9.62698 2.74921C10.7707 1.90616 11.3426 1.48456 12 1.48456ZM12 8.00018C9.79089 8.00018 8.00003 9.79104 8.00003 12.0002C8.00014 14.2092 9.79096 16.0002 12 16.0002C14.2091 16.0002 15.9999 14.2092 16 12.0002C16 9.79105 14.2092 8.0002 12 8.00018Z" fill="#222222"/>
</svg>
