<svg width="24" height="24" viewBox="0 0 24 24" fill="none" xmlns="http://www.w3.org/2000/svg">
<path d="M16.4922 11.7322C16.7418 11.9052 16.9965 11.9607 17.1895 11.9822C17.3573 12.0009 17.5482 11.9998 17.6934 11.9998C17.9785 11.9998 18.121 11.9998 18.2385 12.0286C18.6001 12.1174 18.8823 12.3997 18.9711 12.7612C19 12.8788 19 13.0213 19 13.3064V18.9998C19 19.9425 18.9998 20.4139 18.707 20.7068C18.4141 20.9997 17.9428 20.9998 17 20.9998H7C6.05719 20.9998 5.58586 20.9997 5.29297 20.7068C5.00018 20.4139 5 19.9425 5 18.9998V13.3064C5 13.0213 5 12.8788 5.02886 12.7612C5.11766 12.3997 5.39994 12.1174 5.76149 12.0286C5.879 11.9998 6.02154 11.9998 6.30664 11.9998C6.45176 11.9998 6.64266 12.0009 6.81055 11.9822C7.00345 11.9607 7.25819 11.9052 7.50781 11.7322C7.57029 11.6889 7.6536 11.6874 7.71707 11.7293C7.9495 11.8825 8.19289 11.9421 8.38086 11.9685C8.61723 12.0017 8.89886 11.9998 9.13281 11.9998H10.6172C10.801 11.9998 11.0338 12.0019 11.2344 11.9763C11.6623 11.9218 11.8763 11.8945 11.879 11.8942C12.3226 11.8401 11.6774 11.8401 12.121 11.8942C12.1237 11.8945 12.3377 11.9218 12.7656 11.9763C12.9662 12.0019 13.199 11.9998 13.3828 11.9998H14.8672C15.1011 11.9998 15.3828 12.0017 15.6191 11.9685C15.8068 11.9421 16.0493 11.8824 16.2813 11.7297C16.3452 11.6876 16.4293 11.6886 16.4922 11.7322ZM12 5.45776C12.6409 5.45776 13.2025 5.85897 14.3252 6.66089L17.3252 8.80347C18.1462 9.38992 18.5567 9.68331 18.7783 10.114C19.0053 10.5551 18.5619 10.9998 18.0659 10.9998H17.6934L17.4707 10.9988C17.2763 10.9946 17.1578 10.9776 17.0615 10.9109C16.9332 10.8219 16.8744 10.6648 16.7568 10.3513L16.0967 8.59058C15.8771 8.00516 15.767 7.712 15.6807 7.73315C15.5944 7.75448 15.6334 8.06486 15.7109 8.6853L15.8594 9.87573C15.9248 10.3995 15.9578 10.6617 15.8086 10.8308L15.7471 10.8865C15.5893 10.9999 15.3293 10.9998 14.8672 10.9998H13.3828L13.1045 10.9978C12.8615 10.9919 12.7167 10.9686 12.6104 10.8748C12.4687 10.7496 12.4427 10.5408 12.3906 10.1238L12.1982 8.58765C12.1248 8.00017 12.0883 7.70581 12 7.70581C11.9117 7.70581 11.8752 8.00017 11.8018 8.58765L11.7949 8.63745L11.6094 10.1238C11.5573 10.5408 11.5313 10.7496 11.3896 10.8748L11.333 10.9158C11.192 10.9997 10.9851 10.9998 10.6172 10.9998H9.13281L8.78418 10.9968C8.48009 10.9889 8.30339 10.9577 8.19141 10.8308C8.04224 10.6617 8.07515 10.3995 8.14062 9.87573L8.28906 8.6853C8.36662 8.06486 8.40563 7.75448 8.31934 7.73315C8.23302 7.712 8.12285 8.00516 7.90332 8.59058L7.24316 10.3513C7.12561 10.6648 7.0668 10.8219 6.93848 10.9109L6.8877 10.9402C6.76499 10.9997 6.59971 10.9998 6.30664 10.9998H5.93408C5.43805 10.9998 4.9947 10.5551 5.22168 10.114C5.44333 9.68331 5.85377 9.38992 6.6748 8.80347L9.6748 6.66089C10.7975 5.85897 11.3591 5.45776 12 5.45776Z" fill="#7E869E" fill-opacity="0.25"/>
<path d="M4.62127 4.51493C4.80316 3.78737 4.8941 3.42359 5.16536 3.21179C5.43663 3 5.8116 3 6.56155 3H17.4384C18.1884 3 18.5634 3 18.8346 3.21179C19.1059 3.42359 19.1968 3.78737 19.3787 4.51493L20.8447 10.3787C20.9162 10.6647 20.9519 10.8077 20.8769 10.9039C20.8018 11 20.6544 11 20.3596 11H17.744C17.3856 11 17.2064 11 17.0736 10.9011C16.9407 10.8023 16.8892 10.6306 16.7862 10.2873L16.0975 7.99155C15.8809 7.26969 15.7726 6.90876 15.6835 6.92642C15.5944 6.94407 15.6319 7.31902 15.7069 8.06892L15.89 9.9005C15.9414 10.4142 15.9671 10.671 15.8182 10.8355C15.6694 11 15.4112 11 14.895 11H13.405C12.9749 11 12.7598 11 12.617 10.8707C12.4741 10.7415 12.4527 10.5275 12.41 10.0995L12.199 7.99008C12.1267 7.26668 12.0905 6.90499 12 6.90499C11.9095 6.90499 11.8733 7.26668 11.801 7.99007L11.59 10.0995C11.5473 10.5275 11.5259 10.7415 11.383 10.8707C11.2402 11 11.0251 11 10.595 11H9.10499C8.58875 11 8.33064 11 8.18177 10.8355C8.0329 10.671 8.05858 10.4142 8.10995 9.9005L8.29311 8.06892C8.3681 7.31902 8.40559 6.94407 8.31648 6.92642C8.22737 6.90876 8.11909 7.26969 7.90254 7.99155L7.2138 10.2873C7.11081 10.6306 7.05931 10.8023 6.92645 10.9011C6.79359 11 6.61438 11 6.25597 11H3.64039C3.3456 11 3.19821 11 3.12314 10.9039C3.04807 10.8077 3.08382 10.6647 3.15532 10.3787L4.62127 4.51493Z" fill="#222222"/>
<path d="M12.5 15H11.5C10.3954 15 9.5 15.8954 9.5 17V20.85C9.5 20.9328 9.56716 21 9.65 21H14.35C14.4328 21 14.5 20.9328 14.5 20.85V17C14.5 15.8954 13.6046 15 12.5 15Z" fill="#222222"/>
</svg>
