<svg width="24" height="24" viewBox="0 0 24 24" fill="none" xmlns="http://www.w3.org/2000/svg">
<path d="M3 7H4.77985C6.93172 7 8.00766 7 8.87921 7.45631C9.25172 7.65134 9.59114 7.90388 9.88499 8.20464C10.5725 8.90832 10.8817 9.93888 11.5 12C12.1183 14.0611 12.4275 15.0917 13.115 15.7954C13.4089 16.0961 13.7483 16.3487 14.1208 16.5437C14.9923 17 16.0683 17 18.2202 17H21M18 20L21 17L18 14" stroke="#33363F" stroke-width="2"/>
<path d="M9.62793 14.4052C9.73735 14.7368 9.84537 15.0479 9.95898 15.3329C10.1216 15.7408 10.3121 16.147 10.5527 16.5399C10.1963 16.8952 9.78883 17.196 9.34277 17.4296C8.7464 17.7417 8.11525 17.876 7.39746 17.9393C6.69663 18.0011 5.83848 17.9999 4.78027 17.9999H3V15.9999H4.78027C5.87338 15.9999 6.62889 15.9994 7.22168 15.9471C7.7973 15.8964 8.14001 15.802 8.41504 15.6581C8.69441 15.5118 8.94955 15.3221 9.16992 15.0966C9.33125 14.9314 9.476 14.7222 9.62793 14.4052ZM22.4141 6.99988L18.707 10.7069L17.293 9.29285L18.5859 7.99988H18.2197C17.1266 7.99988 16.3711 8.00036 15.7783 8.05261C15.2027 8.10336 14.86 8.19778 14.585 8.34167C14.3056 8.48794 14.0505 8.67765 13.8301 8.9032C13.6688 9.06825 13.5229 9.27686 13.3711 9.59363C13.2618 9.26247 13.1545 8.95147 13.041 8.66687C12.8782 8.25852 12.6873 7.8522 12.4463 7.45886C12.8027 7.10361 13.2112 6.80372 13.6572 6.57019C14.2536 6.25802 14.8848 6.12371 15.6025 6.06042C16.3034 5.99864 17.1615 5.99988 18.2197 5.99988H18.5859L17.293 4.70691L18.707 3.29285L22.4141 6.99988Z" fill="#33363F"/>
</svg>
