<svg width="24" height="24" viewBox="0 0 24 24" fill="none" xmlns="http://www.w3.org/2000/svg">
<path d="M3 7H4.77985C6.93172 7 8.00766 7 8.87921 7.45631C9.25172 7.65134 9.59114 7.90388 9.88499 8.20464C10.5725 8.90832 10.8817 9.93888 11.5 12C12.1183 14.0611 12.4275 15.0917 13.115 15.7954C13.4089 16.0961 13.7483 16.3487 14.1208 16.5437C14.9923 17 16.0683 17 18.2202 17H21M18 20L21 17L18 14" stroke="#222222"/>
<path d="M9.95898 15.333C10.0593 15.5847 10.1714 15.8352 10.2979 16.083C10.279 16.1032 10.2616 16.1247 10.2422 16.1445C9.91171 16.4828 9.53024 16.767 9.11133 16.9863C8.59522 17.2565 8.03592 17.3812 7.35352 17.4414C6.6797 17.5008 5.84721 17.5 4.78027 17.5H3V16.5H4.78027C5.86466 16.5 6.64583 16.5 7.26562 16.4453C7.87705 16.3914 8.29202 16.2867 8.64746 16.1006C8.97325 15.93 9.27032 15.7093 9.52734 15.4463C9.64402 15.3269 9.74821 15.1923 9.84863 15.0361C9.88609 15.1375 9.92081 15.2373 9.95898 15.333ZM21.707 7L18.3535 10.3535L17.6465 9.64648L19.793 7.5H18.2197C17.1353 7.5 16.3542 7.50005 15.7344 7.55469C15.123 7.6086 14.708 7.71332 14.3525 7.89941C14.0268 8.07001 13.7297 8.29069 13.4727 8.55371C13.356 8.67307 13.2508 8.80686 13.1504 8.96289C13.1131 8.86196 13.079 8.76236 13.041 8.66699C12.9405 8.41489 12.8279 8.16423 12.7012 7.91602C12.72 7.89583 12.7385 7.87528 12.7578 7.85547C13.0883 7.51725 13.4698 7.23304 13.8887 7.01367C14.4048 6.74346 14.9641 6.61876 15.6465 6.55859C16.3203 6.49919 17.1528 6.5 18.2197 6.5H19.793L17.6465 4.35352L18.3535 3.64648L21.707 7Z" fill="#222222"/>
</svg>
