<svg width="24" height="24" viewBox="0 0 24 24" fill="none" xmlns="http://www.w3.org/2000/svg">
<path d="M9.5 15C9.5 14.6717 9.56466 14.3466 9.6903 14.0433C9.81594 13.74 10.0001 13.4644 10.2322 13.2322C10.4644 13.0001 10.74 12.8159 11.0433 12.6903C11.3466 12.5647 11.6717 12.5 12 12.5C12.3283 12.5 12.6534 12.5647 12.9567 12.6903C13.26 12.8159 13.5356 13.0001 13.7678 13.2322C13.9999 13.4644 14.1841 13.74 14.3097 14.0433C14.4353 14.3466 14.5 14.6717 14.5 15" stroke="#222222" stroke-linejoin="round"/>
<path d="M13.5 12.5L15.5 9.5" stroke="#222222" stroke-linecap="round" stroke-linejoin="round"/>
<path d="M12 5C13.1819 5 14.3524 5.23325 15.4443 5.68555C16.5361 6.13784 17.5286 6.8001 18.3643 7.63574C19.1999 8.47139 19.8622 9.46386 20.3145 10.5557C20.7667 11.6476 21 12.8181 21 14V14.5C21 15.3284 20.3284 16 19.5 16H4.5C3.67157 16 3 15.3284 3 14.5V14C3 12.8181 3.23325 11.6476 3.68555 10.5557C4.13784 9.46386 4.8001 8.47139 5.63574 7.63574C6.47139 6.8001 7.46386 6.13784 8.55566 5.68555C9.64759 5.23326 10.8181 5 12 5ZM12 6C10.9494 6 9.90908 6.20734 8.93848 6.60938C7.96795 7.01141 7.08559 7.59995 6.34277 8.34277C5.59995 9.08559 5.01141 9.96795 4.60938 10.9385C4.20734 11.9091 4 12.9494 4 14V14.5C4 14.7761 4.22386 15 4.5 15H19.5C19.7761 15 20 14.7761 20 14.5V14C20 12.9494 19.7927 11.9091 19.3906 10.9385C18.9886 9.96795 18.4 9.08559 17.6572 8.34277C16.9144 7.59995 16.0321 7.01141 15.0615 6.60938C14.0909 6.20734 13.0506 6 12 6Z" fill="#7E869E" fill-opacity="0.25"/>
<path d="M16.5 15.5L7.5 15.5" stroke="#222222" stroke-linecap="round" stroke-linejoin="round"/>
</svg>
