<svg width="24" height="24" viewBox="0 0 24 24" fill="none" xmlns="http://www.w3.org/2000/svg">
<path d="M21 14V15C21 16.1046 20.1046 17 19 17H5C3.89543 17 3 16.1046 3 15V14C3 9.02944 7.02944 5 12 5C16.9706 5 21 9.02944 21 14Z" fill="#7E869E" fill-opacity="0.25"/>
<path d="M14.168 9.44536C14.4743 8.9859 15.0952 8.86172 15.5547 9.16801C16.0142 9.47435 16.1383 10.0952 15.832 10.5547L14.248 12.9297C14.7137 13.4381 15 14.1137 15 14.8575C14.9999 14.9362 14.9361 14.9999 14.8574 15H9.14258C9.06387 14.9999 9.00009 14.9362 9 14.8575C9 13.2795 10.2795 12 11.8574 12H12.1426C12.2474 12 12.3512 12.0056 12.4531 12.0166L14.168 9.44536Z" fill="#222222"/>
</svg>
