<svg width="24" height="24" viewBox="0 0 24 24" fill="none" xmlns="http://www.w3.org/2000/svg">
<path d="M11.9999 3C13.7799 3.00001 15.52 3.52775 16.9999 4.5166C18.4799 5.50547 19.6332 6.91128 20.3144 8.55566C20.9956 10.2002 21.1744 12.01 20.8271 13.7559C20.4896 15.4524 19.6707 17.0149 18.4697 18.2568C18.4121 18.3164 18.3163 18.3164 18.2578 18.2578L14.2275 14.2275C14.1689 14.169 14.0741 14.1691 14.0126 14.2246C13.4804 14.7064 12.7744 15 11.9999 15C11.2255 15 10.5195 14.7064 9.98725 14.2246C9.92583 14.1691 9.83097 14.169 9.77241 14.2275L5.74213 18.2578C5.68355 18.3164 5.58781 18.3164 5.53022 18.2568C4.32915 17.0149 3.51027 15.4524 3.1728 13.7559C2.82553 12.01 3.0043 10.2002 3.68549 8.55566C4.3667 6.91128 5.52 5.50547 6.99994 4.5166C8.47994 3.52776 10.22 3 11.9999 3ZM17.8574 8.48535C17.5732 8.01188 16.9588 7.85846 16.4853 8.14258L11.4853 11.1426C11.0118 11.4268 10.8584 12.0411 11.1425 12.5146C11.4267 12.9881 12.0411 13.1415 12.5146 12.8574L17.5146 9.85742C17.9881 9.57324 18.1415 8.95888 17.8574 8.48535Z" fill="#222222"/>
</svg>
