<svg width="24" height="24" viewBox="0 0 24 24" fill="none" xmlns="http://www.w3.org/2000/svg">
<path d="M11.9999 3C13.7799 3 15.5199 3.52774 16.9999 4.5166C18.4799 5.50547 19.6332 6.91127 20.3144 8.55566C20.9956 10.2002 21.1744 12.01 20.8271 13.7559C20.4896 15.4526 19.6706 17.0153 18.4694 18.2573C18.4118 18.3169 18.3167 18.3168 18.2581 18.2582L14.2271 14.2272C14.1685 14.1686 14.0738 14.1689 14.0124 14.2245C13.4802 14.7063 12.7744 15 11.9999 15C11.2255 15 10.5197 14.7063 9.98751 14.2245C9.92609 14.1689 9.83136 14.1686 9.77278 14.2272L5.74175 18.2582C5.68317 18.3168 5.58809 18.3169 5.5305 18.2573C4.32925 17.0153 3.51031 15.4526 3.1728 13.7559C2.82553 12.01 3.0043 10.2002 3.68549 8.55566C4.3667 6.91127 5.52 5.50547 6.99994 4.5166C8.47995 3.52774 10.22 3 11.9999 3Z" fill="#7E869E" fill-opacity="0.25"/>
<path d="M12 12L17 9" stroke="#222222" stroke-width="2" stroke-linecap="round" stroke-linejoin="round"/>
</svg>
