<svg width="24" height="24" viewBox="0 0 24 24" fill="none" xmlns="http://www.w3.org/2000/svg">
<path d="M12 5C16.9706 5 21 9.02944 21 14V15C21 16.1046 20.1046 17 19 17H5C3.89543 17 3 16.1046 3 15V14C3 9.02944 7.02944 5 12 5ZM15.5547 9.16797C15.0952 8.8617 14.4743 8.98589 14.168 9.44531L12.4531 12.0166C12.3512 12.0056 12.2474 12 12.1426 12H11.8574C10.2795 12 9.00002 13.2795 9 14.8574C9.00009 14.9361 9.06387 14.9998 9.14258 15H14.8574C14.9361 14.9998 14.9999 14.9361 15 14.8574C15 14.1137 14.7137 13.438 14.248 12.9297L15.832 10.5547C16.1383 10.0952 16.0142 9.4743 15.5547 9.16797Z" fill="#222222"/>
</svg>
