<svg width="24" height="24" viewBox="0 0 24 24" fill="none" xmlns="http://www.w3.org/2000/svg">
<path d="M11.5146 4.01538C10.946 4.65499 10.5115 5.41662 10.2568 6.25659C7.79325 7.00333 6.00008 9.29234 6 11.9998C6 15.3135 8.68629 17.9998 12 17.9998C14.7078 17.9998 16.9957 16.206 17.7422 13.7419C18.5824 13.4873 19.3436 13.0529 19.9834 12.4841C19.733 16.6769 16.2557 19.9998 12 19.9998C7.58172 19.9998 4 16.418 4 11.9998C4.00009 7.74455 7.32246 4.26629 11.5146 4.01538ZM16 5.99976C17.1045 5.99976 17.9999 6.89527 18 7.99976C18 8.55175 17.7757 9.05096 17.4141 9.41284C16.8226 8.1774 15.8216 7.17583 14.5859 6.58472C14.9478 6.22313 15.448 5.99976 16 5.99976Z" fill="#33363F"/>
<circle cx="16" cy="8" r="4" fill="#33363F"/>
</svg>
