<svg width="24" height="24" viewBox="0 0 24 24" fill="none" xmlns="http://www.w3.org/2000/svg">
<circle cx="17" cy="8" r="4" fill="#33363F"/>
<path d="M19 16C19.5523 16 20 16.4477 20 17C20 17.5523 19.5523 18 19 18H5C4.44772 18 4 17.5523 4 17C4 16.4477 4.44772 16 5 16H19ZM11.8047 11C12.2692 11.8027 12.9133 12.4881 13.6836 13H5C4.44772 13 4 12.5523 4 12C4 11.4477 4.44772 11 5 11H11.8047ZM11.3428 6C11.1216 6.62568 11 7.29857 11 8H5C4.44772 8 4 7.55228 4 7C4 6.44772 4.44772 6 5 6H11.3428ZM17 6C18.1046 6 19 6.89543 19 8H15C15 6.89543 15.8954 6 17 6Z" fill="#33363F"/>
</svg>
