<svg width="24" height="24" viewBox="0 0 24 24" fill="none" xmlns="http://www.w3.org/2000/svg">
<path d="M12 4.5C12.5944 4.5 13.1721 4.57147 13.7266 4.70215C13.5285 4.98379 13.3649 5.29153 13.2441 5.62012C12.8414 5.54203 12.4256 5.5 12 5.5C8.41015 5.5 5.5 8.41015 5.5 12C5.5 15.5899 8.41015 18.5 12 18.5C15.5899 18.5 18.5 15.5899 18.5 12C18.5 11.574 18.4571 11.158 18.3789 10.7549C18.7076 10.6341 19.0151 10.4706 19.2969 10.2725C19.4277 10.8273 19.5 11.4052 19.5 12C19.5 16.1421 16.1421 19.5 12 19.5C7.85786 19.5 4.5 16.1421 4.5 12C4.5 7.85786 7.85786 4.5 12 4.5ZM15.7031 5.47852C16.8771 6.1466 17.8522 7.12201 18.5205 8.2959C18.3018 8.55232 18.0198 8.75103 17.6982 8.87109C17.1031 7.78964 16.2095 6.89566 15.1279 6.30078C15.248 5.97944 15.4469 5.69714 15.7031 5.47852Z" fill="#222222"/>
<circle cx="17" cy="7" r="2" fill="#222222"/>
</svg>
