<svg width="24" height="24" viewBox="0 0 24 24" fill="none" xmlns="http://www.w3.org/2000/svg">
<path d="M6 12H18C19.6569 12 21 10.6569 21 9C21 7.34315 19.6569 6 18 6C17.36 6 16.826 5.53873 16.5639 4.95481C15.7822 3.21307 14.0328 2 12 2C9.96722 2 8.21776 3.21307 7.43606 4.95481C7.17399 5.53873 6.64004 6 6 6C4.34315 6 3 7.34315 3 9C3 10.6569 4.34315 12 6 12Z" fill="#222222"/>
<path d="M11.9997 14.7002C11.9997 14.9357 11.9998 15.0537 12.0729 15.127C12.1462 15.2002 12.2647 15.2002 12.5007 15.2002C14.0544 15.2002 14.8317 15.1999 15.1198 15.7031C15.4078 16.2066 15.0142 16.876 14.2272 18.2139L12.9313 20.417C12.5565 21.0543 12.3686 21.3734 12.1843 21.3232C12.0001 21.273 11.9997 20.9032 11.9997 20.1641V18.2998C11.9997 18.0642 11.9997 17.9463 11.9265 17.873C11.8532 17.8001 11.7353 17.7998 11.4997 17.7998C9.9459 17.7998 9.16871 17.8 8.88056 17.2969C8.59258 16.7934 8.98611 16.1241 9.77314 14.7861L10.236 14H11.9997V14.7002Z" fill="#222222"/>
</svg>
