<svg width="24" height="24" viewBox="0 0 24 24" fill="none" xmlns="http://www.w3.org/2000/svg">
<path d="M11.9316 9.68164L12.0781 9.71191L12.2197 9.76074C12.5323 9.89067 12.7213 10.1325 12.8213 10.3379C12.9202 10.5413 12.9539 10.7464 12.9697 10.8779C13.0018 11.1438 13 11.496 13 11.8359V13.2031C13.5441 13.2055 14.0345 13.2146 14.4316 13.2734C14.9547 13.351 15.6117 13.5505 15.9873 14.207C16.3627 14.8633 16.2021 15.5303 16.0039 16.0205C15.8087 16.5032 15.4652 17.0809 15.0889 17.7207L13.793 19.9248C13.6207 20.2177 13.4436 20.5215 13.2812 20.7344C13.2009 20.8397 13.0676 20.9997 12.8789 21.125C12.6615 21.2694 12.32 21.3964 11.9219 21.2881C11.5236 21.1796 11.2929 20.8968 11.1787 20.6621C11.0798 20.4587 11.0461 20.2536 11.0303 20.1221C10.9982 19.8562 11 19.504 11 19.1641V17.7959C10.4559 17.7935 9.96547 17.7854 9.56836 17.7266C9.04525 17.649 8.38832 17.4495 8.0127 16.793C7.63735 16.1367 7.79785 15.4697 7.99609 14.9795C8.19133 14.4968 8.5348 13.9191 8.91113 13.2793L10.207 11.0752C10.3793 10.7823 10.5564 10.4785 10.7188 10.2656C10.7991 10.1603 10.9324 10.0003 11.1211 9.875C11.3113 9.74869 11.5965 9.63529 11.9316 9.68164Z" stroke="#33363F" stroke-width="2"/>
<path d="M12 2C14.4407 2 16.5385 3.45744 17.4756 5.54492C17.6306 5.89003 17.8703 6 18 6C20.2091 6 22 7.79086 22 10C22 11.8662 20.7218 13.4333 18.9932 13.875C18.9895 13.7716 18.9849 13.6869 18.9746 13.6084C18.8927 12.9864 18.6205 12.4271 18.2207 11.9863C19.2213 11.8764 20 11.0299 20 10C20 8.89543 19.1046 8 18 8C16.849 8 16.0199 7.18735 15.6504 6.36426C15.024 4.9689 13.6244 4 12 4C10.3756 4 8.97598 4.9689 8.34961 6.36426C7.98005 7.18735 7.15097 8 6 8C4.89543 8 4 8.89543 4 10C4 11.0296 4.77815 11.876 5.77832 11.9863C5.37873 12.4271 5.10725 12.9866 5.02539 13.6084C5.01505 13.6869 5.00955 13.7716 5.00586 13.875C3.27772 13.433 2 11.8659 2 10C2 7.79086 3.79086 6 6 6C6.12966 6 6.36942 5.89003 6.52441 5.54492C7.46148 3.45744 9.55931 2 12 2Z" fill="#33363F"/>
</svg>
