<svg width="24" height="24" viewBox="0 0 24 24" fill="none" xmlns="http://www.w3.org/2000/svg">
<path d="M11.8789 10.0781L11.9736 10.0977L12.0654 10.1289C12.2679 10.213 12.3929 10.3709 12.4619 10.5127C12.5316 10.656 12.5581 10.8087 12.5723 10.9258C12.6007 11.1617 12.5996 11.4842 12.5996 11.8359V13.5996C13.3129 13.5996 13.9151 13.601 14.373 13.6689C14.8567 13.7407 15.3577 13.9107 15.6406 14.4053C15.9235 14.8998 15.8161 15.418 15.6328 15.8711C15.4513 16.3197 15.1273 16.8671 14.7441 17.5186L13.4482 19.7217C13.2698 20.025 13.1071 20.3032 12.9629 20.4922C12.8914 20.5859 12.7909 20.7038 12.6582 20.792C12.508 20.8917 12.2838 20.9724 12.0264 20.9023C11.7691 20.8322 11.617 20.6494 11.5381 20.4873C11.4684 20.344 11.4419 20.1913 11.4277 20.0742C11.3993 19.8383 11.4004 19.5158 11.4004 19.1641V17.3994C10.6871 17.3994 10.0849 17.399 9.62695 17.3311C9.14335 17.2593 8.64234 17.0893 8.35938 16.5947C8.07651 16.1002 8.18389 15.582 8.36719 15.1289C8.54866 14.6803 8.87266 14.1329 9.25586 13.4814L10.5518 11.2783C10.7302 10.975 10.8929 10.6968 11.0371 10.5078C11.1086 10.4141 11.2091 10.2962 11.3418 10.208C11.4733 10.1207 11.6614 10.0477 11.8789 10.0781Z" fill="#7E869E" fill-opacity="0.25" stroke="#222222" stroke-width="1.2"/>
<path d="M11.9995 2.40002C14.2768 2.40002 16.2348 3.75981 17.1099 5.70862C17.3077 6.14911 17.6657 6.39983 17.9995 6.40002C19.9876 6.40002 21.5989 8.01159 21.5991 9.99963C21.5991 11.6589 20.4768 13.0546 18.9497 13.4713C18.8762 13.0605 18.7207 12.6804 18.4995 12.3463C19.5851 12.1162 20.3999 11.1537 20.3999 9.99963C20.3997 8.67433 19.3249 7.59924 17.9995 7.59924C17.053 7.59906 16.3417 6.92727 16.0151 6.19983C15.3265 4.6663 13.787 3.59924 11.9995 3.59924C10.2121 3.5994 8.67239 4.66625 7.98389 6.19983C7.65726 6.92737 6.94625 7.59924 5.99951 7.59924C4.67434 7.59945 3.59933 8.67446 3.59912 9.99963C3.59912 11.1534 4.41431 12.1159 5.49951 12.3463C5.27842 12.6803 5.12275 13.0606 5.04932 13.4713C3.52264 13.0543 2.3999 11.6587 2.3999 9.99963C2.40011 8.01172 4.0116 6.40024 5.99951 6.40002C6.3334 6.40002 6.69124 6.14928 6.88916 5.70862C7.76408 3.75977 9.72232 2.40018 11.9995 2.40002Z" fill="#222222"/>
</svg>
