<svg width="24" height="24" viewBox="0 0 24 24" fill="none" xmlns="http://www.w3.org/2000/svg">
<circle cx="12" cy="12" r="3" fill="#222222"/>
<path d="M12 5.00037C13.7177 5.00037 15.2898 5.62021 16.5078 6.64685C16.5139 6.64024 16.519 6.63275 16.5254 6.62634L17.9405 5.2113C18.1748 4.97746 18.5539 4.97728 18.7881 5.2113C19.0224 5.44562 19.0224 5.82562 18.7881 6.05994L17.3741 7.474C17.3677 7.48038 17.3592 7.48457 17.3526 7.4906C18.38 8.70882 19 10.2819 19 12.0004C19 13.7182 18.3795 15.2901 17.3526 16.5082C17.3593 16.5143 17.3676 16.5193 17.3741 16.5258L18.7881 17.9398C19.0222 18.1741 19.0223 18.5532 18.7881 18.7875C18.5538 19.0217 18.1748 19.0216 17.9405 18.7875L16.5254 17.3734C16.5192 17.3672 16.5147 17.3593 16.5088 17.3529C15.2907 18.3801 13.7182 19.0004 12 19.0004C10.2816 19.0004 8.70849 18.3804 7.49026 17.3529C7.4845 17.3592 7.48072 17.3673 7.47464 17.3734L6.06058 18.7875C5.82626 19.0218 5.44626 19.0218 5.21194 18.7875C4.97784 18.5532 4.97786 18.1741 5.21194 17.9398L6.62601 16.5258C6.63229 16.5195 6.64002 16.5141 6.64651 16.5082C5.61987 15.2902 5.00003 13.718 5.00003 12.0004C5.00003 10.2822 5.6193 8.70875 6.64651 7.4906C6.64012 7.48473 6.63221 7.4802 6.62601 7.474L5.21194 6.05994C4.97763 5.82562 4.97763 5.44562 5.21194 5.2113C5.44612 4.97726 5.82529 4.97748 6.0596 5.2113L7.47464 6.62634C7.48088 6.63259 7.48534 6.6404 7.49124 6.64685C8.70932 5.61992 10.2821 5.00037 12 5.00037ZM12 6.00037C8.68632 6.00037 6.00003 8.68666 6.00003 12.0004C6.00003 15.3141 8.68632 18.0004 12 18.0004C15.3137 18.0004 18 15.3141 18 12.0004C18 8.68666 15.3137 6.00037 12 6.00037Z" fill="#7E869E" fill-opacity="0.25"/>
</svg>
