<svg width="24" height="24" viewBox="0 0 24 24" fill="none" xmlns="http://www.w3.org/2000/svg">
<path fill-rule="evenodd" clip-rule="evenodd" d="M15 6C15 4.34315 13.6569 3 12 3C10.3431 3 9 4.34315 9 6V11.5005C9 11.815 8.84762 12.1065 8.61615 12.3194C7.62267 13.2331 7 14.5438 7 16C7 18.7614 9.23858 21 12 21C14.7614 21 17 18.7614 17 16C17 14.5438 16.3773 13.2331 15.3838 12.3194C15.1524 12.1065 15 11.815 15 11.5005V6ZM12 18C13.1046 18 14 17.1046 14 16C14 14.8954 13.1046 14 12 14C10.8954 14 10 14.8954 10 16C10 17.1046 10.8954 18 12 18Z" fill="#7E869E" fill-opacity="0.25"/>
<path d="M8.61615 12.3194L8.20997 11.8778V11.8778L8.61615 12.3194ZM15.3838 12.3194L14.9777 12.761H14.9777L15.3838 12.3194ZM12 3V3.6C13.3255 3.6 14.4 4.67452 14.4 6H15H15.6C15.6 4.01178 13.9882 2.4 12 2.4V3ZM9 6H9.6C9.6 4.67452 10.6745 3.6 12 3.6V3V2.4C10.0118 2.4 8.4 4.01178 8.4 6H9ZM9 11.5005H9.6V6H9H8.4V11.5005H9ZM8.61615 12.3194L9.02233 12.761C9.35302 12.4568 9.6 12.0132 9.6 11.5005H9H8.4C8.4 11.6167 8.34222 11.7561 8.20997 11.8778L8.61615 12.3194ZM7 16H7.6C7.6 14.7186 8.14715 13.5659 9.02233 12.761L8.61615 12.3194L8.20997 11.8778C7.0982 12.9003 6.4 14.369 6.4 16H7ZM12 21V20.4C9.56995 20.4 7.6 18.4301 7.6 16H7H6.4C6.4 19.0928 8.90721 21.6 12 21.6V21ZM17 16H16.4C16.4 18.4301 14.4301 20.4 12 20.4V21V21.6C15.0928 21.6 17.6 19.0928 17.6 16H17ZM15.3838 12.3194L14.9777 12.761C15.8529 13.5659 16.4 14.7186 16.4 16H17H17.6C17.6 14.369 16.9018 12.9003 15.79 11.8778L15.3838 12.3194ZM15 11.5005H14.4C14.4 12.0132 14.647 12.4568 14.9777 12.761L15.3838 12.3194L15.79 11.8778C15.6578 11.7561 15.6 11.6167 15.6 11.5005H15ZM15 6H14.4V11.5005H15H15.6V6H15ZM14 16H13.4C13.4 16.7732 12.7732 17.4 12 17.4V18V18.6C13.4359 18.6 14.6 17.4359 14.6 16H14ZM12 14V14.6C12.7732 14.6 13.4 15.2268 13.4 16H14H14.6C14.6 14.5641 13.4359 13.4 12 13.4V14ZM10 16H10.6C10.6 15.2268 11.2268 14.6 12 14.6V14V13.4C10.5641 13.4 9.4 14.5641 9.4 16H10ZM12 18V17.4C11.2268 17.4 10.6 16.7732 10.6 16H10H9.4C9.4 17.4359 10.5641 18.6 12 18.6V18Z" fill="#222222"/>
</svg>
