<svg width="24" height="24" viewBox="0 0 24 24" fill="none" xmlns="http://www.w3.org/2000/svg">
<path d="M15 6H15.5V6H15ZM8.61615 12.3194L8.95463 12.6874L8.61615 12.3194ZM15.3838 12.3194L15.7223 11.9514L15.3838 12.3194ZM12 3V3.5C13.3807 3.5 14.5 4.61929 14.5 6H15H15.5C15.5 4.067 13.933 2.5 12 2.5V3ZM15 6H14.5V11.5005H15H15.5V6H15ZM15.3838 12.3194L15.0454 12.6874C15.9403 13.5105 16.5 14.6895 16.5 16H17H17.5C17.5 14.3981 16.8144 12.9558 15.7223 11.9514L15.3838 12.3194ZM17 16H16.5C16.5 18.4853 14.4853 20.5 12 20.5V21V21.5C15.0376 21.5 17.5 19.0376 17.5 16H17ZM12 21V20.5C9.51472 20.5 7.5 18.4853 7.5 16H7H6.5C6.5 19.0376 8.96243 21.5 12 21.5V21ZM7 16H7.5C7.5 14.6895 8.05973 13.5105 8.95463 12.6874L8.61615 12.3194L8.27767 11.9514C7.18561 12.9558 6.5 14.3981 6.5 16H7ZM9 11.5005H9.5V6H9H8.5V11.5005H9ZM9 6H9.5C9.5 4.61929 10.6193 3.5 12 3.5V3V2.5C10.067 2.5 8.5 4.067 8.5 6H9ZM8.61615 12.3194L8.95463 12.6874C9.26879 12.3984 9.5 11.9802 9.5 11.5005H9H8.5C8.5 11.6498 8.42645 11.8145 8.27767 11.9514L8.61615 12.3194ZM15 11.5005H14.5C14.5 11.9802 14.7312 12.3984 15.0454 12.6874L15.3838 12.3194L15.7223 11.9514C15.5735 11.8145 15.5 11.6498 15.5 11.5005H15Z" fill="#222222"/>
<circle cx="12" cy="16" r="2.5" stroke="#222222"/>
</svg>
