<svg width="24" height="24" viewBox="0 0 24 24" fill="none" xmlns="http://www.w3.org/2000/svg">
<path d="M13.5 13.8359H13C13 14.029 13.1111 14.2048 13.2855 14.2876L13.5 13.8359ZM10.5 13.8359L10.7145 14.2876C10.8889 14.2048 11 14.029 11 13.8359H10.5ZM12 4.5V5C12.5523 5 13 5.44772 13 6H13.5H14C14 4.89543 13.1046 4 12 4V4.5ZM13.5 6H13V13.8359H13.5H14V6H13.5ZM13.5 13.8359L13.2855 14.2876C14.3002 14.7695 15 15.8037 15 17H15.5H16C16 15.4036 15.0651 14.0257 13.7145 13.3843L13.5 13.8359ZM15.5 17H15C15 18.6569 13.6569 20 12 20V20.5V21C14.2091 21 16 19.2091 16 17H15.5ZM12 20.5V20C10.3431 20 9 18.6569 9 17H8.5H8C8 19.2091 9.79086 21 12 21V20.5ZM8.5 17H9C9 15.8037 9.69982 14.7695 10.7145 14.2876L10.5 13.8359L10.2855 13.3843C8.93487 14.0257 8 15.4036 8 17H8.5ZM10.5 13.8359H11V6H10.5H10V13.8359H10.5ZM10.5 6H11C11 5.44772 11.4477 5 12 5V4.5V4C10.8954 4 10 4.89543 10 6H10.5Z" fill="#222222"/>
<path d="M12 17.5V15.5" stroke="#222222" stroke-linecap="round" stroke-linejoin="round"/>
<path d="M15.5 12.5H17.5" stroke="#222222" stroke-linecap="round" stroke-linejoin="round"/>
<path d="M15.5 10.5H17.5" stroke="#222222" stroke-linecap="round" stroke-linejoin="round"/>
<path d="M15.5 8.5H17.5" stroke="#222222" stroke-linecap="round" stroke-linejoin="round"/>
<path d="M15.5 6.5H19.5" stroke="#222222" stroke-linecap="round" stroke-linejoin="round"/>
</svg>
