<svg width="24" height="24" viewBox="0 0 24 24" fill="none" xmlns="http://www.w3.org/2000/svg">
<path d="M5.91504 19.4424L5.81749 19.9328L5.81757 19.9328L5.91504 19.4424ZM3.55762 17.085L3.06721 17.1824L3.06722 17.1825L3.55762 17.085ZM3.5 8.75H3V8.75H3.5ZM3.55762 6.91504L3.06722 6.81749L3.06721 6.81757L3.55762 6.91504ZM5.91504 4.55762L5.81757 4.06721L5.81749 4.06722L5.91504 4.55762ZM12.8505 18.0111L12.7764 17.5166L12.8505 18.0111ZM12.8505 15.9889L12.7764 16.4834L12.8505 15.9889ZM12.8505 10.9889L12.9246 10.4944L12.8505 10.9889ZM12.8505 8.0111L12.7764 7.51662L12.8505 8.0111ZM12.8505 13.0111L12.7764 12.5166L12.8505 13.0111ZM12.8505 5.9889L12.9246 5.49443L12.8505 5.9889ZM12 5H11.5C11.5 5.75268 12.0539 6.37509 12.7764 6.48338L12.8505 5.9889L12.9246 5.49443C12.6844 5.45842 12.5 5.25029 12.5 5H12ZM13 6.15H12.5V7.85H13H13.5V6.15H13ZM12.8505 8.0111L12.7764 7.51662C12.0539 7.62491 11.5 8.24732 11.5 9H12H12.5C12.5 8.74971 12.6844 8.54158 12.9246 8.50557L12.8505 8.0111ZM12 9H11.5V10H12H12.5V9H12ZM12 10H11.5C11.5 10.7527 12.0539 11.3751 12.7764 11.4834L12.8505 10.9889L12.9246 10.4944C12.6844 10.4584 12.5 10.2503 12.5 10H12ZM13 11.15H12.5V12.85H13H13.5V11.15H13ZM12.8505 13.0111L12.7764 12.5166C12.0539 12.6249 11.5 13.2473 11.5 14H12H12.5C12.5 13.7497 12.6844 13.5416 12.9246 13.5056L12.8505 13.0111ZM12 14H11.5V15H12H12.5V14H12ZM12 15H11.5C11.5 15.7527 12.0539 16.3751 12.7764 16.4834L12.8505 15.9889L12.9246 15.4944C12.6844 15.4584 12.5 15.2503 12.5 15H12ZM13 16.15H12.5V17.85H13H13.5V16.15H13ZM12.8505 18.0111L12.7764 17.5166C12.0539 17.6249 11.5 18.2473 11.5 19H12H12.5C12.5 18.7497 12.6844 18.5416 12.9246 18.5056L12.8505 18.0111ZM12 19H11.5V19.35H12H12.5V19H12ZM11.85 19.5V19H7.25V19.5V20H11.85V19.5ZM7.25 19.5V19C6.52936 19 6.24182 18.9976 6.01251 18.952L5.91504 19.4424L5.81757 19.9328C6.16773 20.0024 6.57716 20 7.25 20V19.5ZM5.91504 19.4424L6.01258 18.952C5.02086 18.7547 4.24528 17.9791 4.04801 16.9874L3.55762 17.085L3.06722 17.1825C3.3434 18.5709 4.42908 19.6566 5.81749 19.9328L5.91504 19.4424ZM3.55762 17.085L4.04803 16.9875C4.00245 16.7582 4 16.4706 4 15.75H3.5H3C3 16.4228 2.99762 16.8323 3.06721 17.1824L3.55762 17.085ZM3.5 15.75H4V15.25H3.5H3V15.75H3.5ZM3.5 15.25H4C4 15.1119 4.11193 15 4.25 15V14.5V14C3.55964 14 3 14.5596 3 15.25H3.5ZM4.25 14.5V15C5.76878 15 7 13.7688 7 12.25H6.5H6C6 13.2165 5.2165 14 4.25 14V14.5ZM6.5 12.25H7V11.75H6.5H6V12.25H6.5ZM6.5 11.75H7C7 10.2312 5.76878 9 4.25 9V9.5V10C5.2165 10 6 10.7835 6 11.75H6.5ZM4.25 9.5V9C4.11193 9 4 8.88807 4 8.75H3.5H3C3 9.44036 3.55964 10 4.25 10V9.5ZM3.5 8.75H4V8.25H3.5H3V8.75H3.5ZM3.5 8.25H4C4 7.52936 4.00245 7.24182 4.04803 7.01251L3.55762 6.91504L3.06721 6.81757C2.99762 7.16773 3 7.57716 3 8.25H3.5ZM3.55762 6.91504L4.04801 7.01258C4.24528 6.02086 5.02086 5.24528 6.01258 5.04801L5.91504 4.55762L5.81749 4.06722C4.42908 4.3434 3.3434 5.42908 3.06722 6.81749L3.55762 6.91504ZM5.91504 4.55762L6.01251 5.04803C6.24182 5.00245 6.52936 5 7.25 5V4.5V4C6.57716 4 6.16773 3.99762 5.81757 4.06721L5.91504 4.55762ZM7.25 4.5V5H11.85V4.5V4H7.25V4.5ZM12 4.65H11.5V5H12H12.5V4.65H12ZM13 17.85H12.5C12.5 17.6412 12.6599 17.5341 12.7764 17.5166L12.8505 18.0111L12.9246 18.5056C13.205 18.4636 13.5 18.2245 13.5 17.85H13ZM12.8505 15.9889L12.7764 16.4834C12.6599 16.4659 12.5 16.3588 12.5 16.15H13H13.5C13.5 15.7755 13.205 15.5364 12.9246 15.4944L12.8505 15.9889ZM11.85 4.5V5C11.6567 5 11.5 4.8433 11.5 4.65H12H12.5C12.5 4.29101 12.209 4 11.85 4V4.5ZM12.8505 10.9889L12.7764 11.4834C12.6599 11.4659 12.5 11.3588 12.5 11.15H13H13.5C13.5 10.7755 13.205 10.5364 12.9246 10.4944L12.8505 10.9889ZM13 7.85H12.5C12.5 7.64115 12.6599 7.53408 12.7764 7.51662L12.8505 8.0111L12.9246 8.50557C13.205 8.46356 13.5 8.22453 13.5 7.85H13ZM13 12.85H12.5C12.5 12.6412 12.6599 12.5341 12.7764 12.5166L12.8505 13.0111L12.9246 13.5056C13.205 13.4636 13.5 13.2245 13.5 12.85H13ZM12 19.35H11.5C11.5 19.1567 11.6567 19 11.85 19V19.5V20C12.209 20 12.5 19.709 12.5 19.35H12ZM12.8505 5.9889L12.7764 6.48338C12.6599 6.46592 12.5 6.35884 12.5 6.15H13H13.5C13.5 5.77547 13.205 5.53644 12.9246 5.49443L12.8505 5.9889Z" fill="#222222"/>
<path d="M16.75 4.5V4V4.5ZM18.085 4.55762L18.1825 4.06722L18.1824 4.0672L18.085 4.55762ZM20.4424 6.91504L20.9328 6.81758L20.9328 6.81748L20.4424 6.91504ZM19.75 9.5L19.7501 10H19.7501L19.75 9.5ZM19.75 14.5L19.7501 14H19.7501L19.75 14.5ZM20.5 15.25H21V15.25H20.5ZM20.4424 17.085L20.9328 17.1825L20.9328 17.1824L20.4424 17.085ZM18.085 19.4424L18.1824 19.9328L18.1825 19.9328L18.085 19.4424ZM16.75 19.5V20V19.5ZM15.1494 8.01112L15.0752 8.50559L15.1494 8.01112ZM15.1494 13.0111L15.2236 12.5167L15.1494 13.0111ZM15.1494 15.9889L15.0752 15.4944L15.1494 15.9889ZM15.1494 10.9889L15.2236 11.4833L15.1494 10.9889ZM15.1494 18.0111L15.2236 17.5167L15.1494 18.0111ZM15.1494 5.98888L15.0752 5.49441L15.1494 5.98888ZM16.75 4.5V5C17.4704 5 17.7582 5.00248 17.9875 5.04803L18.085 4.55762L18.1824 4.0672C17.8323 3.99765 17.4226 4 16.75 4V4.5ZM18.085 4.55762L17.9874 5.04801C18.9791 5.24527 19.7547 6.02088 19.952 7.0126L20.4424 6.91504L20.9328 6.81748C20.6566 5.42912 19.5709 4.3434 18.1825 4.06722L18.085 4.55762ZM20.4424 6.91504L19.952 7.01249C19.9975 7.24181 20 7.5294 20 8.25H20.5H21C21 7.57719 21.0024 7.16772 20.9328 6.81758L20.4424 6.91504ZM20.5 8.25H20V8.75H20.5H21V8.25H20.5ZM20.5 8.75H20C20 8.88785 19.8881 8.99996 19.7499 9L19.75 9.5L19.7501 10C20.4401 9.9998 21 9.44043 21 8.75H20.5ZM19.75 9.5L19.7499 9C18.2314 9.00023 17 10.2313 17 11.75H17.5H18C18 10.7837 18.7836 10.0001 19.7501 10L19.75 9.5ZM17.5 11.75H17V12.25H17.5H18V11.75H17.5ZM17.5 12.25H17C17 13.7687 18.2314 14.9998 19.7499 15L19.75 14.5L19.7501 14C18.7836 13.9999 18 13.2163 18 12.25H17.5ZM19.75 14.5L19.7499 15C19.8881 15 20 15.1122 20 15.25H20.5H21C21 14.5596 20.4401 14.0002 19.7501 14L19.75 14.5ZM20.5 15.25H20V15.75H20.5H21V15.25H20.5ZM20.5 15.75H20C20 16.4706 19.9975 16.7582 19.952 16.9875L20.4424 17.085L20.9328 17.1824C21.0024 16.8323 21 16.4228 21 15.75H20.5ZM20.4424 17.085L19.952 16.9874C19.7547 17.9791 18.9791 18.7547 17.9874 18.952L18.085 19.4424L18.1825 19.9328C19.5709 19.6566 20.6566 18.5709 20.9328 17.1825L20.4424 17.085ZM18.085 19.4424L17.9875 18.952C17.7582 18.9975 17.4704 19 16.75 19V19.5V20C17.4226 20 17.8323 20.0023 18.1824 19.9328L18.085 19.4424ZM16.75 19.5V19H16.15V19.5V20H16.75V19.5ZM16 19.35H16.5V19H16H15.5V19.35H16ZM16 19H16.5C16.5 18.2473 15.9459 17.625 15.2236 17.5167L15.1494 18.0111L15.0752 18.5056C15.3156 18.5417 15.5 18.7499 15.5 19H16ZM15 17.85H15.5V16.15H15H14.5V17.85H15ZM15.1494 15.9889L15.2236 16.4833C15.9459 16.375 16.5 15.7527 16.5 15H16H15.5C15.5 15.2501 15.3156 15.4583 15.0752 15.4944L15.1494 15.9889ZM16 15H16.5V14H16H15.5V15H16ZM16 14H16.5C16.5 13.2473 15.9459 12.625 15.2236 12.5167L15.1494 13.0111L15.0752 13.5056C15.3156 13.5417 15.5 13.7499 15.5 14H16ZM15 12.85H15.5V11.15H15H14.5V12.85H15ZM15.1494 10.9889L15.2236 11.4833C15.9459 11.375 16.5 10.7527 16.5 10H16H15.5C15.5 10.2501 15.3156 10.4583 15.0752 10.4944L15.1494 10.9889ZM16 10H16.5V9H16H15.5V10H16ZM16 9H16.5C16.5 8.24728 15.9459 7.62504 15.2236 7.51666L15.1494 8.01112L15.0752 8.50559C15.3156 8.54166 15.5 8.74987 15.5 9H16ZM15 7.85003H15.5V6.14997H15H14.5V7.85003H15ZM15.1494 5.98888L15.2236 6.48334C15.9459 6.37496 16.5 5.75272 16.5 5H16H15.5C15.5 5.25013 15.3156 5.45835 15.0752 5.49441L15.1494 5.98888ZM16 5H16.5V4.65H16H15.5V5H16ZM16.15 4.5V5H16.75V4.5V4H16.15V4.5ZM15.1494 8.01112L15.2236 7.51666C15.3401 7.53413 15.5 7.64122 15.5 7.85003H15H14.5C14.5 8.2245 14.795 8.46353 15.0752 8.50559L15.1494 8.01112ZM15.1494 13.0111L15.2236 12.5167C15.3401 12.5341 15.5 12.6412 15.5 12.85H15H14.5C14.5 13.2245 14.795 13.4635 15.0752 13.5056L15.1494 13.0111ZM15 16.15H15.5C15.5 16.3588 15.3401 16.4659 15.2236 16.4833L15.1494 15.9889L15.0752 15.4944C14.795 15.5365 14.5 15.7755 14.5 16.15H15ZM15 11.15H15.5C15.5 11.3588 15.3401 11.4659 15.2236 11.4833L15.1494 10.9889L15.0752 10.4944C14.795 10.5365 14.5 10.7755 14.5 11.15H15ZM16 4.65H16.5C16.5 4.8433 16.3433 5 16.15 5V4.5V4C15.791 4 15.5 4.29101 15.5 4.65H16ZM15.1494 18.0111L15.2236 17.5167C15.3401 17.5341 15.5 17.6412 15.5 17.85H15H14.5C14.5 18.2245 14.795 18.4635 15.0752 18.5056L15.1494 18.0111ZM15 6.14997H15.5C15.5 6.35878 15.3401 6.46587 15.2236 6.48334L15.1494 5.98888L15.0752 5.49441C14.795 5.53647 14.5 5.7755 14.5 6.14997H15ZM16.15 19.5V19C16.3433 19 16.5 19.1567 16.5 19.35H16H15.5C15.5 19.709 15.791 20 16.15 20V19.5Z" fill="#7E869E" fill-opacity="0.25"/>
</svg>
