<svg width="24" height="24" viewBox="0 0 24 24" fill="none" xmlns="http://www.w3.org/2000/svg">
<path d="M19 19L5 5" stroke="#33363F" stroke-width="2" stroke-linecap="round" stroke-linejoin="round"/>
<path d="M17.5947 17.7158C16.1521 19.1281 14.1783 20 12 20C7.58172 20 4 16.4183 4 12C4 9.82166 4.87092 7.84695 6.2832 6.4043L17.5947 17.7158ZM12 4C16.4183 4 20 7.58172 20 12C20 13.1409 19.7585 14.2249 19.3281 15.207L8.79199 4.6709C9.77421 4.24036 10.8589 4 12 4Z" fill="#33363F"/>
<path d="M18.0353 3.1363C18.7135 3.31803 19.3319 3.67508 19.8284 4.17157C20.3249 4.66807 20.682 5.2865 20.8637 5.96472" stroke="#33363F" stroke-width="2" stroke-linecap="round"/>
</svg>
