<svg width="24" height="24" viewBox="0 0 24 24" fill="none" xmlns="http://www.w3.org/2000/svg">
<path d="M5 2.80385C4.08789 3.33046 3.33046 4.08788 2.80385 5" stroke="#33363F" stroke-width="2" stroke-linecap="round"/>
<path d="M19 2.80385C19.9121 3.33046 20.6695 4.08788 21.1962 5" stroke="#33363F" stroke-width="2" stroke-linecap="round"/>
<path d="M12 3C16.9706 3 21 7.02944 21 12C21 16.9706 16.9706 21 12 21C7.02944 21 3 16.9706 3 12C3 7.02944 7.02944 3 12 3ZM9 8C8.44772 8 8 8.44772 8 9C8 9.55228 8.44772 10 9 10H12.5859L8.54883 14.0371C7.82467 14.7616 8.33787 16 9.3623 16H15C15.5523 16 16 15.5523 16 15C16 14.4477 15.5523 14 15 14H11.4141L15.4512 9.96289C16.1753 9.2384 15.6621 8 14.6377 8H9Z" fill="#33363F"/>
</svg>
