<svg width="24" height="24" viewBox="0 0 24 24" fill="none" xmlns="http://www.w3.org/2000/svg">
<path d="M12 16V19.5" stroke="#222222" stroke-width="1.6" stroke-linecap="round" stroke-linejoin="round"/>
<path d="M16.779 13.5137L17.1568 13.1862L17.1568 13.1862L16.779 13.5137ZM8.12759 15.5L8.12746 16H8.12759V15.5ZM7.22134 13.5137L6.8435 13.1862L6.8435 13.1862L7.22134 13.5137ZM10.6999 9.5V9C10.5549 9 10.417 9.06295 10.322 9.17253L10.6999 9.5ZM13.2995 9.5L13.6773 9.17248C13.5823 9.06293 13.4445 9 13.2995 9V9.5ZM16.779 13.5137L16.4011 13.8411C16.7939 14.2943 16.4718 15 15.8717 15V15.5V16C17.3283 16 18.111 14.2872 17.1568 13.1862L16.779 13.5137ZM15.8717 15.5V15H8.12759V15.5V16H15.8717V15.5ZM8.12759 15.5L8.12773 15C7.52837 14.9998 7.20616 14.2946 7.59919 13.8411L7.22134 13.5137L6.8435 13.1862C5.88974 14.2867 6.67066 15.9996 8.12746 16L8.12759 15.5ZM7.22134 13.5137L7.59919 13.8411L11.0777 9.82747L10.6999 9.5L10.322 9.17253L6.8435 13.1862L7.22134 13.5137ZM10.6999 9.5V10H13.2995V9.5V9H10.6999V9.5ZM13.2995 9.5L12.9217 9.82752L16.4012 13.8412L16.779 13.5137L17.1568 13.1862L13.6773 9.17248L13.2995 9.5Z" fill="#222222"/>
<path d="M8.3433 7.48913L11.2628 4.30417C11.6592 3.8718 12.3408 3.8718 12.7372 4.30417L15.6567 7.48913C16.3622 8.25881 15.8162 9.5 14.7721 9.5H9.22788C8.18376 9.5 7.63776 8.25881 8.3433 7.48913Z" stroke="#222222" stroke-linecap="round" stroke-linejoin="round"/>
</svg>
