<svg width="24" height="24" viewBox="0 0 24 24" fill="none" xmlns="http://www.w3.org/2000/svg">
<path d="M12 17V20" stroke="#33363F" stroke-width="2" stroke-linecap="round" stroke-linejoin="round"/>
<path d="M17.7448 15.3857L18.5342 14.7718L18.5341 14.7718L17.7448 15.3857ZM16.9557 17V18H16.9561L16.9557 17ZM7.04462 17L7.0446 18H7.04462V17ZM6.25555 15.3857L7.04491 15.9997L7.04494 15.9996L6.25555 15.3857ZM10.444 10V9C10.1354 9 9.8441 9.14249 9.65465 9.3861L10.444 10ZM13.5554 10L14.3447 9.38601C14.1552 9.14245 13.8639 9 13.5554 9V10ZM17.7448 15.3857L16.9555 15.9997L16.9554 16L16.9557 17L16.9561 18C18.62 17.9994 19.5557 16.0852 18.5342 14.7718L17.7448 15.3857ZM16.9557 17V16H7.04462V17V18H16.9557V17ZM7.04462 17L7.04463 16L7.04491 15.9997L6.25555 15.3857L5.4662 14.7718C4.44493 16.0849 5.3795 18 7.0446 18L7.04462 17ZM6.25555 15.3857L7.04494 15.9996L11.2334 10.6139L10.444 10L9.65465 9.3861L5.46617 14.7718L6.25555 15.3857ZM10.444 10V11H13.5554V10V9H10.444V10ZM13.5554 10L12.766 10.614L16.9555 15.9997L17.7448 15.3857L18.5341 14.7718L14.3447 9.38601L13.5554 10Z" fill="#33363F"/>
<path d="M7.70711 8.29289L12 4L16.2929 8.29289C16.9229 8.92286 16.4767 10 15.5858 10H8.41421C7.52331 10 7.07714 8.92286 7.70711 8.29289Z" stroke="#33363F" stroke-width="2" stroke-linecap="round" stroke-linejoin="round"/>
</svg>
