<svg width="24" height="24" viewBox="0 0 24 24" fill="none" xmlns="http://www.w3.org/2000/svg">
<path d="M12 13.5V19.5" stroke="#7E869E" stroke-opacity="0.25" stroke-linecap="round" stroke-linejoin="round"/>
<path d="M16.8003 14.4004C17.2941 15.0595 16.8241 15.9996 16.0005 16H8.00047C7.17659 16 6.70574 15.0596 7.19969 14.4004L10.2005 10.3999C10.3893 10.1482 10.6857 10 11.0004 10H13.0004C13.3152 10 13.6116 10.1482 13.8005 10.4001L16.8003 14.4004Z" fill="#222222"/>
<path d="M8.64018 7.03178L11.2318 3.92187C11.6316 3.44211 12.3684 3.44211 12.7682 3.92186L15.3598 7.03178C16.0111 7.81337 15.4554 9 14.438 9H9.56205C8.54464 9 7.98886 7.81337 8.64018 7.03178Z" fill="#222222"/>
</svg>
