<svg width="24" height="24" viewBox="0 0 24 24" fill="none" xmlns="http://www.w3.org/2000/svg">
<path d="M12 16V19.5" stroke="#33363F" stroke-width="1.6" stroke-linecap="round" stroke-linejoin="round"/>
<path d="M16.7785 13.5137C17.4519 14.2907 16.9004 15.4999 15.8722 15.5H8.12808C7.09978 15.5 6.54739 14.2908 7.22086 13.5137L10.7004 9.5H13.3L16.7785 13.5137Z" fill="#7E869E" fill-opacity="0.25"/>
<path d="M16.7785 13.5137L16.4006 13.8411V13.8411L16.7785 13.5137ZM15.8722 15.5V16H15.8723L15.8722 15.5ZM7.22086 13.5137L6.84306 13.1862L6.84301 13.1862L7.22086 13.5137ZM10.7004 9.5V9C10.5554 9 10.4175 9.06293 10.3226 9.17248L10.7004 9.5ZM13.3 9.5L13.6778 9.17253C13.5828 9.06295 13.445 9 13.3 9V9.5ZM16.7785 13.5137L16.4006 13.8411C16.7938 14.2948 16.4714 14.9999 15.8722 15L15.8722 15.5L15.8723 16C17.3294 15.9998 18.11 14.2866 17.1563 13.1862L16.7785 13.5137ZM15.8722 15.5V15H8.12808V15.5V16H15.8722V15.5ZM8.12808 15.5V15C7.52806 15 7.20596 14.2943 7.5987 13.8411L7.22086 13.5137L6.84301 13.1862C5.88881 14.2872 6.67149 16 8.12808 16V15.5ZM7.22086 13.5137L7.59866 13.8412L11.0781 9.82752L10.7004 9.5L10.3226 9.17248L6.84306 13.1862L7.22086 13.5137ZM10.7004 9.5V10H13.3V9.5V9H10.7004V9.5ZM13.3 9.5L12.9221 9.82747L16.4006 13.8411L16.7785 13.5137L17.1563 13.1862L13.6778 9.17253L13.3 9.5Z" fill="#33363F"/>
<path d="M8.3433 7.48913L11.2628 4.30417C11.6592 3.8718 12.3408 3.8718 12.7372 4.30417L15.6567 7.48913C16.3622 8.25881 15.8162 9.5 14.7721 9.5H9.22788C8.18376 9.5 7.63776 8.25881 8.3433 7.48913Z" fill="#7E869E" fill-opacity="0.25" stroke="#33363F" stroke-linecap="round" stroke-linejoin="round"/>
</svg>
