<svg width="24" height="24" viewBox="0 0 24 24" fill="none" xmlns="http://www.w3.org/2000/svg">
<path d="M12 5C16.9706 5 21 9.02944 21 14C21 18.9706 16.9706 23 12 23C7.02944 23 3 18.9706 3 14C3 9.02944 7.02944 5 12 5ZM12 7C8.13401 7 5 10.134 5 14C5 17.866 8.13401 21 12 21C15.866 21 19 17.866 19 14C19 10.134 15.866 7 12 7ZM12 9C14.7614 9 17 11.2386 17 14C17 16.7614 14.7614 19 12 19C9.23858 19 7 16.7614 7 14C7 11.2386 9.23858 9 12 9ZM12 10C11.4477 10 11 10.4477 11 11V14C11 14.5523 11.4477 15 12 15C12.5523 15 13 14.5523 13 14V11C13 10.4477 12.5523 10 12 10Z" fill="#222222"/>
<path d="M17.5 7.5L19 6" stroke="#222222" stroke-width="2" stroke-linecap="round"/>
<path d="M10.0681 2.37059C10.1821 2.26427 10.4332 2.17033 10.7825 2.10332C11.1318 2.03632 11.5597 2 12 2C12.4403 2 12.8682 2.03632 13.2175 2.10332C13.5668 2.17033 13.8179 2.26427 13.9319 2.37059" stroke="#222222" stroke-width="2" stroke-linecap="round"/>
</svg>
