<svg width="24" height="24" viewBox="0 0 24 24" fill="none" xmlns="http://www.w3.org/2000/svg">
<path d="M15 7C17.8284 7 19.2424 7.00023 20.1211 7.87891C20.9998 8.75759 21 10.1716 21 13V14C21 17.7712 20.9997 19.6566 19.8281 20.8281C18.6566 21.9997 16.7712 22 13 22H11C7.22876 22 5.34345 21.9997 4.17188 20.8281C3.0003 19.6566 3 17.7712 3 14V13C3 10.1716 3.00023 8.75759 3.87891 7.87891C4.75759 7.00023 6.17157 7 9 7H15ZM12 11C10.3431 11 9 12.3431 9 14C9 15.3057 9.83548 16.413 11 16.8252V19H13V16.8252C14.1645 16.413 15 15.3057 15 14C15 12.3431 13.6569 11 12 11ZM12 13C12.5523 13 13 13.4477 13 14C13 14.5523 12.5523 15 12 15C11.4477 15 11 14.5523 11 14C11 13.4477 11.4477 13 12 13Z" fill="#222222"/>
<path d="M16.5 7.99981C16.8043 6.17359 16.0108 4.33842 14.4717 3.30935L14.0979 3.05946C12.0734 1.70579 9.3937 1.87263 7.55269 3.46699L6.66992 4.23149" stroke="#222222" stroke-width="2" stroke-linecap="round"/>
</svg>
