<svg width="24" height="24" viewBox="0 0 24 24" fill="none" xmlns="http://www.w3.org/2000/svg">
<mask id="path-1-outside-1_9_55656" maskUnits="userSpaceOnUse" x="2" y="2" width="20" height="12" fill="black">
<rect fill="white" x="2" y="2" width="20" height="12"/>
<path d="M12 3C14.0325 3 15.7814 4.21286 16.5632 5.95428C16.7267 6.3185 16.8084 6.50061 16.8665 6.58182C17.0432 6.82878 17.1844 6.92023 17.4821 6.98026C17.58 7 17.72 7 18 7C19.6569 7 21 8.34315 21 10C21 11.6569 19.6569 13 18 13H6C4.34315 13 3 11.6569 3 10C3 8.34315 4.34315 7 6 7C6.28002 7 6.42003 7 6.5179 6.98026C6.81556 6.92023 6.95684 6.82878 7.13351 6.58182C7.1916 6.50061 7.27335 6.3185 7.43685 5.95428C8.21857 4.21286 9.96746 3 12 3Z"/>
</mask>
<path d="M12 3C14.0325 3 15.7814 4.21286 16.5632 5.95428C16.7267 6.3185 16.8084 6.50061 16.8665 6.58182C17.0432 6.82878 17.1844 6.92023 17.4821 6.98026C17.58 7 17.72 7 18 7C19.6569 7 21 8.34315 21 10C21 11.6569 19.6569 13 18 13H6C4.34315 13 3 11.6569 3 10C3 8.34315 4.34315 7 6 7C6.28002 7 6.42003 7 6.5179 6.98026C6.81556 6.92023 6.95684 6.82878 7.13351 6.58182C7.1916 6.50061 7.27335 6.3185 7.43685 5.95428C8.21857 4.21286 9.96746 3 12 3Z" fill="#7E869E" fill-opacity="0.25"/>
<path d="M18 13V13.6V13.6V13ZM6.5179 6.98026L6.63653 7.56842L6.5179 6.98026ZM7.13351 6.58182L6.64552 6.23273L7.13351 6.58182ZM16.5632 5.95428L17.1105 5.70856L16.5632 5.95428ZM16.8665 6.58182L17.3545 6.23273L16.8665 6.58182ZM17.4821 6.98026L17.3635 7.56842V7.56842L17.4821 6.98026ZM12 3V3.6C13.7876 3.6 15.3273 4.66622 16.0158 6.2L16.5632 5.95428L17.1105 5.70856C16.2356 3.75951 14.2774 2.4 12 2.4V3ZM18 7V7.6C19.3255 7.6 20.4 8.67452 20.4 10H21H21.6C21.6 8.01178 19.9882 6.4 18 6.4V7ZM21 10H20.4C20.4 11.3255 19.3255 12.4 18 12.4V13V13.6C19.9882 13.6 21.6 11.9882 21.6 10H21ZM18 13V12.4H6V13V13.6H18V13ZM6 13V12.4C4.67452 12.4 3.6 11.3255 3.6 10H3H2.4C2.4 11.9882 4.01177 13.6 6 13.6V13ZM3 10H3.6C3.6 8.67452 4.67452 7.6 6 7.6V7V6.4C4.01177 6.4 2.4 8.01178 2.4 10H3ZM7.43685 5.95428L7.98423 6.2C8.67274 4.66622 10.2124 3.6 12 3.6V3V2.4C9.72257 2.4 7.7644 3.75951 6.88947 5.70856L7.43685 5.95428ZM6 7V7.6C6.24456 7.6 6.46393 7.60323 6.63653 7.56842L6.5179 6.98026L6.39928 6.3921C6.40079 6.3918 6.38171 6.39563 6.30926 6.3978C6.23815 6.39994 6.14374 6.4 6 6.4V7ZM7.43685 5.95428L6.88947 5.70856C6.80652 5.89336 6.74842 6.02268 6.70381 6.11647C6.65452 6.22012 6.63975 6.24079 6.64552 6.23273L7.13351 6.58182L7.6215 6.93091C7.68536 6.84164 7.74051 6.73065 7.78749 6.63189C7.83915 6.52327 7.90368 6.37943 7.98423 6.2L7.43685 5.95428ZM6.5179 6.98026L6.63653 7.56842C6.8234 7.53073 7.01453 7.473 7.19709 7.35484C7.37965 7.23668 7.51059 7.08595 7.6215 6.93091L7.13351 6.58182L6.64552 6.23273C6.57977 6.32464 6.55173 6.34312 6.54506 6.34743C6.5384 6.35175 6.51006 6.36976 6.39928 6.3921L6.5179 6.98026ZM16.5632 5.95428L16.0158 6.2C16.0963 6.37943 16.1608 6.52327 16.2125 6.63189C16.2595 6.73065 16.3146 6.84164 16.3785 6.93091L16.8665 6.58182L17.3545 6.23273C17.3602 6.24079 17.3455 6.22012 17.2962 6.11647C17.2516 6.02268 17.1935 5.89336 17.1105 5.70856L16.5632 5.95428ZM18 7V6.4C17.8563 6.4 17.7619 6.39994 17.6907 6.3978C17.6183 6.39563 17.5992 6.3918 17.6007 6.3921L17.4821 6.98026L17.3635 7.56842C17.5361 7.60323 17.7554 7.6 18 7.6V7ZM16.8665 6.58182L16.3785 6.93091C16.4894 7.08595 16.6203 7.23668 16.8029 7.35484C16.9855 7.473 17.1766 7.53073 17.3635 7.56842L17.4821 6.98026L17.6007 6.3921C17.4899 6.36976 17.4616 6.35175 17.4549 6.34743C17.4483 6.34312 17.4202 6.32464 17.3545 6.23273L16.8665 6.58182Z" fill="#7E869E" fill-opacity="0.25" mask="url(#path-1-outside-1_9_55656)"/>
<path d="M11.9996 2.40002C14.2769 2.40002 16.235 3.75981 17.11 5.70862C17.1926 5.89274 17.251 6.02217 17.2955 6.11584C17.3315 6.19144 17.3495 6.22368 17.3541 6.23206C17.4185 6.32202 17.4473 6.34243 17.4547 6.34729C17.4617 6.35182 17.4909 6.37013 17.6002 6.39221C17.6003 6.39216 17.6209 6.395 17.6901 6.39709C17.7611 6.39923 17.8561 6.40002 17.9996 6.40002C19.9877 6.40002 21.599 8.01159 21.5992 9.99963C21.5992 11.9879 19.9879 13.5992 17.9996 13.5992H17.4274L16.2281 12.4H17.9996C19.3251 12.4 20.4 11.3251 20.4 9.99963C20.3998 8.67433 19.325 7.59924 17.9996 7.59924C17.7552 7.59925 17.5354 7.60279 17.3629 7.56799C17.1763 7.5303 16.9847 7.47215 16.8024 7.35413C16.6202 7.23605 16.4893 7.08512 16.3785 6.9303C16.3148 6.84114 16.2594 6.73004 16.2125 6.63147C16.1609 6.52292 16.0957 6.37895 16.0153 6.19983C15.3266 4.6663 13.7871 3.59924 11.9996 3.59924C10.2122 3.5994 8.67251 4.66625 7.98401 6.19983C7.90353 6.37912 7.83839 6.52289 7.78674 6.63147C7.73979 6.73018 7.68454 6.84108 7.62073 6.9303C7.50988 7.08525 7.3793 7.236 7.1969 7.35413C7.01443 7.4722 6.82313 7.53031 6.63635 7.56799C6.4638 7.60274 6.24406 7.59924 5.99963 7.59924C4.67446 7.59945 3.59945 8.67446 3.59924 9.99963C3.59924 11.325 4.67433 12.3998 5.99963 12.4H7.77112L6.5719 13.5992H5.99963C4.01159 13.599 2.40002 11.9877 2.40002 9.99963C2.40024 8.01172 4.01172 6.40024 5.99963 6.40002C6.14312 6.40002 6.23813 6.39922 6.3092 6.39709C6.37337 6.39516 6.39596 6.39256 6.39905 6.39221C6.50822 6.37019 6.53737 6.35193 6.54456 6.34729C6.55122 6.34298 6.57939 6.32397 6.64514 6.23206C6.6495 6.22421 6.66729 6.19247 6.70374 6.11584C6.74829 6.02215 6.80654 5.89294 6.88928 5.70862C7.7642 3.75977 9.72244 2.40018 11.9996 2.40002Z" fill="#222222"/>
<path d="M12 12L11.5757 11.5757L12 11.1515L12.4243 11.5757L12 12ZM12.6 21C12.6 21.3314 12.3314 21.6 12 21.6C11.6686 21.6 11.4 21.3314 11.4 21L12 21L12.6 21ZM8 16L7.57574 15.5757L11.5757 11.5757L12 12L12.4243 12.4243L8.42426 16.4243L8 16ZM12 12L12.4243 11.5757L16.4243 15.5757L16 16L15.5757 16.4243L11.5757 12.4243L12 12ZM12 12L12.6 12L12.6 21L12 21L11.4 21L11.4 12L12 12Z" fill="#222222"/>
</svg>
