<svg width="24" height="24" viewBox="0 0 24 24" fill="none" xmlns="http://www.w3.org/2000/svg">
<path d="M12 5L12.3536 4.64645L12 4.29289L11.6464 4.64645L12 5ZM11.5 17C11.5 17.2761 11.7239 17.5 12 17.5C12.2761 17.5 12.5 17.2761 12.5 17L12 17L11.5 17ZM18 11L18.3536 10.6464L12.3536 4.64645L12 5L11.6464 5.35355L17.6464 11.3536L18 11ZM12 5L11.6464 4.64645L5.64645 10.6464L6 11L6.35355 11.3536L12.3536 5.35355L12 5ZM12 5L11.5 5L11.5 17L12 17L12.5 17L12.5 5L12 5Z" fill="#222222"/>
<path d="M5 21H19" stroke="#222222"/>
</svg>
