<svg width="24" height="24" viewBox="0 0 24 24" fill="none" xmlns="http://www.w3.org/2000/svg">
<path d="M12 3C14.0325 3 15.7814 4.21286 16.5632 5.95428C16.7267 6.3185 16.8084 6.50061 16.8665 6.58182C17.0432 6.82878 17.1844 6.92023 17.4821 6.98026C17.58 7 17.72 7 18 7C19.6569 7 21 8.34315 21 10C21 11.6569 19.6569 13 18 13H6C4.34315 13 3 11.6569 3 10C3 8.34315 4.34315 7 6 7C6.28002 7 6.42003 7 6.5179 6.98026C6.81556 6.92023 6.95684 6.82878 7.13351 6.58182C7.1916 6.50061 7.27335 6.3185 7.43685 5.95428C8.21857 4.21286 9.96746 3 12 3Z" fill="#7E869E" fill-opacity="0.25"/>
<path d="M14.5 11.5L12 9L9.5 11.5M12 9L12 19" stroke="#222222" stroke-linecap="round"/>
</svg>
