<svg width="24" height="24" viewBox="0 0 24 24" fill="none" xmlns="http://www.w3.org/2000/svg">
<path d="M12 3C14.0325 3 15.7817 4.2127 16.5635 5.9541C16.727 6.31832 16.8081 6.50083 16.8662 6.58203C17.0429 6.82899 17.1848 6.92044 17.4824 6.98047C17.5803 7.00014 17.7203 7 18 7C19.6569 7 21 8.34315 21 10C21 11.6569 19.6569 13 18 13H16.8281L12 8.17188L7.17188 13H6C4.34315 13 3 11.6569 3 10C3 8.34315 4.34315 7 6 7C6.27969 7 6.41972 7.00014 6.51758 6.98047C6.81523 6.92044 6.95713 6.82899 7.13379 6.58203C7.19188 6.50083 7.27303 6.31832 7.43652 5.9541C8.21825 4.2127 9.96747 3 12 3Z" fill="#222222"/>
<path d="M12 12L11.2929 11.2929L12 10.5858L12.7071 11.2929L12 12ZM13 21C13 21.5523 12.5523 22 12 22C11.4477 22 11 21.5523 11 21L12 21L13 21ZM8 16L7.29289 15.2929L11.2929 11.2929L12 12L12.7071 12.7071L8.70711 16.7071L8 16ZM12 12L12.7071 11.2929L16.7071 15.2929L16 16L15.2929 16.7071L11.2929 12.7071L12 12ZM12 12L13 12L13 21L12 21L11 21L11 12L12 12Z" fill="#222222"/>
</svg>
