<svg width="24" height="24" viewBox="0 0 24 24" fill="none" xmlns="http://www.w3.org/2000/svg">
<circle cx="12" cy="9" r="3" fill="#222222"/>
<path d="M11.9999 13C14.4164 13 16.4983 14.1909 17.449 15.9065C17.5065 16.0103 17.477 16.1397 17.382 16.2108C15.8807 17.3333 14.0186 18 11.9999 18C9.98112 18 8.11905 17.3334 6.61778 16.2108C6.52276 16.1397 6.49325 16.0103 6.55076 15.9065C7.50141 14.1909 9.5834 13 11.9999 13Z" fill="#222222"/>
<path d="M17 4H17.502C18.7134 4 19.319 4 19.7834 4.232C20.2095 4.44495 20.5551 4.79048 20.768 5.21665C21 5.68096 21 6.28664 21 7.498V8M17 20H17.502C18.7134 20 19.319 20 19.7834 19.768C20.2095 19.5551 20.5551 19.2095 20.768 18.7834C21 18.319 21 17.7134 21 16.502V16M7 4H6.498C5.28664 4 4.68096 4 4.21665 4.232C3.79048 4.44495 3.44495 4.79048 3.232 5.21665C3 5.68096 3 6.28664 3 7.498V8M7 20H6.498C5.28664 20 4.68096 20 4.21665 19.768C3.79048 19.5551 3.44495 19.2095 3.232 18.7834C3 18.319 3 17.7134 3 16.502V16" stroke="#222222" stroke-width="2" stroke-linecap="round"/>
</svg>
