<svg width="24" height="24" viewBox="0 0 24 24" fill="none" xmlns="http://www.w3.org/2000/svg">
<circle cx="12" cy="9" r="3" fill="#222222"/>
<path d="M11.9999 13C14.4164 13 16.4983 14.1909 17.449 15.9065C17.5065 16.0103 17.477 16.1397 17.382 16.2108C15.8807 17.3333 14.0186 18 11.9999 18C9.98112 18 8.11905 17.3334 6.61778 16.2108C6.52276 16.1397 6.49325 16.0103 6.55076 15.9065C7.50141 14.1909 9.5834 13 11.9999 13Z" fill="#7E869E" fill-opacity="0.25"/>
<path d="M17.5 3.5H17.7C19.4913 3.5 20.387 3.5 20.9435 4.0565C21.5 4.61299 21.5 5.50866 21.5 7.3V7.5" stroke="#222222" stroke-linecap="round"/>
<path d="M17.5 20.5H17.7C19.4913 20.5 20.387 20.5 20.9435 19.9435C21.5 19.387 21.5 18.4913 21.5 16.7V16.5" stroke="#222222" stroke-linecap="round"/>
<path d="M6.5 3.5H6.3C4.50866 3.5 3.61299 3.5 3.0565 4.0565C2.5 4.61299 2.5 5.50866 2.5 7.3V7.5" stroke="#222222" stroke-linecap="round"/>
<path d="M6.5 20.5H6.3C4.50866 20.5 3.61299 20.5 3.0565 19.9435C2.5 19.387 2.5 18.4913 2.5 16.7V16.5" stroke="#222222" stroke-linecap="round"/>
</svg>
