<svg width="24" height="24" viewBox="0 0 24 24" fill="none" xmlns="http://www.w3.org/2000/svg">
<circle cx="12" cy="8" r="4" fill="#7E869E" fill-opacity="0.25" stroke="#222222" stroke-width="1.2" stroke-linecap="round"/>
<path d="M9.81115 15.6165C11.2453 15.3283 12.7539 15.3284 14.1881 15.6165C14.6674 15.7128 15.1335 15.843 15.5826 16.0003H13.9996C13.4322 16.0004 12.9202 16.2368 12.5563 16.6165C11.716 16.5699 10.8673 16.6285 10.0475 16.7933C8.76873 17.0503 7.61627 17.5525 6.70275 18.2376C5.78971 18.9225 5.15569 19.7591 4.83752 20.6497C4.72576 20.9613 4.38176 21.1234 4.06994 21.012C3.7585 20.9003 3.59652 20.5571 3.70764 20.2454C4.11631 19.1017 4.91059 18.0821 5.98303 17.2776C7.05523 16.4735 8.37744 15.9047 9.81115 15.6165Z" fill="#222222"/>
<path d="M18 14L18 22" stroke="#222222" stroke-width="1.2" stroke-linecap="round"/>
<path d="M22 18L14 18" stroke="#222222" stroke-width="1.2" stroke-linecap="round"/>
</svg>
