<svg width="24" height="24" viewBox="0 0 24 24" fill="none" xmlns="http://www.w3.org/2000/svg">
<path d="M3 11C3 7.22876 3 5.34315 4.17157 4.17157C5.34315 3 7.22876 3 11 3H13C16.7712 3 18.6569 3 19.8284 4.17157C21 5.34315 21 7.22876 21 11V13C21 16.7712 21 18.6569 19.8284 19.8284C18.6569 21 16.7712 21 13 21H11C7.22876 21 5.34315 21 4.17157 19.8284C3 18.6569 3 16.7712 3 13V11Z" fill="#7E869E" fill-opacity="0.25"/>
<circle cx="12" cy="10" r="4" fill="#222222"/>
<path d="M12.0002 15C15.5696 15.0001 18.5136 17.2902 18.9443 20.2497C18.9597 20.3553 18.9028 20.458 18.8043 20.4989C17.6029 20.9968 15.8351 21 13.0002 21H11.0002C8.16547 21 6.39751 20.9967 5.19612 20.4989C5.09758 20.458 5.04071 20.3553 5.05608 20.2497C5.48685 17.2902 8.43073 15 12.0002 15Z" fill="#222222"/>
</svg>
