<svg width="24" height="24" viewBox="0 0 24 24" fill="none" xmlns="http://www.w3.org/2000/svg">
<path d="M3 12C3 7.02944 7.02944 3 12 3C16.9706 3 21 7.02944 21 12C21 16.9706 16.9706 21 12 21C7.02944 21 3 16.9706 3 12Z" fill="#7E869E" fill-opacity="0.25"/>
<circle cx="12" cy="10" r="4" fill="#222222"/>
<path d="M12 15C14.7073 15 17.0552 16.3177 18.2196 18.2454C18.2778 18.3418 18.2601 18.4652 18.1782 18.5425C16.5662 20.0654 14.3926 21 12 21C9.60732 21 7.43367 20.0654 5.82167 18.5425C5.73985 18.4652 5.72211 18.3418 5.7803 18.2454C6.94471 16.3177 9.2926 15 12 15Z" fill="#222222"/>
</svg>
