<svg width="24" height="24" viewBox="0 0 24 24" fill="none" xmlns="http://www.w3.org/2000/svg">
<path d="M13 6.5C13 6.95727 12.9989 7.35069 13.041 7.66406C13.0851 7.99176 13.1847 8.30576 13.4395 8.56055C13.6942 8.81534 14.0082 8.91491 14.3359 8.95898C14.6493 9.00112 15.0427 9 15.5 9H20V20C20 21.1046 19.1046 22 18 22H6C4.89543 22 4 21.1046 4 20V4C4 2.89543 4.89543 2 6 2H13V6.5ZM11.1289 11.7012C10.1351 11.2425 9.00028 11.968 9 13.0625V15.9375C9.00028 17.032 10.1351 17.7575 11.1289 17.2988L14.2422 15.8623C15.4041 15.326 15.4041 13.6739 14.2422 13.1377L11.1289 11.7012ZM10 13.0625C10.0003 12.6978 10.3788 12.4565 10.71 12.6094L13.8232 14.0459C14.2105 14.2247 14.2105 14.7754 13.8232 14.9541L10.71 16.3906C10.3788 16.5435 10.0003 16.3022 10 15.9375V13.0625ZM14.1719 2C14.7022 2.00008 15.2109 2.21094 15.5859 2.58594L19.4141 6.41406C19.7891 6.78906 19.9999 7.2978 20 7.82812V8H15.5C15.0147 8 14.7009 7.99882 14.4697 7.96777C14.2529 7.93862 14.1845 7.89158 14.1465 7.85352C14.1084 7.81545 14.0614 7.74714 14.0322 7.53027C14.0012 7.29905 14 6.98529 14 6.5V2H14.1719Z" fill="#222222"/>
</svg>
