<svg width="24" height="24" viewBox="0 0 24 24" fill="none" xmlns="http://www.w3.org/2000/svg">
<path d="M11.1475 3C12.0261 3 12.4664 3.00032 12.7539 3.2666C13.0411 3.53292 13.0742 3.97108 13.1416 4.84668L13.3584 7.65332C13.4258 8.52893 13.4589 8.96708 13.7461 9.2334C14.0336 9.49968 14.4739 9.5 15.3525 9.5H17.3623C18.3637 9.5 18.8647 9.49993 19.1611 9.81641C19.4575 10.1332 19.4241 10.6333 19.3574 11.6328L19 17C19 18.8856 18.9998 19.8283 18.4141 20.4141C17.8283 20.9998 16.8856 21 15 21H9C7.11438 21 6.17172 20.9998 5.58594 20.4141C5.00015 19.8283 5 18.8856 5 17V7C5 5.11438 5.00015 4.17172 5.58594 3.58594C6.17172 3.00015 7.11438 3 9 3H11.1475ZM10.6729 12.7168C9.88105 12.3775 9.00008 12.9579 9 13.8193V16.1797C9 17.0412 9.88102 17.6225 10.6729 17.2832L13.8555 15.9189C14.6635 15.5726 14.6636 14.4264 13.8555 14.0801L10.6729 12.7168Z" fill="#7E869E" fill-opacity="0.25"/>
<path d="M13.1716 3H9C7.11438 3 6.17157 3 5.58579 3.58579C5 4.17157 5 5.11438 5 7V17C5 18.8856 5 19.8284 5.58579 20.4142C6.17157 21 7.11438 21 9 21H15C16.8856 21 17.8284 21 18.4142 20.4142C19 19.8284 19 18.8856 19 17V8.82843C19 8.41968 19 8.2153 18.9239 8.03153C18.8478 7.84776 18.7032 7.70324 18.4142 7.41421L14.5858 3.58579C14.2968 3.29676 14.1522 3.15224 13.9685 3.07612C13.7847 3 13.5803 3 13.1716 3Z" stroke="#222222" stroke-width="1.2"/>
<path d="M13.8553 14.0805L10.6727 12.7165C9.88086 12.3771 9 12.958 9 13.8195V16.1798C9 17.0413 9.88086 17.6221 10.6727 17.2827L13.8553 15.9188C14.6634 15.5724 14.6634 14.4268 13.8553 14.0805Z" stroke="#222222" stroke-width="1.2" stroke-linecap="round" stroke-linejoin="round"/>
<path d="M13 3V7C13 7.94281 13 8.41421 13.2929 8.70711C13.5858 9 14.0572 9 15 9H19" stroke="#222222" stroke-width="1.2"/>
</svg>
