<svg width="24" height="24" viewBox="0 0 24 24" fill="none" xmlns="http://www.w3.org/2000/svg">
<path d="M12 3C16.9706 3 21 7.02944 21 12C21 16.9706 16.9706 21 12 21C7.02944 21 3 16.9706 3 12C3 7.02944 7.02944 3 12 3ZM9.73633 7.86816C8.93864 7.46966 8.00026 8.0497 8 8.94141V15.0586C8.00007 15.9505 8.93853 16.5305 9.73633 16.1318L16.2109 12.8945C16.948 12.526 16.948 11.474 16.2109 11.1055L9.73633 7.86816Z" fill="#7E869E" fill-opacity="0.25"/>
<path d="M16.2111 11.1056L9.73666 7.86833C8.93878 7.46939 8 8.04958 8 8.94164V15.0584C8 15.9504 8.93878 16.5306 9.73666 16.1317L16.2111 12.8944C16.9482 12.5259 16.9482 11.4741 16.2111 11.1056Z" stroke="#222222" stroke-linecap="round" stroke-linejoin="round"/>
<circle cx="12" cy="12" r="9" stroke="#222222"/>
</svg>
