<svg width="24" height="24" viewBox="0 0 24 24" fill="none" xmlns="http://www.w3.org/2000/svg">
<path d="M13 6.5C13 7.88071 14.1193 9 15.5 9H19V19C19 20.1046 18.1046 21 17 21H7C5.89543 21 5 20.1046 5 19V5C5 3.89543 5.89543 3 7 3H13V6.5ZM14 3.20117C14.1965 3.29631 14.3791 3.42257 14.5371 3.5791L18.4072 7.41309C18.5797 7.58388 18.7161 7.78368 18.8154 8H15.5C14.6716 8 14 7.32843 14 6.5V3.20117Z" fill="#7E869E" fill-opacity="0.25"/>
<path d="M10 16.1169V11.8831C10 11.4944 10.424 11.2544 10.7572 11.4543L14.2854 13.5713C14.6091 13.7655 14.6091 14.2345 14.2854 14.4287L10.7572 16.5457C10.424 16.7456 10 16.5056 10 16.1169Z" fill="#222222"/>
</svg>
