<svg width="24" height="24" viewBox="0 0 24 24" fill="none" xmlns="http://www.w3.org/2000/svg">
<path d="M14.2109 15.332C13.5774 15.7532 12.8178 16 12 16C9.79086 16 8 14.2091 8 12C8 11.1821 8.24569 10.4217 8.66699 9.78809L14.2109 15.332ZM12 8C14.2091 8 16 9.79086 16 12C16 12.2736 15.9722 12.5407 15.9199 12.7988L11.2002 8.0791C11.4586 8.02668 11.7262 8 12 8Z" fill="#222222"/>
<path d="M15.7864 16.9072C14.6353 17.5542 13.353 17.9999 12.0002 18C8.36451 18 5.23186 14.7896 3.81177 13.0654C3.42376 12.5943 3.22974 12.3587 3.22974 12C3.22974 11.6413 3.42376 11.4057 3.81177 10.9346C4.48529 10.1168 5.54575 8.96669 6.8606 7.98145L15.7864 16.9072ZM12.0002 6C15.6359 6.00014 18.7677 9.21046 20.1877 10.9346C20.5759 11.4058 20.7708 11.6412 20.7708 12C20.7708 12.3588 20.5759 12.5942 20.1877 13.0654C19.7134 13.6413 19.046 14.3808 18.2346 15.1133L9.57837 6.45703C10.3491 6.17272 11.161 6 12.0002 6Z" fill="#7E869E" fill-opacity="0.25"/>
<path d="M14.2109 15.332C13.5774 15.7532 12.8178 16 12 16C9.79086 16 8 14.2091 8 12C8 11.1821 8.24569 10.4217 8.66699 9.78809L14.2109 15.332ZM12 8C14.2091 8 16 9.79086 16 12C16 12.2736 15.9722 12.5407 15.9199 12.7988L11.2002 8.0791C11.4586 8.02668 11.7262 8 12 8Z" fill="#222222"/>
<path d="M8 5L20 17" stroke="#222222" stroke-width="1.2"/>
</svg>
