<svg width="24" height="24" viewBox="0 0 24 24" fill="none" xmlns="http://www.w3.org/2000/svg">
<path d="M9.54004 10.6611C9.32315 11.0588 9.2002 11.5151 9.2002 12C9.2002 13.5464 10.4536 14.7998 12 14.7998C12.4848 14.7998 12.9403 14.6758 13.3379 14.459L14.2109 15.332C13.5774 15.7532 12.8178 16 12 16C9.79086 16 8 14.2091 8 12C8 11.1821 8.24569 10.4217 8.66699 9.78809L9.54004 10.6611ZM12 8C14.2091 8 16 9.79086 16 12C16 12.2736 15.9722 12.5407 15.9199 12.7988L14.7754 11.6543C14.6188 10.3843 13.6149 9.37969 12.3447 9.22363L11.2002 8.0791C11.4586 8.02668 11.7262 8 12 8Z" fill="#222222"/>
<path d="M9.54004 10.6611C9.32315 11.0588 9.2002 11.5151 9.2002 12C9.2002 13.5464 10.4536 14.7998 12 14.7998C12.4848 14.7998 12.9403 14.6758 13.3379 14.459L14.2109 15.332C13.5774 15.7532 12.8178 16 12 16C9.79086 16 8 14.2091 8 12C8 11.1821 8.24569 10.4217 8.66699 9.78809L9.54004 10.6611ZM12 8C14.2091 8 16 9.79086 16 12C16 12.2736 15.9722 12.5407 15.9199 12.7988L14.7754 11.6543C14.6188 10.3843 13.6149 9.37969 12.3447 9.22363L11.2002 8.0791C11.4586 8.02668 11.7262 8 12 8Z" fill="#222222"/>
<path d="M7.28888 8.40979C5.99501 9.36644 4.94377 10.5034 4.27521 11.3151C4.0704 11.5637 3.95893 11.7014 3.89044 11.816C3.8375 11.9048 3.82993 11.949 3.8299 11.9996C3.8299 12.0503 3.83756 12.0945 3.89044 12.1832C3.95889 12.2979 4.07044 12.4356 4.27521 12.6842C4.96733 13.5245 6.06842 14.7155 7.4256 15.692C8.78774 16.672 10.3573 17.4 11.9998 17.4C13.168 17.4 14.2986 17.0307 15.3445 16.4655L16.2254 17.3463C14.9753 18.0728 13.5414 18.5992 11.9998 18.5992C10.0068 18.5992 8.19222 17.7217 6.72443 16.6656C5.25212 15.6063 4.07629 14.3306 3.34845 13.4469C3.0038 13.0285 2.6297 12.6166 2.6297 11.9996C2.62986 11.3827 3.0038 10.9708 3.34845 10.5524C4.02718 9.72833 5.09464 8.56285 6.4295 7.55042L7.28888 8.40979ZM11.9998 5.40002C13.9928 5.40002 15.8074 6.27767 17.2752 7.33362C18.7475 8.39291 19.9233 9.66864 20.6512 10.5524C20.9958 10.9708 21.3698 11.3827 21.3699 11.9996C21.3699 12.6167 20.9959 13.0284 20.6512 13.4469C20.1695 14.0318 19.4892 14.7858 18.659 15.5377L17.8094 14.6881C18.6018 13.9754 19.2574 13.2512 19.7244 12.6842C19.9293 12.4355 20.0407 12.2979 20.1092 12.1832C20.1621 12.0944 20.1697 12.0504 20.1697 11.9996C20.1697 11.949 20.1621 11.9048 20.1092 11.816C20.0407 11.7014 19.9291 11.5636 19.7244 11.3151C19.0322 10.4747 17.9312 9.28366 16.574 8.30725C15.2119 7.32736 13.6423 6.59924 11.9998 6.59924C11.3344 6.59926 10.6812 6.72003 10.0486 6.92737L9.1131 5.99182C10.014 5.6283 10.9838 5.40005 11.9998 5.40002Z" fill="#7E869E" fill-opacity="0.25"/>
<path d="M5 2L21 18" stroke="#222222" stroke-width="1.2"/>
</svg>
