<svg width="24" height="24" viewBox="0 0 24 24" fill="none" xmlns="http://www.w3.org/2000/svg">
<path d="M11.7248 7.3818C12.4927 8.66636 12.9282 10.1221 12.9919 11.6174C13.0555 13.1127 12.7452 14.6002 12.0892 15.9453" stroke="#33363F" stroke-width="2"/>
<path d="M14 5C11.1857 7.81427 3.97138 11.5086 3.0889 11.9552C3.05214 11.9738 3.05214 12.0262 3.0889 12.0448C3.97137 12.4914 11.1857 16.1857 14 19" stroke="#33363F" stroke-width="2" stroke-linecap="round"/>
<path d="M16 12H21" stroke="#33363F" stroke-width="2" stroke-linecap="round"/>
<path d="M16 9L21 7" stroke="#33363F" stroke-width="2" stroke-linecap="round"/>
<path d="M16 15L21 17" stroke="#33363F" stroke-width="2" stroke-linecap="round"/>
<path d="M12.8643 7.37073C13.2216 8.05498 13.4954 8.7761 13.6855 9.51819C13.2051 9.19119 12.625 8.99963 12 8.99963C10.3431 8.99963 9 10.3428 9 11.9996C9 13.6565 10.3431 14.9996 12 14.9996C12.6252 14.9996 13.205 14.8073 13.6855 14.4801C13.4705 15.3197 13.1481 16.1315 12.7207 16.8932L4 11.9996L12.8643 7.37073Z" fill="#33363F"/>
</svg>
