<svg width="24" height="24" viewBox="0 0 24 24" fill="none" xmlns="http://www.w3.org/2000/svg">
<path d="M16 3C18.8284 3 20.2424 3.00023 21.1211 3.87891C21.9998 4.75759 22 6.17157 22 9V11H16C14.3431 11 13 12.3431 13 14C13 15.6569 14.3431 17 16 17H22C22 17.93 21.9997 18.3949 21.8975 18.7764C21.6201 19.8116 20.8116 20.6201 19.7764 20.8975C19.3949 20.9997 18.93 21 18 21H8C5.17157 21 3.75759 20.9998 2.87891 20.1211C2.00023 19.2424 2 17.8284 2 15V9C2 6.17157 2.00023 4.75759 2.87891 3.87891C3.75759 3.00023 5.17157 3 8 3H16ZM7 7C6.44772 7 6 7.44772 6 8C6 8.55228 6.44772 9 7 9H10C10.5523 9 11 8.55228 11 8C11 7.44772 10.5523 7 10 7H7Z" fill="#222222"/>
<path d="M17 14H16" stroke="#222222" stroke-width="2" stroke-linecap="round"/>
</svg>
