<svg width="24" height="24" viewBox="0 0 24 24" fill="none" xmlns="http://www.w3.org/2000/svg">
<path d="M18.15 11H17.5V13H18.15C18.6194 13 19 12.6194 19 12.15V11.85C19 11.3806 18.6194 11 18.15 11Z" fill="#33363F"/>
<path d="M12 5C15.866 5 19 8.13401 19 12C19 15.866 15.866 19 12 19C8.13401 19 5 15.866 5 12C5 8.13401 8.13401 5 12 5ZM11.4746 8.8418C11.3873 8.57983 11.1038 8.43807 10.8418 8.52539C10.5798 8.61271 10.4381 8.89623 10.5254 9.1582L11.4893 12.0479C11.559 12.2571 11.7172 12.4249 11.9219 12.5068L14.3145 13.4648C14.5706 13.5672 14.8612 13.4425 14.9639 13.1865C15.0665 12.9301 14.9419 12.6387 14.6855 12.5361L12.4004 11.6221L11.4746 8.8418Z" fill="#33363F"/>
<path d="M15.2133 21.2871C15.0865 21.71 14.6978 21.9998 14.2563 22H9.74359C9.30215 21.9998 8.91342 21.71 8.78656 21.2871L8.09515 18.9805C9.25043 19.6281 10.5818 20 12.0004 20C13.4189 19.9999 14.7496 19.628 15.9047 18.9805L15.2133 21.2871ZM14.2563 2C14.6978 2.00015 15.0865 2.29002 15.2133 2.71289L15.9047 5.01855C14.7497 4.37115 13.4187 4.00008 12.0004 4C10.582 4 9.25033 4.37106 8.09515 5.01855L8.78656 2.71289C8.91342 2.29004 9.30215 2.00018 9.74359 2H14.2563Z" fill="#33363F"/>
</svg>
