<svg width="24" height="24" viewBox="0 0 24 24" fill="none" xmlns="http://www.w3.org/2000/svg">
<path d="M11.0002 20.943C9.0311 20.7253 7.25386 19.8741 5.87717 18.5953C6.16459 18.2251 6.52064 17.8745 6.94357 17.5573C7.58663 17.075 8.36403 16.6825 9.23557 16.4117C9.79992 16.2364 10.3932 16.1148 11.0002 16.0514V20.943ZM13.0002 16.0514C13.6072 16.1148 14.2005 16.2364 14.7649 16.4117C15.6365 16.6825 16.4138 17.075 17.0569 17.5573C17.4793 17.8741 17.8341 18.2247 18.1213 18.5944C16.7448 19.8728 14.969 20.7253 13.0002 20.943V16.0514ZM11.0002 12.9996V14.0436C10.1939 14.1131 9.3998 14.2661 8.64182 14.5016C7.5726 14.8338 6.58582 15.3249 5.74338 15.9567C5.30165 16.288 4.90293 16.6573 4.55392 17.0573C3.74991 15.8757 3.22081 14.4926 3.05588 12.9996H11.0002ZM20.9436 12.9996C20.7786 14.4927 20.2496 15.8756 19.4455 17.0573C19.0966 16.6574 18.6987 16.2879 18.257 15.9567C17.4146 15.3249 16.4279 14.8338 15.3586 14.5016C14.6006 14.2661 13.8066 14.1132 13.0002 14.0436V12.9996H20.9436ZM19.4445 6.94299C20.2487 8.12441 20.7784 9.50679 20.9436 10.9996H13.0002V9.95471C13.8066 9.88513 14.6006 9.73315 15.3586 9.49768C16.4278 9.16545 17.4146 8.67439 18.257 8.0426C18.6983 7.71162 19.0958 7.34251 19.4445 6.94299ZM4.5549 6.94299C4.90376 7.34269 5.3019 7.71149 5.74338 8.0426C6.58589 8.67445 7.57247 9.16544 8.64182 9.49768C9.39984 9.73316 10.1938 9.88514 11.0002 9.95471V10.9996H3.05588C3.22103 9.50688 3.75085 8.12437 4.5549 6.94299ZM11.0002 7.9469C10.3932 7.88347 9.79995 7.76285 9.23557 7.58752C8.36389 7.31673 7.58668 6.92435 6.94357 6.44202C6.5209 6.125 6.16547 5.77486 5.87814 5.40491C7.25477 4.12654 9.03141 3.27389 11.0002 3.05627V7.9469ZM13.0002 3.05627C14.9687 3.27395 16.7448 4.12679 18.1213 5.40491C17.8341 5.77468 17.4793 6.12513 17.0569 6.44202C16.4138 6.92429 15.6364 7.31673 14.7649 7.58752C14.2005 7.76284 13.6072 7.88346 13.0002 7.9469V3.05627Z" fill="#33363F"/>
</svg>
