<svg width="24" height="24" viewBox="0 0 24 24" fill="none" xmlns="http://www.w3.org/2000/svg">
<path d="M12.4999 9.48438C13.5748 9.42675 14.6213 9.18607 15.5682 8.77539C16.6246 8.31722 17.5216 7.66556 18.1913 6.88184L18.5721 7.20605L18.952 7.53125C18.1743 8.44155 17.1484 9.18043 15.9657 9.69336C14.8899 10.1599 13.7075 10.4269 12.4999 10.4854V13.5137C13.7076 13.5721 14.8899 13.8401 15.9657 14.3066C17.1484 14.8196 18.1743 15.5584 18.952 16.4688L18.5721 16.7939L18.1913 17.1182C17.5216 16.3344 16.6246 15.6828 15.5682 15.2246C14.6213 14.8139 13.5748 14.5723 12.4999 14.5146V20H11.4999V14.5156C10.5105 14.5687 9.54299 14.7766 8.65417 15.1318C7.57858 15.5618 6.65353 16.1893 5.95105 16.9561L5.58289 16.6182L5.21375 16.2812C6.02693 15.3937 7.08113 14.6835 8.28308 14.2031C9.29242 13.7997 10.3863 13.5676 11.4999 13.5137V10.4854C10.3863 10.4314 9.29241 10.2003 8.28308 9.79688C7.08113 9.31646 6.02693 8.60629 5.21375 7.71875L5.58289 7.38184L5.95105 7.04395C6.65353 7.81066 7.57858 8.43824 8.65417 8.86816C9.54298 9.22339 10.5105 9.43033 11.4999 9.4834V4H12.4999V9.48438Z" fill="#2A4157" fill-opacity="0.24"/>
<circle cx="12" cy="12" r="8" stroke="#222222" stroke-width="1.2"/>
</svg>
