<svg width="24" height="24" viewBox="0 0 24 24" fill="none" xmlns="http://www.w3.org/2000/svg">
<path d="M12.5 8.48535C13.4759 8.43715 14.43 8.25084 15.3086 7.93262C16.3544 7.55382 17.2587 7.00414 17.957 6.33398L18.3037 6.69434L18.6494 7.05566C17.8387 7.83361 16.8103 8.45254 15.6494 8.87305C14.6586 9.23192 13.5887 9.43745 12.5 9.48633V11.5H20V12.5H12.5V14.5117C13.606 14.5613 14.6922 14.7746 15.6953 15.1436C16.8304 15.5611 17.8372 16.1688 18.6348 16.9297L18.2891 17.292L17.9443 17.6533C17.257 16.9976 16.3717 16.458 15.3496 16.082C14.4603 15.755 13.4918 15.5616 12.5 15.5127V20H11.5V15.5137C10.546 15.5607 9.61254 15.7403 8.75 16.0459C7.72021 16.4107 6.8238 16.9411 6.12305 17.5898L5.78418 17.2236L5.44434 16.8564C6.25599 16.105 7.27333 15.5084 8.41602 15.1035C9.38846 14.759 10.4354 14.5605 11.5 14.5127V12.5H4V11.5H11.5V9.48828C10.3683 9.43738 9.25742 9.21477 8.23535 8.83008C7.08261 8.39615 6.06606 7.76543 5.27051 6.97754L5.62207 6.62207L5.97461 6.2666C6.65856 6.94396 7.55034 7.50401 8.58789 7.89453C9.49393 8.23555 10.4847 8.43718 11.5 8.4873V4H12.5V8.48535Z" fill="#2A4157" fill-opacity="0.24"/>
<circle cx="12" cy="12" r="8" stroke="#222222"/>
</svg>
