<svg width="24" height="24" viewBox="0 0 24 24" fill="none" xmlns="http://www.w3.org/2000/svg">
<path d="M11 20.9427C8.8883 20.7092 6.99787 19.7463 5.58496 18.3099C5.91572 17.7152 6.38211 17.1607 6.97363 16.6801C7.61737 16.157 8.39261 15.7339 9.25781 15.4427C9.81544 15.2551 10.4012 15.1264 11 15.058V20.9427ZM13 15.058C13.5988 15.1264 14.1846 15.2551 14.7422 15.4427C15.6074 15.7339 16.3826 16.157 17.0264 16.6801C17.6178 17.1606 18.0833 17.7153 18.4141 18.3099C17.0012 19.746 15.1115 20.7093 13 20.9427V15.058ZM4.28418 7.36462C4.68041 7.91492 5.15963 8.42291 5.71289 8.87244C7.16479 10.052 9.03255 10.7689 11 10.9515V13.0472C10.1855 13.1228 9.38383 13.2899 8.61914 13.5472C7.54343 13.9093 6.55471 14.4443 5.71289 15.1283C5.16343 15.5748 4.68312 16.0812 4.28418 16.6351C3.46918 15.2813 3.00004 13.6957 3 12.0004C3 10.3048 3.469 8.71858 4.28418 7.36462ZM19.7148 7.36462C20.5302 8.71867 21 10.3046 21 12.0004C21 13.6959 20.53 15.2812 19.7148 16.6351C19.316 16.0814 18.8364 15.5746 18.2871 15.1283C17.4453 14.4443 16.4566 13.9093 15.3809 13.5472C14.6162 13.2899 13.8145 13.1228 13 13.0472V10.9515C14.9674 10.7689 16.8352 10.052 18.2871 8.87244C18.8402 8.42304 19.3187 7.91474 19.7148 7.36462ZM11 8.94177C9.46363 8.76639 8.04815 8.19363 6.97363 7.32068C6.37669 6.83566 5.91337 6.28026 5.58496 5.68884C6.99782 4.2529 8.8886 3.28946 11 3.05603V8.94177ZM13 3.05603C15.1112 3.28943 17.0013 4.25317 18.4141 5.68884C18.0857 6.28011 17.6232 6.83577 17.0264 7.32068C15.9519 8.19363 14.5364 8.76639 13 8.94177V3.05603Z" fill="#33363F"/>
</svg>
