<svg width="54" height="51" viewBox="0 0 54 51" fill="none" xmlns="http://www.w3.org/2000/svg">
<path d="M13.7098 1.55293C17.2709 1.10093 20.5241 3.6208 20.9764 7.18183L20.9783 7.19258L21.9529 15.345C22.993 14.6654 24.2428 14.2831 25.5799 14.3167C26.9818 14.3519 28.2654 14.8409 29.2957 15.636C30.622 14.3927 32.4199 13.6472 34.3836 13.6965C35.8971 13.7346 37.2882 14.2393 38.4246 15.0676L39.0975 10.0198C39.561 6.54381 42.7552 4.10134 46.2312 4.56465C49.7072 5.02814 52.1496 8.22241 51.6863 11.6985L47.6805 41.7482C47.6059 42.3078 47.4583 42.842 47.2508 43.3429C47.2172 43.7073 47.1528 44.0733 47.0535 44.4367C46.1321 47.8075 42.6529 49.7934 39.282 48.8722L6.16187 39.8205C2.79088 38.8991 0.804104 35.419 1.72535 32.048C2.61787 28.7824 5.91172 26.8166 9.1814 27.5344L9.49781 27.6124L9.51538 27.6173L9.53199 27.6222L10.5027 27.9123L8.07984 8.81953C7.62783 5.2583 10.1486 2.00501 13.7098 1.55293Z" fill="black"/>
<path d="M21.4155 15.1434C21.4156 14.898 21.2167 14.699 20.9713 14.6989C20.7258 14.6988 20.5268 14.8977 20.5267 15.1431L20.5199 36.3684C20.5198 36.6139 20.7188 36.8129 20.9642 36.813C21.2096 36.8131 21.4087 36.6141 21.4088 36.3687L21.4155 15.1434Z" fill="white"/>
<path d="M29.7472 15.1265C29.7534 14.9123 29.5849 14.7336 29.3707 14.7274C29.1565 14.7211 28.9778 14.8897 28.9716 15.1039L28.3492 36.433C28.343 36.6471 28.5115 36.8258 28.7257 36.8321C28.9399 36.8383 29.1186 36.6698 29.1248 36.4556L29.7472 15.1265Z" fill="white"/>
<path d="M39.7606 14.6893C39.7788 14.4534 39.6023 14.2475 39.3665 14.2294C39.1306 14.2112 38.9247 14.3877 38.9066 14.6236L37.1381 37.6035C37.12 37.8394 37.2964 38.0453 37.5323 38.0634C37.7681 38.0816 37.974 37.9051 37.9922 37.6693L39.7606 14.6893Z" fill="white"/>
</svg>
